<?xml version="1.0" standalone="no"?>
<!DOCTYPE svg PUBLIC "-//W3C//DTD SVG 1.1//EN" "http://www.w3.org/Graphics/SVG/1.1/DTD/svg11.dtd" >
<svg xmlns="http://www.w3.org/2000/svg" xmlns:xlink="http://www.w3.org/1999/xlink" version="1.1">
<metadata>
Created by FontForge 20170731 at Mon Feb  7 23:35:42 2022
 By Aleksey,,,
Copyright (c) 2010 by Eduardo Manso. All rights reserved.
</metadata>
<defs>
<font id="ABCText-RgIt" horiz-adv-x="0" >
  <font-face 
    font-family="Rg It"
    font-weight="400"
    font-style="italic"
    font-stretch="normal"
    units-per-em="2048"
    panose-1="0 0 0 0 0 0 0 0 0 0"
    ascent="1638"
    descent="-410"
    x-height="1059"
    cap-height="1391"
    bbox="-330 -373 2896 1851"
    underline-thickness="102"
    underline-position="-307"
    unicode-range="U+0020-FB02"
  />
<missing-glyph horiz-adv-x="927" 
d="M94 1319v72h756v-72h-756zM516 688l236 -565h-99l-184 457l-182 -457h-101l238 565l-242 567h101l186 -456l186 456h101zM94 0v72h756v-72h-756z" />
    <glyph glyph-name="fi" unicode="fi" horiz-adv-x="1277" 
d="M1165 1059l-157 -883q-10 -63 26 -63q24 0 59 38.5t58 77.5l23 39l57 -32l-11 -27.5t-33 -61.5t-56.5 -78t-82.5 -61.5t-110 -27.5q-80 0 -117 52t-24 126l133 760h-461l-143 -883q-33 -197 -131.5 -297t-241.5 -100q-21 0 -41.5 2t-37.5 5.5t-33 8t-27.5 8.5t-22.5 9
t-17 8.5t-12 6.5l-6 3q2 60 22.5 113.5t39.5 77.5l20 24l121 -21q-41 -61 -51 -145q20 -4 35 -4q34 0 61.5 17.5t44.5 42.5t31 65.5t21 74.5t14 80l145 904h-147l14 81l152 29l12 74q16 99 64.5 177t119.5 126t156 73t178 25q37 0 73 -3t64.5 -7.5t55.5 -10.5t46.5 -12
t37.5 -12.5t28 -11t18 -8.5l9 -4q-2 -62 -22.5 -119t-40.5 -83l-19 -26l-135 21q39 61 49 145q-73 33 -162 33q-75 0 -132.5 -24.5t-92.5 -67t-55 -89.5t-29 -102l-17 -94h359q65 0 130 8t98 16l32 7h61z" />
    <glyph glyph-name="fl" unicode="fl" horiz-adv-x="1265" 
d="M1225 1503l-234 -1327q-10 -63 27 -63q24 0 59 38.5t57 77.5l23 39l57 -32q-2 -5 -5.5 -14.5t-16.5 -36t-28 -50.5t-40.5 -53.5t-53.5 -51t-67 -36t-81 -14.5q-80 0 -117.5 52t-24.5 126l213 1206q-88 41 -182 41q-75 0 -132.5 -24.5t-92.5 -67t-55 -89.5t-29 -102
l-17 -94h252l-20 -110h-248l-143 -883q-33 -197 -131.5 -297t-241.5 -100q-21 0 -41.5 2t-37.5 5.5t-33 8t-27.5 8.5t-22.5 9t-17 8.5t-12 6.5l-6 3q2 60 22.5 113.5t39.5 77.5l20 24l121 -21q-41 -61 -51 -145q20 -4 35 -4q34 0 61.5 17.5t44.5 42.5t31 65.5t21 74.5t14 80
l145 904h-147l14 81l152 29l12 74q16 99 64.5 177t119.5 126t156 73t178 25q125 0 225 -28l129 28h62z" />
    <glyph glyph-name=".notdef" horiz-adv-x="927" 
d="M94 1319v72h756v-72h-756zM516 688l236 -565h-99l-184 457l-182 -457h-101l238 565l-242 567h101l186 -456l186 456h101zM94 0v72h756v-72h-756z" />
    <glyph glyph-name=".null" 
 />
    <glyph glyph-name="nonmarkingreturn" horiz-adv-x="682" 
 />
    <glyph glyph-name="space" unicode=" " horiz-adv-x="428" 
 />
    <glyph glyph-name="exclam" unicode="!" horiz-adv-x="536" 
d="M209 373l55 940q17 45 57 71.5t85 26.5q51 0 88 -25.5t38 -72.5l-278 -940h-45zM180 -20q-53 0 -89 33t-36 81q0 60 43.5 103t100.5 43q52 0 87.5 -33.5t35.5 -83.5q0 -59 -43 -101t-99 -42z" />
    <glyph glyph-name="quotedbl" unicode="&#x22;" horiz-adv-x="718" 
d="M211 932v381q6 43 39.5 70.5t79.5 27.5q44 0 72 -28.5t24 -69.5l-139 -381h-76zM510 932v381q6 43 39.5 70.5t79.5 27.5q44 0 72 -28.5t24 -69.5l-139 -381h-76z" />
    <glyph glyph-name="numbersign" unicode="#" horiz-adv-x="1273" 
d="M236 639l16 127h209l127 274h143l-127 -274h293l127 274h143l-127 -274h136l-17 -127h-178l-111 -236h172l-16 -127h-215l-127 -276h-143l127 276h-291l-127 -276h-144l127 276h-131l17 127h174l108 236h-165zM545 639l-109 -236h291l111 236h-293z" />
    <glyph glyph-name="dollar" unicode="$" horiz-adv-x="1185" 
d="M522 -139h-106l20 123q-220 14 -403 102l22 109q7 36 10 92.5t2 95.5l-1 39l112 24q50 -106 68 -268q100 -67 211 -80l88 498l-58 29q-120 56 -193 142t-73 191q0 73 25 134t67.5 102.5t101 71t123.5 44t136 17.5l22 127h107l-23 -127q86 -6 197 -33.5t156 -31.5l-19 -99
q-7 -38 -9.5 -89.5t-1.5 -83.5l1 -32l-94 -22q-49 74 -76 213q-79 50 -174 63l-74 -419l113 -52q256 -121 256 -335q0 -179 -140.5 -300.5t-371.5 -125.5zM430 1020q0 -108 158 -180l65 374q-109 -7 -166 -61.5t-57 -132.5zM657 545l-14 6l-80 -453q120 12 189 78t69 170
q0 65 -40 112.5t-124 86.5z" />
    <glyph glyph-name="percent" unicode="%" horiz-adv-x="1433" 
d="M682 1075q0 -186 -86.5 -303t-218.5 -117q-109 0 -170.5 66.5t-61.5 189.5q0 182 91 300t225 118q104 0 162.5 -68.5t58.5 -185.5zM375 0h-129l817 1309h125zM535 1108q0 154 -82 154q-45 0 -78 -40t-49 -103t-23.5 -123t-7.5 -117q0 -154 88 -154q45 0 77.5 42.5
t47.5 109t21 123.5t6 108zM1288 397q0 -184 -87.5 -300.5t-219.5 -116.5q-109 0 -170 66.5t-61 189.5q0 182 91 299.5t226 117.5q104 0 162.5 -69.5t58.5 -186.5zM1141 432q0 154 -84 154q-44 0 -77 -40t-49.5 -103t-24 -124t-7.5 -118q0 -152 88 -152q37 0 65.5 29.5
t44.5 72.5t26.5 98.5t14 99.5t3.5 83z" />
    <glyph glyph-name="ampersand" unicode="&#x26;" horiz-adv-x="1429" 
d="M993 1159q0 -68 -26.5 -126.5t-64 -97t-94 -72t-99.5 -51.5t-97 -36q48 -94 115 -188q86 -126 197 -246q121 142 237 403l66 -24q-74 -272 -221 -459q123 -110 200 -110q40 0 81.5 43.5t70.5 91.5l59 -35q-97 -272 -266 -272q-139 0 -295 133q-172 -133 -395 -133
q-55 0 -108.5 9t-111 33t-100 62t-70.5 101.5t-28 144.5q0 77 26.5 144.5t63.5 112.5t87.5 83t88 57.5t76.5 34.5q-57 142 -57 268q0 86 25 154t64 109.5t90.5 69t100.5 38t99 10.5q130 0 208 -70.5t78 -181.5zM528 1087q0 -109 54 -239q35 20 62 37.5t62 48t58.5 62.5
t40 77t16.5 94q0 64 -35 102t-92 38q-80 0 -123 -58.5t-43 -161.5zM557 457q-84 116 -139 229q-158 -126 -158 -311q0 -59 17.5 -104t43.5 -71.5t61 -43t65.5 -22t62.5 -5.5q134 0 254 72q-109 118 -207 256z" />
    <glyph glyph-name="quotesingle" unicode="'" horiz-adv-x="419" 
d="M211 932v381q6 43 39.5 70.5t79.5 27.5q44 0 72 -28.5t24 -69.5l-139 -381h-76z" />
    <glyph glyph-name="parenleft" unicode="(" horiz-adv-x="645" 
d="M430 -207l-80 -67q-270 299 -270 700q0 161 34.5 304t86.5 248t133.5 205t155.5 167.5t172 142.5l57 -68q-83 -68 -150.5 -139.5t-131.5 -166.5t-106.5 -200t-68.5 -239.5t-26 -284.5q0 -188 53 -343t141 -259z" />
    <glyph glyph-name="parenright" unicode=")" horiz-adv-x="645" 
d="M215 1425l80 68q270 -299 270 -700q0 -161 -34 -304t-86.5 -248t-133.5 -205t-155 -167.5t-172 -142.5l-58 67q83 68 150.5 139.5t131.5 166.5t107 200t69 239.5t26 284.5q0 188 -53.5 343t-141.5 259z" />
    <glyph glyph-name="asterisk" unicode="*" horiz-adv-x="942" 
d="M301 698l-61 31l157 268l-260 35l13 70l270 26l-62 256l72 29l119 -223l196 223l62 -29l-152 -256q132 -15 263 -26l-13 -70l-276 -35q32 -144 63 -268l-71 -31l-119 226zM528 1001q25 0 41.5 16.5t16.5 41.5q0 23 -17 40t-41 17q-23 0 -40 -17t-17 -40q0 -25 16.5 -41.5
t40.5 -16.5z" />
    <glyph glyph-name="plus" unicode="+" horiz-adv-x="1024" 
d="M98 535v137h346v346h138v-346h344v-137h-344v-345h-138v345h-346z" />
    <glyph glyph-name="comma" unicode="," horiz-adv-x="575" 
d="M-43 -215l-18 43q16 11 42 28.5t79 62.5t75 79q-28 12 -44.5 39t-16.5 61q0 62 38 101t103 39q54 0 86.5 -35t32.5 -82q0 -54 -22.5 -102t-59 -83.5t-87 -65.5t-101.5 -50t-107 -35z" />
    <glyph glyph-name="hyphen" unicode="-" horiz-adv-x="706" 
d="M111 477v150h485v-150h-485z" />
    <glyph glyph-name="period" unicode="." horiz-adv-x="575" 
d="M184 -20q-52 0 -85 31t-33 77q0 63 43.5 107.5t105.5 44.5q53 0 86 -32t33 -79q0 -63 -44 -106t-106 -43z" />
    <glyph glyph-name="slash" unicode="/" horiz-adv-x="833" 
d="M2 -342l633 1825h143l-633 -1825h-143z" />
    <glyph glyph-name="zero" unicode="0" horiz-adv-x="1177" 
d="M510 -20q-204 0 -318 134t-114 371q0 187 46 346.5t125.5 267.5t186.5 169t228 61q206 0 321 -134.5t115 -377.5t-76.5 -434.5t-211 -297t-302.5 -105.5zM518 86q68 0 124 37.5t93.5 102.5t65.5 145t43.5 172t22.5 175t7 163q0 157 -52.5 250.5t-159.5 93.5
q-76 0 -138.5 -49t-103.5 -128.5t-69 -185t-40 -214.5t-12 -220q0 -159 55 -250.5t164 -91.5z" />
    <glyph glyph-name="one" unicode="1" horiz-adv-x="759" 
d="M-76 0l13 68l258 57l172 973h-84q-70 0 -122 4t-69 8l-16 4l10 66q11 1 30.5 3.5t77.5 13.5t113.5 26t127.5 43.5t130 62.5l62 -22l-209 -1182l244 -57l-13 -68h-725z" />
    <glyph glyph-name="two" unicode="2" horiz-adv-x="1107" 
d="M-33 0v109q20 14 99.5 68t128 88t134 98t141.5 113t124 117.5t108.5 126.5t68.5 125.5t28 127.5q0 89 -54 135.5t-145 46.5q-112 0 -209 -55.5t-170 -147.5l-59 49q24 43 54.5 84t78 87t101 79.5t126 55.5t150.5 22q170 0 266 -87.5t96 -237.5q0 -279 -404 -582
q-111 -83 -355 -235q-22 -13 -37 -23v-6h524q27 54 65.5 102t62.5 69l25 21l62 -22q-41 -119 -59 -215l-19 -113h-932z" />
    <glyph glyph-name="three" unicode="3" horiz-adv-x="1028" 
d="M365 -20q-123 0 -238.5 32.5t-157.5 73.5q11 64 33.5 126.5t39.5 93.5t21 32h93q-9 -129 18 -201q88 -51 201 -51q139 0 225 83t86 239q0 51 -17.5 90.5t-44.5 64.5t-69 43t-82 27t-92 16l39 92q57 4 101.5 12.5t87.5 28t71.5 48.5t45.5 76t17 108q0 83 -53.5 121.5
t-142.5 38.5q-91 0 -187 -49t-159 -117l-51 45q62 113 186.5 194.5t284.5 81.5q163 0 254.5 -75.5t91.5 -196.5q0 -60 -17 -109.5t-42.5 -82t-63.5 -59.5t-71.5 -42.5t-74.5 -28.5v-4q41 -13 78 -37t72 -60t55.5 -89t20.5 -115q0 -138 -73.5 -241.5t-199.5 -156t-286 -52.5z
" />
    <glyph glyph-name="four" unicode="4" horiz-adv-x="1128" 
d="M10 356v72l791 881h203l-150 -842h170l-18 -111h-172l-43 -243l149 -45l-10 -68h-539l12 68l168 45l41 243h-602zM733 1067l-536 -600h436l106 600h-6z" />
    <glyph glyph-name="five" unicode="5" horiz-adv-x="1062" 
d="M379 -20q-117 0 -224 28.5t-143 67.5q4 66 23.5 131.5t34 96t18.5 34.5h94q-8 -125 21 -201q2 -1 13 -7t18.5 -9.5t21 -10t27 -10.5t30.5 -8t36 -6t40 -2q154 0 244 83.5t90 246.5q0 245 -342 245q-114 0 -209 -20l-6 8l143 662h727l-55 -185h-575l-72 -311q90 8 131 8
q102 0 188 -20.5t155 -62.5t107.5 -112.5t38.5 -164.5q0 -229 -158 -355t-417 -126z" />
    <glyph glyph-name="six" unicode="6" horiz-adv-x="1107" 
d="M514 -20q-204 0 -320 121t-116 329q0 191 48 356t135 285.5t216.5 189t286.5 68.5q67 0 125 -13t93 -31t61 -37.5t36.5 -31.5t10.5 -14l-60 -74q-10 8 -29 20t-83 32t-134 20q-89 0 -164.5 -39t-130.5 -108t-94 -157t-63 -194q130 117 315 117q165 0 267 -95.5
t102 -254.5q0 -112 -40.5 -205.5t-109.5 -155t-159.5 -95t-192.5 -33.5zM580 688q-77 0 -152.5 -45t-122.5 -121q-6 -65 -6 -131q0 -149 57.5 -227t169.5 -78q122 0 193.5 103.5t71.5 271.5q0 112 -55 169.5t-156 57.5z" />
    <glyph glyph-name="seven" unicode="7" horiz-adv-x="1032" 
d="M113 0v49l782 1079h-580q-24 -46 -62 -98t-65 -81l-26 -29l-80 18q52 166 68 258l20 113h879v-168l-764 -1141h-172z" />
    <glyph glyph-name="eight" unicode="8" horiz-adv-x="1077" 
d="M471 -20q-96 0 -173 16t-137.5 50t-94 92.5t-33.5 137.5q0 54 19.5 107t59 104t108.5 93.5t159 66.5q-176 110 -176 303q0 118 62.5 206t161 130.5t216.5 42.5q166 0 263.5 -81t97.5 -197q0 -112 -78.5 -198.5t-208.5 -127.5h2q132 -73 193 -155t61 -183
q0 -110 -60.5 -202t-176.5 -148.5t-265 -56.5zM414 1014q0 -123 131 -195l90 -49q180 103 180 266q0 77 -45.5 133t-142.5 56q-59 0 -102 -18.5t-66.5 -50t-34 -67t-10.5 -75.5zM602 532l-145 74q-105 -55 -163 -136.5t-58 -168.5q0 -92 62 -152.5t179 -60.5q140 0 205.5 64
t65.5 170q0 133 -146 210z" />
    <glyph glyph-name="nine" unicode="9" horiz-adv-x="1114" 
d="M352 -20q-67 0 -125 13t-93.5 31t-61.5 37t-36.5 31t-10.5 14l59 74q4 -3 11 -7.5t31 -17t50.5 -22t68 -17t85.5 -7.5q90 0 165.5 38.5t130.5 108t93.5 157.5t62.5 195q-132 -119 -315 -119q-165 0 -267 96t-102 255q0 112 40.5 205.5t109.5 155t160.5 95t193.5 33.5
q203 0 318.5 -121t115.5 -329q0 -257 -81 -459.5t-238 -321t-365 -118.5zM535 621q76 0 150.5 43.5t123.5 119.5q6 65 6 134q0 149 -57.5 227t-169.5 78q-122 0 -193 -103.5t-71 -271.5q0 -112 55 -169.5t156 -57.5z" />
    <glyph glyph-name="colon" unicode=":" horiz-adv-x="575" 
d="M319 797q-46 0 -76 32.5t-30 77.5q0 61 45.5 105.5t108.5 44.5q47 0 77.5 -32.5t30.5 -80.5q0 -58 -47 -102.5t-109 -44.5zM176 -20q-49 0 -79.5 31.5t-30.5 78.5q0 61 47 105.5t110 44.5q47 0 78 -32.5t31 -80.5q0 -60 -47 -103.5t-109 -43.5z" />
    <glyph glyph-name="semicolon" unicode=";" horiz-adv-x="575" 
d="M322 797q-46 0 -77.5 32.5t-31.5 77.5q0 61 46.5 105.5t109.5 44.5q47 0 77.5 -32.5t30.5 -80.5q0 -58 -46.5 -102.5t-108.5 -44.5zM-43 -215l-18 43q16 11 42 28.5t79 62.5t75 79q-28 12 -44.5 39t-16.5 61q0 62 38 101t103 39q54 0 86.5 -35t32.5 -82q0 -54 -22.5 -102
t-59 -83.5t-87 -65.5t-101.5 -50t-107 -35z" />
    <glyph glyph-name="less" unicode="&#x3c;" horiz-adv-x="1024" 
d="M98 563v88l828 379v-153l-623 -267l623 -276v-152z" />
    <glyph glyph-name="equal" unicode="=" horiz-adv-x="1024" 
d="M98 725v137h828v-137h-828zM98 365v137h828v-137h-828z" />
    <glyph glyph-name="greater" unicode="&#x3e;" horiz-adv-x="1024" 
d="M926 651v-88l-828 -381v152l623 276l-623 267v153z" />
    <glyph glyph-name="question" unicode="?" horiz-adv-x="989" 
d="M344 1079l-154 -20q-22 108 7 198q37 36 85.5 67t136 59t183.5 28q175 0 278 -80t103 -223q0 -95 -32.5 -175t-84.5 -135.5t-122.5 -98t-140 -66.5t-144.5 -37l-66 -223h-74l17 362q31 5 47.5 7.5t55 11t64 17.5t63 25t63 35t54 47.5t45.5 61t28.5 77t11.5 95.5
q0 98 -61 144.5t-152 46.5q-94 0 -188 -58q-13 -41 -18.5 -82.5t-4.5 -62.5v-21zM295 -20q-49 0 -82 33t-33 83q0 58 46.5 101t105.5 43q46 0 79 -34t33 -83q0 -57 -46 -100t-103 -43z" />
    <glyph glyph-name="at" unicode="@" horiz-adv-x="1865" 
d="M1358 1024l-109 -606q-7 -39 -9.5 -61t-1 -52t16.5 -44.5t43 -14.5q55 0 107.5 29.5t96.5 86.5t70.5 153t26.5 216q0 91 -22.5 174t-69.5 155.5t-113.5 125.5t-161 83.5t-206.5 30.5q-217 0 -386.5 -103.5t-262 -286.5t-92.5 -414q0 -117 29 -214t74.5 -160t108.5 -111
t123.5 -74t129 -41.5t114 -20t88.5 -4.5q199 0 367 53l20 -71q-186 -91 -407 -91q-40 0 -82 3t-102 12.5t-116 25.5t-119 44.5t-117 66.5t-104 94.5t-85.5 124.5t-56.5 161.5t-21 201.5q0 195 65 364.5t181.5 290.5t284.5 190.5t366 69.5q177 0 318.5 -56t229.5 -151
t134.5 -216t46.5 -257q0 -126 -31.5 -229t-81 -168t-113 -109.5t-125.5 -63t-122 -18.5q-70 0 -118 18t-70.5 48.5t-30.5 63t-6 69.5l4 45l-10 2q-46 -95 -116 -156t-161 -61q-115 0 -182.5 78t-67.5 215q0 160 64 292t171 205.5t232 73.5q124 0 209 -73l100 73zM846 313
q81 0 153 104t97 247l32 190q-52 94 -145 94q-73 0 -131 -68t-87.5 -172.5t-29.5 -220.5q0 -174 111 -174z" />
    <glyph glyph-name="A" unicode="A" horiz-adv-x="1355" 
d="M-147 0l12 66l149 45l723 1280l133 20l277 -1300l125 -45l-10 -66h-533l12 66l168 45l-71 354h-482l-192 -354l147 -45l-10 -66h-448zM711 1102h-9l-290 -535h405z" />
    <glyph glyph-name="B" unicode="B" horiz-adv-x="1286" 
d="M-74 0l13 68l163 45l207 1165l-147 45l10 68h547q146 0 253.5 -32.5t170.5 -103.5t63 -176q0 -139 -89 -224t-247 -122v-4q135 -34 212 -110t77 -195q0 -107 -48.5 -189.5t-134.5 -133t-197.5 -76t-243.5 -25.5h-609zM694 1282h-159l-89 -500h158q179 0 274 78.5
t95 218.5q0 98 -70.5 150.5t-208.5 52.5zM651 674h-223l-102 -565h221q185 0 280 86.5t95 246.5q0 108 -69.5 170t-201.5 62z" />
    <glyph glyph-name="C" unicode="C" horiz-adv-x="1261" 
d="M1221 1036l-88 -20q-7 8 -19 23.5t-37 73.5t-37 128q-103 57 -247 57q-195 0 -327 -186.5t-132 -478.5q0 -226 107.5 -351.5t281.5 -125.5q72 0 132.5 17.5t109.5 52t82.5 67t74.5 82.5l47 -37q-22 -48 -51 -93.5t-75 -95t-100 -86t-128 -60t-156 -23.5q-259 0 -415 165
t-156 453q0 152 40 283.5t110.5 227.5t166 165t207 103t232.5 34q114 0 245.5 -23.5t161.5 -25.5l-20 -121q-7 -38 -9.5 -89.5t-1.5 -83.5z" />
    <glyph glyph-name="D" unicode="D" horiz-adv-x="1454" 
d="M-74 0l13 68l163 45l207 1165l-147 45l10 68h569q283 0 454 -157t171 -429q0 -184 -66.5 -338t-179 -255t-259.5 -156.5t-310 -55.5h-625zM717 1278h-185l-204 -1161h245q167 0 293.5 90t192 245.5t65.5 354.5q0 214 -109.5 342.5t-297.5 128.5z" />
    <glyph glyph-name="E" unicode="E" horiz-adv-x="1251" 
d="M868 537l-26 112l-418 4l-96 -538h546q33 69 73.5 136.5t64.5 100.5l24 33l70 -14q-50 -173 -66 -265l-18 -106h-1096l13 68l163 45l207 1165l-147 45l10 68h1051l-21 -107q-7 -41 -12.5 -103t-7.5 -103l-2 -42l-80 -16q-50 100 -68 256h-500l-90 -514l422 6l60 113h77
l-61 -344h-72z" />
    <glyph glyph-name="F" unicode="F" horiz-adv-x="1220" 
d="M874 483l-22 133l-434 5l-90 -508l168 -45l-13 -68h-557l13 68l163 45l207 1165l-147 45l10 68h1065l-18 -107q-7 -41 -13.5 -103t-9.5 -103l-2 -42l-78 -16q-49 100 -69 256h-515l-96 -547l438 6l64 133h78l-68 -385h-74z" />
    <glyph glyph-name="G" unicode="G" horiz-adv-x="1392" 
d="M1315 1044l-90 -20q-7 7 -19 21t-37.5 68t-38.5 122q-116 63 -270 63q-153 0 -274 -94.5t-188.5 -264t-67.5 -382.5q0 -221 109 -342t280 -121q88 0 172 39l65 373l-106 45l10 65h432l-12 -65l-104 -45l-66 -369l55 -14l-12 -66q-211 -77 -430 -77q-136 0 -249 35
t-200.5 105t-136.5 184t-49 263q0 199 65 361t176.5 266.5t257 160.5t310.5 56q90 0 247.5 -24.5t198.5 -24.5l-20 -111q-6 -38 -8 -90t-1 -85z" />
    <glyph glyph-name="H" unicode="H" horiz-adv-x="1470" 
d="M760 0l12 68l164 45l100 565h-608l-100 -565l147 -45l-12 -68h-537l13 68l163 45l207 1165l-147 45l10 68h537l-11 -68l-163 -45l-89 -487h611l86 487l-148 45l11 68h536l-12 -68l-164 -45l-207 -1165l150 -45l-13 -68h-536z" />
    <glyph glyph-name="I" unicode="I" horiz-adv-x="636" 
d="M-74 0l13 68l163 45l207 1165l-147 45l10 68h537l-11 -68l-163 -45l-207 -1165l147 -45l-12 -68h-537z" />
    <glyph glyph-name="J" unicode="J" horiz-adv-x="630" 
d="M-248 -362q-38 0 -82 6q1 21 6 45t11.5 47.5t14.5 45t16 42t14.5 34t12 25.5t5.5 13h127q-2 -11 -5 -28t-7.5 -62t2.5 -62q116 20 184 86l256 1448l-147 45l12 68h528l-12 -68l-156 -45l-258 -1454q-164 -186 -522 -186z" />
    <glyph glyph-name="K" unicode="K" horiz-adv-x="1378" 
d="M1243 0h-278q-84 45 -150 174l-227 463h-168l-92 -524l147 -45l-12 -68h-537l13 68l163 45l207 1165l-147 45l10 68h537l-11 -68l-163 -45l-95 -528h158l498 530l-138 45l11 66h458l-12 -66l-149 -45l-494 -504l246 -481q32 -61 67.5 -106.5t64 -67.5t53 -35t37.5 -16
l13 -2z" />
    <glyph glyph-name="L" unicode="L" horiz-adv-x="1128" 
d="M-74 0l13 68l163 45l207 1165l-147 45l10 68h537l-11 -68l-163 -45l-207 -1163h487q33 69 73.5 137.5t64.5 102.5l24 34l72 -14q-50 -172 -66 -264l-20 -111h-1037z" />
    <glyph glyph-name="M" unicode="M" horiz-adv-x="1673" 
d="M633 66l-199 854q-6 27 -10.5 65.5t-5.5 62.5l-2 25h-8l-170 -962l147 -45l-10 -66h-449l13 66l163 45l207 1169l-147 45l10 66h391l217 -1014h6l564 1014h397l-12 -66l-166 -45l-205 -1169l147 -45l-10 -66h-532l12 66l164 45l168 962h-8q-43 -100 -70 -147l-481 -860
h-121z" />
    <glyph glyph-name="N" unicode="N" horiz-adv-x="1447" 
d="M1010 0l-590 1114l-176 -1003l147 -45l-12 -66h-453l13 66l163 45l207 1169l-147 45l10 66h367l518 -981l153 870l-147 45l12 66h453l-12 -66l-164 -45l-228 -1280h-114z" />
    <glyph glyph-name="O" unicode="O" horiz-adv-x="1454" 
d="M657 -20q-255 0 -412 160t-157 433q0 192 58 352t156.5 265t228 163t274.5 58q260 0 410.5 -161.5t150.5 -440.5q0 -181 -57.5 -338t-154 -263.5t-226 -167t-271.5 -60.5zM653 94q110 0 201.5 63.5t149 169t89 237.5t31.5 274q0 133 -35.5 235.5t-109.5 163.5t-178 61
q-135 0 -242.5 -93.5t-169 -265.5t-61.5 -394q0 -204 87.5 -327.5t237.5 -123.5z" />
    <glyph glyph-name="P" unicode="P" horiz-adv-x="1271" 
d="M690 496q-87 0 -178 32l10 68h94q188 1 292 109t104 301q0 128 -76.5 199t-222.5 71h-181l-204 -1163l170 -45l-13 -68h-559l13 68l163 45l207 1165l-147 45l10 68h580q224 0 360.5 -101.5t136.5 -294.5q0 -152 -75.5 -267t-201.5 -173.5t-282 -58.5z" />
    <glyph glyph-name="Q" unicode="Q" horiz-adv-x="1454" 
d="M1112 -322h-295q-59 27 -97 61.5t-79 90.5l-121 160q-199 33 -315.5 182.5t-116.5 384.5q0 192 59.5 354.5t160.5 270.5t233.5 168.5t279.5 60.5q248 0 396.5 -156.5t148.5 -429.5q0 -163 -45.5 -307t-125 -249t-186.5 -176t-231 -97v-6l80 -78q133 -133 266 -168z
M653 94q110 0 201.5 63.5t149 169t89 237.5t31.5 274q0 133 -35.5 235.5t-109.5 163.5t-178 61q-135 0 -242.5 -93.5t-169 -265.5t-61.5 -394q0 -204 87.5 -327.5t237.5 -123.5z" />
    <glyph glyph-name="R" unicode="R" horiz-adv-x="1302" 
d="M1190 0h-285q-41 21 -77.5 77.5t-59.5 139.5l-109 387h-245l-86 -491l149 -45l-12 -68h-539l13 68l163 45l207 1165l-147 45l10 68h569q217 0 346.5 -90.5t129.5 -262.5q0 -150 -92 -249.5t-248 -139.5v-8l94 -299q23 -74 55 -129.5t62 -81.5t56 -42t42 -19l16 -2z
M709 1276h-177l-100 -563h334q32 16 55 29.5t55.5 41.5t52.5 59.5t35 81.5t15 109q0 115 -69.5 178.5t-200.5 63.5z" />
    <glyph glyph-name="S" unicode="S" horiz-adv-x="1144" 
d="M1073 1040l-90 -22q-7 8 -18.5 23.5t-34 71.5t-31.5 120q-105 65 -246 65q-127 0 -195.5 -60.5t-68.5 -150.5q0 -68 42 -112.5t128 -89.5l209 -105q119 -59 185.5 -148t66.5 -204q0 -191 -145.5 -319.5t-385.5 -128.5q-272 0 -495 106l20 109q6 36 9.5 92.5t3.5 95.5v39
l94 24q9 -12 22.5 -33.5t37.5 -92t28 -144.5q119 -80 268 -80q145 0 231.5 76t86.5 205q0 145 -174 231l-213 105q-100 49 -165 130.5t-65 186.5q0 98 42.5 173.5t114.5 119.5t158 66t183 22q119 0 254.5 -32.5t169.5 -35.5l-17 -98q-7 -38 -9.5 -89.5t-1.5 -83.5z" />
    <glyph glyph-name="T" unicode="T" horiz-adv-x="1239" 
d="M1278 1032l-80 -16q-49 104 -65 260h-295l-207 -1163l164 -45l-13 -68h-567l12 68l181 45l206 1163h-297q-34 -69 -73.5 -134t-62.5 -96l-23 -30l-70 16q48 160 64 252l18 107h1149l-19 -107q-7 -41 -12.5 -104t-7.5 -106z" />
    <glyph glyph-name="U" unicode="U" horiz-adv-x="1435" 
d="M631 -20q-215 0 -347 75.5t-167 220.5l178 1002l-152 45l13 68h536l-12 -68l-164 -45l-158 -897q-23 -128 58 -203.5t235 -75.5q145 0 256 77t135 210l156 889l-149 45l12 68h461l-13 -68l-163 -45l-175 -981q-74 -150 -211.5 -233.5t-328.5 -83.5z" />
    <glyph glyph-name="V" unicode="V" horiz-adv-x="1351" 
d="M612 -20h-123l-278 1300l-127 45l10 66h537l-10 -66l-166 -45l190 -985h4l539 985l-148 45l11 66h448l-12 -66l-148 -45z" />
    <glyph glyph-name="W" unicode="W" horiz-adv-x="2080" 
d="M553 -20h-125l-217 1300l-127 45l10 66h537l-10 -66l-168 -45l133 -973h6l465 930l-17 96l93 58h147l150 -1084h6l485 973l-149 45l12 66h446l-12 -66l-150 -45l-671 -1300h-125l-178 1044z" />
    <glyph glyph-name="X" unicode="X" horiz-adv-x="1314" 
d="M-147 0l10 66l139 45l543 571l-307 602l-132 41l13 66h516l-12 -66l-129 -39l225 -444l401 438l-116 45l10 66h422l-13 -66l-141 -45l-514 -539l324 -639l135 -36l-10 -66h-527l10 66l140 40l-242 472l-426 -467l121 -45l-12 -66h-428z" />
    <glyph glyph-name="Y" unicode="Y" horiz-adv-x="1308" 
d="M238 0l10 68l182 45l78 440l-305 727l-121 45l12 66h527l-13 -66l-157 -45l231 -596h4l465 596l-139 45l10 66h434l-12 -66l-141 -45l-570 -717l-80 -450l164 -45l-10 -68h-569z" />
    <glyph glyph-name="Z" unicode="Z" horiz-adv-x="1173" 
d="M227 985l-77 19q49 161 69 274l21 113h968l-20 -105l-959 -1171h615q29 68 70.5 140t68.5 110l27 38l82 -16q-45 -145 -68 -272l-20 -115h-1076l17 100l964 1176h-510q-19 -58 -62 -131t-77 -117z" />
    <glyph glyph-name="bracketleft" unicode="[" horiz-adv-x="698" 
d="M29 -254l307 1737h422l-21 -111h-241l-269 -1517h244l-20 -109h-422z" />
    <glyph glyph-name="backslash" unicode="\" horiz-adv-x="817" 
d="M506 -342l-297 1825h137l297 -1825h-137z" />
    <glyph glyph-name="bracketright" unicode="]" horiz-adv-x="698" 
d="M670 1483l-308 -1737h-421l20 111h242l268 1517h-244l21 109h422z" />
    <glyph glyph-name="asciicircum" unicode="^" horiz-adv-x="868" 
d="M770 750h-139l-201 471l-194 -471h-138l267 641h133z" />
    <glyph glyph-name="underscore" unicode="_" horiz-adv-x="1050" 
d="M-143 -291v127h1063v-127h-1063z" />
    <glyph glyph-name="grave" unicode="`" horiz-adv-x="591" 
d="M272 1499h25l299 -280l-45 -60l-367 211z" />
    <glyph glyph-name="a" unicode="a" horiz-adv-x="1183" 
d="M381 -20q-150 0 -231.5 97.5t-81.5 258.5q0 120 30.5 231.5t84.5 199.5t125.5 154.5t158 102t176.5 35.5q150 0 250 -96l108 96l72 -15l-155 -868q-9 -63 26 -63q24 0 59 38.5t57 77.5l23 39l58 -32q-3 -10 -9.5 -27.5t-31 -61.5t-54.5 -78t-81 -61.5t-109 -27.5
q-75 0 -111.5 55t-21.5 133l16 88l-10 2q-140 -278 -348 -278zM446 139q109 0 206 134t130 321l39 225q-67 133 -198 133q-98 0 -176 -91.5t-116 -222t-38 -265.5q0 -234 153 -234z" />
    <glyph glyph-name="b" unicode="b" horiz-adv-x="1159" 
d="M508 -20q-151 0 -258 81l-123 -84l-57 23l237 1346l-139 24l12 70l301 63h62l-86 -491q-11 -63 -25 -120.5t-22 -83.5l-9 -26l11 -2q30 59 61.5 104.5t75 87.5t100 64.5t121.5 22.5q150 0 236 -101t86 -262q0 -199 -73 -362.5t-207.5 -258.5t-303.5 -95zM356 444
l-45 -256q35 -43 89.5 -72.5t121.5 -29.5q72 0 131.5 35.5t98 93t65 134t38 156t11.5 161.5q0 233 -172 233q-111 0 -208 -133.5t-130 -321.5z" />
    <glyph glyph-name="c" unicode="c" horiz-adv-x="966" 
d="M854 719l-125 18q25 80 33 166q-66 49 -158 49q-156 0 -239.5 -138t-83.5 -363q0 -156 63 -234t174 -78q163 0 305 213l47 -24q-30 -96 -85.5 -173.5t-143.5 -128.5t-192 -51q-182 0 -281.5 108t-99.5 304q0 156 49 285.5t130 212.5t182 128.5t208 45.5q106 0 185 -30
t116 -71q-3 -60 -24 -119.5t-39 -89.5t-21 -30z" />
    <glyph glyph-name="d" unicode="d" horiz-adv-x="1202" 
d="M389 -20q-151 0 -236 99t-85 259q0 200 72.5 364t206.5 260.5t302 96.5q126 0 223 -60l64 347l-139 24l10 70l303 63h59l-233 -1327q-9 -63 27 -63q24 0 59 38.5t58 77.5l22 39l57 -32q-3 -10 -9.5 -27.5t-31 -61.5t-54.5 -78t-81 -61.5t-109 -27.5q-75 0 -111.5 55
t-21.5 133l17 88l-10 2q-30 -59 -61.5 -104.5t-75 -87t-100 -64t-122.5 -22.5zM465 139q108 0 205 133.5t131 321.5l47 254q-88 104 -211 104q-72 0 -131.5 -35.5t-98 -93t-65 -134t-38 -155.5t-11.5 -161q0 -234 172 -234z" />
    <glyph glyph-name="e" unicode="e" horiz-adv-x="987" 
d="M446 -20q-180 0 -279 102t-99 293q0 153 47 284t125 217t178 134.5t207 48.5q142 0 224.5 -67.5t82.5 -176.5q0 -65 -26 -119t-65 -90t-100.5 -64.5t-115 -44t-126.5 -27.5t-118 -16t-105 -8v-38q0 -137 63 -205t171 -68q96 0 170 47.5t147 134.5l43 -34
q-31 -62 -69 -113t-90 -95.5t-120 -69.5t-145 -25zM598 956q-116 0 -202.5 -111.5t-110.5 -303.5q452 26 452 274q0 65 -39 103t-100 38z" />
    <glyph glyph-name="f" unicode="f" horiz-adv-x="700" 
d="M856 1229l-121 20q39 60 49 144q-42 14 -71 14q-42 0 -75.5 -17.5t-55 -43t-38 -65.5t-25.5 -75t-17 -80l-17 -98h265l-19 -110h-264l-141 -883q-31 -196 -130.5 -296.5t-242.5 -100.5q-21 0 -41.5 2t-37.5 5.5t-33 8t-27.5 8.5t-22.5 9t-17 8.5t-12 6.5l-6 3
q2 60 22.5 113.5t39.5 77.5l20 24l121 -21q-41 -61 -51 -145q20 -4 35 -4q34 0 61.5 17.5t44.5 42.5t31 65.5t21 74.5t14 80l145 904h-147l14 81l152 29l12 78q22 130 85 221.5t148 133.5t185 42q127 0 229 -51q-2 -61 -22.5 -116.5t-39.5 -81.5z" />
    <glyph glyph-name="g" unicode="g" horiz-adv-x="1087" 
d="M520 379q-31 0 -59.5 -3.5t-61 -12.5t-52 -28.5t-19.5 -47.5q0 -60 88 -66l227 -12q92 -5 160.5 -21t106.5 -41t53 -39.5t30 -35.5l-16 -103q-25 -147 -166 -239t-356 -92q-223 0 -342 62.5t-119 156.5q0 66 50 125t140 104q-61 51 -61 121q0 161 192 211
q-83 37 -128.5 104t-45.5 154q0 121 60 209.5t155.5 131t212.5 42.5q109 0 189 -29q84 -4 167 9t124 27l41 15l2 -127q-71 -18 -203 -8l-2 -4q65 -92 65 -192q0 -116 -61 -202t-157.5 -127.5t-213.5 -41.5zM516 471q59 0 105 26.5t73 71.5t40.5 99.5t13.5 115.5
q0 82 -43.5 132.5t-126.5 50.5q-79 0 -133 -48t-76.5 -117t-22.5 -151q0 -76 45 -128t125 -52zM596 14l-258 15q-49 3 -78 16q-80 -77 -80 -147q0 -66 77.5 -110t209.5 -44q120 0 203 43.5t98 122.5l8 43l-3 3q-13 14 -25 22.5t-52.5 20.5t-99.5 15z" />
    <glyph glyph-name="h" unicode="h" horiz-adv-x="1183" 
d="M858 -20q-80 0 -117 52t-24 126l102 577q28 164 -104 164q-115 0 -218 -131.5t-137 -323.5l-77 -444h-209l237 1346l-139 24l12 70l301 63h62l-86 -491q-11 -63 -25 -120.5t-22 -83.5l-8 -26l10 -2q141 279 377 279q131 0 195.5 -86t39.5 -223l-100 -574q-6 -28 -1 -45.5
t27 -17.5q24 0 59 38.5t58 77.5l23 39l57 -32l-11 -27.5t-33 -61.5t-56.5 -78t-82.5 -61.5t-110 -27.5z" />
    <glyph glyph-name="i" unicode="i" horiz-adv-x="628" 
d="M414 1239q-51 0 -82 30.5t-31 76.5q0 60 39.5 100.5t105.5 40.5q50 0 81.5 -30.5t31.5 -76.5q0 -60 -39.5 -100.5t-105.5 -40.5zM281 -20q-80 0 -118 52t-24 126l133 704q11 64 -26 64q-24 0 -59 -39t-58 -78l-23 -39l-57 33l11 27.5t33 61.5t56.5 78t82.5 61.5t110 27.5
q85 0 121 -49t22 -129l-135 -705q-10 -63 27 -63q24 0 59 38.5t58 77.5l22 39l57 -32q-2 -5 -5.5 -14.5t-16.5 -36t-28 -50.5t-40.5 -53.5t-53.5 -51t-67 -36t-81 -14.5z" />
    <glyph glyph-name="j" unicode="j" horiz-adv-x="612" 
d="M438 1239q-52 0 -83 30.5t-31 76.5q0 60 40 100.5t107 40.5q50 0 81.5 -30.5t31.5 -76.5q0 -60 -40 -100.5t-106 -40.5zM-74 -362q-101 0 -159 22q2 61 21 117t38 82l18 26l129 -20q-35 -55 -49 -137q127 18 187 75l186 1059q8 64 -27 64q-24 0 -59 -39t-57 -78l-23 -39
l-59 33l11 27.5t33 61.5t56.5 78t82.5 61.5t110 27.5q83 0 120 -48.5t23 -129.5l-191 -1082q-53 -71 -157 -116t-234 -45z" />
    <glyph glyph-name="k" unicode="k" horiz-adv-x="1146" 
d="M74 0l235 1343l-139 25l14 70l301 63h62l-158 -891q54 8 98 8h9q26 43 39 65t49.5 76t64 86.5t72 78t85 71.5t91.5 45t102 19q30 0 59 -3t42 -6l14 -3q-6 -52 -17.5 -106t-19.5 -82l-8 -28h-137q14 60 16 105q-31 -7 -53 -18q-143 -70 -301 -316q101 -32 145 -135
l64 -154q70 -184 127 -184q23 0 54 37.5t51 75.5l20 37l55 -33q-2 -6 -5.5 -15.5t-16 -37t-26 -52.5t-36 -56t-46.5 -53t-56.5 -37t-65.5 -15q-48 0 -89 17.5t-66 40t-48 59t-33 58.5t-22 54l-74 197q-23 61 -67 86.5t-86 27.5l-90 -520h-209z" />
    <glyph glyph-name="l" unicode="l" horiz-adv-x="579" 
d="M238 -20q-81 0 -118 51.5t-24 126.5l209 1188l-139 24l12 70l299 63h62l-234 -1327q-10 -63 27 -63q24 0 59 38.5t57 77.5l23 39l59 -32q-2 -5 -5.5 -14.5t-16.5 -36t-28 -50.5t-40.5 -53.5t-53.5 -51t-67 -36t-81 -14.5z" />
    <glyph glyph-name="m" unicode="m" horiz-adv-x="1828" 
d="M123 0l153 862q11 64 -26 64q-24 0 -59 -39t-57 -78l-23 -39l-60 33l11 27.5t33 61.5t56.5 78t82.5 61.5t110 27.5q78 0 111.5 -51.5t19.5 -126.5l-20 -99l10 -2q66 130 154 204.5t215 74.5q120 0 180 -75.5t49 -201.5l8 -2q64 129 152 204t215 75q131 0 195.5 -86
t39.5 -223l-100 -574q-6 -28 -1 -45.5t27 -17.5q24 0 59 38.5t58 77.5l23 39l57 -32l-11 -27.5t-33 -61.5t-56.5 -78t-82.5 -61.5t-110 -27.5q-80 0 -117 52t-24 126l100 577q28 164 -102 164q-111 0 -210.5 -131t-133.5 -324l-78 -444h-209l129 735q28 164 -102 164
q-113 0 -211.5 -131t-132.5 -324l-80 -444h-209z" />
    <glyph glyph-name="n" unicode="n" horiz-adv-x="1234" 
d="M909 -20q-80 0 -117 52t-24 126l100 577q28 164 -104 164q-114 0 -215.5 -131t-136.5 -324l-80 -444h-209l153 862q11 64 -26 64q-24 0 -59 -39t-57 -78l-23 -39l-60 33l11 27.5t33 61.5t56.5 78t82.5 61.5t110 27.5q78 0 111.5 -51.5t19.5 -126.5l-20 -99l10 -2
q67 129 158 204t219 75q131 0 196.5 -86t40.5 -223l-100 -574q-6 -28 -0.5 -45.5t27.5 -17.5q24 0 59 38.5t57 77.5l23 39l57 -32l-11 -27.5t-33 -61.5t-56.5 -78t-82.5 -61.5t-110 -27.5z" />
    <glyph glyph-name="o" unicode="o" horiz-adv-x="1093" 
d="M504 -20q-193 0 -314.5 123.5t-121.5 316.5q0 144 43.5 266t116.5 202.5t169 125.5t201 45q195 0 311.5 -125.5t116.5 -319.5q0 -138 -43 -257.5t-114.5 -201.5t-166.5 -128.5t-198 -46.5zM494 88q78 0 139.5 49.5t98 132.5t55 183t18.5 209q0 131 -53.5 210.5
t-149.5 79.5q-64 0 -117 -34t-89 -90.5t-60.5 -132t-35.5 -156t-11 -164.5q0 -129 54 -208t151 -79z" />
    <glyph glyph-name="p" unicode="p" horiz-adv-x="1212" 
d="M-82 -342l12 68l154 45l192 1091q11 64 -26 64q-24 0 -59 -39t-57 -78l-23 -39l-58 33q3 10 10 27.5t32.5 61.5t55.5 78t81.5 61.5t109.5 27.5q79 0 112.5 -50t20.5 -124l-20 -103l10 -2q24 47 47.5 84.5t57 75t70 63t84.5 41t101 15.5q150 0 235 -101t85 -262
q0 -199 -73 -362.5t-206.5 -258.5t-302.5 -95q-132 0 -225 59l-47 -268l162 -45l-13 -68h-522zM412 444l-47 -256q86 -102 210 -102q89 0 158.5 53t108.5 140t58.5 185t19.5 202q0 233 -172 233q-109 0 -206 -134t-130 -321z" />
    <glyph glyph-name="q" unicode="q" horiz-adv-x="1163" 
d="M469 -342l10 68l178 45l45 256q11 63 25 120t23 83l8 26l-10 2q-31 -60 -62.5 -105t-75 -86.5t-99.5 -64t-122 -22.5q-151 0 -236 99t-85 259q0 200 72.5 364t206.5 260.5t302 96.5q159 0 264 -86l111 88l66 -23l-226 -1267l137 -45l-12 -68h-520zM465 139q109 0 206 134
t130 321l45 254q-88 104 -209 104q-72 0 -131.5 -35.5t-98 -93t-65 -134t-38 -155.5t-11.5 -161q0 -234 172 -234z" />
    <glyph glyph-name="r" unicode="r" horiz-adv-x="913" 
d="M123 0l153 862q11 64 -26 64q-24 0 -59 -39t-57 -78l-23 -39l-60 33l11 27.5t33 61.5t56.5 78t82.5 61.5t110 27.5q78 0 112.5 -52t18.5 -126l-33 -152l11 -2q157 332 383 332q45 0 69 -8q-10 -88 -29 -168t-33 -116l-14 -36h-137q21 99 21 158q-101 -34 -192 -177.5
t-120 -314.5l-69 -397h-209z" />
    <glyph glyph-name="s" unicode="s" horiz-adv-x="909" 
d="M778 776l-123 19q34 52 50 118q-88 45 -179 45q-87 0 -139.5 -43t-52.5 -114q0 -92 110 -139l156 -68q107 -46 164 -114t57 -152q0 -160 -121.5 -254t-308.5 -94q-204 0 -377 81q2 61 19.5 120.5t34.5 88.5l16 29l123 -20q-27 -60 -39 -132q106 -65 215 -65t170 50.5
t61 135.5q0 47 -30 87.5t-88 64.5l-148 59q-90 36 -148.5 108t-58.5 163q0 67 24.5 120.5t64 88t92 58t105.5 33t108 9.5q95 0 197.5 -23.5t131.5 -23.5q-2 -61 -23.5 -120t-42.5 -88z" />
    <glyph glyph-name="t" unicode="t" horiz-adv-x="733" 
d="M109 930l14 82l158 26l159 297h97l-52 -297h246l-20 -108h-246l-133 -764q48 -60 145 -60q84 0 160 54l35 -60q-135 -120 -291 -120q-88 0 -157.5 30t-110.5 88l145 832h-149z" />
    <glyph glyph-name="u" unicode="u" horiz-adv-x="1222" 
d="M401 -20q-59 0 -105.5 16.5t-76 45t-48 59.5t-28.5 67l129 694q6 28 0.5 46t-26.5 18q-24 0 -58 -39t-56 -78l-23 -39l-58 33l11 27.5t32.5 61.5t56.5 78t82.5 61.5t108.5 27.5q80 0 117 -52t24 -126l-125 -670q8 -31 38.5 -51.5t82.5 -20.5q111 0 210.5 131t133.5 324
l80 444h209l-154 -862q-11 -63 27 -63q24 0 59 38.5t58 77.5l22 39l60 -32l-11 -27.5t-33 -61.5t-56.5 -78t-82.5 -61.5t-110 -27.5q-78 0 -111.5 51.5t-19.5 126.5l20 98l-10 2q-66 -130 -154 -204t-215 -74z" />
    <glyph glyph-name="v" unicode="v" horiz-adv-x="1095" 
d="M422 -20q-136 0 -205.5 86t-44.5 223l100 573q6 28 0.5 46t-26.5 18q-24 0 -59 -39t-58 -78l-23 -39l-57 33l11 27.5t33 61.5t56.5 78t82.5 61.5t110 27.5q80 0 117 -52t24 -126l-100 -578q-29 -180 92 -180q95 0 176.5 97t143.5 257q80 206 100 387q-34 22 -76 36.5
t-67 17.5l-25 4l84 137q15 0 41 -1.5t90.5 -20.5t110.5 -54q-41 -292 -140 -541q-181 -462 -491 -462z" />
    <glyph glyph-name="w" unicode="w" horiz-adv-x="1677" 
d="M1104 1038l-121 -735q-29 -180 84 -180q97 0 180 107t142 276q72 204 86 358q-33 22 -74 36.5t-65 17.5l-25 4l86 137q15 0 39.5 -1.5t87 -20.5t108.5 -54q-42 -288 -127 -514q-180 -489 -493 -489q-122 0 -187.5 76t-52.5 202h-2q-70 -131 -156 -204.5t-202 -73.5
q-131 0 -198 86.5t-42 222.5l100 573q6 28 0.5 46t-26.5 18q-24 0 -59 -39t-58 -78l-23 -39l-57 33l11 27.5t33 61.5t56.5 78t82.5 61.5t110 27.5q80 0 117 -52t24 -126l-100 -578q-29 -180 82 -180q53 0 106 37t98 102t83 143.5t69 169.5l70 422l55 41h158z" />
    <glyph glyph-name="x" unicode="x" horiz-adv-x="1114" 
d="M160 -20q-101 8 -174 65l80 135q54 -54 110 -61q55 32 117 105.5t101.5 136t76.5 131.5l-178 350q-24 43 -43 43q-9 0 -16.5 -5.5t-12 -17t-7.5 -24t-4.5 -30t-2 -31.5t0 -33t1 -29.5t1.5 -25.5t1 -17l-66 -8q-13 37 -16.5 87t6.5 103.5t31.5 99.5t63.5 75.5t98 29.5
q92 0 147 -105l133 -262q165 314 330 367q53 -4 101 -23t79 -43l-82 -133q-55 55 -108 62q-73 -44 -143 -138t-123 -194l202 -393q19 -43 41 -43q9 0 16.5 5.5t12 17t7.5 24t4.5 30t2 31.5t0 33t-1 29.5t-1.5 25.5t-1 17l66 8q18 -46 18 -112t-16.5 -130t-63 -108.5
t-114.5 -44.5q-97 0 -154 108l-158 305q-183 -357 -362 -413z" />
    <glyph glyph-name="y" unicode="y" horiz-adv-x="1052" 
d="M242 -362q-53 21 -99.5 60.5t-66.5 69.5l-21 29l109 105q51 -68 104 -97q82 52 189 181l-219 864q-15 53 -37 53q-25 0 -48 -49t-33.5 -92.5t-10.5 -50.5l-64 12q0 17 3 42t11.5 65.5t27.5 78.5t45.5 73t71 56t99.5 21q58 0 96 -36t50 -97l161 -715h2q2 0 2 2
q105 178 180.5 364t86.5 287q-33 21 -76 35t-69 17l-27 4l86 139h14t36.5 -4t54 -11t61.5 -23.5t65 -39.5q-5 -134 -94 -366.5t-223 -458.5q-109 -181 -229.5 -317t-237.5 -201z" />
    <glyph glyph-name="z" unicode="z" horiz-adv-x="1017" 
d="M195 682h-56q-3 8 -8 28t-10.5 58t-5.5 72q0 94 46 156.5t138 62.5q63 0 154.5 -33.5t173.5 -67.5t121 -34q27 0 40 16l84 98h150v-24l-703 -815q12 2 39 2q56 0 187.5 -27t183.5 -27q107 0 135 150l10 57h62q18 -54 18 -153q0 -45 -8.5 -83.5t-30 -77t-66.5 -61
t-110 -22.5q-73 0 -170 34.5t-181 68.5t-126 34q-34 0 -51 -20l-64 -74h-141v27l680 792h-37q-69 0 -188 23.5t-148 23.5q-45 0 -68.5 -31.5t-35.5 -86.5z" />
    <glyph glyph-name="braceleft" unicode="{" horiz-adv-x="761" 
d="M399 -272q-125 0 -194.5 55t-69.5 168q0 44 17 117l67 272q18 70 20 110.5t-16.5 67.5t-55.5 38.5t-106 16.5l19 93q136 9 180 50t57 175l27 272q17 178 106 259t261 81q34 0 108 -8l-14 -80l-49 -4q-43 -3 -72 -11t-58 -27t-45.5 -56.5t-21.5 -93.5l-22 -244
q-6 -62 -17 -109.5t-24 -82t-36.5 -60t-45 -41.5t-58.5 -29t-67.5 -20t-81.5 -16v-11q60 -12 99.5 -26.5t71.5 -40t44 -63t10 -94t-22 -134.5l-64 -244q-10 -38 -11.5 -67t6 -48.5t19 -33t31 -21.5t38 -12t44.5 -6l47 -4l-12 -80q-74 -8 -109 -8z" />
    <glyph glyph-name="bar" unicode="|" horiz-adv-x="536" 
d="M340 -342h-139v1825h139v-1825z" />
    <glyph glyph-name="braceright" unicode="}" horiz-adv-x="761" 
d="M362 1503q125 0 195 -55t70 -168q0 -44 -17 -117l-67 -272q-34 -135 -4.5 -179.5t161.5 -54.5l-18 -92q-136 -9 -180.5 -50t-57.5 -175l-26 -272q-17 -178 -106 -259t-261 -81q-34 0 -108 8l14 80l49 4q43 3 72 11t58 27t45.5 56.5t21.5 93.5l22 244q6 62 17 109.5t24 82
t36.5 60t45 41.5t58.5 29t67.5 20t81.5 16v11q-60 12 -99.5 26.5t-71.5 40t-44 63t-10 94t22 134.5l64 244q10 38 11.5 67t-6 48.5t-19 33t-31 21.5t-38 12t-44.5 6l-47 4l12 80q74 8 108 8z" />
    <glyph glyph-name="asciitilde" unicode="~" horiz-adv-x="1234" 
d="M1049 725l88 -72q-40 -74 -105.5 -117.5t-148.5 -43.5q-52 0 -115 21t-111.5 46.5t-108.5 46.5t-108 21q-150 0 -254 -135l-88 71q58 98 150 156.5t207 58.5q57 0 126 -21.5t120.5 -47t106 -47t87.5 -21.5q89 0 154 84z" />
    <glyph glyph-name="uni00A0" unicode="&#xa0;" horiz-adv-x="428" 
 />
    <glyph glyph-name="exclamdown" unicode="&#xa1;" horiz-adv-x="536" 
d="M350 1059q53 0 89 -33.5t36 -81.5q0 -60 -42.5 -102.5t-100.5 -42.5q-52 0 -87.5 33t-35.5 83q0 59 42.5 101.5t98.5 42.5zM322 666l-56 -940q-17 -46 -56.5 -72.5t-84.5 -26.5q-51 0 -88.5 26t-38.5 73l278 940h46z" />
    <glyph glyph-name="cent" unicode="&#xa2;" horiz-adv-x="1062" 
d="M557 -20h-106l22 131q-162 17 -251 121.5t-89 285.5q0 137 44.5 256t119 201t168.5 135t197 70l26 149h107l-25 -141q102 -3 179 -38.5t112 -80.5q-14 -61 -38.5 -116t-42.5 -80l-17 -25l-129 8q3 11 6.5 29t9.5 66t4 85q-48 36 -104 41l-142 -809q144 3 312 135l36 -45
q-59 -98 -156.5 -167t-219.5 -80zM348 563q0 -113 42 -182.5t114 -95.5l139 784q-142 -33 -218.5 -171.5t-76.5 -334.5z" />
    <glyph glyph-name="sterling" unicode="&#xa3;" horiz-adv-x="1232" 
d="M-10 0l12 68l156 41q45 80 90 323l26 143h-182l19 109h182l31 172q38 222 179 347.5t347 125.5q73 0 136.5 -10.5t120.5 -24.5t91 -18l-16 -98q-6 -33 -8 -75t-1 -67l1 -26l-78 -25q-7 8 -18.5 23.5t-36.5 68.5t-37 111q-76 39 -156 39q-241 0 -303 -361l-31 -182h283
l-19 -109h-284l-21 -116q-21 -120 -60.5 -203t-119.5 -141h563q33 69 74 138t66 103l24 35l70 -16q-50 -172 -66 -264l-20 -111h-1014z" />
    <glyph glyph-name="yen" unicode="&#xa5;" horiz-adv-x="1400" 
d="M219 575l19 109h274l-221 514l-119 45l10 66h531l-11 -66l-157 -45l203 -514h2l409 514l-139 45l12 66h432l-12 -66l-141 -45l-418 -514h289l-21 -109h-356l-10 -12l-19 -98h367l-19 -109h-366l-43 -243l164 -45l-11 -68h-567l10 68l181 45l43 243h-353l19 109h352l16 88
l-10 22h-340z" />
    <glyph glyph-name="brokenbar" unicode="&#xa6;" horiz-adv-x="530" 
d="M334 758h-137v725h137v-725zM334 -252h-137v725h137v-725z" />
    <glyph glyph-name="section" unicode="&#xa7;" horiz-adv-x="1183" 
d="M1047 528q0 -101 -57 -187t-163 -146q91 -91 91 -203q0 -74 -26.5 -134t-71.5 -100.5t-106 -68t-128 -39.5t-140 -12q-118 0 -250.5 31t-170.5 34l16 98q7 38 9 89t0 82l-1 32l90 23q7 -8 18 -23.5t34.5 -70t33.5 -117.5q106 -68 246 -68q115 0 178.5 52.5t63.5 129.5
q0 105 -158 172l-203 86q-120 52 -186 137.5t-66 194.5q0 100 57 186t162 146q-88 88 -88 205q0 92 40 162t108 111t149 61t172 20q119 0 254.5 -32.5t169.5 -35.5l-18 -98q-6 -37 -8 -87.5t-1 -81.5l1 -32l-90 -22q-7 8 -18.5 23.5t-34 69.5t-31.5 116q-52 34 -108 50.5
t-140 16.5q-115 0 -177.5 -52t-62.5 -128q0 -57 39.5 -98t116.5 -74l203 -86q120 -52 186 -137.5t66 -194.5zM651 684l-190 78q-20 7 -55 26q-91 -82 -91 -208q0 -67 46 -123t135 -92l190 -78q32 -14 55 -27q90 81 90 209q0 67 -45.5 123t-134.5 92z" />
    <glyph glyph-name="dieresis" unicode="&#xa8;" horiz-adv-x="684" 
d="M287 1227q-36 0 -61 26.5t-25 63.5q0 47 38.5 83t84.5 36q38 0 62 -26t24 -64q0 -49 -36.5 -84t-86.5 -35zM586 1227q-36 0 -61 26t-25 62q0 49 37.5 85t85.5 36q36 0 61 -26.5t25 -63.5q0 -49 -37.5 -84t-85.5 -35z" />
    <glyph glyph-name="copyright" unicode="&#xa9;" horiz-adv-x="1671" 
d="M129 694q0 146 56.5 278.5t152.5 228.5t228.5 153t277.5 57t278 -57t229 -153t153 -229t57 -278t-57 -277.5t-153 -228t-228.5 -152t-278.5 -56.5t-278 56.5t-228 152t-152.5 227.5t-56.5 278zM844 1343q-174 0 -321.5 -87t-233.5 -236.5t-86 -325.5t86 -325
t233.5 -235.5t321.5 -86.5t322 86.5t234.5 235.5t86.5 325t-86.5 325.5t-234.5 236.5t-322 87zM1141 479l47 -26q-14 -42 -39 -82t-64.5 -78.5t-100.5 -62t-134 -23.5q-199 0 -320.5 122t-121.5 341q0 153 64 264.5t170.5 166t242.5 54.5q66 0 147.5 -14t106.5 -15v-84
q0 -30 4.5 -67.5t8.5 -59.5l5 -22l-74 -23q-7 6 -17.5 18.5t-35.5 56.5t-41 95q-56 29 -112 29q-116 0 -185 -99.5t-69 -279.5q0 -161 74.5 -249.5t195.5 -88.5q66 0 117.5 21.5t75.5 44.5t55 61z" />
    <glyph glyph-name="ordfeminine" unicode="&#xaa;" horiz-adv-x="743" 
d="M297 786q-68 0 -111 48.5t-43 138.5q0 154 85.5 255t209.5 101q84 0 140 -45l55 43l49 -6l-74 -418q-9 -31 13 -31q12 0 28.5 17.5t26.5 34.5l10 18l35 -20q-2 -6 -5.5 -15t-18 -32.5t-32 -41.5t-47 -32.5t-63.5 -14.5q-44 0 -63.5 29.5t-16.5 71.5l2 31h-4
q-70 -132 -176 -132zM356 891q45 0 86.5 62.5t55.5 142.5l20 121q-28 47 -80 47q-62 0 -102.5 -78t-40.5 -193q0 -102 61 -102z" />
    <glyph glyph-name="guillemotleft" unicode="&#xab;" horiz-adv-x="1081" 
d="M563 948l-303 -430l152 -424h-123l-228 379v82l379 393h123zM1004 948l-304 -430l152 -424h-123l-227 379v82l379 393h123z" />
    <glyph glyph-name="logicalnot" unicode="&#xac;" horiz-adv-x="1024" 
d="M98 530v138h828v-469h-138v331h-690z" />
    <glyph glyph-name="registered" unicode="&#xae;" horiz-adv-x="1261" 
d="M139 862q0 149 73 275.5t199 200t275 73.5q148 0 274.5 -73.5t200.5 -200t74 -275.5t-74 -275t-200.5 -199t-274.5 -73q-149 0 -275 73t-199 199t-73 275zM686 1346q-97 0 -185.5 -38.5t-152.5 -103.5t-101.5 -154.5t-37.5 -187.5q0 -131 63.5 -242t173.5 -176t240 -65
q129 0 239 65t174 176t64 242t-64 242.5t-174 176.5t-239 65zM999 606v-37h-161q-46 17 -76 88l-72 166h-78v-198l62 -19v-37h-264v37l63 19v493l-63 19v37h286q109 0 174.5 -41.5t65.5 -126.5q0 -113 -113 -158v-2l58 -125q23 -49 52.5 -78t47.5 -33zM670 1112h-58v-231
h115q66 34 66 120q0 111 -123 111z" />
    <glyph glyph-name="macron" unicode="&#xaf;" horiz-adv-x="698" 
d="M184 1245l23 131h469l-23 -131h-469z" />
    <glyph glyph-name="degree" unicode="&#xb0;" horiz-adv-x="663" 
d="M147 1071q0 106 73 182t175 76t176 -76.5t74 -181.5t-74 -180.5t-176 -75.5q-103 0 -175.5 75t-72.5 181zM262 1071q0 -63 39.5 -107t93.5 -44q53 0 92 44.5t39 106.5q0 63 -39 107.5t-92 44.5q-54 0 -93.5 -44.5t-39.5 -107.5z" />
    <glyph glyph-name="plusminus" unicode="&#xb1;" horiz-adv-x="1024" 
d="M98 567v135h346v320h136v-320h346v-135h-346v-319h-136v319h-346zM98 16v138h828v-138h-828z" />
    <glyph glyph-name="uni00B2" unicode="&#xb2;" horiz-adv-x="806" 
d="M256 1128l-37 33q38 64 108 116t162 52q88 0 138.5 -44.5t50.5 -117.5q0 -36 -14.5 -73t-33 -65.5t-56 -63.5t-63 -56t-75.5 -54t-72 -46.5t-73 -44.5v-2h266q16 28 36.5 52.5t32.5 35.5l13 10l37 -14q-25 -68 -33 -121l-10 -61h-506v63q6 4 39 27t47.5 33.5t49.5 36
t54 41.5t50.5 43t50 46.5t41 46.5t34.5 49t20.5 47t8.5 48q0 37 -23 56.5t-61 19.5q-50 0 -98 -25.5t-84 -67.5z" />
    <glyph glyph-name="uni00B3" unicode="&#xb3;" horiz-adv-x="780" 
d="M328 985l22 55q72 5 112 31t40 92q0 36 -25 54t-65 18q-44 0 -91 -22t-79 -52l-27 31q33 55 102 96t156 41q85 0 132.5 -38t47.5 -99q0 -112 -147 -160v-2q50 -14 86.5 -51.5t36.5 -97.5q0 -105 -85 -165.5t-212 -60.5q-65 0 -123.5 16.5t-81.5 39.5q5 34 18 65.5t23 48
t14 17.5h54q-8 -62 4 -97q31 -22 94 -22t102 37t39 110q0 57 -38.5 80.5t-108.5 34.5z" />
    <glyph glyph-name="acute" unicode="&#xb4;" horiz-adv-x="591" 
d="M467 1499h22l91 -129l-369 -211l-43 60z" />
    <glyph glyph-name="uni00B5" unicode="&#xb5;" horiz-adv-x="1222" 
d="M410 -20q-55 0 -105 16l-29 -338h-215l213 1204q6 28 0.5 46t-26.5 18q-24 0 -59 -39t-57 -78l-23 -39l-58 33l11 27.5t33 61.5t56.5 78t82.5 61.5t110 27.5q80 0 117 -52t24 -126l-118 -670q8 -31 38 -51.5t82 -20.5q111 0 210.5 131t133.5 324l78 444h209l-151 -862
q-11 -63 26 -63q24 0 59 38.5t58 77.5l23 39l57 -32q-3 -10 -10 -27.5t-33 -61.5t-56.5 -78t-82 -61.5t-109.5 -27.5q-78 0 -111.5 51.5t-19.5 126.5l18 98l-10 2q-137 -278 -366 -278z" />
    <glyph glyph-name="uni00B5" unicode="&#x3bc;" horiz-adv-x="1222" 
d="M410 -20q-55 0 -105 16l-29 -338h-215l213 1204q6 28 0.5 46t-26.5 18q-24 0 -59 -39t-57 -78l-23 -39l-58 33l11 27.5t33 61.5t56.5 78t82.5 61.5t110 27.5q80 0 117 -52t24 -126l-118 -670q8 -31 38 -51.5t82 -20.5q111 0 210.5 131t133.5 324l78 444h209l-151 -862
q-11 -63 26 -63q24 0 59 38.5t58 77.5l23 39l57 -32q-3 -10 -10 -27.5t-33 -61.5t-56.5 -78t-82 -61.5t-109.5 -27.5q-78 0 -111.5 51.5t-19.5 126.5l18 98l-10 2q-137 -278 -366 -278z" />
    <glyph glyph-name="paragraph" unicode="&#xb6;" horiz-adv-x="1079" 
d="M727 1391l-182 -1045q-120 1 -212 37t-147.5 99.5t-83.5 144.5t-28 178q0 166 86 300.5t235.5 210t331.5 75.5zM971 1278l-209 -1182q-15 -82 -42 -149.5t-61 -114.5t-78 -82t-87.5 -56t-95.5 -34t-97 -17.5t-96 -4.5q-87 0 -131 18q3 65 22.5 125.5t37.5 88.5l18 28
l131 -15q-29 -63 -37 -129q24 1 43.5 2.5t55.5 9t65 20t64 37t61.5 57.5t49 84.5t33.5 115.5l232 1311h301l-12 -68z" />
    <glyph glyph-name="periodcentered" unicode="&#xb7;" horiz-adv-x="575" 
d="M264 485q-52 0 -85.5 31.5t-33.5 77.5q0 63 44 107t106 44q53 0 86 -31.5t33 -78.5q0 -63 -44 -106.5t-106 -43.5z" />
    <glyph glyph-name="cedilla" unicode="&#xb8;" horiz-adv-x="561" 
d="M285 31l-86 -97q61 -12 98 -48t37 -83q0 -78 -65.5 -121.5t-176.5 -43.5q-99 0 -160 55l35 49q52 -33 123 -33q49 0 76 23.5t27 58.5q0 33 -32 59t-95 39l2 9l118 133h99z" />
    <glyph glyph-name="uni00B9" unicode="&#xb9;" horiz-adv-x="634" 
d="M250 735l80 463h-27q-35 0 -60.5 3.5t-33.5 6.5l-8 4l6 41q16 2 43 6t93.5 23.5t113.5 46.5l41 -12l-101 -582l109 -28l-8 -43h-371l6 43z" />
    <glyph glyph-name="ordmasculine" unicode="&#xba;" horiz-adv-x="686" 
d="M664 1100q0 -139 -82 -226.5t-203 -87.5q-107 0 -171.5 61.5t-64.5 166.5q0 140 81 227.5t202 87.5q109 0 173.5 -62.5t64.5 -166.5zM516 1137q0 57 -22 92t-66 35q-46 0 -78.5 -44.5t-45.5 -107.5t-13 -137q0 -55 20.5 -89t61.5 -34q47 0 80 42.5t48 105.5t15 137z" />
    <glyph glyph-name="guillemotright" unicode="&#xbb;" horiz-adv-x="1081" 
d="M25 94l303 430l-152 424h123l227 -379v-82l-379 -393h-122zM465 94l303 430l-152 424h123l228 -379v-82l-379 -393h-123z" />
    <glyph glyph-name="onequarter" unicode="&#xbc;" horiz-adv-x="1290" 
d="M252 735l80 463h-27q-35 0 -60.5 3.5t-33.5 6.5l-8 4l6 41q16 2 43 6t93.5 23.5t113.5 46.5l41 -12l-101 -582l109 -28l-8 -43h-371l6 43zM242 0h-105l922 1309h104zM530 162l7 43l393 448h127l-76 -424h80l-10 -67h-80l-19 -99l70 -22l-6 -41h-301l6 41l84 22l18 99
h-293zM879 502l-236 -273h191l49 273h-4z" />
    <glyph glyph-name="onehalf" unicode="&#xbd;" horiz-adv-x="1284" 
d="M252 735l80 463h-27q-35 0 -60.5 3.5t-33.5 6.5l-8 4l6 41q16 2 43 6t93.5 23.5t113.5 46.5l41 -12l-101 -582l109 -28l-8 -43h-371l6 43zM231 0h-104l922 1309h104zM733 465l-37 33q38 64 108.5 116t162.5 52q88 0 138 -44.5t50 -117.5q0 -32 -9 -63t-30 -61
t-40.5 -54.5t-55 -53.5t-58.5 -47.5t-67 -46t-63.5 -40t-63.5 -38.5v-2h266q16 28 36.5 52.5t33.5 35.5l12 11l37 -15q-25 -68 -33 -121l-10 -61h-506v63q6 4 39 27t47.5 33.5t49.5 36t54 41.5t50.5 43t50 46.5t41 46.5t34.5 49t20.5 47t8.5 48q0 37 -23 56.5t-61 19.5
q-103 0 -182 -92z" />
    <glyph glyph-name="threequarters" unicode="&#xbe;" horiz-adv-x="1343" 
d="M328 985l22 55q72 5 112 31t40 92q0 36 -25 54t-65 18q-44 0 -91 -22t-79 -52l-27 31q33 55 102 96t156 41q85 0 132.5 -38t47.5 -99q0 -112 -147 -160v-2q50 -14 86.5 -51.5t36.5 -97.5q0 -105 -85 -165.5t-212 -60.5q-65 0 -123.5 16.5t-81.5 39.5q5 34 18 65.5t23 48
t14 17.5h54q-8 -62 4 -97q31 -22 94 -22t102 37t39 110q0 57 -38.5 80.5t-108.5 34.5zM295 0h-105l922 1309h105zM578 162l8 43l391 448h127l-76 -424h80l-10 -67h-80l-19 -99l70 -22l-6 -41h-301l6 41l86 22l16 99h-292zM926 502l-236 -273h193l47 273h-4z" />
    <glyph glyph-name="questiondown" unicode="&#xbf;" horiz-adv-x="989" 
d="M694 1059q49 0 82 -33.5t33 -83.5q0 -58 -46.5 -100.5t-105.5 -42.5q-46 0 -79 33.5t-33 82.5q0 57 46 100.5t103 43.5zM645 -41l154 21q3 -12 6 -32.5t2 -73.5t-14 -93q-61 -59 -164.5 -106.5t-241.5 -47.5q-175 0 -278 80t-103 223q0 95 32.5 175t84.5 135.5t122.5 98
t140 66.5t144.5 37l66 224h74l-17 -363q-31 -5 -47.5 -7.5t-55 -11t-64 -17.5t-63 -25t-63 -35t-54 -47.5t-45.5 -61t-28.5 -77t-11.5 -95.5q0 -98 60.5 -144t152.5 -46q97 0 189 57q13 41 18.5 82.5t4.5 62.5z" />
    <glyph glyph-name="Agrave" unicode="&#xc0;" horiz-adv-x="1355" 
d="M565 1851h25l299 -280l-45 -60l-367 211zM-147 0l12 66l149 45l723 1280l133 20l277 -1300l125 -45l-10 -66h-533l12 66l168 45l-71 354h-482l-192 -354l147 -45l-10 -66h-448zM711 1102h-9l-290 -535h405z" />
    <glyph glyph-name="Aacute" unicode="&#xc1;" horiz-adv-x="1355" 
d="M1049 1851h22l90 -129l-368 -211l-43 60zM-147 0l12 66l149 45l723 1280l133 20l277 -1300l125 -45l-10 -66h-533l12 66l168 45l-71 354h-482l-192 -354l147 -45l-10 -66h-448zM711 1102h-9l-290 -535h405z" />
    <glyph glyph-name="Acircumflex" unicode="&#xc2;" horiz-adv-x="1355" 
d="M905 1839l195 -272l-60 -54l-213 156l-266 -156l-43 54l293 272h94zM-147 0l12 66l149 45l723 1280l133 20l277 -1300l125 -45l-10 -66h-533l12 66l168 45l-71 354h-482l-192 -354l147 -45l-10 -66h-448zM711 1102h-9l-290 -535h405z" />
    <glyph glyph-name="Atilde" unicode="&#xc3;" horiz-adv-x="1355" 
d="M506 1542l-64 37q114 223 254 223q55 0 106 -21t96.5 -42t88.5 -21q48 21 109 113l59 -31q-19 -43 -34 -72t-42.5 -67.5t-63 -59t-77.5 -20.5q-66 0 -154 44t-149 44q-30 -13 -59.5 -41t-69.5 -86zM-147 0l12 66l149 45l723 1280l133 20l277 -1300l125 -45l-10 -66h-533
l12 66l168 45l-71 354h-482l-192 -354l147 -45l-10 -66h-448zM711 1102h-9l-290 -535h405z" />
    <glyph glyph-name="Adieresis" unicode="&#xc4;" horiz-adv-x="1355" 
d="M653 1579q-36 0 -61 26.5t-25 63.5q0 47 38.5 83t84.5 36q38 0 62 -26t24 -64q0 -49 -36.5 -84t-86.5 -35zM952 1579q-36 0 -61 26t-25 62q0 49 37.5 85t85.5 36q36 0 61 -26.5t25 -63.5q0 -49 -37.5 -84t-85.5 -35zM-147 0l12 66l149 45l723 1280l133 20l277 -1300
l125 -45l-10 -66h-533l12 66l168 45l-71 354h-482l-192 -354l147 -45l-10 -66h-448zM711 1102h-9l-290 -535h405z" />
    <glyph glyph-name="Aring" unicode="&#xc5;" horiz-adv-x="1355" 
d="M1044 1690q0 -88 -61 -135.5t-158 -47.5q-84 0 -137 43t-53 115q0 86 62.5 133t160.5 47q84 0 135 -42t51 -113zM829 1573q99 0 99 129q0 38 -19.5 59t-56.5 21q-100 0 -100 -129q0 -38 20 -59t57 -21zM-147 0l12 66l149 45l723 1280l133 20l277 -1300l125 -45l-10 -66
h-533l12 66l168 45l-71 354h-482l-192 -354l147 -45l-10 -66h-448zM711 1102h-9l-290 -535h405z" />
    <glyph glyph-name="AE" unicode="&#xc6;" horiz-adv-x="1937" 
d="M-4 111l934 1280h979l-19 -107q-7 -41 -12.5 -103t-7.5 -103l-2 -42l-78 -16q-6 11 -15 32t-27.5 88t-25.5 136h-501l-93 -514l424 6l60 113h78l-62 -344h-74l-22 112l-420 4l-96 -538h547q33 69 73 136.5t64 100.5l24 33l70 -14q-49 -173 -65 -265l-19 -106h-1096l13 68
l166 45l61 352h-444l-252 -354l147 -45l-10 -66h-442l12 66zM997 1278h-4l-510 -711h389z" />
    <glyph glyph-name="Ccedilla" unicode="&#xc7;" horiz-adv-x="1261" 
d="M1221 1036l-88 -20q-7 8 -19 23.5t-37 73.5t-37 128q-103 57 -247 57q-195 0 -327 -186.5t-132 -478.5q0 -226 107.5 -351.5t281.5 -125.5q72 0 132.5 17.5t109.5 52t82.5 67t74.5 82.5l47 -37q-22 -48 -51 -93.5t-75 -95t-100 -86t-128 -60t-156 -23.5q-8 0 -24.5 1
t-24.5 1l-41 -48q62 -12 99 -48t37 -83q0 -78 -65.5 -121.5t-176.5 -43.5q-99 0 -160 55l35 49q52 -33 123 -33q49 0 75.5 23t26.5 59q0 33 -32 59t-95 39l2 9l84 96q-201 40 -317.5 198t-116.5 406q0 152 40 283.5t110.5 227.5t166 165t207 103t232.5 34q114 0 245.5 -23.5
t161.5 -25.5l-20 -121q-7 -38 -9.5 -89.5t-1.5 -83.5z" />
    <glyph glyph-name="Egrave" unicode="&#xc8;" horiz-adv-x="1251" 
d="M547 1851h24l299 -280l-45 -60l-366 211zM868 537l-26 112l-418 4l-96 -538h546q33 69 73.5 136.5t64.5 100.5l24 33l70 -14q-50 -173 -66 -265l-18 -106h-1096l13 68l163 45l207 1165l-147 45l10 68h1051l-21 -107q-7 -41 -12.5 -103t-7.5 -103l-2 -42l-80 -16
q-50 100 -68 256h-500l-90 -514l422 6l60 113h77l-61 -344h-72z" />
    <glyph glyph-name="Eacute" unicode="&#xc9;" horiz-adv-x="1251" 
d="M948 1851h23l90 -129l-369 -211l-43 60zM868 537l-26 112l-418 4l-96 -538h546q33 69 73.5 136.5t64.5 100.5l24 33l70 -14q-50 -173 -66 -265l-18 -106h-1096l13 68l163 45l207 1165l-147 45l10 68h1051l-21 -107q-7 -41 -12.5 -103t-7.5 -103l-2 -42l-80 -16
q-50 100 -68 256h-500l-90 -514l422 6l60 113h77l-61 -344h-72z" />
    <glyph glyph-name="Ecircumflex" unicode="&#xca;" horiz-adv-x="1251" 
d="M858 1839l195 -272l-60 -54l-213 156l-266 -156l-43 54l293 272h94zM868 537l-26 112l-418 4l-96 -538h546q33 69 73.5 136.5t64.5 100.5l24 33l70 -14q-50 -173 -66 -265l-18 -106h-1096l13 68l163 45l207 1165l-147 45l10 68h1051l-21 -107q-7 -41 -12.5 -103
t-7.5 -103l-2 -42l-80 -16q-50 100 -68 256h-500l-90 -514l422 6l60 113h77l-61 -344h-72z" />
    <glyph glyph-name="Edieresis" unicode="&#xcb;" horiz-adv-x="1251" 
d="M598 1579q-36 0 -61 26.5t-25 63.5q0 47 38.5 83t84.5 36q38 0 62 -26t24 -64q0 -49 -36.5 -84t-86.5 -35zM897 1579q-36 0 -61 26t-25 62q0 49 37.5 85t85.5 36q36 0 61 -26.5t25 -63.5q0 -49 -37.5 -84t-85.5 -35zM868 537l-26 112l-418 4l-96 -538h546
q33 69 73.5 136.5t64.5 100.5l24 33l70 -14q-50 -173 -66 -265l-18 -106h-1096l13 68l163 45l207 1165l-147 45l10 68h1051l-21 -107q-7 -41 -12.5 -103t-7.5 -103l-2 -42l-80 -16q-50 100 -68 256h-500l-90 -514l422 6l60 113h77l-61 -344h-72z" />
    <glyph glyph-name="Igrave" unicode="&#xcc;" horiz-adv-x="636" 
d="M229 1851h25l299 -280l-45 -60l-367 211zM-74 0l13 68l163 45l207 1165l-147 45l10 68h537l-11 -68l-163 -45l-207 -1165l147 -45l-12 -68h-537z" />
    <glyph glyph-name="Iacute" unicode="&#xcd;" horiz-adv-x="636" 
d="M696 1851h23l90 -129l-369 -211l-43 60zM-74 0l13 68l163 45l207 1165l-147 45l10 68h537l-11 -68l-163 -45l-207 -1165l147 -45l-12 -68h-537z" />
    <glyph glyph-name="Icircumflex" unicode="&#xce;" horiz-adv-x="636" 
d="M565 1839l195 -272l-60 -54l-213 156l-266 -156l-43 54l293 272h94zM-74 0l13 68l163 45l207 1165l-147 45l10 68h537l-11 -68l-163 -45l-207 -1165l147 -45l-12 -68h-537z" />
    <glyph glyph-name="Idieresis" unicode="&#xcf;" horiz-adv-x="636" 
d="M313 1579q-36 0 -61 26.5t-25 63.5q0 47 38.5 83t84.5 36q38 0 62 -26t24 -64q0 -49 -36.5 -84t-86.5 -35zM612 1579q-36 0 -61 26t-25 62q0 49 37.5 85t85.5 36q36 0 61 -26.5t25 -63.5q0 -49 -37.5 -84t-85.5 -35zM-74 0l13 68l163 45l207 1165l-147 45l10 68h537
l-11 -68l-163 -45l-207 -1165l147 -45l-12 -68h-537z" />
    <glyph glyph-name="Eth" unicode="&#xd0;" horiz-adv-x="1454" 
d="M33 676l20 115h170l86 487l-147 45l10 68h569q283 0 454 -157t171 -429q0 -184 -66.5 -338t-179 -255t-259.5 -156.5t-310 -55.5h-625l13 68l163 45l101 563h-170zM717 1278h-185l-86 -487h275l-21 -115h-274l-98 -559h245q167 0 293.5 90t192 245.5t65.5 354.5
q0 214 -109.5 342.5t-297.5 128.5z" />
    <glyph glyph-name="Ntilde" unicode="&#xd1;" horiz-adv-x="1447" 
d="M575 1518l-63 36q115 224 254 224q55 0 106 -21t96.5 -42t88.5 -21q48 20 108 112l60 -30q-19 -44 -34 -72.5t-42.5 -67.5t-63 -59.5t-77.5 -20.5q-44 0 -85.5 14t-69 30.5t-67.5 30.5t-81 14q-59 -24 -130 -127zM1010 0l-590 1114l-176 -1003l147 -45l-12 -66h-453
l13 66l163 45l207 1169l-147 45l10 66h367l518 -981l153 870l-147 45l12 66h453l-12 -66l-164 -45l-228 -1280h-114z" />
    <glyph glyph-name="Ograve" unicode="&#xd2;" horiz-adv-x="1454" 
d="M563 1851h25l299 -280l-45 -60l-367 211zM657 -20q-255 0 -412 160t-157 433q0 192 58 352t156.5 265t228 163t274.5 58q260 0 410.5 -161.5t150.5 -440.5q0 -181 -57.5 -338t-154 -263.5t-226 -167t-271.5 -60.5zM653 94q110 0 201.5 63.5t149 169t89 237.5t31.5 274
q0 133 -35.5 235.5t-109.5 163.5t-178 61q-135 0 -242.5 -93.5t-169 -265.5t-61.5 -394q0 -204 87.5 -327.5t237.5 -123.5z" />
    <glyph glyph-name="Oacute" unicode="&#xd3;" horiz-adv-x="1454" 
d="M1030 1851h23l90 -129l-369 -211l-43 60zM657 -20q-255 0 -412 160t-157 433q0 192 58 352t156.5 265t228 163t274.5 58q260 0 410.5 -161.5t150.5 -440.5q0 -181 -57.5 -338t-154 -263.5t-226 -167t-271.5 -60.5zM653 94q110 0 201.5 63.5t149 169t89 237.5t31.5 274
q0 133 -35.5 235.5t-109.5 163.5t-178 61q-135 0 -242.5 -93.5t-169 -265.5t-61.5 -394q0 -204 87.5 -327.5t237.5 -123.5z" />
    <glyph glyph-name="Ocircumflex" unicode="&#xd4;" horiz-adv-x="1454" 
d="M920 1839l194 -272l-59 -54l-213 156l-267 -156l-43 54l293 272h95zM657 -20q-255 0 -412 160t-157 433q0 192 58 352t156.5 265t228 163t274.5 58q260 0 410.5 -161.5t150.5 -440.5q0 -181 -57.5 -338t-154 -263.5t-226 -167t-271.5 -60.5zM653 94q110 0 201.5 63.5
t149 169t89 237.5t31.5 274q0 133 -35.5 235.5t-109.5 163.5t-178 61q-135 0 -242.5 -93.5t-169 -265.5t-61.5 -394q0 -204 87.5 -327.5t237.5 -123.5z" />
    <glyph glyph-name="Otilde" unicode="&#xd5;" horiz-adv-x="1454" 
d="M522 1542l-63 37q114 223 254 223q55 0 106 -21t96.5 -42t88.5 -21q47 20 108 113l59 -31q-19 -43 -34 -72t-42.5 -67.5t-63 -59t-77.5 -20.5q-66 0 -154 44t-149 44q-30 -13 -59.5 -41t-69.5 -86zM657 -20q-255 0 -412 160t-157 433q0 192 58 352t156.5 265t228 163
t274.5 58q260 0 410.5 -161.5t150.5 -440.5q0 -181 -57.5 -338t-154 -263.5t-226 -167t-271.5 -60.5zM653 94q110 0 201.5 63.5t149 169t89 237.5t31.5 274q0 133 -35.5 235.5t-109.5 163.5t-178 61q-135 0 -242.5 -93.5t-169 -265.5t-61.5 -394q0 -204 87.5 -327.5
t237.5 -123.5z" />
    <glyph glyph-name="Odieresis" unicode="&#xd6;" horiz-adv-x="1454" 
d="M668 1579q-36 0 -61 26.5t-25 63.5q0 47 38.5 83t84.5 36q38 0 62 -26t24 -64q0 -49 -36.5 -84t-86.5 -35zM967 1579q-36 0 -61 26t-25 62q0 49 37.5 85t85.5 36q36 0 61 -26.5t25 -63.5q0 -49 -37.5 -84t-85.5 -35zM657 -20q-255 0 -412 160t-157 433q0 192 58 352
t156.5 265t228 163t274.5 58q260 0 410.5 -161.5t150.5 -440.5q0 -181 -57.5 -338t-154 -263.5t-226 -167t-271.5 -60.5zM653 94q110 0 201.5 63.5t149 169t89 237.5t31.5 274q0 133 -35.5 235.5t-109.5 163.5t-178 61q-135 0 -242.5 -93.5t-169 -265.5t-61.5 -394
q0 -204 87.5 -327.5t237.5 -123.5z" />
    <glyph glyph-name="multiply" unicode="&#xd7;" horiz-adv-x="878" 
d="M195 260l-97 98l244 244l-244 246l97 96l243 -246l246 246l96 -96l-245 -246l245 -244l-96 -98l-246 246z" />
    <glyph glyph-name="Oslash" unicode="&#xd8;" horiz-adv-x="1454" 
d="M211 -20h-117l139 172q-145 161 -145 421q0 192 58 352t156.5 265t228 163t274.5 58q210 0 352 -108l88 108h115l-137 -170q143 -162 143 -432q0 -181 -57.5 -338t-154 -263.5t-226 -167t-271.5 -60.5q-211 0 -358 110zM328 545q0 -132 37 -230l679 846q-84 137 -243 137
q-135 0 -242.5 -93.5t-169 -265.5t-61.5 -394zM653 94q110 0 201.5 63.5t149 169t89 237.5t31.5 274q0 131 -37 235l-679 -846q90 -133 245 -133z" />
    <glyph glyph-name="Ugrave" unicode="&#xd9;" horiz-adv-x="1435" 
d="M627 1851h24l299 -280l-45 -60l-366 211zM631 -20q-215 0 -347 75.5t-167 220.5l178 1002l-152 45l13 68h536l-12 -68l-164 -45l-158 -897q-23 -128 58 -203.5t235 -75.5q145 0 256 77t135 210l156 889l-149 45l12 68h461l-13 -68l-163 -45l-175 -981
q-74 -150 -211.5 -233.5t-328.5 -83.5z" />
    <glyph glyph-name="Uacute" unicode="&#xda;" horiz-adv-x="1435" 
d="M1122 1851h23l90 -129l-369 -211l-43 60zM631 -20q-215 0 -347 75.5t-167 220.5l178 1002l-152 45l13 68h536l-12 -68l-164 -45l-158 -897q-23 -128 58 -203.5t235 -75.5q145 0 256 77t135 210l156 889l-149 45l12 68h461l-13 -68l-163 -45l-175 -981
q-74 -150 -211.5 -233.5t-328.5 -83.5z" />
    <glyph glyph-name="Ucircumflex" unicode="&#xdb;" horiz-adv-x="1435" 
d="M969 1839l194 -272l-59 -54l-213 156l-266 -156l-43 54l292 272h95zM631 -20q-215 0 -347 75.5t-167 220.5l178 1002l-152 45l13 68h536l-12 -68l-164 -45l-158 -897q-23 -128 58 -203.5t235 -75.5q145 0 256 77t135 210l156 889l-149 45l12 68h461l-13 -68l-163 -45
l-175 -981q-74 -150 -211.5 -233.5t-328.5 -83.5z" />
    <glyph glyph-name="Udieresis" unicode="&#xdc;" horiz-adv-x="1435" 
d="M725 1579q-36 0 -61 26.5t-25 63.5q0 47 38.5 83t84.5 36q38 0 62 -26t24 -64q0 -49 -36.5 -84t-86.5 -35zM1024 1579q-36 0 -61 26t-25 62q0 49 37.5 85t85.5 36q36 0 61 -26.5t25 -63.5q0 -49 -37.5 -84t-85.5 -35zM631 -20q-215 0 -347 75.5t-167 220.5l178 1002
l-152 45l13 68h536l-12 -68l-164 -45l-158 -897q-23 -128 58 -203.5t235 -75.5q145 0 256 77t135 210l156 889l-149 45l12 68h461l-13 -68l-163 -45l-175 -981q-74 -150 -211.5 -233.5t-328.5 -83.5z" />
    <glyph glyph-name="Yacute" unicode="&#xdd;" horiz-adv-x="1308" 
d="M1040 1851h23l90 -129l-369 -211l-43 60zM238 0l10 68l182 45l78 440l-305 727l-121 45l12 66h527l-13 -66l-157 -45l231 -596h4l465 596l-139 45l10 66h434l-12 -66l-141 -45l-570 -717l-80 -450l164 -45l-10 -68h-569z" />
    <glyph glyph-name="Thorn" unicode="&#xde;" horiz-adv-x="1208" 
d="M649 266q-86 0 -180 33l12 68h94q179 1 276 103t97 286q0 118 -73 184t-211 66h-181l-155 -893l164 -45l-13 -68h-553l13 68l163 45l207 1165l-147 45l10 68h537l-11 -68l-163 -45l-31 -158h196q143 0 250.5 -40t171.5 -126t64 -209q0 -146 -72.5 -256.5t-193.5 -166.5
t-271 -56z" />
    <glyph glyph-name="germandbls" unicode="&#xdf;" horiz-adv-x="1214" 
d="M115 14l149 904h-162l19 90l160 20l4 21q34 193 194 323.5t363 130.5q148 0 234.5 -66.5t86.5 -172.5q0 -49 -18.5 -93t-48.5 -77t-66 -63t-72 -58t-66 -56t-48.5 -63.5t-18.5 -73.5q0 -54 60 -102l149 -119q123 -100 123 -237q0 -147 -112 -244.5t-267 -97.5
q-117 0 -237 45q2 61 19 119.5t34 87.5l16 28l123 -18q-33 -68 -41 -148q55 -22 103 -22q75 0 119 49.5t44 134.5q0 41 -19.5 73t-64.5 68l-118 97q-59 49 -92 100.5t-33 114.5q0 48 18.5 92t47.5 77.5t64.5 66t71 63.5t64.5 63t47.5 71.5t18.5 82.5q0 75 -47.5 124.5
t-129.5 49.5q-229 0 -290 -357l-170 -1007q-34 -197 -132.5 -297t-240.5 -100q-21 0 -41.5 2t-37.5 5.5t-33 8t-27.5 8.5t-22.5 9t-17 8.5t-12 6.5l-6 3q2 60 22.5 113.5t39.5 77.5l20 24l121 -21q-41 -61 -51 -145q20 -4 35 -4q29 0 52.5 11t40.5 33.5t29 45.5t22 60
t15.5 63t12.5 67z" />
    <glyph glyph-name="agrave" unicode="&#xe0;" horiz-adv-x="1183" 
d="M420 1499h24l299 -280l-45 -60l-366 211zM381 -20q-150 0 -231.5 97.5t-81.5 258.5q0 120 30.5 231.5t84.5 199.5t125.5 154.5t158 102t176.5 35.5q150 0 250 -96l108 96l72 -15l-155 -868q-9 -63 26 -63q24 0 59 38.5t57 77.5l23 39l58 -32q-3 -10 -9.5 -27.5t-31 -61.5
t-54.5 -78t-81 -61.5t-109 -27.5q-75 0 -111.5 55t-21.5 133l16 88l-10 2q-140 -278 -348 -278zM446 139q109 0 206 134t130 321l39 225q-67 133 -198 133q-98 0 -176 -91.5t-116 -222t-38 -265.5q0 -234 153 -234z" />
    <glyph glyph-name="aacute" unicode="&#xe1;" horiz-adv-x="1183" 
d="M956 1499h23l90 -129l-369 -211l-43 60zM381 -20q-150 0 -231.5 97.5t-81.5 258.5q0 120 30.5 231.5t84.5 199.5t125.5 154.5t158 102t176.5 35.5q150 0 250 -96l108 96l72 -15l-155 -868q-9 -63 26 -63q24 0 59 38.5t57 77.5l23 39l58 -32q-3 -10 -9.5 -27.5t-31 -61.5
t-54.5 -78t-81 -61.5t-109 -27.5q-75 0 -111.5 55t-21.5 133l16 88l-10 2q-140 -278 -348 -278zM446 139q109 0 206 134t130 321l39 225q-67 133 -198 133q-98 0 -176 -91.5t-116 -222t-38 -265.5q0 -234 153 -234z" />
    <glyph glyph-name="acircumflex" unicode="&#xe2;" horiz-adv-x="1183" 
d="M758 1487l194 -273l-59 -53l-213 156l-266 -156l-43 53l293 273h94zM381 -20q-150 0 -231.5 97.5t-81.5 258.5q0 120 30.5 231.5t84.5 199.5t125.5 154.5t158 102t176.5 35.5q150 0 250 -96l108 96l72 -15l-155 -868q-9 -63 26 -63q24 0 59 38.5t57 77.5l23 39l58 -32
q-3 -10 -9.5 -27.5t-31 -61.5t-54.5 -78t-81 -61.5t-109 -27.5q-75 0 -111.5 55t-21.5 133l16 88l-10 2q-140 -278 -348 -278zM446 139q109 0 206 134t130 321l39 225q-67 133 -198 133q-98 0 -176 -91.5t-116 -222t-38 -265.5q0 -234 153 -234z" />
    <glyph glyph-name="atilde" unicode="&#xe3;" horiz-adv-x="1183" 
d="M393 1190l-63 37q114 223 254 223q55 0 106 -21t96 -42t88 -21q48 21 109 113l59 -31q-19 -43 -34 -72t-42.5 -67.5t-63 -59t-77.5 -20.5q-55 0 -105 22t-98.5 44t-99.5 22q-30 -13 -59.5 -41t-69.5 -86zM381 -20q-150 0 -231.5 97.5t-81.5 258.5q0 120 30.5 231.5
t84.5 199.5t125.5 154.5t158 102t176.5 35.5q150 0 250 -96l108 96l72 -15l-155 -868q-9 -63 26 -63q24 0 59 38.5t57 77.5l23 39l58 -32q-3 -10 -9.5 -27.5t-31 -61.5t-54.5 -78t-81 -61.5t-109 -27.5q-75 0 -111.5 55t-21.5 133l16 88l-10 2q-140 -278 -348 -278zM446 139
q109 0 206 134t130 321l39 225q-67 133 -198 133q-98 0 -176 -91.5t-116 -222t-38 -265.5q0 -234 153 -234z" />
    <glyph glyph-name="adieresis" unicode="&#xe4;" horiz-adv-x="1183" 
d="M532 1227q-36 0 -61 26.5t-25 63.5q0 47 38.5 83t84.5 36q38 0 62 -26t24 -64q0 -49 -36.5 -84t-86.5 -35zM831 1227q-36 0 -61 26t-25 62q0 49 37.5 85t85.5 36q36 0 61 -26.5t25 -63.5q0 -49 -37.5 -84t-85.5 -35zM381 -20q-150 0 -231.5 97.5t-81.5 258.5
q0 120 30.5 231.5t84.5 199.5t125.5 154.5t158 102t176.5 35.5q150 0 250 -96l108 96l72 -15l-155 -868q-9 -63 26 -63q24 0 59 38.5t57 77.5l23 39l58 -32q-3 -10 -9.5 -27.5t-31 -61.5t-54.5 -78t-81 -61.5t-109 -27.5q-75 0 -111.5 55t-21.5 133l16 88l-10 2
q-140 -278 -348 -278zM446 139q109 0 206 134t130 321l39 225q-67 133 -198 133q-98 0 -176 -91.5t-116 -222t-38 -265.5q0 -234 153 -234z" />
    <glyph glyph-name="aring" unicode="&#xe5;" horiz-adv-x="1183" 
d="M922 1337q0 -88 -61 -135t-159 -47q-84 0 -137 43t-53 115q0 86 62.5 133t160.5 47q84 0 135.5 -42.5t51.5 -113.5zM707 1221q98 0 98 129q0 38 -19.5 59t-56.5 21q-100 0 -100 -130q0 -38 20.5 -58.5t57.5 -20.5zM381 -20q-150 0 -231.5 97.5t-81.5 258.5
q0 120 30.5 231.5t84.5 199.5t125.5 154.5t158 102t176.5 35.5q150 0 250 -96l108 96l72 -15l-155 -868q-9 -63 26 -63q24 0 59 38.5t57 77.5l23 39l58 -32q-3 -10 -9.5 -27.5t-31 -61.5t-54.5 -78t-81 -61.5t-109 -27.5q-75 0 -111.5 55t-21.5 133l16 88l-10 2
q-140 -278 -348 -278zM446 139q109 0 206 134t130 321l39 225q-67 133 -198 133q-98 0 -176 -91.5t-116 -222t-38 -265.5q0 -234 153 -234z" />
    <glyph glyph-name="ae" unicode="&#xe6;" horiz-adv-x="1583" 
d="M1042 -20q-236 0 -325 167q-188 -167 -381 -167q-64 0 -115 14t-90 43.5t-54.5 82t-2.5 122.5l22 127q57 58 137 104t172.5 76.5t153 46t139.5 31.5l17 75q26 124 -14 188t-160 64q-72 0 -140 -41q-18 -33 -33 -83t-20 -84l-6 -33h-125q-37 84 -37 188q67 64 178 111
t238 47q212 0 272 -150q74 72 165 111t188 39q142 0 224.5 -67.5t82.5 -176.5q0 -51 -16 -95.5t-42 -77.5t-66 -60.5t-79.5 -46t-93 -34t-95.5 -24t-97.5 -15.5t-89.5 -10t-79 -6v-38q0 -137 63.5 -205t170.5 -68q96 0 171.5 48t145.5 134l45 -34q-31 -62 -70 -113
t-90.5 -95.5t-119 -69.5t-144.5 -25zM1194 956q-116 0 -203.5 -111.5t-111.5 -303.5q454 26 454 274q0 65 -39 103t-100 38zM666 375q0 79 12 153q-246 -61 -381 -159l-14 -90q-13 -83 16.5 -125.5t114.5 -42.5q140 0 276 98q-24 71 -24 166z" />
    <glyph glyph-name="ccedilla" unicode="&#xe7;" horiz-adv-x="966" 
d="M854 719l-125 18q25 80 33 166q-66 49 -158 49q-156 0 -239.5 -138t-83.5 -363q0 -156 63 -234t174 -78q163 0 305 213l47 -24q-30 -96 -85.5 -173.5t-143.5 -128.5t-192 -51q-40 0 -56 2l-39 -43q61 -12 98 -48t37 -83q0 -78 -65 -121.5t-176 -43.5q-99 0 -160 55l35 49
q52 -33 123 -33q49 0 75.5 23t26.5 59q0 33 -32 59t-95 39l2 9l86 98q-117 35 -179 135.5t-62 255.5q0 156 49 285.5t130 212.5t182 128.5t208 45.5q106 0 185 -30t116 -71q-3 -60 -24 -119.5t-39 -89.5t-21 -30z" />
    <glyph glyph-name="egrave" unicode="&#xe8;" horiz-adv-x="987" 
d="M385 1499h25l299 -280l-45 -60l-367 211zM446 -20q-180 0 -279 102t-99 293q0 153 47 284t125 217t178 134.5t207 48.5q142 0 224.5 -67.5t82.5 -176.5q0 -65 -26 -119t-65 -90t-100.5 -64.5t-115 -44t-126.5 -27.5t-118 -16t-105 -8v-38q0 -137 63 -205t171 -68
q96 0 170 47.5t147 134.5l43 -34q-31 -62 -69 -113t-90 -95.5t-120 -69.5t-145 -25zM598 956q-116 0 -202.5 -111.5t-110.5 -303.5q452 26 452 274q0 65 -39 103t-100 38z" />
    <glyph glyph-name="eacute" unicode="&#xe9;" horiz-adv-x="987" 
d="M860 1499h23l90 -129l-369 -211l-43 60zM446 -20q-180 0 -279 102t-99 293q0 153 47 284t125 217t178 134.5t207 48.5q142 0 224.5 -67.5t82.5 -176.5q0 -65 -26 -119t-65 -90t-100.5 -64.5t-115 -44t-126.5 -27.5t-118 -16t-105 -8v-38q0 -137 63 -205t171 -68
q96 0 170 47.5t147 134.5l43 -34q-31 -62 -69 -113t-90 -95.5t-120 -69.5t-145 -25zM598 956q-116 0 -202.5 -111.5t-110.5 -303.5q452 26 452 274q0 65 -39 103t-100 38z" />
    <glyph glyph-name="ecircumflex" unicode="&#xea;" horiz-adv-x="987" 
d="M709 1487l194 -273l-59 -53l-213 156l-266 -156l-43 53l292 273h95zM446 -20q-180 0 -279 102t-99 293q0 153 47 284t125 217t178 134.5t207 48.5q142 0 224.5 -67.5t82.5 -176.5q0 -65 -26 -119t-65 -90t-100.5 -64.5t-115 -44t-126.5 -27.5t-118 -16t-105 -8v-38
q0 -137 63 -205t171 -68q96 0 170 47.5t147 134.5l43 -34q-31 -62 -69 -113t-90 -95.5t-120 -69.5t-145 -25zM598 956q-116 0 -202.5 -111.5t-110.5 -303.5q452 26 452 274q0 65 -39 103t-100 38z" />
    <glyph glyph-name="edieresis" unicode="&#xeb;" horiz-adv-x="987" 
d="M453 1227q-36 0 -61 26.5t-25 63.5q0 47 38 83t84 36q38 0 62 -26t24 -64q0 -49 -36 -84t-86 -35zM752 1227q-36 0 -61 26t-25 62q0 49 37 85t85 36q36 0 61 -26.5t25 -63.5q0 -49 -37 -84t-85 -35zM446 -20q-180 0 -279 102t-99 293q0 153 47 284t125 217t178 134.5
t207 48.5q142 0 224.5 -67.5t82.5 -176.5q0 -65 -26 -119t-65 -90t-100.5 -64.5t-115 -44t-126.5 -27.5t-118 -16t-105 -8v-38q0 -137 63 -205t171 -68q96 0 170 47.5t147 134.5l43 -34q-31 -62 -69 -113t-90 -95.5t-120 -69.5t-145 -25zM598 956q-116 0 -202.5 -111.5
t-110.5 -303.5q452 26 452 274q0 65 -39 103t-100 38z" />
    <glyph glyph-name="igrave" unicode="&#xec;" horiz-adv-x="628" 
d="M147 1499h25l299 -280l-45 -60l-367 211zM283 -20q-80 0 -117.5 52t-24.5 126l131 704q11 64 -26 64q-24 0 -59 -39t-58 -78l-23 -39l-57 33l11 27.5t33 61.5t56.5 78t82.5 61.5t110 27.5q85 0 121 -49t22 -129l-133 -705q-10 -63 27 -63q24 0 59 38.5t58 77.5l22 39
l57 -32q-2 -5 -5.5 -14.5t-16.5 -36t-28 -50.5t-40.5 -53.5t-53.5 -51t-67 -36t-81 -14.5z" />
    <glyph glyph-name="iacute" unicode="&#xed;" horiz-adv-x="628" 
d="M602 1499h23l90 -129l-369 -211l-43 60zM283 -20q-80 0 -117.5 52t-24.5 126l131 704q11 64 -26 64q-24 0 -59 -39t-58 -78l-23 -39l-57 33l11 27.5t33 61.5t56.5 78t82.5 61.5t110 27.5q85 0 121 -49t22 -129l-133 -705q-10 -63 27 -63q24 0 59 38.5t58 77.5l22 39
l57 -32q-2 -5 -5.5 -14.5t-16.5 -36t-28 -50.5t-40.5 -53.5t-53.5 -51t-67 -36t-81 -14.5z" />
    <glyph glyph-name="icircumflex" unicode="&#xee;" horiz-adv-x="628" 
d="M457 1487l194 -273l-59 -53l-213 156l-266 -156l-43 53l292 273h95zM283 -20q-80 0 -117.5 52t-24.5 126l131 704q11 64 -26 64q-24 0 -59 -39t-58 -78l-23 -39l-57 33l11 27.5t33 61.5t56.5 78t82.5 61.5t110 27.5q85 0 121 -49t22 -129l-133 -705q-10 -63 27 -63
q24 0 59 38.5t58 77.5l22 39l57 -32q-2 -5 -5.5 -14.5t-16.5 -36t-28 -50.5t-40.5 -53.5t-53.5 -51t-67 -36t-81 -14.5z" />
    <glyph glyph-name="idieresis" unicode="&#xef;" horiz-adv-x="628" 
d="M227 1227q-36 0 -61 26.5t-25 63.5q0 47 38.5 83t84.5 36q38 0 62 -26t24 -64q0 -49 -36.5 -84t-86.5 -35zM526 1227q-36 0 -61 26t-25 62q0 49 37.5 85t85.5 36q36 0 61 -26.5t25 -63.5q0 -49 -37.5 -84t-85.5 -35zM283 -20q-80 0 -117.5 52t-24.5 126l131 704
q11 64 -26 64q-24 0 -59 -39t-58 -78l-23 -39l-57 33l11 27.5t33 61.5t56.5 78t82.5 61.5t110 27.5q85 0 121 -49t22 -129l-133 -705q-10 -63 27 -63q24 0 59 38.5t58 77.5l22 39l57 -32q-2 -5 -5.5 -14.5t-16.5 -36t-28 -50.5t-40.5 -53.5t-53.5 -51t-67 -36t-81 -14.5z
" />
    <glyph glyph-name="eth" unicode="&#xf0;" horiz-adv-x="1093" 
d="M1012 1337l-154 -65q168 -240 168 -647q0 -182 -70.5 -330.5t-190 -231.5t-261.5 -83q-193 0 -314.5 123.5t-121.5 316.5q0 115 27.5 217t76.5 178t114.5 131.5t144 84t161.5 28.5q106 0 194 -45q-27 103 -77 196l-156 -65l-25 84l134 55q-60 81 -148 143l76 76
q116 -63 209 -160l186 80zM805 662q0 131 -53.5 210.5t-149.5 79.5q-64 0 -117 -34t-89 -90.5t-60.5 -132t-35.5 -156t-11 -164.5q0 -129 54 -208t151 -79q78 0 139.5 49.5t98 132.5t55 183t18.5 209z" />
    <glyph glyph-name="ntilde" unicode="&#xf1;" horiz-adv-x="1234" 
d="M426 1190l-64 37q114 223 254 223q55 0 106 -21t96.5 -42t88.5 -21q48 21 109 113l59 -31q-19 -43 -34 -72t-42.5 -67.5t-63 -59t-77.5 -20.5q-66 0 -154 44t-149 44q-30 -13 -59.5 -41t-69.5 -86zM909 -20q-80 0 -117 52t-24 126l100 577q28 164 -104 164
q-114 0 -215.5 -131t-136.5 -324l-80 -444h-209l153 862q11 64 -26 64q-24 0 -59 -39t-57 -78l-23 -39l-60 33l11 27.5t33 61.5t56.5 78t82.5 61.5t110 27.5q78 0 111.5 -51.5t19.5 -126.5l-20 -99l10 -2q67 129 158 204t219 75q131 0 196.5 -86t40.5 -223l-100 -574
q-6 -28 -0.5 -45.5t27.5 -17.5q24 0 59 38.5t57 77.5l23 39l57 -32l-11 -27.5t-33 -61.5t-56.5 -78t-82.5 -61.5t-110 -27.5z" />
    <glyph glyph-name="ograve" unicode="&#xf2;" horiz-adv-x="1093" 
d="M397 1499h25l299 -280l-45 -60l-367 211zM504 -20q-193 0 -314.5 123.5t-121.5 316.5q0 144 43.5 266t116.5 202.5t169 125.5t201 45q195 0 311.5 -125.5t116.5 -319.5q0 -138 -43 -257.5t-114.5 -201.5t-166.5 -128.5t-198 -46.5zM494 88q78 0 139.5 49.5t98 132.5
t55 183t18.5 209q0 131 -53.5 210.5t-149.5 79.5q-64 0 -117 -34t-89 -90.5t-60.5 -132t-35.5 -156t-11 -164.5q0 -129 54 -208t151 -79z" />
    <glyph glyph-name="oacute" unicode="&#xf3;" horiz-adv-x="1093" 
d="M848 1499h22l91 -129l-369 -211l-43 60zM504 -20q-193 0 -314.5 123.5t-121.5 316.5q0 144 43.5 266t116.5 202.5t169 125.5t201 45q195 0 311.5 -125.5t116.5 -319.5q0 -138 -43 -257.5t-114.5 -201.5t-166.5 -128.5t-198 -46.5zM494 88q78 0 139.5 49.5t98 132.5
t55 183t18.5 209q0 131 -53.5 210.5t-149.5 79.5q-64 0 -117 -34t-89 -90.5t-60.5 -132t-35.5 -156t-11 -164.5q0 -129 54 -208t151 -79z" />
    <glyph glyph-name="ocircumflex" unicode="&#xf4;" horiz-adv-x="1093" 
d="M723 1487l195 -273l-60 -53l-213 156l-266 -156l-43 53l293 273h94zM504 -20q-193 0 -314.5 123.5t-121.5 316.5q0 144 43.5 266t116.5 202.5t169 125.5t201 45q195 0 311.5 -125.5t116.5 -319.5q0 -138 -43 -257.5t-114.5 -201.5t-166.5 -128.5t-198 -46.5zM494 88
q78 0 139.5 49.5t98 132.5t55 183t18.5 209q0 131 -53.5 210.5t-149.5 79.5q-64 0 -117 -34t-89 -90.5t-60.5 -132t-35.5 -156t-11 -164.5q0 -129 54 -208t151 -79z" />
    <glyph glyph-name="otilde" unicode="&#xf5;" horiz-adv-x="1093" 
d="M338 1190l-64 37q114 223 254 223q55 0 106 -21t96.5 -42t88.5 -21q48 21 109 113l59 -31q-19 -43 -34 -72t-42.5 -67.5t-63 -59t-77.5 -20.5q-66 0 -154 44t-149 44q-30 -13 -59.5 -41t-69.5 -86zM504 -20q-193 0 -314.5 123.5t-121.5 316.5q0 144 43.5 266t116.5 202.5
t169 125.5t201 45q195 0 311.5 -125.5t116.5 -319.5q0 -138 -43 -257.5t-114.5 -201.5t-166.5 -128.5t-198 -46.5zM494 88q78 0 139.5 49.5t98 132.5t55 183t18.5 209q0 131 -53.5 210.5t-149.5 79.5q-64 0 -117 -34t-89 -90.5t-60.5 -132t-35.5 -156t-11 -164.5
q0 -129 54 -208t151 -79z" />
    <glyph glyph-name="odieresis" unicode="&#xf6;" horiz-adv-x="1093" 
d="M485 1227q-36 0 -61 26.5t-25 63.5q0 47 38.5 83t84.5 36q38 0 62 -26t24 -64q0 -49 -36.5 -84t-86.5 -35zM784 1227q-36 0 -61 26t-25 62q0 49 37.5 85t85.5 36q36 0 61 -26.5t25 -63.5q0 -49 -37.5 -84t-85.5 -35zM504 -20q-193 0 -314.5 123.5t-121.5 316.5
q0 144 43.5 266t116.5 202.5t169 125.5t201 45q195 0 311.5 -125.5t116.5 -319.5q0 -138 -43 -257.5t-114.5 -201.5t-166.5 -128.5t-198 -46.5zM494 88q78 0 139.5 49.5t98 132.5t55 183t18.5 209q0 131 -53.5 210.5t-149.5 79.5q-64 0 -117 -34t-89 -90.5t-60.5 -132
t-35.5 -156t-11 -164.5q0 -129 54 -208t151 -79z" />
    <glyph glyph-name="divide" unicode="&#xf7;" horiz-adv-x="1024" 
d="M397 944q0 47 35.5 81t81.5 34t80.5 -34t34.5 -81t-34.5 -81t-80.5 -34t-81.5 34t-35.5 81zM98 539v137h828v-137h-828zM397 268q0 47 35.5 81t81.5 34t80.5 -34t34.5 -81t-34.5 -80.5t-80.5 -33.5t-81.5 33.5t-35.5 80.5z" />
    <glyph glyph-name="oslash" unicode="&#xf8;" horiz-adv-x="1093" 
d="M152 -20h-109l123 147q-98 118 -98 293q0 144 43.5 266t116.5 202.5t169 125.5t201 45q158 0 270 -88l74 88h107l-123 -148q100 -124 100 -297q0 -138 -43 -257.5t-114.5 -201.5t-166.5 -128.5t-198 -46.5q-162 0 -279 90zM289 375q0 -49 6 -92l471 565q-55 104 -164 104
q-64 0 -117 -34t-89 -90.5t-60.5 -132t-35.5 -156t-11 -164.5zM494 88q78 0 139.5 49.5t98 132.5t55 183t18.5 209q0 32 -8 94l-469 -566q53 -102 166 -102z" />
    <glyph glyph-name="ugrave" unicode="&#xf9;" horiz-adv-x="1222" 
d="M449 1499h24l299 -280l-45 -60l-367 211zM401 -20q-59 0 -105.5 16.5t-76 45t-48 59.5t-28.5 67l129 694q6 28 0.5 46t-26.5 18q-24 0 -58 -39t-56 -78l-23 -39l-58 33l11 27.5t32.5 61.5t56.5 78t82.5 61.5t108.5 27.5q80 0 117 -52t24 -126l-125 -670q8 -31 38.5 -51.5
t82.5 -20.5q111 0 210.5 131t133.5 324l80 444h209l-154 -862q-11 -63 27 -63q24 0 59 38.5t58 77.5l22 39l60 -32l-11 -27.5t-33 -61.5t-56.5 -78t-82.5 -61.5t-110 -27.5q-78 0 -111.5 51.5t-19.5 126.5l20 98l-10 2q-66 -130 -154 -204t-215 -74z" />
    <glyph glyph-name="uacute" unicode="&#xfa;" horiz-adv-x="1222" 
d="M918 1499h22l90 -129l-368 -211l-44 60zM401 -20q-59 0 -105.5 16.5t-76 45t-48 59.5t-28.5 67l129 694q6 28 0.5 46t-26.5 18q-24 0 -58 -39t-56 -78l-23 -39l-58 33l11 27.5t32.5 61.5t56.5 78t82.5 61.5t108.5 27.5q80 0 117 -52t24 -126l-125 -670q8 -31 38.5 -51.5
t82.5 -20.5q111 0 210.5 131t133.5 324l80 444h209l-154 -862q-11 -63 27 -63q24 0 59 38.5t58 77.5l22 39l60 -32l-11 -27.5t-33 -61.5t-56.5 -78t-82.5 -61.5t-110 -27.5q-78 0 -111.5 51.5t-19.5 126.5l20 98l-10 2q-66 -130 -154 -204t-215 -74z" />
    <glyph glyph-name="ucircumflex" unicode="&#xfb;" horiz-adv-x="1222" 
d="M813 1487l195 -273l-60 -53l-213 156l-266 -156l-43 53l293 273h94zM401 -20q-59 0 -105.5 16.5t-76 45t-48 59.5t-28.5 67l129 694q6 28 0.5 46t-26.5 18q-24 0 -58 -39t-56 -78l-23 -39l-58 33l11 27.5t32.5 61.5t56.5 78t82.5 61.5t108.5 27.5q80 0 117 -52t24 -126
l-125 -670q8 -31 38.5 -51.5t82.5 -20.5q111 0 210.5 131t133.5 324l80 444h209l-154 -862q-11 -63 27 -63q24 0 59 38.5t58 77.5l22 39l60 -32l-11 -27.5t-33 -61.5t-56.5 -78t-82.5 -61.5t-110 -27.5q-78 0 -111.5 51.5t-19.5 126.5l20 98l-10 2q-66 -130 -154 -204
t-215 -74z" />
    <glyph glyph-name="udieresis" unicode="&#xfc;" horiz-adv-x="1222" 
d="M545 1227q-36 0 -61 26.5t-25 63.5q0 47 38.5 83t84.5 36q38 0 62 -26t24 -64q0 -49 -36.5 -84t-86.5 -35zM844 1227q-36 0 -61 26t-25 62q0 49 37.5 85t85.5 36q36 0 61 -26.5t25 -63.5q0 -49 -37.5 -84t-85.5 -35zM401 -20q-59 0 -105.5 16.5t-76 45t-48 59.5t-28.5 67
l129 694q6 28 0.5 46t-26.5 18q-24 0 -58 -39t-56 -78l-23 -39l-58 33l11 27.5t32.5 61.5t56.5 78t82.5 61.5t108.5 27.5q80 0 117 -52t24 -126l-125 -670q8 -31 38.5 -51.5t82.5 -20.5q111 0 210.5 131t133.5 324l80 444h209l-154 -862q-11 -63 27 -63q24 0 59 38.5
t58 77.5l22 39l60 -32l-11 -27.5t-33 -61.5t-56.5 -78t-82.5 -61.5t-110 -27.5q-78 0 -111.5 51.5t-19.5 126.5l20 98l-10 2q-66 -130 -154 -204t-215 -74z" />
    <glyph glyph-name="yacute" unicode="&#xfd;" horiz-adv-x="1052" 
d="M860 1499h23l90 -129l-369 -211l-43 60zM242 -362q-53 21 -99.5 60.5t-66.5 69.5l-21 29l109 105q51 -68 104 -97q82 52 189 181l-219 864q-15 53 -37 53q-25 0 -48 -49t-33.5 -92.5t-10.5 -50.5l-64 12q0 17 3 42t11.5 65.5t27.5 78.5t45.5 73t71 56t99.5 21
q58 0 96 -36t50 -97l161 -715h2q2 0 2 2q105 178 180.5 364t86.5 287q-33 21 -76 35t-69 17l-27 4l86 139h14t36.5 -4t54 -11t61.5 -23.5t65 -39.5q-5 -134 -94 -366.5t-223 -458.5q-109 -181 -229.5 -317t-237.5 -201z" />
    <glyph glyph-name="thorn" unicode="&#xfe;" horiz-adv-x="1161" 
d="M510 -20q-133 0 -225 61l-47 -270l159 -45l-10 -68h-522l12 68l154 45l278 1575l-139 24l12 70l301 63h62l-86 -491q-11 -63 -25 -120.5t-22 -83.5l-9 -26l11 -2q30 59 61.5 104.5t75 87.5t100 64.5t121.5 22.5q150 0 236 -101t86 -262q0 -199 -73 -362.5t-207.5 -258.5
t-303.5 -95zM358 444l-45 -256q35 -43 89.5 -72.5t121.5 -29.5q72 0 131.5 35.5t98 93t65 134t38 156t11.5 161.5q0 233 -172 233q-111 0 -208 -133.5t-130 -321.5z" />
    <glyph glyph-name="ydieresis" unicode="&#xff;" horiz-adv-x="1052" 
d="M477 1227q-36 0 -61 26.5t-25 63.5q0 47 38.5 83t84.5 36q38 0 62 -26t24 -64q0 -49 -36.5 -84t-86.5 -35zM776 1227q-36 0 -61 26t-25 62q0 49 37.5 85t85.5 36q36 0 61 -26.5t25 -63.5q0 -49 -37.5 -84t-85.5 -35zM242 -362q-53 21 -99.5 60.5t-66.5 69.5l-21 29
l109 105q51 -68 104 -97q82 52 189 181l-219 864q-15 53 -37 53q-25 0 -48 -49t-33.5 -92.5t-10.5 -50.5l-64 12q0 17 3 42t11.5 65.5t27.5 78.5t45.5 73t71 56t99.5 21q58 0 96 -36t50 -97l161 -715h2q2 0 2 2q105 178 180.5 364t86.5 287q-33 21 -76 35t-69 17l-27 4
l86 139h14t36.5 -4t54 -11t61.5 -23.5t65 -39.5q-5 -134 -94 -366.5t-223 -458.5q-109 -181 -229.5 -317t-237.5 -201z" />
    <glyph glyph-name="dotlessi" unicode="&#x131;" horiz-adv-x="628" 
d="M283 -20q-80 0 -117.5 52t-24.5 126l131 704q11 64 -26 64q-24 0 -59 -39t-58 -78l-23 -39l-57 33l11 27.5t33 61.5t56.5 78t82.5 61.5t110 27.5q85 0 121 -49t22 -129l-133 -705q-10 -63 27 -63q24 0 59 38.5t58 77.5l22 39l57 -32q-2 -5 -5.5 -14.5t-16.5 -36
t-28 -50.5t-40.5 -53.5t-53.5 -51t-67 -36t-81 -14.5z" />
    <glyph glyph-name="Lslash" unicode="&#x141;" horiz-adv-x="1128" 
d="M-14 471l26 145l203 134l94 528l-147 45l10 68h537l-11 -68l-163 -45l-66 -360l215 141l-27 -146l-213 -141l-116 -657h487q33 69 73.5 137.5t64.5 102.5l24 34l72 -14q-50 -172 -66 -264l-20 -111h-1037l13 68l163 45l86 491z" />
    <glyph glyph-name="lslash" unicode="&#x142;" horiz-adv-x="604" 
d="M-14 471l26 145l187 123l106 607l-139 24l12 70l299 63h62l-109 -610l250 166l-27 -146l-247 -163l-101 -574q-10 -63 27 -63q24 0 59 38.5t57 77.5l23 39l59 -32q-2 -5 -5.5 -14.5t-16.5 -36t-28 -50.5t-40.5 -53.5t-53.5 -51t-67 -36t-81 -14.5q-81 0 -118 51.5
t-24 126.5l76 436z" />
    <glyph glyph-name="OE" unicode="&#x152;" horiz-adv-x="1927" 
d="M1698 0h-918q-81 -20 -172 -20q-237 0 -378.5 150.5t-141.5 410.5q0 196 62 361.5t166 275.5t239 171.5t283 61.5q96 0 172 -20h888l-20 -107q-7 -41 -13 -103t-8 -103l-2 -42l-79 -16q-50 100 -68 256h-500l-90 -514l422 6l59 113h78l-61 -344h-72l-26 112l-418 4
l-96 -538h546q33 69 73.5 136.5t64.5 100.5l24 33l70 -14q-50 -173 -66 -265zM637 94q71 0 143 29l199 1126q-64 49 -162 49q-140 0 -251 -95.5t-174.5 -272t-63.5 -402.5q0 -197 83 -315.5t226 -118.5z" />
    <glyph glyph-name="oe" unicode="&#x153;" horiz-adv-x="1718" 
d="M504 -20q-193 0 -314.5 123.5t-121.5 316.5q0 144 43.5 266t116.5 202.5t169 125.5t201 45q123 0 215.5 -59.5t140.5 -163.5q76 106 182 164.5t220 58.5q142 0 224.5 -67.5t82.5 -176.5q0 -47 -12 -87.5t-36 -72t-53 -58t-69.5 -46t-77.5 -35t-86 -26.5t-86.5 -18.5
t-87 -12.5t-79 -7.5t-70.5 -5.5v-38q0 -137 63.5 -205t169.5 -68q96 0 172 48t148 134l43 -34q-153 -303 -424 -303q-238 0 -318 186q-69 -88 -162 -137t-194 -49zM1329 956q-116 0 -203.5 -111.5t-111.5 -303.5q454 27 454 274q0 65 -39 103t-100 38zM494 88
q78 0 139.5 49.5t98 132.5t55 183t18.5 209q0 131 -53.5 210.5t-149.5 79.5q-64 0 -117 -34t-89 -90.5t-60.5 -132t-35.5 -156t-11 -164.5q0 -129 54 -208t151 -79z" />
    <glyph glyph-name="Scaron" unicode="&#x160;" horiz-adv-x="1144" 
d="M629 1513l-197 273l62 53l211 -156l268 156l41 -53l-291 -273h-94zM1073 1040l-90 -22q-7 8 -18.5 23.5t-34 71.5t-31.5 120q-105 65 -246 65q-127 0 -195.5 -60.5t-68.5 -150.5q0 -68 42 -112.5t128 -89.5l209 -105q119 -59 185.5 -148t66.5 -204q0 -191 -145.5 -319.5
t-385.5 -128.5q-272 0 -495 106l20 109q6 36 9.5 92.5t3.5 95.5v39l94 24q9 -12 22.5 -33.5t37.5 -92t28 -144.5q119 -80 268 -80q145 0 231.5 76t86.5 205q0 145 -174 231l-213 105q-100 49 -165 130.5t-65 186.5q0 98 42.5 173.5t114.5 119.5t158 66t183 22
q119 0 254.5 -32.5t169.5 -35.5l-17 -98q-7 -38 -9.5 -89.5t-1.5 -83.5z" />
    <glyph glyph-name="scaron" unicode="&#x161;" horiz-adv-x="909" 
d="M508 1161l-197 273l62 53l211 -156l268 156l41 -53l-291 -273h-94zM778 776l-123 19q34 52 50 118q-88 45 -179 45q-87 0 -139.5 -43t-52.5 -114q0 -92 110 -139l156 -68q106 -44 163.5 -113t57.5 -153q0 -160 -121.5 -254t-308.5 -94q-204 0 -377 81q2 61 19.5 120.5
t34.5 88.5l16 29l123 -20q-27 -60 -39 -132q106 -65 215 -65t170 50.5t61 135.5q0 47 -30 87.5t-88 64.5l-148 59q-90 38 -148.5 109t-58.5 162q0 67 24.5 120.5t64 88t92 58t105.5 33t108 9.5q95 0 197.5 -23.5t131.5 -23.5q-2 -61 -23.5 -120t-42.5 -88z" />
    <glyph glyph-name="Ydieresis" unicode="&#x178;" horiz-adv-x="1308" 
d="M637 1579q-36 0 -61 26.5t-25 63.5q0 47 38.5 83t84.5 36q38 0 62 -26t24 -64q0 -49 -36.5 -84t-86.5 -35zM936 1579q-36 0 -61 26t-25 62q0 49 37.5 85t85.5 36q36 0 61 -26.5t25 -63.5q0 -49 -37.5 -84t-85.5 -35zM238 0l10 68l182 45l78 440l-305 727l-121 45l12 66
h527l-13 -66l-157 -45l231 -596h4l465 596l-139 45l10 66h434l-12 -66l-141 -45l-570 -717l-80 -450l164 -45l-10 -68h-569z" />
    <glyph glyph-name="Zcaron" unicode="&#x17d;" horiz-adv-x="1173" 
d="M680 1513l-197 273l62 53l211 -156l268 156l41 -53l-291 -273h-94zM227 985l-77 19q49 161 69 274l21 113h968l-20 -105l-959 -1171h615q29 68 70.5 140t68.5 110l27 38l82 -16q-45 -145 -68 -272l-20 -115h-1076l17 100l964 1176h-510q-19 -58 -62 -131t-77 -117z" />
    <glyph glyph-name="zcaron" unicode="&#x17e;" horiz-adv-x="1017" 
d="M545 1161l-197 273l62 53l211 -156l268 156l41 -53l-291 -273h-94zM195 682h-56q-3 8 -8 28t-10.5 58t-5.5 72q0 94 46 156.5t138 62.5q63 0 154.5 -33.5t173.5 -67.5t121 -34q27 0 40 16l84 98h150v-24l-703 -815q12 2 39 2q56 0 187.5 -27t183.5 -27q107 0 135 150
l10 57h62q18 -54 18 -153q0 -45 -8.5 -83.5t-30 -77t-66.5 -61t-110 -22.5q-73 0 -170 34.5t-181 68.5t-126 34q-34 0 -51 -20l-64 -74h-141v27l680 792h-37q-69 0 -188 23.5t-148 23.5q-45 0 -68.5 -31.5t-35.5 -86.5z" />
    <glyph glyph-name="florin" unicode="&#x192;" horiz-adv-x="1056" 
d="M975 1055l-123 20q43 60 51 144q-42 14 -74 14q-42 0 -75 -17.5t-54 -43t-37.5 -65.5t-25 -74.5t-16.5 -80.5l-33 -200h231v-109h-250l-100 -608q-33 -197 -131 -297t-242 -100q-51 0 -100 13t-66.5 22t-27.5 16q2 60 22 113.5t39 77.5l19 24l122 -21q-43 -61 -53 -145
q12 -4 37 -4q34 0 61 17.5t44 42.5t30.5 65.5t20.5 74.5t14 80l102 629h-178v109h197l31 180q32 194 146.5 295.5t268.5 101.5q62 0 119.5 -13t79.5 -22.5t31 -15.5q-2 -61 -22 -116.5t-39 -81.5z" />
    <glyph glyph-name="circumflex" unicode="&#x2c6;" horiz-adv-x="755" 
d="M539 1487l194 -273l-59 -53l-213 156l-266 -156l-43 53l292 273h95z" />
    <glyph glyph-name="caron" unicode="&#x2c7;" horiz-adv-x="755" 
d="M389 1161l-196 273l61 53l211 -156l268 156l41 -53l-291 -273h-94z" />
    <glyph glyph-name="breve" unicode="&#x2d8;" horiz-adv-x="661" 
d="M369 1323q61 0 106.5 38t69.5 95l88 -31q-36 -95 -108.5 -158t-174.5 -63q-107 0 -160 63t-55 158l103 33q5 -58 37 -96.5t94 -38.5z" />
    <glyph glyph-name="dotaccent" unicode="&#x2d9;" horiz-adv-x="458" 
d="M315 1206q-52 0 -85 31.5t-33 77.5q0 63 43.5 107t105.5 44q53 0 86 -31.5t33 -78.5q0 -63 -44 -106.5t-106 -43.5z" />
    <glyph glyph-name="ring" unicode="&#x2da;" horiz-adv-x="591" 
d="M602 1337q0 -88 -60.5 -135t-158.5 -47q-84 0 -137 43t-53 115q0 86 62.5 133t160.5 47q84 0 135 -42.5t51 -113.5zM387 1221q98 0 98 129q0 80 -75 80q-101 0 -101 -130q0 -38 20.5 -58.5t57.5 -20.5z" />
    <glyph glyph-name="ogonek" unicode="&#x2db;" horiz-adv-x="581" 
d="M326 -229l2 -86q-75 -47 -176 -47q-79 0 -131 36t-52 111q0 58 36 110t94.5 89t116.5 62t118 42l72 -39q-118 -32 -200.5 -90.5t-82.5 -130.5q0 -80 98 -80q51 0 105 23z" />
    <glyph glyph-name="tilde" unicode="&#x2dc;" horiz-adv-x="1003" 
d="M299 1190l-63 37q114 223 253 223q55 0 106 -21t96.5 -42t88.5 -21q48 21 109 113l59 -31q-19 -43 -34 -72t-42.5 -67.5t-63 -59t-77.5 -20.5q-55 0 -105 22t-98.5 44t-99.5 22q-30 -13 -59.5 -41t-69.5 -86z" />
    <glyph glyph-name="hungarumlaut" unicode="&#x2dd;" horiz-adv-x="776" 
d="M422 1499h22l88 -121l-364 -215l-43 49zM389 1214l352 213l74 -116l-2 -27l-383 -121z" />
    <glyph glyph-name="uni0394" unicode="&#x394;" horiz-adv-x="2107" 
d="M600 262h-33q-198 0 -321 115t-123 282t123 283.5t321 116.5t320.5 -121t122.5 -307q0 -139 -39 -251.5t-104.5 -186.5t-155 -123.5t-187.5 -71t-205 -21.5q-63 0 -124 9v2q47 5 106.5 24.5t121.5 52.5t111 85t66 112zM1573 262h-33q-196 0 -319 115t-123 282t123 283.5
t319 116.5q198 0 321.5 -121t123.5 -307q0 -139 -39.5 -251.5t-105 -186.5t-156 -123.5t-188 -71t-204.5 -21.5q-62 0 -123 9v2q47 5 106 24.5t121 52.5t111 85t66 112z" />
    <glyph glyph-name="uni0394" unicode="&#x2206;" horiz-adv-x="2107" 
d="M600 262h-33q-198 0 -321 115t-123 282t123 283.5t321 116.5t320.5 -121t122.5 -307q0 -139 -39 -251.5t-104.5 -186.5t-155 -123.5t-187.5 -71t-205 -21.5q-63 0 -124 9v2q47 5 106.5 24.5t121.5 52.5t111 85t66 112zM1573 262h-33q-196 0 -319 115t-123 282t123 283.5
t319 116.5q198 0 321.5 -121t123.5 -307q0 -139 -39.5 -251.5t-105 -186.5t-156 -123.5t-188 -71t-204.5 -21.5q-62 0 -123 9v2q47 5 106 24.5t121 52.5t111 85t66 112z" />
    <glyph glyph-name="uni03A9" unicode="&#x3a9;" horiz-adv-x="927" 
d="M94 1319v72h756v-72h-756zM516 688l236 -565h-99l-184 457l-182 -457h-101l238 565l-242 567h101l186 -456l186 456h101zM94 0v72h756v-72h-756z" />
    <glyph glyph-name="uni03A9" unicode="&#x2126;" horiz-adv-x="927" 
d="M94 1319v72h756v-72h-756zM516 688l236 -565h-99l-184 457l-182 -457h-101l238 565l-242 567h101l186 -456l186 456h101zM94 0v72h756v-72h-756z" />
    <glyph glyph-name="pi" unicode="&#x3c0;" horiz-adv-x="1216" 
d="M68 952h1079l-510 -893z" />
    <glyph glyph-name="endash" unicode="&#x2013;" horiz-adv-x="1069" 
d="M111 496v129h847v-129h-847z" />
    <glyph glyph-name="emdash" unicode="&#x2014;" horiz-adv-x="1683" 
d="M111 496v129h1462v-129h-1462z" />
    <glyph glyph-name="quoteleft" unicode="&#x2018;" horiz-adv-x="485" 
d="M489 1411l19 -43q-17 -11 -42.5 -28.5t-79 -62.5t-75.5 -79q28 -12 45 -39t17 -61q0 -62 -38.5 -101t-103.5 -39q-54 0 -86 35t-32 82q0 54 22.5 102t59 83.5t86.5 65.5t101 50t107 35z" />
    <glyph glyph-name="quoteright" unicode="&#x2019;" horiz-adv-x="485" 
d="M92 958l-18 43q16 11 42 28.5t79 62.5t75 79q-28 12 -44.5 39.5t-16.5 61.5q0 62 38 100.5t103 38.5q54 0 86.5 -35t32.5 -82q0 -54 -22.5 -102t-59 -83.5t-87 -65.5t-101.5 -50t-107 -35z" />
    <glyph glyph-name="quotesinglbase" unicode="&#x201a;" horiz-adv-x="575" 
d="M-43 -215l-18 43q16 11 42 28.5t79 62.5t75 79q-28 12 -44.5 39t-16.5 61q0 62 38 101t103 39q54 0 86.5 -35t32.5 -82q0 -54 -22.5 -102t-59 -83.5t-87 -65.5t-101.5 -50t-107 -35z" />
    <glyph glyph-name="quotedblleft" unicode="&#x201c;" horiz-adv-x="868" 
d="M489 1407l19 -43q-17 -11 -42.5 -28.5t-79 -62.5t-75.5 -79q28 -12 45 -39t17 -61q0 -62 -38.5 -101t-103.5 -39q-54 0 -86 35t-32 82q0 54 22.5 102t59 83.5t86.5 65.5t101 50t107 35zM872 1407l19 -43q-17 -11 -42.5 -28.5t-79 -62.5t-75.5 -79q28 -12 45 -39t17 -61
q0 -62 -38.5 -101t-103.5 -39q-54 0 -86 35t-32 82q0 54 22.5 102t59 83.5t86.5 65.5t101 50t107 35z" />
    <glyph glyph-name="quotedblright" unicode="&#x201d;" horiz-adv-x="868" 
d="M92 958l-18 43q16 11 42 28.5t79 62.5t75 79q-28 12 -44.5 39.5t-16.5 61.5q0 62 38 100.5t103 38.5q54 0 86.5 -35t32.5 -82q0 -54 -22.5 -102t-59 -83.5t-87 -65.5t-101.5 -50t-107 -35zM475 958l-18 43q16 11 42 28.5t79 62.5t75 79q-28 12 -44.5 39.5t-16.5 61.5
q0 62 38 100.5t103 38.5q54 0 86.5 -35t32.5 -82q0 -54 -22.5 -102t-59 -83.5t-87 -65.5t-101.5 -50t-107 -35z" />
    <glyph glyph-name="quotedblbase" unicode="&#x201e;" horiz-adv-x="958" 
d="M-39 -215l-18 43q16 11 42 28.5t79 62.5t75 79q-28 12 -44.5 39t-16.5 61q0 62 38 101t103 39q54 0 86.5 -35t32.5 -82q0 -54 -22.5 -102t-59 -83.5t-87 -65.5t-101.5 -50t-107 -35zM344 -215l-18 43q16 11 42 28.5t79 62.5t75 79q-28 12 -44.5 39t-16.5 61q0 62 38 101
t103 39q54 0 86.5 -35t32.5 -82q0 -54 -22.5 -102t-59 -83.5t-87 -65.5t-101.5 -50t-107 -35z" />
    <glyph glyph-name="dagger" unicode="&#x2020;" horiz-adv-x="1062" 
d="M713 1391l-95 -363l363 29l-27 -148l-350 27l-16 -246l-154 -690h-121l90 690l70 246l-358 -27l26 148l351 -29l36 363h185z" />
    <glyph glyph-name="daggerdbl" unicode="&#x2021;" horiz-adv-x="1165" 
d="M217 909l27 148l348 -29l37 363h184l-92 -363l362 29l-26 -148l-350 27l-17 -240l-69 -243l360 28l-27 -147l-352 26l-35 -360h-184l90 360l-358 -26l26 147l346 -28l19 243l67 240z" />
    <glyph glyph-name="bullet" unicode="&#x2022;" horiz-adv-x="604" 
d="M274 406q-78 0 -128 46t-50 115q0 95 65.5 161.5t157.5 66.5q80 0 129.5 -47.5t49.5 -118.5q0 -93 -65.5 -158t-158.5 -65z" />
    <glyph glyph-name="ellipsis" unicode="&#x2026;" horiz-adv-x="1691" 
d="M188 -20q-52 0 -85 31t-33 77q0 63 43.5 107.5t105.5 44.5q53 0 86 -32t33 -79q0 -63 -44 -106t-106 -43zM748 -20q-53 0 -86 30.5t-33 77.5q0 63 43.5 107.5t105.5 44.5q52 0 85.5 -32t33.5 -79q0 -63 -43.5 -106t-105.5 -43zM1307 -20q-53 0 -86 30.5t-33 77.5
q0 63 43.5 107.5t105.5 44.5q52 0 84.5 -32t32.5 -79q0 -63 -42.5 -106t-104.5 -43z" />
    <glyph glyph-name="perthousand" unicode="&#x2030;" horiz-adv-x="2048" 
d="M682 1075q0 -186 -86.5 -303t-218.5 -117q-109 0 -170.5 66.5t-61.5 189.5q0 182 91 300t225 118q104 0 162.5 -68.5t58.5 -185.5zM375 0h-129l817 1309h125zM535 1108q0 154 -82 154q-45 0 -78 -40t-49 -103t-23.5 -123t-7.5 -117q0 -154 88 -154q45 0 77.5 42.5
t47.5 109t21 123.5t6 108zM1288 397q0 -184 -87.5 -300.5t-219.5 -116.5q-109 0 -170 66.5t-61 189.5q0 182 91 299.5t226 117.5q104 0 162.5 -69.5t58.5 -186.5zM1905 397q0 -184 -88 -300.5t-220 -116.5q-109 0 -170 66.5t-61 189.5q0 182 90.5 299.5t224.5 117.5
q105 0 164.5 -69.5t59.5 -186.5zM1141 432q0 154 -84 154q-44 0 -77 -40t-49.5 -103t-24 -124t-7.5 -118q0 -152 88 -152q37 0 65.5 29.5t44.5 72.5t26.5 98.5t14 99.5t3.5 83zM1757 432q0 71 -21 112.5t-63 41.5q-45 0 -77.5 -40t-49 -103t-23.5 -123.5t-7 -118.5
q0 -152 88 -152q45 0 77.5 42.5t47.5 109t21.5 123.5t6.5 108z" />
    <glyph glyph-name="guilsinglleft" unicode="&#x2039;" horiz-adv-x="641" 
d="M563 948l-303 -430l152 -424h-123l-228 379v82l379 393h123z" />
    <glyph glyph-name="guilsinglright" unicode="&#x203a;" horiz-adv-x="641" 
d="M25 94l303 430l-152 424h123l227 -379v-82l-379 -393h-122z" />
    <glyph glyph-name="fraction" unicode="&#x2044;" horiz-adv-x="1011" 
d="M104 0h-104l922 1309h104z" />
    <glyph glyph-name="Euro" unicode="&#x20ac;" horiz-adv-x="1320" 
d="M1241 954l-96 -24q-7 8 -17.5 24t-33.5 76t-35 131q-100 56 -228 56q-131 0 -232 -106t-146 -286h344l-19 -108h-346q-6 -53 -6 -109h332l-19 -108h-309q20 -164 105 -254t213 -90q58 0 109.5 13t89 31.5t75.5 50t63 58.5t58 66l47 -37q-22 -47 -52 -93t-77 -95t-102 -86
t-129.5 -60.5t-155.5 -23.5q-213 0 -348 138t-148 382h-129l19 108h112q4 74 10 109h-104l18 108h111q72 238 254.5 371t415.5 133q107 0 232 -23.5t155 -25.5l-21 -121q-7 -38 -9.5 -89.5t-1.5 -83.5z" />
    <glyph glyph-name="trademark" unicode="&#x2122;" horiz-adv-x="1716" 
d="M301 737l86 23v563h-133q-12 -36 -28.5 -69.5t-27.5 -49.5l-10 -16l-41 8q11 82 11 137v58h610v-58q0 -24 2.5 -58.5t5.5 -56.5l2 -22l-43 -8q-36 55 -63 135h-133v-563l84 -23v-41h-322v41zM924 1327l-74 23v41h242l186 -463h4l182 463h234v-41l-74 -23v-567l74 -23v-41
h-301v41l73 23v432h-4q-10 -47 -24 -80l-150 -383h-88l-162 375q-8 19 -14.5 41t-9.5 35l-2 12h-4v-432l73 -23v-41h-235v41l74 23v567z" />
    <glyph glyph-name="partialdiff" unicode="&#x2202;" horiz-adv-x="1212" 
d="M1016 1059v-1079l-893 509z" />
    <glyph glyph-name="product" unicode="&#x220f;" horiz-adv-x="1216" 
d="M1147 88h-1079l569 893z" />
    <glyph glyph-name="summation" unicode="&#x2211;" horiz-adv-x="1212" 
d="M197 -20v1079l893 -570z" />
    <glyph glyph-name="minus" unicode="&#x2212;" horiz-adv-x="1024" 
d="M98 535v137h828v-137h-828z" />
    <glyph glyph-name="radical" unicode="&#x221a;" horiz-adv-x="2107" 
d="M567 776q197 0 321 -116t124 -283q0 -166 -124.5 -283t-320.5 -117q-197 0 -320.5 122t-123.5 307q0 139 39 251.5t105 186t156 123t187.5 71t204.5 21.5q41 0 123 -8v-2q-48 -6 -106.5 -26t-120.5 -52.5t-110.5 -84.5t-65.5 -112q10 2 32 2zM1542 776q196 0 319.5 -116
t123.5 -283q0 -166 -123.5 -283t-319.5 -117q-198 0 -321 121.5t-123 307.5q0 139 39 251.5t104.5 186t155.5 123t187 71t204 21.5q43 0 125 -8v-2q-49 -6 -108 -26t-121 -52.5t-110.5 -84.5t-64.5 -112q10 2 33 2z" />
    <glyph glyph-name="infinity" unicode="&#x221e;" horiz-adv-x="1703" 
d="M850 680q46 48 81 79.5t87.5 69.5t110.5 57t120 19q161 0 259 -95.5t98 -234.5q0 -143 -92.5 -236t-264.5 -93q-60 0 -118 19.5t-110 56t-88.5 70t-80.5 79.5q-47 -49 -81 -80t-87 -69t-110.5 -57t-120.5 -19q-172 0 -263.5 93t-91.5 236q0 139 97.5 234.5t257.5 95.5
q62 0 120 -19.5t110 -56.5t87 -69.5t80 -79.5zM453 371q44 0 88.5 18t87.5 53t71.5 62.5t67.5 70.5q-34 36 -52.5 55.5t-56 52.5t-66 50.5t-66.5 32t-74 14.5q-96 0 -150.5 -54.5t-54.5 -150.5q0 -95 54 -149.5t151 -54.5zM1249 371q98 0 152.5 54t54.5 150t-54.5 150.5
t-152.5 54.5q-44 0 -88.5 -18t-88 -54t-70 -62.5t-66.5 -70.5q36 -41 66 -70.5t72 -63.5t86.5 -52t88.5 -18z" />
    <glyph glyph-name="integral" unicode="&#x222b;" horiz-adv-x="927" 
d="M94 1319v72h756v-72h-756zM516 688l236 -565h-99l-184 457l-182 -457h-101l238 565l-242 567h101l186 -456l186 456h101zM94 0v72h756v-72h-756z" />
    <glyph glyph-name="approxequal" unicode="&#x2248;" horiz-adv-x="1234" 
d="M1049 897l88 -72q-40 -74 -105.5 -117.5t-148.5 -43.5q-52 0 -115 21t-111.5 46.5t-108.5 46.5t-108 21q-150 0 -254 -135l-88 71q58 98 150 156.5t207 58.5q57 0 126 -21.5t120.5 -47t106 -47t87.5 -21.5q89 0 154 84zM1049 526l88 -71q-40 -74 -105.5 -118t-148.5 -44
q-52 0 -115 21t-111.5 46.5t-108.5 46.5t-108 21q-150 0 -254 -135l-88 72q58 98 150 156.5t207 58.5q73 0 161.5 -34.5t163.5 -69t115 -34.5q89 0 154 84z" />
    <glyph glyph-name="notequal" unicode="&#x2260;" horiz-adv-x="1024" 
d="M98 725v137h463l72 156h117l-70 -156h246v-137h-308l-100 -223h408v-137h-469l-68 -152h-119l68 152h-240v137h301l101 223h-402z" />
    <glyph glyph-name="lessequal" unicode="&#x2264;" horiz-adv-x="1024" 
d="M926 387v-149l-828 354v88l828 352v-151l-623 -244zM98 20v138h828v-138h-828z" />
    <glyph glyph-name="greaterequal" unicode="&#x2265;" horiz-adv-x="1024" 
d="M98 238v149l623 250l-623 244v151l828 -352v-88zM926 158v-138h-828v138h828z" />
    <glyph glyph-name="lozenge" unicode="&#x25ca;" horiz-adv-x="927" 
d="M94 1319v72h756v-72h-756zM516 688l236 -565h-99l-184 457l-182 -457h-101l238 565l-242 567h101l186 -456l186 456h101zM94 0v72h756v-72h-756z" />
    <glyph glyph-name="CR" 
 />
    <glyph glyph-name="HT" 
 />
    <glyph glyph-name="LF" 
 />
    <glyph glyph-name="DLE" 
 />
    <glyph glyph-name="DC1" 
 />
    <glyph glyph-name="DC2" 
 />
    <glyph glyph-name="DC3" 
 />
    <glyph glyph-name="DC4" 
 />
    <glyph glyph-name="RS" 
 />
    <glyph glyph-name="US" 
 />
    <glyph glyph-name="DEL" 
 />
    <glyph glyph-name="uniF8FF" horiz-adv-x="3012" 
d="M137 1083v17h2740v-17h-2740zM1452 655q35 0 58.5 -27.5t23.5 -76.5q0 -64 -43.5 -101.5t-134.5 -37.5v-82l6 -66q-48 -16 -66 -16q-22 0 -22 16v154l-51 -6v-6q0 -31 -6.5 -58t-21.5 -51.5t-43.5 -38.5t-68.5 -14q-43 0 -63.5 21t-20.5 48q0 75 144 109v86
q-34 -98 -94 -98q-58 0 -58 63v6q-37 -67 -108 -67q-28 0 -44 16.5t-16 44.5v207l-59 -4v8q0 41 24 41h35l-6 61q51 17 66 17q22 0 22 -17v-59h96v-6q0 -43 -24 -43h-72v-176q0 -33 27 -33q19 0 39 15.5t20 37.5v51l-6 68q48 16 66 16q22 0 22 -18v-135q0 -31 14 -31
t34.5 35.5t19.5 62.5l-4 70q48 16 63 16q23 0 23 -18v-203l51 6v125l-6 74q48 16 65 16q23 0 23 -18v-82q34 98 96 98zM2480 680l-59 -4v8q0 41 24 41h35l-6 61q51 17 66 17q22 0 22 -17v-59h96v-6q0 -43 -24 -43h-72v-184q0 -31 33 -31q22 0 78.5 11t95.5 11q36 0 81.5 -12
t45.5 -37q0 -29 -19 -43t-36 -14q-4 0 -54.5 24.5t-91.5 24.5q-14 0 -65 -8t-90 -8q-40 0 -48.5 25.5t-9.5 136.5q-1 65 -2 106zM303 528q-33 -12 -90 -12q1 -21 16 -33t37 -12q36 0 66 18q16 -11 16 -32q0 -8 -5.5 -17t-29 -19.5t-61.5 -10.5q-57 0 -90 30t-33 78
q0 56 38 97.5t103 41.5q40 0 62 -19.5t22 -43.5q0 -49 -51 -66zM774 592v-100l6 -66q-48 -16 -63 -16q-23 0 -23 16v135q0 33 -16 33q-13 0 -33.5 -36t-19.5 -62l4 -70q-48 -16 -64 -16q-22 0 -22 16v135q0 33 -17 33q-14 0 -33.5 -35.5t-19.5 -62.5l6 -70q-48 -16 -65 -16
q-23 0 -23 16v141l-6 74q48 16 66 16q22 0 22 -18v-82q9 33 33 66.5t59 33.5q60 0 60 -65v-35q9 34 32.5 67t59.5 33q57 0 57 -65zM1735 528q-33 -12 -90 -12q1 -21 16 -33t37 -12q35 0 65 18q17 -11 17 -32q0 -8 -6 -17t-29.5 -19.5t-61.5 -10.5q-57 0 -89.5 30t-32.5 78
q0 56 38 97.5t103 41.5q40 0 62 -19.5t22 -43.5q0 -49 -51 -66zM2189 592v-100l4 -66q-48 -16 -63 -16q-23 0 -23 16v137q0 31 -16 31q-14 0 -33.5 -35.5t-19.5 -62.5l6 -70q-48 -16 -66 -16q-22 0 -22 16v141l-6 74q48 16 65 16q23 0 23 -18v-82q34 100 92 100q59 0 59 -65
zM2396 528q-33 -12 -90 -12q1 -21 16 -33t37 -12q36 0 66 18q16 -11 16 -32q0 -8 -5.5 -17t-29 -19.5t-61.5 -10.5q-57 0 -90 30t-33 78q0 56 38 97.5t103 41.5q40 0 62 -19.5t22 -43.5q0 -49 -51 -66zM211 541q31 0 53.5 10.5t22.5 32.5q0 26 -27 26q-20 0 -33 -20.5
t-16 -48.5zM1642 541q31 0 53.5 10.5t22.5 32.5q0 26 -26 26q-20 0 -33.5 -20.5t-16.5 -48.5zM2304 541q31 0 53.5 10.5t22.5 32.5q0 26 -27 26q-20 0 -33 -20.5t-16 -48.5zM1356 496v-47q92 12 92 104q0 41 -27 41q-26 0 -45.5 -38t-19.5 -60zM1868 512q22 0 37.5 -14
t15.5 -35q0 -20 -15.5 -33.5t-37.5 -13.5t-36.5 13.5t-14.5 33.5q0 22 14.5 35.5t36.5 13.5zM1141 397q-84 -19 -84 -65q0 -14 8 -21.5t20 -7.5q51 0 56 94zM137 0v16h2740v-16h-2740z" />
    <glyph glyph-name="zero.tab" horiz-adv-x="1142" 
d="M492 -20q-204 0 -318.5 134t-114.5 371q0 187 46 346.5t125.5 267.5t186.5 169t228 61q206 0 321 -134.5t115 -377.5t-76.5 -434.5t-210.5 -297t-302 -105.5zM500 86q80 0 144.5 54.5t103.5 138.5t64.5 193.5t35.5 210.5t10 198q0 156 -53.5 250t-161.5 94
q-94 0 -166.5 -73t-113 -193t-60.5 -254.5t-20 -276.5q0 -160 54 -251t163 -91z" />
    <glyph glyph-name="one.tab" horiz-adv-x="1142" 
d="M84 0l12 68l291 57l172 973h-84q-81 0 -140.5 4t-78.5 8l-20 4l10 66q12 1 33 3.5t83 13.5t121 26t136 43.5t139 62.5l61 -22l-209 -1182l277 -57l-13 -68h-790z" />
    <glyph glyph-name="two.tab" horiz-adv-x="1142" 
d="M-6 0v109q22 16 87 59.5t110.5 75.5t118 84.5t125.5 97t117 101t109 110t84.5 110.5t59.5 114.5t20 111.5q0 90 -53.5 136t-144.5 46q-112 0 -209 -55.5t-170 -147.5l-60 49q24 43 54.5 84t78 87t101 79.5t126 55.5t150.5 22q171 0 267 -87.5t96 -237.5q0 -71 -28 -145
t-65.5 -133t-108.5 -128t-122 -113t-142.5 -107.5t-134.5 -91t-132 -82.5q-44 -27 -64 -40v-6h524q27 54 65.5 102t63.5 69l25 21l62 -22q-44 -119 -60 -215l-18 -113h-932z" />
    <glyph glyph-name="three.tab" horiz-adv-x="1142" 
d="M430 -20q-124 0 -238.5 32.5t-158.5 73.5q12 64 35 126.5t39.5 93t19.5 32.5h92q-6 -129 21 -201q82 -51 198 -51q140 0 226 83t86 239q0 51 -17 90.5t-44.5 64.5t-69.5 43t-82 27t-93 16l41 92q73 5 126 18.5t100.5 42.5t72.5 82.5t25 129.5q0 82 -55 121t-142 39
q-91 0 -187 -49t-159 -117l-51 45q62 113 186.5 194.5t282.5 81.5q164 0 256 -75.5t92 -196.5q0 -60 -17 -109.5t-42.5 -82t-63.5 -59.5t-71 -42.5t-74 -28.5v-4q40 -13 77.5 -37t71 -60t54 -89t20.5 -115q0 -138 -73.5 -241.5t-199 -156t-284.5 -52.5z" />
    <glyph glyph-name="four.tab" horiz-adv-x="1142" 
d="M61 356v72l791 881h203l-150 -842h170l-18 -111h-172l-43 -243l149 -45l-10 -68h-539l11 68l170 45l41 243h-603zM782 1067l-534 -600h436l107 600h-9z" />
    <glyph glyph-name="five.tab" horiz-adv-x="1142" 
d="M422 -20q-117 0 -224 28.5t-143 67.5q4 66 23.5 131.5t34 96t18.5 34.5h94q-8 -125 21 -201q2 -1 13 -7t18.5 -9.5t21 -10t27 -10.5t30.5 -8t36 -6t40 -2q154 0 244 83.5t90 246.5q0 245 -342 245q-114 0 -209 -20l-6 8l143 662h727l-55 -185h-575l-72 -311q90 8 131 8
q102 0 188 -20.5t155 -62.5t107.5 -112.5t38.5 -164.5q0 -229 -158 -355t-417 -126z" />
    <glyph glyph-name="six.tab" horiz-adv-x="1142" 
d="M530 -20q-204 0 -320 121t-116 329q0 191 48 356t135 285.5t216.5 189t286.5 68.5q67 0 125 -13t93 -31t61 -37.5t36.5 -31.5t10.5 -14l-59 -74q-10 8 -29 20t-83 32t-134 20q-89 0 -164.5 -39t-131 -108t-94.5 -157t-63 -194q130 117 316 117q165 0 266.5 -95.5
t101.5 -254.5q0 -112 -40.5 -205.5t-109.5 -155t-159.5 -95t-192.5 -33.5zM596 688q-77 0 -152 -45t-122 -121q-7 -75 -7 -131q0 -148 58 -226.5t170 -78.5q122 0 193 103.5t71 271.5q0 112 -55 169.5t-156 57.5z" />
    <glyph glyph-name="seven.tab" horiz-adv-x="1142" 
d="M160 0v49l786 1079h-588q-24 -46 -62 -98t-64 -81l-27 -29l-80 16q52 168 68 260l20 113h887v-168l-768 -1141h-172z" />
    <glyph glyph-name="eight.tab" horiz-adv-x="1142" 
d="M520 -20q-96 0 -173 16t-137.5 50t-94 92.5t-33.5 137.5q0 54 19.5 107t59 104t108.5 93.5t159 66.5q-82 53 -129 130.5t-47 172.5q0 118 63 206t161.5 130.5t215.5 42.5q167 0 265 -81t98 -197q0 -112 -79.5 -198.5t-209.5 -127.5h2q132 -73 193 -155t61 -183
q0 -110 -60.5 -202t-176.5 -148.5t-265 -56.5zM463 1014q0 -123 131 -195l92 -51q180 110 180 268q0 76 -46 132.5t-142 56.5q-59 0 -102.5 -18.5t-67 -50t-34.5 -67t-11 -75.5zM651 532l-145 74q-105 -55 -163 -136.5t-58 -168.5q0 -92 62 -152.5t181 -60.5q139 0 204 64
t65 170q0 133 -146 210z" />
    <glyph glyph-name="nine.tab" horiz-adv-x="1142" 
d="M362 -20q-67 0 -125 13t-93 31t-60.5 37t-36 31t-10.5 14l59 74q4 -3 10.5 -7.5t30.5 -17t50.5 -22t68.5 -17t86 -7.5q89 0 164.5 38.5t131 107.5t94.5 157t63 194q-130 -117 -316 -117q-165 0 -266.5 96t-101.5 255q0 112 40.5 205.5t109 155t159 95t192.5 33.5
q204 0 320.5 -121t116.5 -329q0 -257 -82 -460t-239.5 -321t-365.5 -118zM547 621q78 0 152.5 44t121.5 119q6 67 6 134q0 149 -57.5 227t-169.5 78q-122 0 -193 -103.5t-71 -271.5q0 -112 55 -169.5t156 -57.5z" />
    </font>
</defs>
</svg>
