<?xml version="1.0" standalone="no"?>
<!DOCTYPE svg PUBLIC "-//W3C//DTD SVG 1.1//EN" "http://www.w3.org/Graphics/SVG/1.1/DTD/svg11.dtd" >
<svg xmlns="http://www.w3.org/2000/svg" xmlns:xlink="http://www.w3.org/1999/xlink" version="1.1">
<metadata>
Created by FontForge 20170731 at Wed Oct 26 16:42:53 2022
 By Aleksey,,,
Copyright (c) 2010 by Eduardo Manso. All rights reserved.
</metadata>
<defs>
<font id="ABCDisplay-LgIt" horiz-adv-x="0" >
  <font-face 
    font-family="ABCDisplay Lg It"
    font-weight="300"
    font-style="italic"
    font-stretch="normal"
    units-per-em="2048"
    panose-1="0 0 0 0 0 0 0 0 0 0"
    ascent="1638"
    descent="-410"
    x-height="1055"
    cap-height="1391"
    bbox="-330 -377 2898 1841"
    underline-thickness="102"
    underline-position="-307"
    unicode-range="U+0020-FB02"
  />
<missing-glyph horiz-adv-x="903" 
d="M494 692l231 -581h-59l-201 507l-201 -507h-59l231 581l-237 582h61l205 -506l203 506h61zM92 1356v35h739v-35h-739zM92 0v35h739v-35h-739z" />
    <glyph glyph-name="fi" unicode="fi" horiz-adv-x="1222" 
d="M1104 1055l-164 -912q-10 -63 27 -63q30 0 71 42.5t66 85.5l26 42l35 -19q-4 -10 -11.5 -27t-34 -60.5t-56 -76.5t-76.5 -60t-96 -27q-68 0 -102 47.5t-23 115.5l141 809h-454l-152 -921q-31 -190 -121 -291.5t-227 -101.5q-54 0 -100 13t-65 25l-19 13q2 57 24 107.5
t43 72.5l21 22l106 -18q-47 -76 -57 -178q5 0 16 -1t17 -1q31 0 56.5 12.5t44 39t31.5 53.5t23.5 70t16.5 73.5t14 78.5l154 932h-150l8 43l152 29l14 86q30 186 166 289.5t322 103.5q59 0 113 -7.5t88.5 -17.5t60.5 -20.5t37 -17.5l12 -8q-1 -37 -11 -72.5t-24 -59.5
t-28 -43.5t-23 -28.5l-10 -9l-84 18q31 74 41 176q-83 35 -164 35q-79 0 -137.5 -25.5t-94 -73t-55.5 -100t-31 -119.5l-18 -106h346q63 0 133.5 8t109.5 16l40 7h12z" />
    <glyph glyph-name="fl" unicode="fl" horiz-adv-x="1216" 
d="M1163 1503l-239 -1360q-10 -63 26 -63q30 0 71 42.5t67 85.5l26 42l35 -19q-4 -10 -11.5 -27t-34.5 -60.5t-56.5 -76.5t-76.5 -60t-96 -27q-69 0 -102.5 47.5t-21.5 115.5l223 1262q-92 43 -185 43q-65 0 -116 -20t-83 -50t-55 -75.5t-35 -87.5t-20 -95l-16 -96h252
l-13 -72h-251l-150 -921q-31 -190 -121 -291.5t-227 -101.5q-54 0 -100 13t-65 25l-19 13q2 57 23 107.5t41 72.5l20 22l106 -18q-43 -76 -53 -178q5 0 16 -1t17 -1q31 0 56.5 13.5t44 41t32 55t24 71t16.5 72.5t13 74l154 932h-150l8 43l152 29l14 86q30 186 161 289.5
t312 103.5q126 0 215 -28l160 28h12z" />
    <glyph glyph-name=".notdef" horiz-adv-x="903" 
d="M494 692l231 -581h-59l-201 507l-201 -507h-59l231 581l-237 582h61l205 -506l203 506h61zM92 1356v35h739v-35h-739zM92 0v35h739v-35h-739z" />
    <glyph glyph-name=".null" 
 />
    <glyph glyph-name="nonmarkingreturn" horiz-adv-x="682" 
 />
    <glyph glyph-name="space" unicode=" " horiz-adv-x="428" 
 />
    <glyph glyph-name="exclam" unicode="!" horiz-adv-x="512" 
d="M207 350l63 973q14 41 50.5 64.5t76.5 23.5q45 0 77.5 -23t33.5 -65l-281 -973h-20zM164 -20q-47 0 -78 28t-31 70q0 56 39.5 96.5t91.5 40.5q47 0 78 -29t31 -71q0 -56 -39.5 -95.5t-91.5 -39.5z" />
    <glyph glyph-name="quotedbl" unicode="&#x22;" horiz-adv-x="684" 
d="M231 940l-16 379q6 40 38 66t73 26q40 0 68 -26.5t18 -65.5l-152 -379h-29zM518 940l-16 379q6 40 37.5 66t72.5 26q40 0 68 -26.5t18 -65.5l-151 -379h-29z" />
    <glyph glyph-name="numbersign" unicode="#" horiz-adv-x="1296" 
d="M254 666l20 88h213l140 282h96l-141 -282h364l141 282h97l-142 -282h152l-20 -88h-177l-139 -283h191l-21 -88h-215l-145 -295h-97l146 295h-365l-145 -295h-94l145 295h-149l20 88h174l139 283h-188zM537 666l-140 -283h365l141 283h-366z" />
    <glyph glyph-name="dollar" unicode="$" horiz-adv-x="1165" 
d="M485 -139h-67l20 123q-220 11 -413 102l20 107q6 36 9 92t3 95v38l76 14q8 -13 20.5 -36.5t36 -100.5t29.5 -158q111 -75 232 -84l98 551l-74 37q-113 58 -182.5 142.5t-69.5 185.5q0 74 25.5 134.5t69 101t102 69t122.5 41.5t134 14l22 125h68l-23 -127q99 -4 210.5 -33
t152.5 -32l-16 -95q-7 -39 -10 -90t-2 -83l1 -31l-65 -13q-8 9 -20 26.5t-36.5 80t-33.5 133.5q-99 61 -193 70l-84 -474l139 -67q109 -53 173.5 -136.5t64.5 -185.5q0 -178 -139.5 -297.5t-366.5 -119.5h-12zM651 553l-41 20l-92 -522q144 4 225.5 80.5t81.5 198.5
q0 135 -174 223zM408 1032q0 -68 49 -121.5t114 -85.5l15 -8l78 445q-123 -1 -189.5 -66.5t-66.5 -163.5z" />
    <glyph glyph-name="percent" unicode="%" horiz-adv-x="1429" 
d="M680 1079q0 -187 -85 -305.5t-214 -118.5q-106 0 -165.5 65t-59.5 185q0 185 89 304.5t220 119.5q101 0 158 -68.5t57 -181.5zM549 1106q0 184 -88 184q-44 0 -77 -32.5t-50.5 -78.5t-28 -107.5t-13.5 -106t-3 -86.5q0 -183 94 -183q45 0 78 36t49 83.5t25.5 112
t11.5 103t2 75.5zM342 0h-86l838 1309h82zM1274 403q0 -187 -85 -305t-214 -118q-106 0 -165.5 64.5t-59.5 184.5q0 185 89 304.5t220 119.5q101 0 158 -68.5t57 -181.5zM1143 430q0 184 -88 184q-44 0 -77 -32.5t-50.5 -78.5t-28 -107.5t-13.5 -106t-3 -86.5
q0 -183 94 -183q45 0 78 36t49 83.5t25.5 112t11.5 103t2 75.5z" />
    <glyph glyph-name="ampersand" unicode="&#x26;" horiz-adv-x="1351" 
d="M948 1163q0 -54 -17 -101t-49 -82.5t-66.5 -63t-81.5 -50.5t-80.5 -37t-76.5 -30q-15 -5 -22 -8q43 -91 129 -216q101 -147 211 -262q130 149 248 422l33 -12q-54 -285 -205 -481q119 -107 190 -107q30 0 66 31.5t57 61.5t37 59l33 -6q-15 -48 -34.5 -94t-48.5 -96
t-68 -80.5t-81 -30.5q-127 0 -276 135q-171 -135 -397 -135q-50 0 -100.5 8.5t-107 33t-99 62.5t-71 102.5t-28.5 147.5q0 78 28.5 146t67 112t90 80.5t86 53t66.5 28.5q-66 150 -66 286q0 84 23.5 150.5t59.5 107t84.5 67t94 36.5t91.5 10q124 0 202 -68t78 -180zM555 457
q-107 149 -158 262q-27 -21 -52.5 -47.5t-57 -71t-51 -106t-19.5 -129.5q0 -61 18 -107.5t45 -74t64.5 -45t72.5 -23.5t72 -6q151 0 275 86q-95 100 -209 262zM479 1090q0 -123 62 -265q38 21 63 37t65.5 49.5t65.5 67t44.5 84t19.5 106.5q0 83 -39.5 130t-110.5 47
q-78 0 -124 -62t-46 -194z" />
    <glyph glyph-name="quotesingle" unicode="'" horiz-adv-x="397" 
d="M231 940l-16 379q6 40 38 66t73 26q40 0 68 -26.5t18 -65.5l-152 -379h-29z" />
    <glyph glyph-name="parenleft" unicode="(" horiz-adv-x="634" 
d="M381 -272q-299 299 -299 698q0 117 18.5 225t49 195t77.5 170t97 147t115 128t123 112t130 100l31 -43q-88 -70 -158.5 -143t-137.5 -170t-111.5 -204t-71.5 -245t-27 -292q0 -200 57 -364t152 -273z" />
    <glyph glyph-name="parenright" unicode=")" horiz-adv-x="634" 
d="M254 1503q299 -299 299 -698q0 -117 -18.5 -225t-49 -195t-77.5 -170t-97 -147t-115 -128t-123 -112t-130 -100l-31 43q88 70 158.5 143t137.5 170t111.5 204t71.5 245t27 292q0 200 -57 364t-152 273z" />
    <glyph glyph-name="asterisk" unicode="*" horiz-adv-x="942" 
d="M276 711l-24 16l151 281q-44 6 -129 24.5t-129 24.5l5 28l274 43l-49 271l28 14l142 -227l219 227l27 -14l-146 -271q44 -4 131 -21.5t131 -21.5l-4 -28l-282 -49q9 -39 24 -135.5t27 -145.5l-31 -16l-139 227q-35 -38 -113 -113.5t-113 -113.5zM524 995q26 0 47 21
t21 47q0 27 -20.5 47t-47.5 20q-28 0 -47.5 -19.5t-19.5 -47.5q0 -27 20 -47.5t47 -20.5z" />
    <glyph glyph-name="plus" unicode="+" horiz-adv-x="1019" 
d="M102 565v92h363v357h92v-357h361v-92h-361v-366h-92v366h-363z" />
    <glyph glyph-name="comma" unicode="," horiz-adv-x="546" 
d="M-84 -207l-4 12q18 11 45.5 29.5t85.5 69t82 94.5q-28 11 -45 35.5t-17 56.5q0 57 34 90t93 33q48 0 76.5 -32t28.5 -75q0 -62 -33 -114.5t-90.5 -90t-120 -64t-135.5 -44.5z" />
    <glyph glyph-name="hyphen" unicode="-" horiz-adv-x="706" 
d="M113 500v108h479v-108h-479z" />
    <glyph glyph-name="period" unicode="." horiz-adv-x="546" 
d="M164 -20q-47 0 -78 28t-31 70q0 56 39.5 96.5t91.5 40.5q47 0 78 -29t31 -71q0 -56 -39.5 -95.5t-91.5 -39.5z" />
    <glyph glyph-name="slash" unicode="/" horiz-adv-x="786" 
d="M-57 -342l757 1825h84l-757 -1825h-84z" />
    <glyph glyph-name="zero" unicode="0" horiz-adv-x="1155" 
d="M506 -20q-200 0 -313 134t-113 369q0 188 44.5 347.5t121 268t181 169.5t222.5 61q200 0 314 -134t114 -372q0 -187 -44 -346t-120.5 -267.5t-181.5 -169t-225 -60.5zM508 41q71 0 130 37t99 102t70 146.5t46.5 177.5t24 187t7.5 183q0 182 -60 291t-180 109
q-73 0 -133 -39t-100 -107.5t-68.5 -151.5t-44 -181.5t-22.5 -186.5t-7 -176q0 -182 58.5 -286.5t179.5 -104.5z" />
    <glyph glyph-name="one" unicode="1" horiz-adv-x="716" 
d="M-96 0l4 29l272 57l180 1024h-100q-68 0 -117.5 11t-64.5 21l-15 11l5 27q11 1 31.5 3.5t81 13.5t119 26t135 43.5t138.5 62.5l15 -20l-217 -1223l256 -57l-4 -29h-719z" />
    <glyph glyph-name="two" unicode="2" horiz-adv-x="1097" 
d="M-25 0v76q19 13 73 50.5t94.5 66t105.5 76.5t115 88t113 95t109.5 103t94 106t77.5 110.5t49 109.5t19 110q0 93 -60 140t-161 47q-115 0 -218.5 -54.5t-180.5 -138.5l-29 23q23 42 52.5 82.5t76 85t98.5 77.5t123 54.5t148 21.5q166 0 260 -86t94 -235
q0 -56 -16.5 -113.5t-43 -108t-68.5 -103.5t-84.5 -96.5t-99 -91.5t-103.5 -83.5t-108 -77.5t-103 -68.5t-96.5 -61.5t-80.5 -52v-7h535q30 56 73.5 103t72.5 66l28 20l33 -17q-42 -119 -58 -213l-18 -104h-916z" />
    <glyph glyph-name="three" unicode="3" horiz-adv-x="1005" 
d="M348 -20q-119 0 -228 32t-149 72q12 62 36 124t41.5 93t19.5 31h75q-12 -146 19 -236q91 -53 203 -53q150 0 240.5 94t90.5 271q0 54 -17.5 96t-45 69t-69.5 46t-83 28.5t-94 16.5l33 63q76 6 131 20.5t105 45.5t76 87.5t26 137.5q0 91 -56.5 131.5t-148.5 40.5
q-98 0 -193.5 -48t-158.5 -118l-27 16q57 119 172.5 204t263.5 85q159 0 247.5 -74.5t88.5 -193.5q0 -66 -20 -119.5t-48 -86.5t-70 -59t-76 -38.5t-75 -22.5v-4q42 -10 82.5 -31.5t78 -56.5t60.5 -89t23 -120q0 -140 -73 -244t-197.5 -157t-282.5 -53z" />
    <glyph glyph-name="four" unicode="4" horiz-adv-x="1093" 
d="M-2 371v22l833 916h148l-156 -877h174l-10 -61h-176l-51 -297l153 -45l-4 -29h-510l4 29l168 45l52 297h-625zM743 1096l-598 -664h490l117 664h-9z" />
    <glyph glyph-name="five" unicode="5" horiz-adv-x="1052" 
d="M385 -20q-114 0 -219.5 27t-140.5 65q3 64 21 128.5t33.5 98t18.5 33.5h68q-6 -138 31 -236q1 -1 9.5 -5.5t12 -6.5t13.5 -7t16 -7.5t17.5 -7t21 -7t22.5 -5.5t25.5 -5t28 -3t30.5 -1q162 0 257 92t95 268q0 63 -20.5 112t-53.5 78.5t-80.5 48t-95.5 25.5t-104 7
q-109 0 -209 -21l-4 6l137 652h719l-49 -164h-606l-74 -334q112 10 156 10q101 0 186.5 -20t154 -61.5t107.5 -112t39 -164.5q0 -230 -155.5 -356.5t-407.5 -126.5z" />
    <glyph glyph-name="six" unicode="6" horiz-adv-x="1083" 
d="M504 -20q-197 0 -310.5 121t-113.5 325q0 191 46.5 356t131.5 286.5t212.5 191t281.5 69.5q67 0 122.5 -15t87 -36.5t53 -42.5t29.5 -36l7 -15l-39 -37q-10 7 -30 18t-85 29t-135 18q-93 0 -171.5 -41.5t-135 -115.5t-95.5 -167t-61 -204q134 131 328 131
q161 0 261.5 -95.5t100.5 -252.5q0 -112 -39 -205t-106 -154t-154.5 -94.5t-185.5 -33.5zM565 729q-78 0 -161.5 -57.5t-127.5 -149.5q-6 -61 -6 -125q0 -171 60.5 -262.5t179.5 -91.5q132 0 209.5 114t77.5 302q0 270 -232 270z" />
    <glyph glyph-name="seven" unicode="7" horiz-adv-x="1030" 
d="M137 0v43l803 1102h-631q-26 -50 -71.5 -102.5t-77.5 -79.5l-33 -27l-43 12q46 145 66 256l18 105h872v-158l-768 -1151h-135z" />
    <glyph glyph-name="eight" unicode="8" horiz-adv-x="1052" 
d="M459 -20q-195 0 -311.5 70.5t-116.5 221.5q0 52 22.5 105.5t67 104.5t119.5 93t172 66l-4 2q-207 114 -207 315q0 116 61.5 202t158 127.5t212.5 41.5q157 0 251.5 -79.5t94.5 -192.5q0 -109 -85.5 -199.5t-223.5 -128.5l30 -18q126 -74 185 -152.5t59 -175.5
q0 -167 -134.5 -285t-350.5 -118zM584 547l-127 67q-112 -54 -181 -143t-69 -188q0 -102 66 -170t190 -68q142 0 211 72t69 192q0 70 -41 133t-118 105zM391 1030q0 -70 36 -124t114 -101l82 -49q196 118 196 303q0 39 -9 73.5t-30 66.5t-61 50.5t-96 18.5
q-65 0 -112.5 -20.5t-72.5 -56t-36 -75t-11 -86.5z" />
    <glyph glyph-name="nine" unicode="9" horiz-adv-x="1095" 
d="M346 -20q-67 0 -122.5 15t-87 37t-53 43.5t-29.5 36.5l-7 15l37 37q10 -8 30 -19t85.5 -30t136.5 -19q74 0 139.5 27.5t116 76t92 115.5t69.5 144.5t46 165.5q-134 -131 -328 -131q-161 0 -261.5 95.5t-100.5 252.5q0 112 39 205t106 154t154.5 94.5t185.5 33.5
q197 0 310.5 -121t113.5 -325q0 -191 -46.5 -356t-131.5 -286.5t-212.5 -191t-281.5 -69.5zM530 580q78 0 161.5 56t129.5 148q1 15 2.5 40.5t2.5 46.5t1 40q0 172 -60.5 263.5t-178.5 91.5q-133 0 -210 -114t-77 -302q0 -136 59 -203t170 -67z" />
    <glyph glyph-name="colon" unicode=":" horiz-adv-x="546" 
d="M154 -20q-42 0 -70.5 29t-28.5 71q0 55 43.5 95t98.5 40q40 0 68 -29.5t28 -72.5q0 -53 -43.5 -93t-95.5 -40zM301 817q-41 0 -68.5 29.5t-27.5 71.5q0 55 42 95t97 40q40 0 68 -30t28 -73q0 -53 -43.5 -93t-95.5 -40z" />
    <glyph glyph-name="semicolon" unicode=";" horiz-adv-x="546" 
d="M-84 -207l-4 12q18 11 45.5 29.5t85.5 69t82 94.5q-28 11 -45 35.5t-17 56.5q0 57 34 90t93 33q48 0 76.5 -32t28.5 -75q0 -62 -33 -114.5t-90.5 -90t-120 -64t-135.5 -44.5zM303 817q-41 0 -68.5 29.5t-27.5 71.5q0 55 42 95t97 40q40 0 68 -30t28 -73q0 -53 -43.5 -93
t-95.5 -40z" />
    <glyph glyph-name="less" unicode="&#x3c;" horiz-adv-x="1019" 
d="M102 573v72l816 385v-108l-695 -312l695 -315v-109z" />
    <glyph glyph-name="equal" unicode="=" horiz-adv-x="1019" 
d="M102 750v92h816v-92h-816zM102 383v92h816v-92h-816z" />
    <glyph glyph-name="greater" unicode="&#x3e;" horiz-adv-x="1019" 
d="M918 645v-72l-816 -387v109l695 315l-695 312v108z" />
    <glyph glyph-name="question" unicode="?" horiz-adv-x="970" 
d="M217 1057q-1 5 -3 13t-5.5 32.5t-4.5 48t1 54t10 55.5q58 58 160 104.5t235 46.5q172 0 272.5 -78.5t100.5 -218.5q0 -99 -34.5 -182.5t-89.5 -140t-129 -99.5t-145.5 -66t-146.5 -34l-67 -242h-21l21 381q8 2 28 6q40 8 64.5 13.5t72 21t78.5 33t70 48.5t62.5 68.5
t40 92.5t16.5 121q0 109 -63 160t-158 51q-109 0 -201 -62q-18 -48 -26.5 -101t-7.5 -81l1 -29zM295 -20q-41 0 -69.5 29.5t-28.5 70.5q0 54 43.5 94.5t97.5 40.5q40 0 68 -29.5t28 -72.5q0 -53 -43.5 -93t-95.5 -40z" />
    <glyph glyph-name="at" unicode="@" horiz-adv-x="1820" 
d="M1339 1024l-116 -647q-5 -25 -7 -39.5t-4.5 -38t0.5 -37.5t8.5 -28.5t18 -21.5t31.5 -7q60 0 116.5 32t104 94t76 166t28.5 234q0 122 -36.5 230t-106 193t-181 135t-251.5 50q-218 0 -388.5 -109t-263 -300.5t-92.5 -433.5q0 -98 18 -182.5t47.5 -146.5t72 -113t88 -85
t98.5 -60t100 -40t96.5 -23t83.5 -11.5t66 -2.5q201 0 369 53l8 -32q-182 -91 -397 -91q-53 0 -108.5 5t-136.5 23.5t-153 49t-146.5 87t-127.5 130.5t-87 187.5t-34 251.5q0 195 64.5 364.5t179.5 290.5t281.5 190.5t361.5 69.5q175 0 314.5 -56t226.5 -151t132.5 -216
t45.5 -257q0 -125 -31 -227.5t-80 -167.5t-111.5 -109.5t-123 -63t-117.5 -18.5q-64 0 -109 17.5t-66.5 47.5t-29 63t-4.5 71l4 51h-10q-47 -97 -116.5 -159t-160.5 -62q-119 0 -184 78t-65 207q0 159 64 292.5t169.5 209t226.5 75.5q119 0 201 -78l96 76zM834 281
q88 0 165.5 107t104.5 257l37 221q-57 105 -160 105q-80 0 -142.5 -75.5t-93 -184.5t-30.5 -224q0 -206 119 -206z" />
    <glyph glyph-name="A" unicode="A" horiz-adv-x="1345" 
d="M-139 0l4 29l153 45l734 1317l63 20l301 -1337l129 -45l-4 -29h-506l4 29l176 45l-84 399h-505l-217 -399l157 -45l-4 -29h-401zM692 1130h-4l-323 -589h450z" />
    <glyph glyph-name="B" unicode="B" horiz-adv-x="1243" 
d="M-82 0l4 29l170 45l221 1243l-151 45l4 29h516q224 0 355.5 -77.5t131.5 -232.5q0 -137 -88.5 -223t-244.5 -125v-4q133 -32 209.5 -109t76.5 -198q0 -105 -48.5 -187t-134 -132.5t-197.5 -76.5t-244 -26h-580zM631 698h-238l-112 -632h233q197 0 300.5 97.5t103.5 276.5
q0 122 -73.5 190t-213.5 68zM680 1325h-174l-100 -561h169q190 0 292 85t102 232q0 117 -73 180.5t-216 63.5z" />
    <glyph glyph-name="C" unicode="C" horiz-adv-x="1226" 
d="M1157 1038q-3 2 -9 7.5t-23 26t-32 45.5t-33 70t-30 97q-105 59 -258 59q-130 0 -238 -88.5t-171.5 -251t-63.5 -366.5q0 -249 108.5 -388.5t286.5 -139.5q78 0 144.5 19.5t119 58t89 75.5t77.5 90l23 -22q-26 -59 -68 -116t-103 -112t-147.5 -88.5t-183.5 -33.5
q-250 0 -403.5 166t-153.5 456q0 187 60 342t162 256t234 156t279 55q114 0 244.5 -23.5t159.5 -25.5l-17 -100q-4 -26 -7 -58t-4 -58.5t-1.5 -49.5t0.5 -36v-13z" />
    <glyph glyph-name="D" unicode="D" horiz-adv-x="1413" 
d="M-82 0l4 29l170 45l221 1243l-151 45l4 29h539q281 0 451.5 -154.5t170.5 -427.5q0 -182 -66.5 -336.5t-178 -256.5t-255 -159t-299.5 -57h-610zM692 1319h-192l-217 -1243h258q254 0 416.5 200.5t162.5 526.5q0 234 -116 375t-312 141z" />
    <glyph glyph-name="E" unicode="E" horiz-adv-x="1222" 
d="M883 541l-33 123l-461 10l-106 -600h567q39 78 89 154t80 112l30 37l32 -12q-55 -189 -71 -291l-13 -74h-1079l4 29l170 45l221 1243l-151 45l4 29h1032l-12 -74q-8 -46 -15 -115.5t-11 -115.5l-3 -46l-45 -8q-7 13 -18.5 36.5t-35.5 98t-34 150.5h-520l-103 -576l465 13
l70 116h39l-57 -329h-35z" />
    <glyph glyph-name="F" unicode="F" horiz-adv-x="1185" 
d="M893 479l-25 152l-485 10l-100 -567l161 -45l-4 -29h-522l4 29l170 45l221 1243l-151 45l4 29h1051l-13 -74q-8 -46 -15.5 -115.5t-10.5 -115.5l-4 -46l-44 -8q-7 13 -18.5 36.5t-35.5 98t-34 150.5h-540l-109 -608l492 12l76 147h38l-69 -389h-37z" />
    <glyph glyph-name="G" unicode="G" horiz-adv-x="1361" 
d="M1253 1051q-4 2 -10 6.5t-23.5 23t-33 42t-34 65t-30.5 90.5q-114 65 -276 65q-157 0 -282.5 -100t-197 -280.5t-71.5 -407.5q0 -241 113 -373.5t292 -132.5q105 0 193 47l80 443l-113 45l4 28h410l-4 -28l-109 -45l-80 -441q6 -2 26.5 -6t25.5 -6l-5 -29
q-207 -77 -411 -77q-107 0 -200 21.5t-172.5 68t-136 114t-88.5 165t-32 216.5q0 160 41 297t114.5 237t172.5 171t217.5 106t247.5 35q87 0 244 -24.5t196 -24.5l-12 -74q-10 -54 -14 -111t-3 -87l2 -31z" />
    <glyph glyph-name="H" unicode="H" horiz-adv-x="1427" 
d="M754 0l4 29l168 45l110 628h-643l-110 -628l151 -45l-4 -29h-512l6 29l168 45l221 1243l-151 45l4 29h510l-4 -29l-168 -45l-96 -541h643l96 541l-152 45l4 29h510l-4 -29l-170 -45l-221 -1243l154 -45l-4 -29h-510z" />
    <glyph glyph-name="I" unicode="I" horiz-adv-x="593" 
d="M-82 0l4 29l170 45l221 1243l-151 45l4 29h510l-4 -29l-168 -45l-221 -1243l151 -45l-4 -29h-512z" />
    <glyph glyph-name="J" unicode="J" horiz-adv-x="585" 
d="M-258 -362q-34 0 -72 6q3 47 23 108t39 98l18 37h115q-1 -4 -3.5 -12t-8 -31.5t-7.5 -43.5t-4 -49.5t4 -47.5q32 3 92.5 25t108.5 65l268 1524l-155 45l4 29h500l-5 -29l-153 -45l-266 -1501q-148 -178 -498 -178z" />
    <glyph glyph-name="K" unicode="K" horiz-adv-x="1357" 
d="M956 0q-83 44 -155 197l-230 465h-186l-102 -588l151 -45l-4 -29h-512l4 29l170 45l221 1243l-151 45l4 29h510l-4 -29l-168 -45l-105 -582h172l562 582l-146 45l4 29h408l-4 -29l-154 -45l-522 -522l256 -490q19 -37 40 -70.5t39 -57.5t38.5 -46t35 -35.5t31.5 -27
t26 -19t21 -12.5t13 -8l-5 -29h-258z" />
    <glyph glyph-name="L" unicode="L" horiz-adv-x="1101" 
d="M-82 0l4 29l170 45l221 1243l-151 45l4 29h510l-4 -29l-168 -45l-221 -1243h503q39 76 88 151t78 113l29 37l39 -10q-54 -185 -72 -291l-12 -74h-1018z" />
    <glyph glyph-name="M" unicode="M" horiz-adv-x="1581" 
d="M612 66l-235 909q-5 22 -9.5 57.5t-5.5 60.5l-2 25h-8l-184 -1044l154 -45l-5 -29h-399l4 29l170 45l221 1243l-151 45l4 29h317l248 -1045h4l598 1045h330l-4 -29l-170 -45l-221 -1243l153 -45l-4 -29h-506l4 29l168 45l185 1044h-8q-62 -116 -78 -143l-523 -909h-47z
" />
    <glyph glyph-name="N" unicode="N" horiz-adv-x="1392" 
d="M1010 0l-635 1219l-203 -1145l154 -45l-4 -29h-404l4 29l170 45l221 1243l-151 45l4 29h336l549 -1065l176 991l-152 45l4 29h402l-4 -29l-170 -45l-234 -1317h-63z" />
    <glyph glyph-name="O" unicode="O" horiz-adv-x="1421" 
d="M645 -20q-120 0 -222.5 41t-176.5 116.5t-116 187t-42 246.5q0 156 37.5 291.5t103.5 235t154.5 170.5t193 107t216.5 36q247 0 394.5 -160.5t147.5 -435.5q0 -150 -37.5 -283t-103 -232.5t-152.5 -172.5t-188.5 -110t-208.5 -37zM631 47q145 0 259 103.5t176 282
t62 398.5q0 229 -92 374t-243 145q-145 0 -259.5 -103t-177.5 -283.5t-63 -406.5q0 -231 91.5 -370.5t246.5 -139.5z" />
    <glyph glyph-name="P" unicode="P" horiz-adv-x="1241" 
d="M659 502q-83 0 -172 30l5 29h102q203 1 313.5 120.5t110.5 332.5q0 303 -320 303h-190l-219 -1243l172 -45l-6 -29h-531l4 29l170 45l219 1243l-151 45l4 29h551q227 0 363.5 -99.5t136.5 -290.5q0 -153 -73.5 -267.5t-200 -173t-288.5 -58.5z" />
    <glyph glyph-name="Q" unicode="Q" horiz-adv-x="1421" 
d="M813 -322q-93 40 -176 152l-121 158q-194 30 -311 179t-117 384q0 194 59.5 358t160 272.5t231 169t272.5 60.5q233 0 378.5 -154t145.5 -421q0 -170 -46.5 -317.5t-126.5 -253t-186 -175.5t-228 -96v-6l81 -82l25.5 -25.5l29 -29t28 -26.5t33 -29t32 -25t37.5 -26
t37.5 -20t42.5 -18l-4 -29h-277zM631 47q145 0 259 103.5t176 282t62 398.5q0 229 -92 374t-243 145q-145 0 -259.5 -103t-177.5 -283.5t-63 -406.5q0 -231 91.5 -370.5t246.5 -139.5z" />
    <glyph glyph-name="R" unicode="R" horiz-adv-x="1275" 
d="M899 0q-40 21 -77 80t-60 141l-113 402h-268l-98 -549l155 -45l-4 -29h-516l4 29l170 45l221 1243l-151 45l4 29h541q214 0 343.5 -90.5t129.5 -258.5q0 -147 -93.5 -248t-248.5 -141v-10l94 -305q25 -83 57.5 -145t61 -92t53 -48t38.5 -21l15 -3l-4 -29h-254zM702 1317
h-200l-111 -629h361q34 17 58 32t58.5 46t55.5 65.5t37 89t16 119.5q0 131 -71 204t-204 73z" />
    <glyph glyph-name="S" unicode="S" horiz-adv-x="1142" 
d="M1024 1036q-4 3 -10.5 9t-24.5 27.5t-33.5 46.5t-32.5 67.5t-26 89.5q-52 33 -108.5 50t-141.5 17q-131 0 -203.5 -67t-72.5 -166q0 -42 13 -76t42 -63t59 -49.5t80 -49.5l209 -118q109 -62 172.5 -147t63.5 -189q0 -187 -140 -312.5t-368 -125.5q-268 0 -494 106l21 107
q6 36 9 92t3 95v38l35 14l13.5 -13.5t30.5 -38.5t39.5 -62.5t33.5 -82.5t20 -102q125 -82 276 -82q155 0 243.5 84.5t88.5 218.5q0 155 -192 264l-215 121q-92 52 -156.5 130t-64.5 175q0 94 41 167t110 115.5t151.5 63.5t174.5 21q95 0 173 -14.5t141 -32t106 -21.5
l-17 -94q-6 -39 -8.5 -90.5t-2.5 -82.5l1 -32z" />
    <glyph glyph-name="T" unicode="T" horiz-adv-x="1218" 
d="M1225 1042q-8 12 -20.5 35t-38.5 95t-38 145h-311l-219 -1243l172 -45l-4 -29h-549l4 29l189 45l219 1243h-305q-39 -81 -87.5 -149.5t-76.5 -97.5l-29 -28l-33 9q46 168 62 266l12 74h1128l-12 -74q-7 -44 -12.5 -110.5t-7.5 -110.5l-2 -45z" />
    <glyph glyph-name="U" unicode="U" horiz-adv-x="1396" 
d="M618 -20q-211 0 -340.5 74t-158.5 220l184 1043l-153 45l4 29h510l-5 -29l-167 -45l-166 -936q-26 -140 57 -224.5t242 -84.5q162 0 287 87t151 232l164 926l-154 45l4 29h410l-4 -29l-168 -45l-180 -1014q-70 -152 -205 -237.5t-312 -85.5z" />
    <glyph glyph-name="V" unicode="V" horiz-adv-x="1341" 
d="M575 -20h-53l-291 1337l-131 45l4 29h510l-4 -29l-172 -45l201 -1061h8l586 1061l-154 45l4 29h396l-4 -29l-152 -45z" />
    <glyph glyph-name="W" unicode="W" horiz-adv-x="2035" 
d="M489 -20h-55l-203 1337l-131 45l4 29h506l-4 -29l-174 -45l137 -1043h4l494 986l-12 81l78 50h122l154 -1117h4l518 1043l-155 45l4 29h393l-4 -29l-154 -45l-682 -1337h-55l-193 1150z" />
    <glyph glyph-name="X" unicode="X" horiz-adv-x="1294" 
d="M-139 0l4 29l143 45l549 581l-315 666l-129 41l4 29h483l-4 -29l-137 -39l243 -512l441 506l-121 45l4 29h365l-5 -29l-143 -45l-512 -569l320 -682l139 -37l-4 -29h-500l4 29l148 41l-254 522l-467 -518l127 -45l-4 -29h-379z" />
    <glyph glyph-name="Y" unicode="Y" horiz-adv-x="1308" 
d="M244 0l4 29l190 45l90 516l-309 727l-121 45l4 29h496l-4 -29l-162 -45l254 -653h2l522 653l-143 45l6 29h377l-6 -29l-144 -45l-577 -707l-96 -536l172 -45l-4 -29h-551z" />
    <glyph glyph-name="Z" unicode="Z" horiz-adv-x="1136" 
d="M205 1028l-45 14q49 160 69 275l13 74h938l-13 -68l-983 -1249h635q32 71 80.5 142t80.5 106l32 36l45 -14q-45 -143 -68 -270l-12 -74h-1043l11 68l983 1249h-529q-25 -68 -73.5 -140t-84.5 -111z" />
    <glyph glyph-name="bracketleft" unicode="[" horiz-adv-x="698" 
d="M33 -254l307 1737h418l-13 -72h-278l-281 -1595h277l-12 -70h-418z" />
    <glyph glyph-name="backslash" unicode="\" horiz-adv-x="831" 
d="M569 -342l-325 1825h84l325 -1825h-84z" />
    <glyph glyph-name="bracketright" unicode="]" horiz-adv-x="698" 
d="M666 1483l-308 -1737h-417l12 72h278l281 1595h-276l12 70h418z" />
    <glyph glyph-name="asciicircum" unicode="^" horiz-adv-x="860" 
d="M758 750h-94l-238 530l-229 -530h-95l267 641h116z" />
    <glyph glyph-name="underscore" unicode="_" horiz-adv-x="1036" 
d="M-139 -283v88h1048v-88h-1048z" />
    <glyph glyph-name="grave" unicode="`" horiz-adv-x="571" 
d="M301 1473h21l272 -285l-25 -27l-354 187z" />
    <glyph glyph-name="a" unicode="a" horiz-adv-x="1153" 
d="M381 -20q-155 0 -234 97.5t-79 246.5q0 147 47.5 283.5t124.5 234t179.5 155.5t209.5 58q149 0 243 -99l140 99l28 -11l-161 -901q-10 -63 28 -63q30 0 71 42t67 84l26 42l35 -17q-4 -10 -11 -27t-32.5 -60.5t-55 -76.5t-76.5 -60t-97 -27q-66 0 -101.5 51.5t-17.5 134.5
l20 98l-10 2q-142 -286 -344 -286zM432 86q112 0 210 135.5t132 329.5l51 295q-25 63 -78 106t-135 43q-81 0 -150 -62t-111.5 -157.5t-66.5 -204.5t-24 -209q0 -276 172 -276z" />
    <glyph glyph-name="b" unicode="b" horiz-adv-x="1132" 
d="M485 -20q-150 0 -256 86l-135 -84l-18 18l246 1384l-144 25l4 31l322 63h12l-88 -502q-11 -64 -24 -122t-20 -83l-7 -26l10 -2q28 60 59 107t73 90t97 66.5t119 23.5q159 0 244.5 -103.5t85.5 -257.5q0 -195 -72 -357.5t-205.5 -259.5t-302.5 -97zM340 492l-66 -361
q36 -37 92.5 -63.5t125.5 -26.5q82 0 149 41t109 106.5t70.5 150.5t40 168t11.5 165q0 149 -47 213.5t-143 64.5q-112 0 -210 -133t-132 -325z" />
    <glyph glyph-name="c" unicode="c" horiz-adv-x="942" 
d="M831 729l-108 10q31 103 35 203q-76 51 -170 51q-163 0 -251.5 -153t-88.5 -400q0 -172 63 -259t174 -87q46 0 88.5 14.5t72 34t65 57.5t55.5 64.5t55 75.5l29 -8q-23 -74 -57 -135t-84 -112.5t-120.5 -80.5t-154.5 -29q-176 0 -271 108t-95 304q0 156 47.5 285
t125.5 211t175 127t200 45q101 0 179.5 -27t119.5 -72q-2 -59 -23 -116t-39.5 -84t-21.5 -27z" />
    <glyph glyph-name="d" unicode="d" horiz-adv-x="1175" 
d="M399 -20q-108 0 -184 49.5t-111.5 128.5t-35.5 178q0 146 42.5 277.5t116.5 229t183 155t235 57.5q136 0 229 -64l72 393l-143 25l4 31l323 63h11l-240 -1360q-9 -63 27 -63q30 0 71.5 42t68.5 84l26 42l32 -17q-4 -10 -11 -27t-32.5 -60.5t-55 -76.5t-76.5 -60t-97 -27
q-66 0 -101.5 51.5t-17.5 134.5l21 98l-11 2q-23 -48 -45.5 -86t-54.5 -77t-66.5 -64.5t-81 -42t-98.5 -16.5zM451 84q109 0 204.5 121.5t128.5 296.5l74 395q-37 41 -94 69.5t-123 28.5q-83 0 -149.5 -41t-109 -106.5t-71 -151t-40 -168.5t-11.5 -166q0 -147 48.5 -212.5
t142.5 -65.5z" />
    <glyph glyph-name="e" unicode="e" horiz-adv-x="966" 
d="M432 -20q-173 0 -268.5 100.5t-95.5 288.5q0 153 45 283.5t120 217.5t171.5 136t199.5 49q139 0 223 -58.5t84 -162.5q0 -67 -23.5 -121t-60 -89.5t-94 -62t-111 -41t-126.5 -24.5t-125.5 -13.5t-122.5 -7.5h-4q-2 -29 -2 -88q0 -149 63 -224t168 -75q58 0 108.5 15.5
t94.5 48.5t75.5 63.5t73.5 79.5l25 -19q-28 -51 -53 -89t-63.5 -79.5t-79.5 -67.5t-98.5 -43t-123.5 -17zM586 995q-126 0 -219 -125t-117 -342q40 1 62 2t67.5 4.5t74 9t70.5 17t69.5 27t58.5 39.5t49 53.5t30 71t12 90.5q0 73 -45 113t-112 40z" />
    <glyph glyph-name="f" unicode="f" horiz-adv-x="647" 
d="M719 1257q47 75 55 177q-42 14 -72 14q-44 0 -79.5 -18.5t-58 -46t-40 -69.5t-26.5 -78.5t-17 -84.5l-20 -127h266l-12 -72h-266l-148 -921q-31 -190 -121 -291.5t-227 -101.5q-54 0 -100 13t-65 25l-19 13q2 57 23 107.5t41 72.5l20 22l110 -18q-47 -76 -55 -180h31
q30 0 55 11.5t42.5 35.5t30.5 49t23 64t16 67t13 70l153 962h-147l8 43l152 29l14 86q28 185 138 289t257 104q41 0 78.5 -5.5t62 -13t44 -15.5t27.5 -13l7 -4q-2 -58 -22.5 -111.5t-40.5 -77.5l-19 -24z" />
    <glyph glyph-name="g" unicode="g" horiz-adv-x="1071" 
d="M512 381q-27 0 -54.5 -3.5t-61 -13t-54 -31t-20.5 -52.5q0 -30 24 -50.5t74 -23.5l227 -12q75 -4 135.5 -16.5t94 -25.5t61.5 -34t36 -30t21 -26l-16 -94q-25 -149 -160.5 -240t-345.5 -91q-222 0 -340.5 63t-118.5 158q0 63 55.5 121t159.5 100q-86 50 -86 133
q0 154 193 201q-90 36 -140.5 103t-50.5 157q0 92 34 165.5t92.5 120t133 71t158.5 24.5q103 0 182 -27q81 -4 164 8t125 26l43 15l2 -121q-79 -21 -209 -6v-4q64 -95 64 -192q0 -173 -122 -273t-300 -100zM508 438q81 0 138.5 51t82.5 127t25 168q0 97 -47 156t-136 59
q-83 0 -140 -52.5t-81 -129t-24 -168.5q0 -91 48 -151t134 -60zM608 25l-252 14q-57 5 -80 18q-96 -89 -96 -176q0 -77 81.5 -127.5t217.5 -50.5q80 0 144 19.5t110.5 64t59.5 109.5l12 65l-7.5 7.5t-11.5 10t-15.5 10.5t-24.5 12t-33 10t-46 8.5t-59 5.5z" />
    <glyph glyph-name="h" unicode="h" horiz-adv-x="1165" 
d="M850 -20q-69 0 -103 47.5t-22 115.5l113 637q31 176 -115 176q-122 0 -230 -132t-143 -332l-88 -492h-176l246 1384l-144 25l5 31l321 63h12l-88 -502q-12 -67 -24.5 -124.5t-19.5 -82.5l-7 -24l10 -2q142 287 377 287q129 0 193 -83.5t39 -221.5l-107 -607
q-6 -28 -0.5 -45.5t27.5 -17.5q29 0 69.5 42.5t66.5 85.5l25 42l37 -19q-4 -10 -12 -27t-34.5 -60.5t-56 -76.5t-76 -60t-95.5 -27z" />
    <glyph glyph-name="i" unicode="i" horiz-adv-x="612" 
d="M276 -20q-69 0 -102.5 47.5t-21.5 115.5l135 748q10 63 -27 63q-30 0 -71 -42.5t-67 -85.5l-26 -42l-35 19q4 10 11.5 27t34.5 60.5t56.5 77t76.5 60.5t96 27q75 0 108 -45t19 -119l-137 -748q-10 -63 26 -63q29 0 69.5 42.5t66.5 85.5l26 42l37 -19q-4 -10 -12 -27
t-34.5 -60.5t-56.5 -76.5t-76.5 -60t-95.5 -27zM410 1253q-41 0 -70 29t-29 70q0 55 37.5 93t95.5 38q40 0 68.5 -29t28.5 -70q0 -55 -37.5 -93t-93.5 -38z" />
    <glyph glyph-name="j" unicode="j" horiz-adv-x="595" 
d="M-70 -362q-97 0 -153 22q2 58 21.5 111.5t37.5 77.5l19 24l116 -18q-45 -72 -59 -172q138 14 201 79l198 1129q12 63 -26 63q-29 0 -69.5 -42.5t-66.5 -85.5l-26 -42l-37 19q4 10 12 27t34.5 60.5t56 77t76 60.5t95.5 27q81 0 110 -46.5t17 -117.5l-194 -1102
q-45 -62 -142.5 -106.5t-220.5 -44.5zM434 1253q-41 0 -69.5 29t-28.5 70q0 55 37.5 93t95.5 38q40 0 68 -29t28 -70q0 -55 -37.5 -93t-93.5 -38z" />
    <glyph glyph-name="k" unicode="k" horiz-adv-x="1103" 
d="M86 0l244 1382l-144 25l7 31l321 63h12l-157 -901q42 10 92 10h24q18 31 25.5 43t30.5 50t38 58.5t42 58t49 60t52.5 53.5t59 50t61 37t67 26.5t69.5 8.5q30 0 59 -3.5t42 -6.5l14 -3q-9 -57 -24.5 -107t-26.5 -71l-11 -22h-114q18 74 24 129q-32 -6 -61 -21
q-63 -32 -134.5 -102t-117.5 -129.5t-84 -118.5q109 -30 153 -133l66 -154q3 -6 12 -28.5t15.5 -39t17.5 -40.5t20.5 -41t20.5 -34t21.5 -25.5t19.5 -8.5q26 0 61 41.5t56 82.5l22 42l41 -16q-4 -11 -10.5 -29t-29 -63.5t-47.5 -81t-64 -64t-80 -28.5q-44 0 -82 17.5
t-61.5 40t-45.5 59.5t-31 58t-22 54l-76 197q-52 133 -164 143l-96 -549h-176z" />
    <glyph glyph-name="l" unicode="l" horiz-adv-x="567" 
d="M225 -20q-68 0 -102 47.5t-23 115.5l219 1241l-143 25l4 31l322 63h12l-240 -1360q-10 -63 27 -63q30 0 71 42.5t67 85.5l26 42l35 -19q-4 -10 -11.5 -27t-34.5 -60.5t-56.5 -76.5t-76.5 -60t-96 -27z" />
    <glyph glyph-name="m" unicode="m" horiz-adv-x="1798" 
d="M129 0l158 891q10 63 -27 63q-30 0 -71 -42t-67 -84l-26 -42l-35 17q4 10 11.5 27t34.5 60.5t56.5 77t76.5 60.5t96 27q69 0 101 -45.5t18 -118.5l-25 -121l10 -2q66 133 153.5 210t211.5 77q120 0 181.5 -76.5t47.5 -208.5l8 -2q138 287 367 287q129 0 191.5 -83.5
t37.5 -221.5l-106 -607q-6 -28 -0.5 -45.5t27.5 -17.5q30 0 71 42.5t66 85.5l26 42l35 -19q-4 -10 -11.5 -27t-34 -60.5t-56 -76.5t-76.5 -60t-96 -27q-69 0 -103 47.5t-22 115.5l112 637q31 176 -112 176q-120 0 -224 -131.5t-139 -332.5l-88 -492h-176l137 780
q31 176 -112 176q-118 0 -223 -132t-140 -332l-88 -492h-176z" />
    <glyph glyph-name="n" unicode="n" horiz-adv-x="1208" 
d="M893 -20q-69 0 -103 47.5t-22 115.5l113 637q31 176 -115 176q-122 0 -231 -132.5t-142 -331.5l-88 -492h-176l158 891q10 63 -27 63q-30 0 -71 -42t-67 -84l-26 -42l-35 17q4 10 11.5 27t34.5 60.5t56.5 77t76.5 60.5t96 27q69 0 101 -45.5t18 -118.5l-25 -121l10 -2
q142 287 377 287q129 0 193 -83.5t39 -221.5l-107 -607q-6 -28 -0.5 -45.5t27.5 -17.5q30 0 71 42.5t67 85.5l26 42l34 -19q-4 -10 -11.5 -27t-34 -60.5t-56 -76.5t-76.5 -60t-96 -27z" />
    <glyph glyph-name="o" unicode="o" horiz-adv-x="1062" 
d="M489 -20q-184 0 -302.5 124t-118.5 310q0 145 44 267.5t116.5 203t166 125.5t193.5 45q122 0 216 -60t142.5 -159t48.5 -220q0 -137 -43 -257.5t-113.5 -202.5t-162 -129t-187.5 -47zM473 43q106 0 182.5 86.5t112 221t35.5 298.5q0 155 -56.5 250.5t-152.5 95.5
q-108 0 -185.5 -89.5t-113 -225t-35.5 -295.5q0 -154 58 -248t155 -94z" />
    <glyph glyph-name="p" unicode="p" horiz-adv-x="1189" 
d="M-72 -342l4 29l154 45l205 1159q10 63 -29 63q-30 0 -71 -42t-67 -84l-26 -42l-35 17q4 10 12 27t35.5 60.5t58 77t79 60.5t98.5 27q68 0 100 -48t13 -124l-25 -113l10 -2q29 61 60 107.5t73 89.5t97 66.5t119 23.5q107 0 183.5 -51t111 -130.5t34.5 -179.5
q0 -195 -71.5 -357.5t-204.5 -259.5t-301 -97q-134 0 -230 63l-55 -311l162 -45l-4 -29h-490zM406 532l-72 -397q35 -39 92 -66.5t125 -27.5q69 0 127.5 28.5t98.5 78t70.5 112t48 134.5t26 141t8.5 137q0 149 -47.5 213.5t-143.5 64.5q-110 0 -206 -122t-127 -296z" />
    <glyph glyph-name="q" unicode="q" horiz-adv-x="1130" 
d="M469 -342l4 29l178 45l54 301q12 67 24.5 124.5t19.5 82.5l7 24l-11 2q-27 -60 -57.5 -107t-72 -89.5t-96.5 -66t-120 -23.5q-108 0 -184 49.5t-111.5 128.5t-35.5 178q0 146 42.5 277.5t117.5 229t184 155t235 57.5q164 0 266 -92l117 90l27 -19l-232 -1302l138 -45
l-5 -29h-489zM451 84q112 0 210 134t132 325l63 360q-34 38 -89 65t-124 27q-70 0 -128.5 -28.5t-99.5 -78t-71.5 -112t-48.5 -135t-26.5 -142t-8.5 -137.5q0 -147 48.5 -212.5t142.5 -65.5z" />
    <glyph glyph-name="r" unicode="r" horiz-adv-x="880" 
d="M129 0l158 891q11 63 -27 63q-29 0 -70 -42t-68 -84l-26 -42l-35 17q4 10 11.5 27t34 60.5t56 77t76.5 60.5t97 27q70 0 102 -45.5t17 -118.5l-35 -162l10 -2q158 328 377 328q47 0 63 -8q-10 -100 -32 -173.5t-39 -97.5l-17 -24h-90q3 15 7.5 39t10 76.5t1.5 80.5
q-109 -41 -201 -179t-125 -323l-80 -446h-176z" />
    <glyph glyph-name="s" unicode="s" horiz-adv-x="890" 
d="M766 782l-102 19q31 69 43 149q-89 47 -185 47q-95 0 -154 -51t-59 -135q0 -114 123 -162l164 -67q104 -44 160.5 -114t56.5 -149q0 -159 -117.5 -249t-298.5 -90q-201 0 -372 79q2 58 18 114.5t31 84.5l16 27l100 -19q-20 -78 -26 -162q109 -65 223 -65q116 0 183 59
t67 160q0 121 -135 178l-142 60q-90 37 -150 105t-60 155q0 65 23.5 118t61.5 86t88.5 55t101 31t103.5 9q99 0 199.5 -23.5t124.5 -23.5q-2 -58 -23.5 -114.5t-42.5 -83.5z" />
    <glyph glyph-name="t" unicode="t" horiz-adv-x="690" 
d="M117 965l8 43l156 28l180 299h47l-53 -301h245l-12 -69h-248l-145 -836q48 -63 149 -63q100 0 177 57l20 -27q-64 -57 -136.5 -86.5t-137.5 -29.5q-176 0 -252 116l151 869h-149z" />
    <glyph glyph-name="u" unicode="u" horiz-adv-x="1206" 
d="M412 -20q-106 0 -168 53.5t-86 132.5l135 725q6 29 0.5 46t-27.5 17q-28 0 -67 -42.5t-63 -85.5l-25 -42l-37 19q4 10 11.5 27t33.5 60.5t54.5 77t74.5 60.5t94 27q69 0 103 -48t22 -116l-137 -731q10 -36 43 -59t90 -23q118 0 222.5 132.5t139.5 332.5l88 491h177
l-158 -891q-11 -63 26 -63q30 0 71 42t67 84l26 42l35 -17q-4 -10 -11.5 -27t-34 -60.5t-56 -76.5t-76.5 -60t-96 -27q-69 0 -101 45t-18 118l24 121l-10 2q-138 -286 -366 -286z" />
    <glyph glyph-name="v" unicode="v" horiz-adv-x="1071" 
d="M406 -20q-130 0 -196.5 84t-41.5 221l106 606q6 28 1 45.5t-27 17.5q-29 0 -70.5 -42t-68.5 -84l-27 -42l-33 17q4 10 11 27t32.5 60.5t54.5 77t77 60.5t100 27q69 0 103 -48t22 -116l-113 -637q-34 -197 96 -197q110 0 203 108.5t162 280.5q93 239 110 437
q-30 20 -70.5 33.5t-66.5 17.5l-25 4l78 117q13 0 34 -1.5t74 -20t91 -52.5q-63 -343 -154 -563q-185 -438 -462 -438z" />
    <glyph glyph-name="w" unicode="w" horiz-adv-x="1624" 
d="M1057 1034l-131 -780q-6 -49 -5.5 -93t24 -74t67.5 -30q201 0 358 437q82 229 90 389q-32 20 -75 33.5t-70 17.5l-27 4l78 117q13 0 35 -1.5t77.5 -20t96.5 -52.5q-1 -6 -8.5 -46t-13.5 -69t-18.5 -83t-24.5 -100.5t-31 -107t-39 -116.5q-175 -479 -455 -479
q-121 0 -185 79.5t-44 200.5l2 12h-2q-36 -65 -71.5 -114.5t-80 -91.5t-97.5 -64t-112 -22q-124 0 -188 84t-39 221l106 606q6 28 1 45.5t-27 17.5q-29 0 -70.5 -42t-68.5 -84l-27 -42l-33 17q4 10 11 27t32.5 60.5t54.5 77t77 60.5t100 27q69 0 103 -48t22 -116l-113 -637
q-6 -49 -5.5 -93t24 -74t67.5 -30q59 0 116.5 42t105 113.5t86 152.5t69.5 174l78 460l43 35h137z" />
    <glyph glyph-name="x" unicode="x" horiz-adv-x="1093" 
d="M145 -20q-91 8 -157 59l75 127q64 -57 119 -64q79 52 159 164t142 226l-200 387q-20 41 -47 41q-22 0 -33.5 -31t-12 -77.5t0.5 -77.5t4 -54l-39 -6q-17 41 -20 103.5t9.5 125.5t56 107.5t111.5 44.5q78 0 117 -78l164 -318q171 337 342 396q93 -8 156 -60l-76 -125
q-57 51 -115 58q-128 -78 -270 -338l225 -434q21 -41 45 -41q15 0 25.5 15t15 40t6.5 52t1 56t-2.5 47.5t-2.5 30.5l37 4q16 -45 18 -107.5t-10 -124.5t-53.5 -105t-106.5 -43q-80 0 -124 86l-183 350q-190 -368 -377 -436z" />
    <glyph glyph-name="y" unicode="y" horiz-adv-x="997" 
d="M184 -362q-32 17 -59 41t-43 46t-28 42.5t-16 32.5l-5 12l102 88q6 -9 16 -23.5t40 -45t57 -44.5q85 49 205 195l-222 897q-15 55 -36 55q-36 0 -65.5 -89t-29.5 -118l-41 4q-2 1 -2.5 19t3 47t11 63t24 68.5t39 63t58.5 46t80 17.5q113 0 140 -117l176 -760h2l24 41
q101 179 174.5 366.5t81.5 282.5q-33 22 -75 36t-67 17l-26 3l82 131q11 0 29 -1.5t67.5 -19.5t90.5 -53q-6 -132 -89.5 -358.5t-209.5 -444.5q-109 -187 -236.5 -330t-251.5 -210z" />
    <glyph glyph-name="z" unicode="z" horiz-adv-x="1028" 
d="M166 696q-21 68 -21 144q0 91 44 153t126 62q51 0 119.5 -23.5t124.5 -51.5t114 -51.5t89 -23.5q33 0 59 29l88 100h103v-24l-738 -834q24 6 52 6q55 0 192.5 -28.5t196.5 -28.5q120 0 157 162l11 49h41q10 -61 10 -133q0 -246 -209 -246q-59 0 -132.5 24t-129.5 53
t-115.5 53t-93.5 24q-23 0 -35.5 -5t-25.5 -22l-72 -84h-94v27l712 811q-5 0 -26 -1t-25 -1q-73 0 -199 24.5t-155 24.5q-52 0 -78.5 -34.5t-42.5 -96.5l-14 -58h-33z" />
    <glyph glyph-name="braceleft" unicode="{" horiz-adv-x="761" 
d="M403 -272q-141 0 -209 84.5t-26 255.5l72 292q34 138 2.5 183t-170.5 55l8 43q76 6 117.5 15.5t71.5 35.5t42 66t19 112l30 293q19 180 100.5 260t248.5 80q40 0 114 -8l-6 -41l-47 -4q-46 -3 -76.5 -11.5t-60 -28.5t-46.5 -58.5t-24 -98.5l-31 -274q-6 -55 -14.5 -98.5
t-22 -77t-26.5 -57.5t-35.5 -42.5t-41.5 -30.5t-52 -22t-59 -16t-70 -14v-9q59 -12 97 -26.5t68 -40.5t41.5 -64t9.5 -94.5t-21 -134.5l-68 -275q-10 -40 -11 -70.5t7 -51t19.5 -34.5t31.5 -22t39.5 -12t46.5 -6q12 -1 23.5 -2t17 -1.5t6.5 -0.5l-6 -41q-74 -8 -109 -8z" />
    <glyph glyph-name="bar" unicode="|" horiz-adv-x="489" 
d="M291 -342h-86v1825h86v-1825z" />
    <glyph glyph-name="braceright" unicode="}" horiz-adv-x="761" 
d="M358 1503q142 0 210 -84.5t26 -255.5l-72 -293q-34 -138 -2.5 -182.5t170.5 -54.5l-8 -43q-76 -6 -117.5 -16t-71.5 -36t-42 -66t-19 -112l-31 -292q-19 -180 -100 -260t-248 -80q-40 0 -114 8l6 41q1 0 6 0.5t16.5 1.5t24.5 2q47 3 77 11t59.5 28t46.5 59t24 98l30 275
q5 49 13.5 89t17.5 71t23.5 55.5t27.5 42.5t35 32.5t40 23.5t48.5 17.5t54 14t62.5 12.5v8q-59 12 -97 27t-68 40.5t-41.5 64t-9.5 95t21 134.5l68 274q10 40 11 70.5t-7 51t-19.5 34.5t-31.5 22.5t-39.5 12.5t-46.5 6q-12 1 -23.5 2t-17 1.5t-6.5 0.5l6 41q74 8 108 8z" />
    <glyph glyph-name="asciitilde" unicode="~" horiz-adv-x="1236" 
d="M1065 723l70 -59q-39 -63 -108 -104.5t-140 -41.5q-52 0 -115 20.5t-111.5 45t-108.5 45t-108 20.5q-80 0 -150 -39.5t-118 -101.5l-74 59q58 89 150.5 143t206.5 54q73 0 161.5 -34t163.5 -67.5t115 -33.5q101 0 166 94z" />
    <glyph glyph-name="uni00A0" unicode="&#xa0;" horiz-adv-x="428" 
 />
    <glyph glyph-name="exclamdown" unicode="&#xa1;" horiz-adv-x="512" 
d="M313 684l-63 -973q-14 -41 -50.5 -64.5t-76.5 -23.5q-45 0 -77.5 23t-33.5 65l281 973h20zM356 1055q47 0 78 -28.5t31 -70.5q0 -56 -39.5 -96.5t-91.5 -40.5q-47 0 -78 29.5t-31 71.5q0 56 39.5 95.5t91.5 39.5z" />
    <glyph glyph-name="cent" unicode="&#xa2;" horiz-adv-x="1036" 
d="M524 -20h-63l22 131q-166 11 -258 116.5t-92 292.5q0 114 30.5 215.5t82 177t120.5 133.5t147 91.5t159 44.5l26 147h64l-27 -143h4q100 0 179.5 -34t119.5 -87q-16 -60 -42 -111t-44 -72l-18 -22l-107 -2q3 14 6.5 35.5t10.5 84.5t0 101q-48 38 -119 41l-158 -895
q87 0 161 35t185 113l17 -31q-151 -219 -383 -231zM315 551q0 -139 52 -218.5t139 -101.5l156 885q-166 -24 -256.5 -180.5t-90.5 -384.5z" />
    <glyph glyph-name="sterling" unicode="&#xa3;" horiz-adv-x="1214" 
d="M-25 0l7 31l157 39q52 82 111 389l26 151h-190l10 66h193l33 186q37 217 173.5 342t346.5 125q75 0 136 -11.5t111.5 -25.5t81.5 -18l-16 -94q-6 -32 -8 -71.5t-1 -62.5l1 -24l-31 -16q-4 3 -11.5 8.5t-27 26.5t-35 45t-31 63.5t-20.5 83.5q-73 39 -151 39
q-262 0 -332 -418l-31 -178h299l-12 -66h-299l-27 -151q-24 -136 -72.5 -230.5t-144.5 -154.5h598q30 84 79 159.5t82 108.5l34 33l35 -10q-50 -169 -66 -261l-18 -104h-990z" />
    <glyph glyph-name="yen" unicode="&#xa5;" horiz-adv-x="1366" 
d="M207 598l12 66h318l-246 571l-121 45l4 29h502l-6 -29l-162 -45l225 -571h2l469 571l-143 45l4 29h377l-4 -29l-144 -45l-485 -571h352l-12 -66h-385l-27 -147h387l-10 -66h-387l-53 -311l172 -45l-6 -29h-549l6 29l188 45l54 311h-367l10 66h369l22 131l-8 16h-358z" />
    <glyph glyph-name="brokenbar" unicode="&#xa6;" horiz-adv-x="501" 
d="M297 -252h-92v725h92v-725zM297 758h-92v725h92v-725z" />
    <glyph glyph-name="section" unicode="&#xa7;" horiz-adv-x="1165" 
d="M1026 518q0 -100 -62.5 -184t-179.5 -141q107 -93 107 -228q0 -68 -25.5 -123.5t-68 -92.5t-100.5 -62.5t-121.5 -37t-131.5 -11.5q-95 0 -172.5 14.5t-140.5 31.5t-106 21l16 94q7 39 9.5 90t1.5 82l-1 31l49 12q4 -3 10 -8t23 -25.5t30.5 -45.5t27.5 -68t20 -92
q53 -35 110 -52.5t140 -17.5q119 0 188.5 61.5t69.5 151.5q0 66 -46.5 110t-148.5 93l-184 90q-111 54 -175.5 137.5t-64.5 183.5q0 99 62 183.5t180 142.5q-106 88 -106 225q0 85 38 150.5t102.5 103.5t142 57t163.5 19q95 0 173 -15t141 -33t106 -22l-17 -94
q-7 -39 -9.5 -89t-1.5 -80l1 -31l-49 -13q-4 3 -10 8t-23 25t-30.5 45t-27.5 68t-20 92q-53 34 -109.5 51.5t-139.5 17.5q-119 0 -188.5 -60t-69.5 -150q0 -66 46 -110t148 -93l184 -90q111 -54 175.5 -138t64.5 -184zM457 788q-43 18 -92 52q-109 -98 -109 -248
q0 -149 199 -236l215 -94q50 -21 90 -51q110 96 110 248q0 148 -198 235z" />
    <glyph glyph-name="dieresis" unicode="&#xa8;" horiz-adv-x="684" 
d="M301 1231q-34 0 -57 24.5t-23 59.5q0 43 36.5 76.5t78.5 33.5q35 0 57.5 -24.5t22.5 -59.5q0 -45 -35 -77.5t-80 -32.5zM592 1231q-34 0 -57 24t-23 58q0 45 35.5 78.5t79.5 33.5q33 0 56.5 -25t23.5 -59q0 -45 -35.5 -77.5t-79.5 -32.5z" />
    <glyph glyph-name="copyright" unicode="&#xa9;" horiz-adv-x="1673" 
d="M150 694q0 146 56.5 278.5t152 228.5t228 153t277.5 57t278 -57t229 -153t153 -229t57 -278t-57 -277.5t-153 -228t-228.5 -152t-278.5 -56.5q-194 0 -358.5 95.5t-260 260t-95.5 358.5zM864 1364q-180 0 -333 -90t-241.5 -244t-88.5 -336q0 -135 52.5 -258t141 -212.5
t211.5 -142t258 -52.5q134 0 257 52.5t212 141.5t142 212.5t53 258.5q0 136 -53 260t-142 214t-212 143t-257 53zM1204 446q-13 -41 -36.5 -79t-62.5 -76.5t-99.5 -62t-133.5 -23.5q-197 0 -317.5 121t-120.5 340q0 230 131.5 358.5t337.5 128.5q66 0 147.5 -14t106.5 -15
v-88q0 -26 4.5 -61t8.5 -57l4 -21l-37 -12q-3 2 -8.5 5.5t-20.5 18.5t-29 33.5t-32 50t-31 68.5q-64 33 -127 33q-121 0 -192.5 -108.5t-71.5 -303.5q0 -177 77.5 -274t198.5 -97q56 0 100 12.5t76.5 38t52 46t44.5 55.5z" />
    <glyph glyph-name="ordfeminine" unicode="&#xaa;" horiz-adv-x="706" 
d="M303 786q-69 0 -112.5 49t-43.5 136q0 153 87 255.5t210 102.5q76 0 131 -47l74 47l23 -8l-78 -451q-4 -30 12 -30q12 0 32 21.5t34 42.5l14 22l23 -8q-2 -5 -5 -14t-16 -32t-29 -40t-44 -31.5t-60 -14.5q-44 0 -62.5 29.5t-13.5 69.5l6 35h-4q-71 -134 -178 -134z
M346 864q52 0 98.5 66t61.5 155l24 146q-33 49 -92 49q-70 0 -114.5 -88t-44.5 -217q0 -111 67 -111z" />
    <glyph glyph-name="guillemotleft" unicode="&#xab;" horiz-adv-x="1069" 
d="M559 948l-303 -430l152 -424h-76l-260 393v58l411 403h76zM997 948l-303 -430l152 -424h-76l-260 393v58l412 403h75z" />
    <glyph glyph-name="logicalnot" unicode="&#xac;" horiz-adv-x="1019" 
d="M102 575v93h816v-469h-93v376h-723z" />
    <glyph glyph-name="registered" unicode="&#xae;" horiz-adv-x="1230" 
d="M168 872q0 146 72 270t195.5 196.5t269.5 72.5t270 -72.5t196 -196.5t72 -270t-72 -269.5t-196 -195t-270 -71.5t-269.5 71.5t-195.5 195t-72 269.5zM705 1366q-202 0 -346 -145t-144 -349q0 -100 39 -191.5t104.5 -157.5t156.5 -105t190 -39q202 0 345.5 144.5
t143.5 348.5t-143.5 349t-345.5 145zM1014 592v-12h-148q-49 18 -78 86l-77 178h-88v-234l65 -18v-12h-252v12l66 18v543l-66 18v13h273q106 0 170.5 -41.5t64.5 -126.5q0 -55 -31.5 -93.5t-85.5 -56.5v-2l62 -135q27 -57 58.5 -91.5t48.5 -39.5zM692 1149h-69v-272h131
q65 39 65 137q0 135 -127 135z" />
    <glyph glyph-name="macron" unicode="&#xaf;" horiz-adv-x="698" 
d="M180 1260l15 77h469l-15 -77h-469z" />
    <glyph glyph-name="degree" unicode="&#xb0;" horiz-adv-x="630" 
d="M137 1075q0 104 71 179t171 75t172 -75t72 -179t-72 -178t-172 -74t-171 74t-71 178zM213 1075q0 -79 50 -135.5t118 -56.5t117 56.5t49 135.5t-49 137t-117 58t-118 -58t-50 -137z" />
    <glyph glyph-name="plusminus" unicode="&#xb1;" horiz-adv-x="1019" 
d="M102 582v92h363v340h92v-340h361v-92h-361v-342h-92v342h-363zM102 20v93h816v-93h-816z" />
    <glyph glyph-name="twosuperior" unicode="&#xb2;" horiz-adv-x="815" 
d="M242 1155q105 174 258 174q86 0 136 -41t50 -112q0 -64 -33.5 -124t-104 -117.5t-115.5 -88t-130 -81.5q-12 -8 -18 -11v-2h286q16 24 39 46.5t38 33.5l14 10l24 -6q-23 -66 -31 -111l-10 -61h-512v38q6 4 44.5 31t56.5 40t58 42.5t62.5 50t57 51t54 55.5t40 54.5
t30 57.5t9.5 55q0 45 -25 68.5t-67 23.5q-107 0 -185 -94z" />
    <glyph glyph-name="threesuperior" unicode="&#xb3;" horiz-adv-x="765" 
d="M350 1028q75 7 116.5 36t41.5 101q0 40 -26.5 60t-67.5 20q-46 0 -94.5 -24.5t-81.5 -57.5l-23 11q33 64 98 109.5t152 45.5q84 0 131 -36.5t47 -96.5q0 -117 -162 -164v-2q58 -10 97.5 -48t39.5 -101q0 -102 -85 -164t-214 -62q-63 0 -119 16.5t-77 39.5q5 32 20 63.5
t26.5 46.5t14.5 17h35q-2 -74 10 -117q44 -25 99 -25q67 0 110 45.5t43 132.5q0 61 -39.5 87.5t-109.5 35.5z" />
    <glyph glyph-name="acute" unicode="&#xb4;" horiz-adv-x="591" 
d="M465 1473h20l86 -125l-354 -187l-24 27z" />
    <glyph glyph-name="mu" unicode="&#xb5;" horiz-adv-x="1206" 
d="M414 -20q-90 0 -152 40l-18 -362h-174l219 1233q6 29 0.5 46t-27.5 17q-29 0 -69.5 -42.5t-66.5 -85.5l-26 -42l-37 19q4 10 12 27t34.5 60.5t56.5 77t76.5 60.5t95.5 27q69 0 103 -48t22 -116l-131 -731q10 -36 43 -59t90 -23q118 0 222.5 132.5t139.5 332.5l88 491h177
l-158 -891q-11 -63 27 -63q30 0 71.5 42t67.5 84l26 42l33 -17q-2 -5 -6 -14t-17.5 -35t-28.5 -50t-39.5 -53t-50.5 -49.5t-61 -35t-71 -14.5q-69 0 -101 45t-18 118l25 121l-11 2q-138 -286 -366 -286z" />
    <glyph glyph-name="mu" unicode="&#x3bc;" horiz-adv-x="1206" 
d="M414 -20q-90 0 -152 40l-18 -362h-174l219 1233q6 29 0.5 46t-27.5 17q-29 0 -69.5 -42.5t-66.5 -85.5l-26 -42l-37 19q4 10 12 27t34.5 60.5t56.5 77t76.5 60.5t95.5 27q69 0 103 -48t22 -116l-131 -731q10 -36 43 -59t90 -23q118 0 222.5 132.5t139.5 332.5l88 491h177
l-158 -891q-11 -63 27 -63q30 0 71.5 42t67.5 84l26 42l33 -17q-2 -5 -6 -14t-17.5 -35t-28.5 -50t-39.5 -53t-50.5 -49.5t-61 -35t-71 -14.5q-69 0 -101 45t-18 118l25 121l-11 2q-138 -286 -366 -286z" />
    <glyph glyph-name="paragraph" unicode="&#xb6;" horiz-adv-x="1052" 
d="M725 1391l-180 -1024q-114 -1 -203.5 33.5t-145 96.5t-84 142t-28.5 172q0 129 49 238t134.5 183.5t203.5 116.5t254 42zM952 1317l-219 -1237q-20 -113 -60.5 -195t-90 -129t-119 -74t-133 -35.5t-146.5 -8.5q-22 0 -55 5t-45 13q0 36 11 72.5t27.5 62.5t32.5 46.5
t27 30.5l11 11l75 -18q-5 -9 -12.5 -23.5t-19 -57t-9.5 -79.5q22 0 43 1.5t57 10t66.5 22.5t67 41.5t64.5 65t52 96.5t37 132l234 1321h280l-4 -29z" />
    <glyph glyph-name="periodcentered" unicode="&#xb7;" horiz-adv-x="493" 
d="M264 485q-47 0 -77.5 28.5t-30.5 70.5q0 56 39.5 96.5t91.5 40.5q47 0 77.5 -29t30.5 -71q0 -56 -39.5 -96t-91.5 -40z" />
    <glyph glyph-name="cedilla" unicode="&#xb8;" horiz-adv-x="561" 
d="M152 31l-84 -99q74 -10 113.5 -47.5t39.5 -93.5q0 -72 -60 -112.5t-159 -40.5q-92 0 -154 53l19 28q58 -28 121 -28q56 0 84 24.5t28 63.5q0 42 -29.5 73.5t-90.5 45.5l2 8l106 125h64z" />
    <glyph glyph-name="onesuperior" unicode="&#xb9;" horiz-adv-x="628" 
d="M256 711l88 497h-31q-38 0 -66 7t-37 15l-9 7l2 16q16 2 42.5 6t93.5 23.5t116 46.5l39 -12l-107 -606l115 -29l-2 -18h-367l2 18z" />
    <glyph glyph-name="ordmasculine" unicode="&#xba;" horiz-adv-x="645" 
d="M647 1102q0 -139 -78.5 -227.5t-193.5 -88.5q-102 0 -165 62t-63 164q0 141 79 229t192 88q104 0 166.5 -62.5t62.5 -164.5zM518 1135q0 149 -94 149q-40 0 -70 -29t-46 -76.5t-24 -98t-8 -101.5q0 -67 23.5 -106t69.5 -39q40 0 70.5 28t47 74t24 96t7.5 103z" />
    <glyph glyph-name="guillemotright" unicode="&#xbb;" horiz-adv-x="1069" 
d="M20 94l304 430l-152 424h76l260 -393v-57l-412 -404h-76zM459 94l303 430l-152 424h76l260 -393v-57l-411 -404h-76z" />
    <glyph glyph-name="onequarter" unicode="&#xbc;" horiz-adv-x="1273" 
d="M522 162v28l396 463h122l-79 -448h83l-8 -43h-82l-22 -123l72 -23l-3 -16h-290l2 16l86 23l22 123h-299zM885 549l-293 -344h235l62 344h-4zM250 711l88 497h-31q-38 0 -66 7t-37 15l-9 7l2 16q16 2 42.5 6t93.5 23.5t116 46.5l38 -12l-106 -606l115 -29l-2 -18h-367
l2 18zM242 0h-86l921 1309h82z" />
    <glyph glyph-name="onehalf" unicode="&#xbd;" horiz-adv-x="1263" 
d="M682 492q105 174 258 174q86 0 136 -41.5t50 -112.5q0 -64 -33.5 -124t-104 -117.5t-115.5 -88t-130 -81.5q-6 -4 -10 -6.5t-8 -4.5v-2h287q16 24 38.5 46.5t37.5 33.5l14 10l24 -6q-22 -66 -30 -111l-11 -61h-512v39q8 5 45 31t56 39.5t58 42.5t62.5 50t57 51t54 55.5
t40.5 54.5t29.5 57t9.5 55q0 45 -25 68.5t-67 23.5q-106 0 -184 -94zM250 711l88 497h-31q-38 0 -66 7t-37 15l-9 7l2 16q16 2 42.5 6t93.5 23.5t116 46.5l38 -12l-106 -606l115 -29l-2 -18h-367l2 18zM229 0h-86l922 1309h82z" />
    <glyph glyph-name="threequarters" unicode="&#xbe;" horiz-adv-x="1308" 
d="M547 162v28l395 463h125l-80 -448h82l-6 -43h-82l-23 -123l72 -23l-2 -16h-291l2 16l86 23l23 123h-301zM913 549l-295 -344h238l62 344h-5zM350 1028q75 7 116.5 36t41.5 101q0 40 -26.5 60t-67.5 20q-46 0 -94.5 -24.5t-81.5 -57.5l-23 11q33 64 98 109.5t152 45.5
q84 0 131 -36.5t47 -96.5q0 -117 -162 -164v-2q58 -10 97.5 -48t39.5 -101q0 -102 -85 -164t-214 -62q-63 0 -119 16.5t-77 39.5q5 32 20 63.5t26.5 46.5t14.5 17h35q-2 -74 10 -117q44 -25 99 -25q67 0 110 45.5t43 132.5q0 61 -39.5 87.5t-109.5 35.5zM276 0h-86l922 1309
h82z" />
    <glyph glyph-name="questiondown" unicode="&#xbf;" horiz-adv-x="970" 
d="M754 -23q1 -5 3 -13t5.5 -32.5t4.5 -47.5t-1 -53.5t-10 -55.5q-58 -58 -160.5 -105t-235.5 -47q-172 0 -272 78.5t-100 218.5q0 99 34.5 182.5t89.5 140t128.5 99.5t145 66t146.5 34l68 242h21l-21 -381q-5 -1 -39 -8t-50.5 -11t-54 -14.5t-59 -20.5t-56 -28.5t-55.5 -38
t-46 -49t-39 -62.5t-23.5 -77t-9.5 -94q0 -109 63 -160t158 -51q110 0 201 61q18 48 26.5 101t7.5 81l-1 29zM676 1055q41 0 69.5 -29.5t28.5 -71.5q0 -54 -43.5 -94.5t-97.5 -40.5q-40 0 -68 30t-28 73q0 53 43.5 93t95.5 40z" />
    <glyph glyph-name="Agrave" unicode="&#xc0;" horiz-adv-x="1345" 
d="M-139 0l4 29l153 45l734 1317l63 20l301 -1337l129 -45l-4 -29h-506l4 29l176 45l-84 399h-505l-217 -399l157 -45l-4 -29h-401zM692 1130h-4l-323 -589h450zM561 1829h21l272 -285l-25 -26l-354 186z" />
    <glyph glyph-name="Aacute" unicode="&#xc1;" horiz-adv-x="1345" 
d="M-139 0l4 29l153 45l734 1317l63 20l301 -1337l129 -45l-4 -29h-506l4 29l176 45l-84 399h-505l-217 -399l157 -45l-4 -29h-401zM692 1130h-4l-323 -589h450zM1032 1829h21l86 -125l-355 -186l-24 26z" />
    <glyph glyph-name="Acircumflex" unicode="&#xc2;" horiz-adv-x="1345" 
d="M-139 0l4 29l153 45l734 1317l63 20l301 -1337l129 -45l-4 -29h-506l4 29l176 45l-84 399h-505l-217 -399l157 -45l-4 -29h-401zM692 1130h-4l-323 -589h450zM870 1815l185 -259l-25 -20l-221 139l-270 -139l-17 20l279 259h69z" />
    <glyph glyph-name="Atilde" unicode="&#xc3;" horiz-adv-x="1345" 
d="M-139 0l4 29l153 45l734 1317l63 20l301 -1337l129 -45l-4 -29h-506l4 29l176 45l-84 399h-505l-217 -399l157 -45l-4 -29h-401zM692 1130h-4l-323 -589h450zM459 1550l-25 15q14 42 30.5 75t44 70.5t70 58.5t95.5 21q52 0 101 -18.5t93.5 -39t83.5 -22.5q60 20 125 109
l21 -11q-13 -47 -26.5 -80t-37 -68.5t-59 -54t-82.5 -18.5q-66 0 -150.5 41.5t-142.5 44.5q-32 -13 -59.5 -37.5t-81.5 -85.5z" />
    <glyph glyph-name="Adieresis" unicode="&#xc4;" horiz-adv-x="1345" 
d="M-139 0l4 29l153 45l734 1317l63 20l301 -1337l129 -45l-4 -29h-506l4 29l176 45l-84 399h-505l-217 -399l157 -45l-4 -29h-401zM692 1130h-4l-323 -589h450zM629 1587q-34 0 -57 24.5t-23 59.5q0 43 36.5 77t78.5 34q34 0 56.5 -24.5t22.5 -59.5q0 -45 -34.5 -78
t-79.5 -33zM920 1587q-34 0 -57 24t-23 58q0 45 35 79t79 34q33 0 56.5 -25t23.5 -59q0 -45 -35 -78t-79 -33z" />
    <glyph glyph-name="Aring" unicode="&#xc5;" horiz-adv-x="1345" 
d="M-139 0l4 29l153 45l734 1317l63 20l301 -1337l129 -45l-4 -29h-506l4 29l176 45l-84 399h-505l-217 -399l157 -45l-4 -29h-401zM692 1130h-4l-323 -589h450zM1018 1679q0 -80 -60 -128t-153 -48q-78 0 -127 43.5t-49 118.5q0 81 61 128.5t154 47.5q77 0 125.5 -44
t48.5 -118zM809 1544q51 0 75.5 46.5t24.5 119.5q0 92 -69 92q-56 0 -81.5 -46.5t-25.5 -115.5q0 -45 20.5 -70.5t55.5 -25.5z" />
    <glyph glyph-name="AE" unicode="&#xc6;" horiz-adv-x="1943" 
d="M20 74l965 1317h934l-14 -74q-12 -60 -18.5 -129.5t-7.5 -108.5l-1 -39l-41 -10q-8 12 -20 35.5t-36.5 98.5t-33.5 153h-524l-103 -576l475 13l60 116h41l-58 -323h-36l-23 117l-469 10l-106 -600h567q36 75 85 150t80 113l31 38l35 -10q-44 -154 -67 -279l-15 -86h-1081
l6 29l170 45l72 401h-459l-293 -401l154 -45l-4 -29h-402l6 29zM1034 1311h-4l-555 -770h422z" />
    <glyph glyph-name="Ccedilla" unicode="&#xc7;" horiz-adv-x="1226" 
d="M1157 1038q-3 2 -9 7.5t-23 26t-32 45.5t-33 70t-30 97q-105 59 -258 59q-130 0 -238 -88.5t-171.5 -251t-63.5 -366.5q0 -249 108.5 -388.5t286.5 -139.5q78 0 144.5 19.5t119 58t89 75.5t77.5 90l23 -22q-26 -59 -68 -116t-103 -112t-147.5 -88.5t-183.5 -33.5
q-41 0 -82 6l-45 -54q74 -10 114 -47.5t40 -93.5q0 -72 -60 -112.5t-159 -40.5q-92 0 -154 53l18 28q58 -28 121 -28q56 0 84.5 24.5t28.5 63.5q0 42 -30 73.5t-91 45.5l2 8l76 88q-194 42 -307 201t-113 407q0 187 60 342t162 256t234 156t279 55q114 0 244.5 -23.5
t159.5 -25.5l-17 -100q-4 -26 -7 -58t-4 -58.5t-1.5 -49.5t0.5 -36v-13z" />
    <glyph glyph-name="Egrave" unicode="&#xc8;" horiz-adv-x="1222" 
d="M883 541l-33 123l-461 10l-106 -600h567q39 78 89 154t80 112l30 37l32 -12q-55 -189 -71 -291l-13 -74h-1079l4 29l170 45l221 1243l-151 45l4 29h1032l-12 -74q-8 -46 -15 -115.5t-11 -115.5l-3 -46l-45 -8q-7 13 -18.5 36.5t-35.5 98t-34 150.5h-520l-103 -576l465 13
l70 116h39l-57 -329h-35zM590 1829h20l273 -285l-25 -26l-354 186z" />
    <glyph glyph-name="Eacute" unicode="&#xc9;" horiz-adv-x="1222" 
d="M944 1829h21l86 -125l-355 -186l-24 26zM883 541l-33 123l-461 10l-106 -600h567q39 78 89 154t80 112l30 37l32 -12q-55 -189 -71 -291l-13 -74h-1079l4 29l170 45l221 1243l-151 45l4 29h1032l-12 -74q-8 -46 -15 -115.5t-11 -115.5l-3 -46l-45 -8q-7 13 -18.5 36.5
t-35.5 98t-34 150.5h-520l-103 -576l465 13l70 116h39l-57 -329h-35z" />
    <glyph glyph-name="Ecircumflex" unicode="&#xca;" horiz-adv-x="1222" 
d="M840 1815l184 -259l-25 -20l-221 139l-270 -139l-16 20l278 259h70zM883 541l-33 123l-461 10l-106 -600h567q39 78 89 154t80 112l30 37l32 -12q-55 -189 -71 -291l-13 -74h-1079l4 29l170 45l221 1243l-151 45l4 29h1032l-12 -74q-8 -46 -15 -115.5t-11 -115.5l-3 -46
l-45 -8q-7 13 -18.5 36.5t-35.5 98t-34 150.5h-520l-103 -576l465 13l70 116h39l-57 -329h-35z" />
    <glyph glyph-name="Edieresis" unicode="&#xcb;" horiz-adv-x="1222" 
d="M588 1587q-34 0 -57 24.5t-23 59.5q0 43 36.5 77t78.5 34q34 0 56.5 -24.5t22.5 -59.5q0 -45 -34.5 -78t-79.5 -33zM879 1587q-34 0 -57 24t-23 58q0 45 35 79t79 34q33 0 56.5 -25t23.5 -59q0 -45 -35 -78t-79 -33zM883 541l-33 123l-461 10l-106 -600h567q39 78 89 154
t80 112l30 37l32 -12q-55 -189 -71 -291l-13 -74h-1079l4 29l170 45l221 1243l-151 45l4 29h1032l-12 -74q-8 -46 -15 -115.5t-11 -115.5l-3 -46l-45 -8q-7 13 -18.5 36.5t-35.5 98t-34 150.5h-520l-103 -576l465 13l70 116h39l-57 -329h-35z" />
    <glyph glyph-name="Igrave" unicode="&#xcc;" horiz-adv-x="593" 
d="M-82 0l4 29l170 45l221 1243l-151 45l4 29h510l-4 -29l-168 -45l-221 -1243l151 -45l-4 -29h-512zM225 1829h21l272 -285l-24 -26l-355 186z" />
    <glyph glyph-name="Iacute" unicode="&#xcd;" horiz-adv-x="593" 
d="M-82 0l4 29l170 45l221 1243l-151 45l4 29h510l-4 -29l-168 -45l-221 -1243l151 -45l-4 -29h-512zM680 1829h20l86 -125l-354 -186l-24 26z" />
    <glyph glyph-name="Icircumflex" unicode="&#xce;" horiz-adv-x="593" 
d="M-82 0l4 29l170 45l221 1243l-151 45l4 29h510l-4 -29l-168 -45l-221 -1243l151 -45l-4 -29h-512zM537 1815l184 -259l-25 -20l-221 139l-270 -139l-17 20l279 259h70z" />
    <glyph glyph-name="Idieresis" unicode="&#xcf;" horiz-adv-x="593" 
d="M-82 0l4 29l170 45l221 1243l-151 45l4 29h510l-4 -29l-168 -45l-221 -1243l151 -45l-4 -29h-512zM299 1587q-34 0 -57 24.5t-23 59.5q0 43 36.5 77t78.5 34q35 0 57.5 -24.5t22.5 -59.5q0 -45 -35 -78t-80 -33zM590 1587q-34 0 -57 24t-23 58q0 45 35.5 79t79.5 34
q33 0 56.5 -25t23.5 -59q0 -45 -35.5 -78t-79.5 -33z" />
    <glyph glyph-name="Eth" unicode="&#xd0;" horiz-adv-x="1413" 
d="M27 705l12 71h178l96 541l-151 45l4 29h539q281 0 451.5 -154.5t170.5 -427.5q0 -182 -66.5 -336.5t-178 -256.5t-255 -159t-299.5 -57h-610l4 29l170 45l113 631h-178zM692 1319h-192l-97 -543h304l-13 -71h-303l-108 -629h258q254 0 416.5 200.5t162.5 526.5
q0 234 -116 375t-312 141z" />
    <glyph glyph-name="Ntilde" unicode="&#xd1;" horiz-adv-x="1392" 
d="M1010 0l-635 1219l-203 -1145l154 -45l-4 -29h-404l4 29l170 45l221 1243l-151 45l4 29h336l549 -1065l176 991l-152 45l4 29h402l-4 -29l-170 -45l-234 -1317h-63zM535 1520l-25 14q14 42 30.5 75t44 70.5t70 58.5t95.5 21q52 0 101 -18.5t93.5 -39t83.5 -22.5
q60 20 125 109l21 -10q-13 -47 -26.5 -80t-37 -68.5t-59 -54.5t-82.5 -19q-66 0 -150.5 41.5t-142.5 44.5q-32 -13 -60 -37.5t-81 -84.5z" />
    <glyph glyph-name="Ograve" unicode="&#xd2;" horiz-adv-x="1421" 
d="M645 -20q-120 0 -222.5 41t-176.5 116.5t-116 187t-42 246.5q0 156 37.5 291.5t103.5 235t154.5 170.5t193 107t216.5 36q247 0 394.5 -160.5t147.5 -435.5q0 -150 -37.5 -283t-103 -232.5t-152.5 -172.5t-188.5 -110t-208.5 -37zM631 47q145 0 259 103.5t176 282
t62 398.5q0 229 -92 374t-243 145q-145 0 -259.5 -103t-177.5 -283.5t-63 -406.5q0 -231 91.5 -370.5t246.5 -139.5zM547 1829h20l273 -285l-25 -26l-354 186z" />
    <glyph glyph-name="Oacute" unicode="&#xd3;" horiz-adv-x="1421" 
d="M1018 1829h20l86 -125l-354 -186l-25 26zM645 -20q-120 0 -222.5 41t-176.5 116.5t-116 187t-42 246.5q0 156 37.5 291.5t103.5 235t154.5 170.5t193 107t216.5 36q247 0 394.5 -160.5t147.5 -435.5q0 -150 -37.5 -283t-103 -232.5t-152.5 -172.5t-188.5 -110t-208.5 -37
zM631 47q145 0 259 103.5t176 282t62 398.5q0 229 -92 374t-243 145q-145 0 -259.5 -103t-177.5 -283.5t-63 -406.5q0 -231 91.5 -370.5t246.5 -139.5z" />
    <glyph glyph-name="Ocircumflex" unicode="&#xd4;" horiz-adv-x="1421" 
d="M891 1815l184 -259l-24 -20l-222 139l-270 -139l-16 20l278 259h70zM645 -20q-120 0 -222.5 41t-176.5 116.5t-116 187t-42 246.5q0 156 37.5 291.5t103.5 235t154.5 170.5t193 107t216.5 36q247 0 394.5 -160.5t147.5 -435.5q0 -150 -37.5 -283t-103 -232.5
t-152.5 -172.5t-188.5 -110t-208.5 -37zM631 47q145 0 259 103.5t176 282t62 398.5q0 229 -92 374t-243 145q-145 0 -259.5 -103t-177.5 -283.5t-63 -406.5q0 -231 91.5 -370.5t246.5 -139.5z" />
    <glyph glyph-name="Otilde" unicode="&#xd5;" horiz-adv-x="1421" 
d="M645 -20q-120 0 -222.5 41t-176.5 116.5t-116 187t-42 246.5q0 156 37.5 291.5t103.5 235t154.5 170.5t193 107t216.5 36q247 0 394.5 -160.5t147.5 -435.5q0 -150 -37.5 -283t-103 -232.5t-152.5 -172.5t-188.5 -110t-208.5 -37zM631 47q145 0 259 103.5t176 282
t62 398.5q0 229 -92 374t-243 145q-145 0 -259.5 -103t-177.5 -283.5t-63 -406.5q0 -231 91.5 -370.5t246.5 -139.5zM461 1550l-25 15q14 42 30.5 75t44 70.5t70 58.5t95.5 21q52 0 101 -18.5t93.5 -39t83.5 -22.5q60 20 125 109l21 -11q-13 -47 -26.5 -80t-37 -68.5
t-59 -54t-82.5 -18.5q-66 0 -150.5 41.5t-142.5 44.5q-32 -13 -59.5 -37.5t-81.5 -85.5z" />
    <glyph glyph-name="Odieresis" unicode="&#xd6;" horiz-adv-x="1421" 
d="M639 1587q-34 0 -57 24.5t-23 59.5q0 43 36.5 77t78.5 34q35 0 57.5 -24.5t22.5 -59.5q0 -45 -35 -78t-80 -33zM930 1587q-34 0 -57 24t-23 58q0 45 35.5 79t79.5 34q33 0 56 -25t23 -59q0 -45 -35 -78t-79 -33zM645 -20q-120 0 -222.5 41t-176.5 116.5t-116 187
t-42 246.5q0 156 37.5 291.5t103.5 235t154.5 170.5t193 107t216.5 36q247 0 394.5 -160.5t147.5 -435.5q0 -150 -37.5 -283t-103 -232.5t-152.5 -172.5t-188.5 -110t-208.5 -37zM631 47q145 0 259 103.5t176 282t62 398.5q0 229 -92 374t-243 145q-145 0 -259.5 -103
t-177.5 -283.5t-63 -406.5q0 -231 91.5 -370.5t246.5 -139.5z" />
    <glyph glyph-name="multiply" unicode="&#xd7;" horiz-adv-x="849" 
d="M168 295l-66 63l256 256l-252 254l64 64l252 -254l258 258l63 -66l-256 -256l261 -260l-64 -63l-260 260z" />
    <glyph glyph-name="Oslash" unicode="&#xd8;" horiz-adv-x="1421" 
d="M109 -20h-82l180 200q-119 157 -119 391q0 156 37.5 291.5t103.5 235t154.5 170.5t193 107t216.5 36q237 0 385 -151l137 151h80l-178 -197q118 -155 118 -399q0 -150 -37.5 -283t-103 -232.5t-152.5 -172.5t-188.5 -110t-208.5 -37q-242 0 -397 155zM293 557
q0 -127 33 -246l745 828q-43 100 -115 155.5t-163 55.5q-145 0 -259.5 -103t-177.5 -283.5t-63 -406.5zM631 47q145 0 259 103.5t176 282t62 398.5q0 140 -34 246l-744 -829q43 -96 115.5 -148.5t165.5 -52.5z" />
    <glyph glyph-name="Ugrave" unicode="&#xd9;" horiz-adv-x="1396" 
d="M618 -20q-211 0 -340.5 74t-158.5 220l184 1043l-153 45l4 29h510l-5 -29l-167 -45l-166 -936q-26 -140 57 -224.5t242 -84.5q162 0 287 87t151 232l164 926l-154 45l4 29h410l-4 -29l-168 -45l-180 -1014q-70 -152 -205 -237.5t-312 -85.5zM649 1829h21l272 -285
l-24 -26l-355 186z" />
    <glyph glyph-name="Uacute" unicode="&#xda;" horiz-adv-x="1396" 
d="M1128 1829h21l86 -125l-354 -186l-25 26zM618 -20q-211 0 -340.5 74t-158.5 220l184 1043l-153 45l4 29h510l-5 -29l-167 -45l-166 -936q-26 -140 57 -224.5t242 -84.5q162 0 287 87t151 232l164 926l-154 45l4 29h410l-4 -29l-168 -45l-180 -1014q-70 -152 -205 -237.5
t-312 -85.5z" />
    <glyph glyph-name="Ucircumflex" unicode="&#xdb;" horiz-adv-x="1396" 
d="M950 1815l185 -259l-25 -20l-221 139l-271 -139l-16 20l279 259h69zM618 -20q-211 0 -340.5 74t-158.5 220l184 1043l-153 45l4 29h510l-5 -29l-167 -45l-166 -936q-26 -140 57 -224.5t242 -84.5q162 0 287 87t151 232l164 926l-154 45l4 29h410l-4 -29l-168 -45
l-180 -1014q-70 -152 -205 -237.5t-312 -85.5z" />
    <glyph glyph-name="Udieresis" unicode="&#xdc;" horiz-adv-x="1396" 
d="M705 1587q-34 0 -57 24.5t-23 59.5q0 43 36 77t78 34q35 0 57.5 -24.5t22.5 -59.5q0 -45 -34.5 -78t-79.5 -33zM995 1587q-34 0 -57 24t-23 58q0 45 35.5 79t79.5 34q33 0 56.5 -25t23.5 -59q0 -45 -35.5 -78t-79.5 -33zM618 -20q-211 0 -340.5 74t-158.5 220l184 1043
l-153 45l4 29h510l-5 -29l-167 -45l-166 -936q-26 -140 57 -224.5t242 -84.5q162 0 287 87t151 232l164 926l-154 45l4 29h410l-4 -29l-168 -45l-180 -1014q-70 -152 -205 -237.5t-312 -85.5z" />
    <glyph glyph-name="Yacute" unicode="&#xdd;" horiz-adv-x="1308" 
d="M244 0l4 29l190 45l90 516l-309 727l-121 45l4 29h496l-4 -29l-162 -45l254 -653h2l522 653l-143 45l6 29h377l-6 -29l-144 -45l-577 -707l-96 -536l172 -45l-4 -29h-551zM1028 1829h21l86 -125l-355 -186l-24 26z" />
    <glyph glyph-name="Thorn" unicode="&#xde;" horiz-adv-x="1175" 
d="M618 272q-81 0 -172 31l5 29h102q192 1 295.5 114.5t103.5 317.5q0 141 -76.5 212t-226.5 71h-190l-172 -973l172 -45l-4 -29h-531l4 29l168 45l221 1243l-151 45l4 29h510l-4 -29l-168 -45l-37 -197h199q220 0 352.5 -93.5t132.5 -274.5q0 -221 -150.5 -350.5
t-386.5 -129.5z" />
    <glyph glyph-name="germandbls" unicode="&#xdf;" horiz-adv-x="1191" 
d="M119 -10l160 962h-166l10 54l164 18l4 23q21 118 97 222t195 169t251 65q142 0 222.5 -65.5t80.5 -167.5q0 -48 -21 -90.5t-54 -74t-73 -61t-80.5 -57.5t-73.5 -56.5t-54 -66t-21 -78.5q0 -58 65 -110l172 -139q121 -98 121 -230q0 -138 -108 -232.5t-252 -94.5
q-112 0 -232 43q2 57 20 112.5t35 82.5l17 26l100 -19q-26 -76 -32 -166q52 -14 106 -14q86 0 135 55.5t49 149.5q0 43 -20 76.5t-72 72.5l-114 88q-127 101 -127 220q0 49 19 95t48.5 82t66 70.5t73 68t66 67t48.5 74t19 83.5q0 85 -50 136t-139 51q-237 0 -305 -408
l-168 -995q-32 -191 -122 -292t-226 -101q-54 0 -100 13t-65 25l-19 13q2 57 23 107.5t41 72.5l20 22l110 -18q-47 -76 -55 -180h31q30 0 55 11.5t42.5 35.5t30.5 49t23 64t16 67t13 70z" />
    <glyph glyph-name="agrave" unicode="&#xe0;" horiz-adv-x="1153" 
d="M381 -20q-155 0 -234 97.5t-79 246.5q0 147 47.5 283.5t124.5 234t179.5 155.5t209.5 58q149 0 243 -99l140 99l28 -11l-161 -901q-10 -63 28 -63q30 0 71 42t67 84l26 42l35 -17q-4 -10 -11 -27t-32.5 -60.5t-55 -76.5t-76.5 -60t-97 -27q-66 0 -101.5 51.5t-17.5 134.5
l20 98l-10 2q-142 -286 -344 -286zM432 86q112 0 210 135.5t132 329.5l51 295q-25 63 -78 106t-135 43q-81 0 -150 -62t-111.5 -157.5t-66.5 -204.5t-24 -209q0 -276 172 -276zM446 1473h21l272 -285l-24 -27l-355 187z" />
    <glyph glyph-name="aacute" unicode="&#xe1;" horiz-adv-x="1153" 
d="M381 -20q-155 0 -234 97.5t-79 246.5q0 147 47.5 283.5t124.5 234t179.5 155.5t209.5 58q149 0 243 -99l140 99l28 -11l-161 -901q-10 -63 28 -63q30 0 71 42t67 84l26 42l35 -17q-4 -10 -11 -27t-32.5 -60.5t-55 -76.5t-76.5 -60t-97 -27q-66 0 -101.5 51.5t-17.5 134.5
l20 98l-10 2q-142 -286 -344 -286zM432 86q112 0 210 135.5t132 329.5l51 295q-25 63 -78 106t-135 43q-81 0 -150 -62t-111.5 -157.5t-66.5 -204.5t-24 -209q0 -276 172 -276zM950 1473h21l86 -125l-355 -187l-24 27z" />
    <glyph glyph-name="acircumflex" unicode="&#xe2;" horiz-adv-x="1153" 
d="M381 -20q-155 0 -234 97.5t-79 246.5q0 147 47.5 283.5t124.5 234t179.5 155.5t209.5 58q149 0 243 -99l140 99l28 -11l-161 -901q-10 -63 28 -63q30 0 71 42t67 84l26 42l35 -17q-4 -10 -11 -27t-32.5 -60.5t-55 -76.5t-76.5 -60t-97 -27q-66 0 -101.5 51.5t-17.5 134.5
l20 98l-10 2q-142 -286 -344 -286zM432 86q112 0 210 135.5t132 329.5l51 295q-25 63 -78 106t-135 43q-81 0 -150 -62t-111.5 -157.5t-66.5 -204.5t-24 -209q0 -276 172 -276zM756 1458l184 -258l-25 -20l-221 139l-270 -139l-16 20l278 258h70z" />
    <glyph glyph-name="atilde" unicode="&#xe3;" horiz-adv-x="1153" 
d="M381 -20q-155 0 -234 97.5t-79 246.5q0 147 47.5 283.5t124.5 234t179.5 155.5t209.5 58q149 0 243 -99l140 99l28 -11l-161 -901q-10 -63 28 -63q30 0 71 42t67 84l26 42l35 -17q-4 -10 -11 -27t-32.5 -60.5t-55 -76.5t-76.5 -60t-97 -27q-66 0 -101.5 51.5t-17.5 134.5
l20 98l-10 2q-142 -286 -344 -286zM432 86q112 0 210 135.5t132 329.5l51 295q-25 63 -78 106t-135 43q-81 0 -150 -62t-111.5 -157.5t-66.5 -204.5t-24 -209q0 -276 172 -276zM377 1194l-25 14q14 43 30.5 75.5t44 70.5t70 59t95.5 21q52 0 101 -18.5t93.5 -39t83.5 -22.5
q61 20 125 108l21 -10q-13 -47 -26.5 -80t-37 -68.5t-59 -54t-82.5 -18.5q-66 0 -150.5 41.5t-142.5 44.5q-32 -13 -59.5 -37.5t-81.5 -85.5z" />
    <glyph glyph-name="adieresis" unicode="&#xe4;" horiz-adv-x="1153" 
d="M381 -20q-155 0 -234 97.5t-79 246.5q0 147 47.5 283.5t124.5 234t179.5 155.5t209.5 58q149 0 243 -99l140 99l28 -11l-161 -901q-10 -63 28 -63q30 0 71 42t67 84l26 42l35 -17q-4 -10 -11 -27t-32.5 -60.5t-55 -76.5t-76.5 -60t-97 -27q-66 0 -101.5 51.5t-17.5 134.5
l20 98l-10 2q-142 -286 -344 -286zM432 86q112 0 210 135.5t132 329.5l51 295q-25 63 -78 106t-135 43q-81 0 -150 -62t-111.5 -157.5t-66.5 -204.5t-24 -209q0 -276 172 -276zM526 1231q-34 0 -57 24.5t-23 59.5q0 43 36.5 76.5t78.5 33.5q35 0 57.5 -24.5t22.5 -59.5
q0 -45 -35 -77.5t-80 -32.5zM817 1231q-34 0 -57 24t-23 58q0 45 35.5 78.5t79.5 33.5q33 0 56.5 -25t23.5 -59q0 -45 -35.5 -77.5t-79.5 -32.5z" />
    <glyph glyph-name="aring" unicode="&#xe5;" horiz-adv-x="1153" 
d="M381 -20q-155 0 -234 97.5t-79 246.5q0 147 47.5 283.5t124.5 234t179.5 155.5t209.5 58q149 0 243 -99l140 99l28 -11l-161 -901q-10 -63 28 -63q30 0 71 42t67 84l26 42l35 -17q-4 -10 -11 -27t-32.5 -60.5t-55 -76.5t-76.5 -60t-97 -27q-66 0 -101.5 51.5t-17.5 134.5
l20 98l-10 2q-142 -286 -344 -286zM432 86q112 0 210 135.5t132 329.5l51 295q-25 63 -78 106t-135 43q-81 0 -150 -62t-111.5 -157.5t-66.5 -204.5t-24 -209q0 -276 172 -276zM895 1323q0 -80 -60 -128t-153 -48q-78 0 -127 43.5t-49 118.5q0 81 61 128.5t154 47.5
q77 0 125.5 -44t48.5 -118zM686 1188q51 0 75.5 46.5t24.5 119.5q0 92 -69 92q-56 0 -81.5 -46.5t-25.5 -115.5q0 -45 20.5 -70.5t55.5 -25.5z" />
    <glyph glyph-name="ae" unicode="&#xe6;" horiz-adv-x="1566" 
d="M1032 -20q-242 0 -332 178q-46 -43 -80 -70t-82 -54.5t-103.5 -40.5t-121.5 -13q-121 0 -189 61t-52 197l14 120q173 175 602 260q29 148 29 156q0 113 -39 166t-141 53q-72 0 -152 -41q-27 -36 -51.5 -95t-35.5 -99l-11 -41h-82q-5 9 -11.5 25t-17 64t-8.5 93
q62 62 171 109t224 47q121 0 194.5 -35t98.5 -117q72 72 162.5 112t185.5 40q139 0 223 -58.5t84 -162.5q0 -67 -24.5 -121t-59 -89.5t-96.5 -62.5t-110.5 -41t-129 -24.5t-124.5 -13.5t-123 -7q-2 -29 -2 -88q0 -150 62.5 -224.5t168.5 -74.5q58 0 108 15.5t94 48.5
t74.5 63t73.5 80l27 -19q-35 -65 -69 -111t-84 -91.5t-117 -69.5t-148 -24zM1186 995q-126 0 -219 -125t-117 -342q39 1 61 2t67 4.5t73.5 9t70.5 17t69.5 27t58.5 39.5t49 53.5t30 71t12 90.5q0 73 -44.5 113t-110.5 40zM657 369q0 103 21 194q-254 -59 -416 -176l-12 -113
q-11 -102 20.5 -150t120.5 -48q91 0 167 35.5t128 78.5q-29 82 -29 179z" />
    <glyph glyph-name="ccedilla" unicode="&#xe7;" horiz-adv-x="942" 
d="M831 729l-108 10q31 103 35 203q-76 51 -170 51q-163 0 -251.5 -153t-88.5 -400q0 -172 63 -259t174 -87q46 0 88.5 14.5t72 34t65 57.5t55.5 64.5t55 75.5l29 -8q-23 -74 -57 -135t-84 -112.5t-120.5 -80.5t-154.5 -29q-8 0 -24.5 1t-24.5 1l-37 -45q74 -10 114 -47.5
t40 -93.5q0 -72 -60 -112.5t-159 -40.5q-92 0 -154 53l18 28q58 -28 121 -28q56 0 84.5 24.5t28.5 63.5q0 42 -30 73.5t-91 45.5l2 8l68 82q-127 28 -194.5 131t-67.5 268q0 156 47.5 285t125.5 211t175 127t200 45q101 0 179.5 -27t119.5 -72q-2 -59 -23 -116t-39.5 -84
t-21.5 -27z" />
    <glyph glyph-name="egrave" unicode="&#xe8;" horiz-adv-x="966" 
d="M432 -20q-173 0 -268.5 100.5t-95.5 288.5q0 153 45 283.5t120 217.5t171.5 136t199.5 49q139 0 223 -58.5t84 -162.5q0 -67 -23.5 -121t-60 -89.5t-94 -62t-111 -41t-126.5 -24.5t-125.5 -13.5t-122.5 -7.5h-4q-2 -29 -2 -88q0 -149 63 -224t168 -75q58 0 108.5 15.5
t94.5 48.5t75.5 63.5t73.5 79.5l25 -19q-28 -51 -53 -89t-63.5 -79.5t-79.5 -67.5t-98.5 -43t-123.5 -17zM586 995q-126 0 -219 -125t-117 -342q40 1 62 2t67.5 4.5t74 9t70.5 17t69.5 27t58.5 39.5t49 53.5t30 71t12 90.5q0 73 -45 113t-112 40zM395 1473h21l272 -285
l-24 -27l-355 187z" />
    <glyph glyph-name="eacute" unicode="&#xe9;" horiz-adv-x="966" 
d="M432 -20q-173 0 -268.5 100.5t-95.5 288.5q0 153 45 283.5t120 217.5t171.5 136t199.5 49q139 0 223 -58.5t84 -162.5q0 -67 -23.5 -121t-60 -89.5t-94 -62t-111 -41t-126.5 -24.5t-125.5 -13.5t-122.5 -7.5h-4q-2 -29 -2 -88q0 -149 63 -224t168 -75q58 0 108.5 15.5
t94.5 48.5t75.5 63.5t73.5 79.5l25 -19q-28 -51 -53 -89t-63.5 -79.5t-79.5 -67.5t-98.5 -43t-123.5 -17zM586 995q-126 0 -219 -125t-117 -342q40 1 62 2t67.5 4.5t74 9t70.5 17t69.5 27t58.5 39.5t49 53.5t30 71t12 90.5q0 73 -45 113t-112 40zM856 1473h21l86 -125
l-355 -187l-24 27z" />
    <glyph glyph-name="ecircumflex" unicode="&#xea;" horiz-adv-x="966" 
d="M432 -20q-173 0 -268.5 100.5t-95.5 288.5q0 153 45 283.5t120 217.5t171.5 136t199.5 49q139 0 223 -58.5t84 -162.5q0 -67 -23.5 -121t-60 -89.5t-94 -62t-111 -41t-126.5 -24.5t-125.5 -13.5t-122.5 -7.5h-4q-2 -29 -2 -88q0 -149 63 -224t168 -75q58 0 108.5 15.5
t94.5 48.5t75.5 63.5t73.5 79.5l25 -19q-28 -51 -53 -89t-63.5 -79.5t-79.5 -67.5t-98.5 -43t-123.5 -17zM586 995q-126 0 -219 -125t-117 -342q40 1 62 2t67.5 4.5t74 9t70.5 17t69.5 27t58.5 39.5t49 53.5t30 71t12 90.5q0 73 -45 113t-112 40zM682 1458l184 -258l-24 -20
l-221 139l-271 -139l-16 20l278 258h70z" />
    <glyph glyph-name="edieresis" unicode="&#xeb;" horiz-adv-x="966" 
d="M432 -20q-173 0 -268.5 100.5t-95.5 288.5q0 153 45 283.5t120 217.5t171.5 136t199.5 49q139 0 223 -58.5t84 -162.5q0 -67 -23.5 -121t-60 -89.5t-94 -62t-111 -41t-126.5 -24.5t-125.5 -13.5t-122.5 -7.5h-4q-2 -29 -2 -88q0 -149 63 -224t168 -75q58 0 108.5 15.5
t94.5 48.5t75.5 63.5t73.5 79.5l25 -19q-28 -51 -53 -89t-63.5 -79.5t-79.5 -67.5t-98.5 -43t-123.5 -17zM586 995q-126 0 -219 -125t-117 -342q40 1 62 2t67.5 4.5t74 9t70.5 17t69.5 27t58.5 39.5t49 53.5t30 71t12 90.5q0 73 -45 113t-112 40zM444 1231q-34 0 -56.5 24.5
t-22.5 59.5q0 43 36 76.5t78 33.5q35 0 57.5 -24.5t22.5 -59.5q0 -45 -35 -77.5t-80 -32.5zM735 1231q-34 0 -57 24t-23 58q0 45 35.5 78.5t79.5 33.5q33 0 56.5 -25t23.5 -59q0 -45 -35.5 -77.5t-79.5 -32.5z" />
    <glyph glyph-name="igrave" unicode="&#xec;" horiz-adv-x="612" 
d="M272 -20q-69 0 -103 47.5t-22 115.5l140 748q10 63 -27 63q-30 0 -71 -42.5t-67 -85.5l-26 -42l-35 19q4 10 11.5 27t34.5 60.5t56.5 77t76.5 60.5t96 27q75 0 108 -45t19 -119l-141 -748q-10 -63 26 -63q29 0 69.5 42.5t66.5 85.5l26 42l37 -19q-4 -10 -12 -27
t-34.5 -60.5t-56.5 -76.5t-76.5 -60t-95.5 -27zM147 1473h21l272 -285l-24 -27l-355 187z" />
    <glyph glyph-name="iacute" unicode="&#xed;" horiz-adv-x="612" 
d="M586 1473h20l86 -125l-354 -187l-25 27zM272 -20q-69 0 -103 47.5t-22 115.5l140 748q10 63 -27 63q-30 0 -71 -42.5t-67 -85.5l-26 -42l-35 19q4 10 11.5 27t34.5 60.5t56.5 77t76.5 60.5t96 27q75 0 108 -45t19 -119l-141 -748q-10 -63 26 -63q29 0 69.5 42.5
t66.5 85.5l26 42l37 -19q-4 -10 -12 -27t-34.5 -60.5t-56.5 -76.5t-76.5 -60t-95.5 -27z" />
    <glyph glyph-name="icircumflex" unicode="&#xee;" horiz-adv-x="612" 
d="M446 1458l185 -258l-25 -20l-221 139l-270 -139l-17 20l279 258h69zM272 -20q-69 0 -103 47.5t-22 115.5l140 748q10 63 -27 63q-30 0 -71 -42.5t-67 -85.5l-26 -42l-35 19q4 10 11.5 27t34.5 60.5t56.5 77t76.5 60.5t96 27q75 0 108 -45t19 -119l-141 -748
q-10 -63 26 -63q29 0 69.5 42.5t66.5 85.5l26 42l37 -19q-4 -10 -12 -27t-34.5 -60.5t-56.5 -76.5t-76.5 -60t-95.5 -27z" />
    <glyph glyph-name="idieresis" unicode="&#xef;" horiz-adv-x="612" 
d="M221 1231q-34 0 -57 24.5t-23 59.5q0 43 36.5 76.5t78.5 33.5q35 0 57.5 -24.5t22.5 -59.5q0 -45 -35 -77.5t-80 -32.5zM512 1231q-34 0 -57 24t-23 58q0 45 35.5 78.5t79.5 33.5q33 0 56.5 -25t23.5 -59q0 -45 -35.5 -77.5t-79.5 -32.5zM272 -20q-69 0 -103 47.5
t-22 115.5l140 748q10 63 -27 63q-30 0 -71 -42.5t-67 -85.5l-26 -42l-35 19q4 10 11.5 27t34.5 60.5t56.5 77t76.5 60.5t96 27q75 0 108 -45t19 -119l-141 -748q-10 -63 26 -63q29 0 69.5 42.5t66.5 85.5l26 42l37 -19q-4 -10 -12 -27t-34.5 -60.5t-56.5 -76.5t-76.5 -60
t-95.5 -27z" />
    <glyph glyph-name="eth" unicode="&#xf0;" horiz-adv-x="1062" 
d="M975 1348l-160 -68q180 -228 180 -664q0 -137 -43 -257.5t-113.5 -202.5t-162 -129t-187.5 -47q-184 0 -302.5 124t-118.5 310q0 145 44 267.5t116.5 203t166 125.5t193.5 45q111 0 194 -47q-26 128 -84 223l-182 -76l-18 59l168 74q-65 91 -174 162l53 53
q130 -68 229 -170l180 76zM803 649q0 154 -57 249t-152 95q-109 0 -186.5 -89t-112.5 -223.5t-35 -295.5q0 -153 58.5 -247.5t154.5 -94.5q106 0 182.5 87t112 221.5t35.5 297.5z" />
    <glyph glyph-name="ntilde" unicode="&#xf1;" horiz-adv-x="1208" 
d="M893 -20q-69 0 -103 47.5t-22 115.5l113 637q31 176 -115 176q-121 0 -229 -132t-144 -332l-88 -492h-176l158 891q10 63 -27 63q-30 0 -71 -42t-67 -84l-26 -42l-35 17q4 10 11.5 27t34.5 60.5t56.5 77t76.5 60.5t96 27q69 0 101 -45.5t18 -118.5l-25 -121l10 -2
q142 287 377 287q129 0 193 -83.5t39 -221.5l-107 -607q-6 -28 -0.5 -45.5t27.5 -17.5q30 0 71 42.5t67 85.5l26 42l34 -19q-4 -10 -11.5 -27t-34 -60.5t-56 -76.5t-76.5 -60t-96 -27zM408 1194l-25 14q14 43 30.5 75.5t44 70.5t70 59t95.5 21q52 0 101 -18.5t93.5 -39
t83.5 -22.5q61 20 125 108l21 -10q-13 -47 -26.5 -80t-37 -68.5t-59 -54t-82.5 -18.5q-66 0 -150.5 41.5t-142.5 44.5q-32 -13 -59.5 -37.5t-81.5 -85.5z" />
    <glyph glyph-name="ograve" unicode="&#xf2;" horiz-adv-x="1062" 
d="M489 -20q-184 0 -302.5 124t-118.5 310q0 145 44 267.5t116.5 203t166 125.5t193.5 45q122 0 216 -60t142.5 -159t48.5 -220q0 -137 -43 -257.5t-113.5 -202.5t-162 -129t-187.5 -47zM473 43q106 0 182.5 86.5t112 221t35.5 298.5q0 155 -56.5 250.5t-152.5 95.5
q-108 0 -185.5 -89.5t-113 -225t-35.5 -295.5q0 -154 58 -248t155 -94zM393 1473h21l272 -285l-24 -27l-355 187z" />
    <glyph glyph-name="oacute" unicode="&#xf3;" horiz-adv-x="1062" 
d="M825 1473h21l86 -125l-354 -187l-25 27zM489 -20q-184 0 -302.5 124t-118.5 310q0 145 44 267.5t116.5 203t166 125.5t193.5 45q122 0 216 -60t142.5 -159t48.5 -220q0 -137 -43 -257.5t-113.5 -202.5t-162 -129t-187.5 -47zM473 43q106 0 182.5 86.5t112 221t35.5 298.5
q0 155 -56.5 250.5t-152.5 95.5q-108 0 -185.5 -89.5t-113 -225t-35.5 -295.5q0 -154 58 -248t155 -94z" />
    <glyph glyph-name="ocircumflex" unicode="&#xf4;" horiz-adv-x="1062" 
d="M696 1458l185 -258l-25 -20l-221 139l-270 -139l-17 20l279 258h69zM489 -20q-184 0 -302.5 124t-118.5 310q0 145 44 267.5t116.5 203t166 125.5t193.5 45q122 0 216 -60t142.5 -159t48.5 -220q0 -137 -43 -257.5t-113.5 -202.5t-162 -129t-187.5 -47zM473 43
q106 0 182.5 86.5t112 221t35.5 298.5q0 155 -56.5 250.5t-152.5 95.5q-108 0 -185.5 -89.5t-113 -225t-35.5 -295.5q0 -154 58 -248t155 -94z" />
    <glyph glyph-name="otilde" unicode="&#xf5;" horiz-adv-x="1062" 
d="M489 -20q-184 0 -302.5 124t-118.5 310q0 145 44 267.5t116.5 203t166 125.5t193.5 45q122 0 216 -60t142.5 -159t48.5 -220q0 -137 -43 -257.5t-113.5 -202.5t-162 -129t-187.5 -47zM473 43q106 0 182.5 86.5t112 221t35.5 298.5q0 155 -56.5 250.5t-152.5 95.5
q-108 0 -185.5 -89.5t-113 -225t-35.5 -295.5q0 -154 58 -248t155 -94zM322 1194l-25 14q14 43 30.5 75.5t44 70.5t70 59t95.5 21q52 0 101 -18.5t93.5 -39t83.5 -22.5q61 20 125 108l21 -10q-13 -47 -26.5 -80t-37 -68.5t-59 -54t-82.5 -18.5q-66 0 -150.5 41.5
t-142.5 44.5q-32 -13 -59.5 -37.5t-81.5 -85.5z" />
    <glyph glyph-name="odieresis" unicode="&#xf6;" horiz-adv-x="1062" 
d="M477 1231q-34 0 -57 24.5t-23 59.5q0 43 36.5 76.5t78.5 33.5q35 0 57.5 -24.5t22.5 -59.5q0 -45 -35 -77.5t-80 -32.5zM768 1231q-34 0 -57 24t-23 58q0 45 35.5 78.5t79.5 33.5q33 0 56.5 -25t23.5 -59q0 -45 -35.5 -77.5t-79.5 -32.5zM489 -20q-184 0 -302.5 124
t-118.5 310q0 145 44 267.5t116.5 203t166 125.5t193.5 45q122 0 216 -60t142.5 -159t48.5 -220q0 -137 -43 -257.5t-113.5 -202.5t-162 -129t-187.5 -47zM473 43q106 0 182.5 86.5t112 221t35.5 298.5q0 155 -56.5 250.5t-152.5 95.5q-108 0 -185.5 -89.5t-113 -225
t-35.5 -295.5q0 -154 58 -248t155 -94z" />
    <glyph glyph-name="divide" unicode="&#xf7;" horiz-adv-x="1019" 
d="M401 944q0 45 33 78t78 33t78 -33t33 -78q0 -44 -33 -76t-78 -32t-78 32t-33 76zM102 561v92h816v-92h-816zM401 266q0 45 33 78t78 33t78 -33t33 -78q0 -44 -33 -76t-78 -32t-78 32t-33 76z" />
    <glyph glyph-name="oslash" unicode="&#xf8;" horiz-adv-x="1062" 
d="M43 -20h-76l174 178q-73 109 -73 256q0 145 44 267.5t116.5 203t166 125.5t193.5 45q184 0 303 -135l133 135h74l-174 -178q71 -112 71 -261q0 -137 -43 -257.5t-113.5 -202.5t-162 -129t-187.5 -47q-194 0 -313 135zM260 385q0 -53 6 -100l516 524q-24 87 -72.5 136.5
t-115.5 49.5q-108 0 -185.5 -89.5t-113 -225t-35.5 -295.5zM473 43q106 0 182.5 86.5t112 221t35.5 298.5q0 53 -6 99l-516 -527q25 -84 75 -131t117 -47z" />
    <glyph glyph-name="ugrave" unicode="&#xf9;" horiz-adv-x="1206" 
d="M412 -20q-106 0 -168 53.5t-86 132.5l135 725q6 29 0.5 46t-27.5 17q-28 0 -67 -42.5t-63 -85.5l-25 -42l-37 19q4 10 11.5 27t33.5 60.5t54.5 77t74.5 60.5t94 27q69 0 103 -48t22 -116l-137 -731q10 -36 43 -59t90 -23q118 0 222.5 132.5t139.5 332.5l88 491h177
l-158 -891q-11 -63 26 -63q30 0 71 42t67 84l26 42l35 -17q-4 -10 -11.5 -27t-34 -60.5t-56 -76.5t-76.5 -60t-96 -27q-69 0 -101 45t-18 118l24 121l-10 2q-138 -286 -366 -286zM467 1473h20l273 -285l-25 -27l-354 187z" />
    <glyph glyph-name="uacute" unicode="&#xfa;" horiz-adv-x="1206" 
d="M907 1473h21l86 -125l-355 -187l-24 27zM412 -20q-106 0 -168 53.5t-86 132.5l135 725q6 29 0.5 46t-27.5 17q-28 0 -67 -42.5t-63 -85.5l-25 -42l-37 19q4 10 11.5 27t33.5 60.5t54.5 77t74.5 60.5t94 27q69 0 103 -48t22 -116l-137 -731q10 -36 43 -59t90 -23
q118 0 222.5 132.5t139.5 332.5l88 491h177l-158 -891q-11 -63 26 -63q30 0 71 42t67 84l26 42l35 -17q-4 -10 -11.5 -27t-34 -60.5t-56 -76.5t-76.5 -60t-96 -27q-69 0 -101 45t-18 118l24 121l-10 2q-138 -286 -366 -286z" />
    <glyph glyph-name="ucircumflex" unicode="&#xfb;" horiz-adv-x="1206" 
d="M788 1458l185 -258l-25 -20l-221 139l-270 -139l-17 20l279 258h69zM412 -20q-106 0 -168 53.5t-86 132.5l135 725q6 29 0.5 46t-27.5 17q-28 0 -67 -42.5t-63 -85.5l-25 -42l-37 19q4 10 11.5 27t33.5 60.5t54.5 77t74.5 60.5t94 27q69 0 103 -48t22 -116l-137 -731
q10 -36 43 -59t90 -23q118 0 222.5 132.5t139.5 332.5l88 491h177l-158 -891q-11 -63 26 -63q30 0 71 42t67 84l26 42l35 -17q-4 -10 -11.5 -27t-34 -60.5t-56 -76.5t-76.5 -60t-96 -27q-69 0 -101 45t-18 118l24 121l-10 2q-138 -286 -366 -286z" />
    <glyph glyph-name="udieresis" unicode="&#xfc;" horiz-adv-x="1206" 
d="M547 1231q-34 0 -57 24.5t-23 59.5q0 43 36.5 76.5t78.5 33.5q35 0 57.5 -24.5t22.5 -59.5q0 -45 -35 -77.5t-80 -32.5zM838 1231q-34 0 -57 24t-23 58q0 45 35 78.5t79 33.5q33 0 56.5 -25t23.5 -59q0 -45 -35 -77.5t-79 -32.5zM412 -20q-106 0 -168 53.5t-86 132.5
l135 725q6 29 0.5 46t-27.5 17q-28 0 -67 -42.5t-63 -85.5l-25 -42l-37 19q4 10 11.5 27t33.5 60.5t54.5 77t74.5 60.5t94 27q69 0 103 -48t22 -116l-137 -731q10 -36 43 -59t90 -23q118 0 222.5 132.5t139.5 332.5l88 491h177l-158 -891q-11 -63 26 -63q30 0 71 42t67 84
l26 42l35 -17q-4 -10 -11.5 -27t-34 -60.5t-56 -76.5t-76.5 -60t-96 -27q-69 0 -101 45t-18 118l24 121l-10 2q-138 -286 -366 -286z" />
    <glyph glyph-name="yacute" unicode="&#xfd;" horiz-adv-x="997" 
d="M184 -362q-32 17 -59 41t-43 46t-28 42.5t-16 32.5l-5 12l102 88q6 -9 16 -23.5t40 -45t57 -44.5q85 49 205 195l-222 897q-15 55 -36 55q-36 0 -65.5 -89t-29.5 -118l-41 4q-2 1 -2.5 19t3 47t11 63t24 68.5t39 63t58.5 46t80 17.5q113 0 140 -117l176 -760h2l24 41
q101 179 174.5 366.5t81.5 282.5q-33 22 -75 36t-67 17l-26 3l82 131q11 0 29 -1.5t67.5 -19.5t90.5 -53q-6 -132 -89.5 -358.5t-209.5 -444.5q-109 -187 -236.5 -330t-251.5 -210zM823 1473h21l86 -125l-355 -187l-24 27z" />
    <glyph glyph-name="thorn" unicode="&#xfe;" horiz-adv-x="1146" 
d="M500 -20q-136 0 -230 65l-55 -313l162 -45l-4 -29h-492l4 29l156 45l295 1652l-143 25l4 31l321 63h12l-88 -502q-11 -64 -24 -122t-20 -83l-7 -26l10 -2q28 60 59 107t73.5 90t97.5 66.5t119 23.5q107 0 183.5 -51t111 -130.5t34.5 -179.5q0 -195 -71.5 -357.5
t-205 -259.5t-302.5 -97zM354 492l-63 -361q34 -37 90 -63.5t125 -26.5q82 0 149 41t109.5 106.5t71 150.5t40 168t11.5 165q0 149 -47.5 213.5t-143.5 64.5q-112 0 -210 -133t-132 -325z" />
    <glyph glyph-name="ydieresis" unicode="&#xff;" horiz-adv-x="997" 
d="M184 -362q-32 17 -59 41t-43 46t-28 42.5t-16 32.5l-5 12l102 88q6 -9 16 -23.5t40 -45t57 -44.5q85 49 205 195l-222 897q-15 55 -36 55q-36 0 -65.5 -89t-29.5 -118l-41 4q-2 1 -2.5 19t3 47t11 63t24 68.5t39 63t58.5 46t80 17.5q113 0 140 -117l176 -760h2l24 41
q101 179 174.5 366.5t81.5 282.5q-33 22 -75 36t-67 17l-26 3l82 131q11 0 29 -1.5t67.5 -19.5t90.5 -53q-6 -132 -89.5 -358.5t-209.5 -444.5q-109 -187 -236.5 -330t-251.5 -210zM471 1231q-34 0 -57 24.5t-23 59.5q0 43 36.5 76.5t78.5 33.5q35 0 57.5 -24.5t22.5 -59.5
q0 -45 -35 -77.5t-80 -32.5zM762 1231q-34 0 -57 24t-23 58q0 45 35.5 78.5t79.5 33.5q33 0 56.5 -25t23.5 -59q0 -45 -35.5 -77.5t-79.5 -32.5z" />
    <glyph glyph-name="dotlessi" unicode="&#x131;" horiz-adv-x="612" 
d="M272 -20q-69 0 -103 47.5t-22 115.5l140 748q10 63 -27 63q-30 0 -71 -42.5t-67 -85.5l-26 -42l-35 19q4 10 11.5 27t34.5 60.5t56.5 77t76.5 60.5t96 27q75 0 108 -45t19 -119l-141 -748q-10 -63 26 -63q29 0 69.5 42.5t66.5 85.5l26 42l37 -19q-4 -10 -12 -27
t-34.5 -60.5t-56.5 -76.5t-76.5 -60t-95.5 -27z" />
    <glyph glyph-name="Lslash" unicode="&#x141;" horiz-adv-x="1101" 
d="M-29 510l19 102l225 152l98 553l-151 45l4 29h510l-4 -29l-168 -45l-72 -406l211 144l-18 -103l-211 -143l-131 -735h503q39 76 88 151t78 113l29 37l39 -10q-54 -185 -72 -291l-12 -74h-1018l4 29l170 45l105 588z" />
    <glyph glyph-name="lslash" unicode="&#x142;" horiz-adv-x="595" 
d="M-6 510l18 102l195 131l112 641l-143 25l4 31l322 63h12l-111 -624l261 176l-19 -103l-260 -176l-111 -633q-10 -63 27 -63q30 0 71 42.5t67 85.5l26 42l35 -19q-4 -10 -11.5 -27t-34.5 -60.5t-56.5 -76.5t-76.5 -60t-96 -27q-68 0 -102 47.5t-23 115.5l88 498z" />
    <glyph glyph-name="OE" unicode="&#x152;" horiz-adv-x="1884" 
d="M1657 0h-907q-79 -20 -168 -20q-223 0 -358.5 147.5t-135.5 402.5q0 159 40.5 300t111 246t164 181.5t203 115t224.5 38.5q91 0 170 -20h857l-13 -74q-11 -60 -18 -129.5t-9 -108.5l-1 -39l-41 -10q-8 12 -20 35.5t-37 98.5t-36 153h-520l-102 -576l473 13l61 116h41
l-57 -323h-37l-24 117l-467 10l-107 -600h567q34 75 83 150t82 113l32 38l35 -10q-50 -154 -70 -279zM610 47q83 0 144 27l213 1226q-65 50 -154 50q-151 0 -270 -105.5t-184.5 -291t-65.5 -416.5q0 -222 85.5 -356t231.5 -134z" />
    <glyph glyph-name="oe" unicode="&#x153;" horiz-adv-x="1689" 
d="M489 -20q-184 0 -302.5 124t-118.5 310q0 145 44 267.5t116.5 203t166 125.5t193.5 45q121 0 210.5 -63.5t135.5 -170.5q74 110 177.5 172t215.5 62q139 0 223 -58.5t84 -162.5q0 -67 -23.5 -121t-60 -89.5t-94 -62t-111 -41t-126.5 -24.5t-125.5 -13.5t-122.5 -7.5h-4
q-2 -29 -2 -88q0 -149 63 -224t168 -75q58 0 108.5 15.5t94.5 48.5t75.5 63.5t73.5 79.5l25 -19q-28 -51 -53 -89t-63.5 -79.5t-79.5 -67.5t-98.5 -43t-123.5 -17q-117 0 -196.5 50.5t-116.5 147.5q-69 -94 -162 -146t-191 -52zM473 43q106 0 182.5 86.5t112 221t35.5 298.5
q0 155 -56.5 250.5t-152.5 95.5q-108 0 -185.5 -89.5t-113 -225t-35.5 -295.5q0 -154 58 -248t155 -94zM1309 995q-126 0 -219 -125t-117 -342q40 1 62 2t67.5 4.5t74 9t70.5 17t69.5 27t58.5 39.5t49 53.5t30 71t12 90.5q0 73 -45 113t-112 40z" />
    <glyph glyph-name="Scaron" unicode="&#x160;" horiz-adv-x="1142" 
d="M625 1536l-187 258l25 21l221 -140l270 140l17 -21l-279 -258h-67zM1024 1036q-4 3 -10.5 9t-24.5 27.5t-33.5 46.5t-32.5 67.5t-26 89.5q-52 33 -108.5 50t-141.5 17q-131 0 -203.5 -67t-72.5 -166q0 -42 13 -76t42 -63t59 -49.5t80 -49.5l209 -118q109 -62 172.5 -147
t63.5 -189q0 -187 -140 -312.5t-368 -125.5q-268 0 -494 106l21 107q6 36 9 92t3 95v38l35 14l13.5 -13.5t30.5 -38.5t39.5 -62.5t33.5 -82.5t20 -102q125 -82 276 -82q155 0 243.5 84.5t88.5 218.5q0 155 -192 264l-215 121q-92 52 -156.5 130t-64.5 175q0 94 41 167
t110 115.5t151.5 63.5t174.5 21q95 0 173 -14.5t141 -32t106 -21.5l-17 -94q-6 -39 -8.5 -90.5t-2.5 -82.5l1 -32z" />
    <glyph glyph-name="scaron" unicode="&#x161;" horiz-adv-x="890" 
d="M514 1180l-186 258l24 20l221 -139l271 139l16 -20l-278 -258h-68zM766 782l-102 19q31 69 43 149q-89 47 -185 47q-95 0 -154 -51t-59 -135q0 -114 123 -162l164 -67q104 -44 160.5 -114t56.5 -149q0 -159 -117.5 -249t-298.5 -90q-201 0 -372 79q2 58 18 114.5t31 84.5
l16 27l100 -19q-20 -78 -26 -162q109 -65 223 -65q116 0 183 59t67 160q0 121 -135 178l-142 60q-90 37 -150 105t-60 155q0 65 23.5 118t61.5 86t88.5 55t101 31t103.5 9q99 0 199.5 -23.5t124.5 -23.5q-2 -58 -23.5 -114.5t-42.5 -83.5z" />
    <glyph glyph-name="Ydieresis" unicode="&#x178;" horiz-adv-x="1308" 
d="M244 0l4 29l190 45l90 516l-309 727l-121 45l4 29h496l-4 -29l-162 -45l254 -653h2l522 653l-143 45l6 29h377l-6 -29l-144 -45l-577 -707l-96 -536l172 -45l-4 -29h-551zM629 1587q-34 0 -57 24.5t-23 59.5q0 43 36.5 77t78.5 34q34 0 56.5 -24.5t22.5 -59.5
q0 -45 -34.5 -78t-79.5 -33zM920 1587q-34 0 -57 24t-23 58q0 45 35 79t79 34q33 0 56.5 -25t23.5 -59q0 -45 -35 -78t-79 -33z" />
    <glyph glyph-name="Zcaron" unicode="&#x17d;" horiz-adv-x="1136" 
d="M682 1536l-186 258l24 21l221 -140l271 140l16 -21l-278 -258h-68zM205 1028l-45 14q49 160 69 275l13 74h938l-13 -68l-983 -1249h635q32 71 80.5 142t80.5 106l32 36l45 -14q-45 -143 -68 -270l-12 -74h-1043l11 68l983 1249h-529q-25 -68 -73.5 -140t-84.5 -111z" />
    <glyph glyph-name="zcaron" unicode="&#x17e;" horiz-adv-x="1028" 
d="M545 1180l-187 258l25 20l221 -139l270 139l17 -20l-279 -258h-67zM166 696q-21 68 -21 144q0 91 44 153t126 62q51 0 119.5 -23.5t124.5 -51.5t114 -51.5t89 -23.5q33 0 59 29l88 100h103v-24l-738 -834q24 6 52 6q55 0 192.5 -28.5t196.5 -28.5q120 0 157 162l11 49h41
q10 -61 10 -133q0 -246 -209 -246q-59 0 -132.5 24t-129.5 53t-115.5 53t-93.5 24q-23 0 -35.5 -5t-25.5 -22l-72 -84h-94v27l712 811q-5 0 -26 -1t-25 -1q-73 0 -199 24.5t-155 24.5q-52 0 -78.5 -34.5t-42.5 -96.5l-14 -58h-33z" />
    <glyph glyph-name="florin" unicode="&#x192;" horiz-adv-x="997" 
d="M788 1083q6 8 14.5 23.5t24 62t17.5 91.5q-35 14 -72 14q-44 0 -79.5 -18.5t-58 -46t-40 -69.5t-26.5 -78.5t-17 -84.5l-39 -244h240v-65h-250l-103 -637q-31 -190 -121 -291.5t-227 -101.5q-54 0 -100 13t-65 25l-19 13q2 57 23 107.5t41 72.5l20 22l110 -18
q-45 -76 -55 -180h31q30 0 55 11.5t42.5 35.5t30.5 49t23 64t16 67t13 70l109 678h-183v65h193l33 203q30 185 139 289t256 104q130 0 213 -47l6 -4q-2 -58 -22 -111.5t-39 -77.5l-19 -24z" />
    <glyph glyph-name="circumflex" unicode="&#x2c6;" horiz-adv-x="755" 
d="M522 1458l185 -258l-25 -20l-221 139l-271 -139l-16 20l279 258h69z" />
    <glyph glyph-name="caron" unicode="&#x2c7;" horiz-adv-x="755" 
d="M389 1180l-186 258l24 20l222 -139l270 139l16 -20l-278 -258h-68z" />
    <glyph glyph-name="breve" unicode="&#x2d8;" horiz-adv-x="661" 
d="M344 1309q81 0 140 40t94 101l28 -20q-35 -98 -108 -163t-174 -65q-102 0 -153.5 65t-53.5 163l39 16q8 -60 54 -98.5t134 -38.5z" />
    <glyph glyph-name="dotaccent" unicode="&#x2d9;" horiz-adv-x="477" 
d="M326 1223q-45 0 -76 28t-31 68q0 55 38.5 94t88.5 39q45 0 76 -29t31 -69q0 -54 -38.5 -92.5t-88.5 -38.5z" />
    <glyph glyph-name="ring" unicode="&#x2da;" horiz-adv-x="581" 
d="M578 1323q0 -80 -60 -128t-153 -48q-78 0 -127.5 43.5t-49.5 118.5q0 81 61 128.5t154 47.5q78 0 126.5 -44t48.5 -118zM369 1188q51 0 75.5 46.5t24.5 119.5q0 92 -70 92q-56 0 -81 -46t-25 -116q0 -45 20.5 -70.5t55.5 -25.5z" />
    <glyph glyph-name="ogonek" unicode="&#x2db;" horiz-adv-x="581" 
d="M317 -246l29 -47q-72 -69 -170 -69q-85 0 -140.5 35.5t-55.5 111.5q0 49 25.5 93.5t63.5 75.5t90.5 58.5t98.5 44t96 29.5l6 -27q-107 -34 -180.5 -95.5t-73.5 -139.5q0 -92 109 -92q53 0 102 22z" />
    <glyph glyph-name="tilde" unicode="&#x2dc;" horiz-adv-x="1003" 
d="M287 1194l-25 14q14 43 30.5 75.5t44 70.5t70 59t95.5 21q52 0 101 -18.5t93.5 -39t83.5 -22.5q61 20 125 108l21 -10q-13 -47 -26.5 -80t-37 -68.5t-59 -54t-82.5 -18.5q-66 0 -150.5 41.5t-142.5 44.5q-32 -13 -59.5 -37.5t-81.5 -85.5z" />
    <glyph glyph-name="hungarumlaut" unicode="&#x2dd;" horiz-adv-x="776" 
d="M418 1485h20l80 -115l-358 -192l-27 34zM393 1188l326 213l82 -103l4 -18l-387 -125z" />
    <glyph glyph-name="Delta" unicode="&#x394;" horiz-adv-x="2068" 
d="M565 260q-196 0 -319 115t-123 282q0 166 123 282t319 116q197 0 320 -120.5t123 -305.5q0 -139 -39 -250.5t-104.5 -185.5t-155 -123.5t-186.5 -71t-204 -21.5q-63 0 -124 9v2q47 5 106.5 24.5t120.5 52t110 84.5t66 111h-33zM1536 260q-196 0 -319 115t-123 282
q0 166 123 282t319 116t319 -120.5t123 -305.5q0 -139 -39 -250.5t-105 -185.5t-156 -123.5t-187 -71t-203 -21.5q-62 0 -123 9v2q47 5 105.5 24.5t120.5 52t111.5 84.5t66.5 111h-33z" />
    <glyph glyph-name="Delta" unicode="&#x2206;" horiz-adv-x="2068" 
d="M565 260q-196 0 -319 115t-123 282q0 166 123 282t319 116q197 0 320 -120.5t123 -305.5q0 -139 -39 -250.5t-104.5 -185.5t-155 -123.5t-186.5 -71t-204 -21.5q-63 0 -124 9v2q47 5 106.5 24.5t120.5 52t110 84.5t66 111h-33zM1536 260q-196 0 -319 115t-123 282
q0 166 123 282t319 116t319 -120.5t123 -305.5q0 -139 -39 -250.5t-105 -185.5t-156 -123.5t-187 -71t-203 -21.5q-62 0 -123 9v2q47 5 105.5 24.5t120.5 52t111.5 84.5t66.5 111h-33z" />
    <glyph glyph-name="Omega" unicode="&#x3a9;" horiz-adv-x="903" 
d="M494 692l231 -581h-59l-201 507l-201 -507h-59l231 581l-237 582h61l205 -506l203 506h61zM92 1356v35h739v-35h-739zM92 0v35h739v-35h-739z" />
    <glyph glyph-name="Omega" unicode="&#x2126;" horiz-adv-x="903" 
d="M494 692l231 -581h-59l-201 507l-201 -507h-59l231 581l-237 582h61l205 -506l203 506h61zM92 1356v35h739v-35h-739zM92 0v35h739v-35h-739z" />
    <glyph glyph-name="pi" unicode="&#x3c0;" horiz-adv-x="1200" 
d="M70 952h1075l-502 -889z" />
    <glyph glyph-name="endash" unicode="&#x2013;" horiz-adv-x="1040" 
d="M113 510v88h813v-88h-813z" />
    <glyph glyph-name="emdash" unicode="&#x2014;" horiz-adv-x="1652" 
d="M113 510v88h1425v-88h-1425z" />
    <glyph glyph-name="quoteleft" unicode="&#x2018;" horiz-adv-x="452" 
d="M492 1411l4 -12q-18 -11 -45.5 -29.5t-85.5 -69t-82 -94.5q28 -11 44.5 -35.5t16.5 -56.5q0 -57 -34 -90t-93 -33q-48 0 -76 32t-28 75q0 62 33 114.5t90.5 90t120 64t135.5 44.5z" />
    <glyph glyph-name="quoteright" unicode="&#x2019;" horiz-adv-x="452" 
d="M45 991l-4 13q18 11 45.5 29t85.5 68.5t82 94.5q-28 11 -44.5 35.5t-16.5 56.5q0 57 34 90t92 33q48 0 76.5 -31.5t28.5 -74.5q0 -50 -22.5 -94.5t-59 -77.5t-87.5 -61.5t-102 -47.5t-108 -33z" />
    <glyph glyph-name="quotesinglbase" unicode="&#x201a;" horiz-adv-x="546" 
d="M-84 -207l-4 12q18 11 45.5 29.5t85.5 69t82 94.5q-28 11 -45 35.5t-17 56.5q0 57 34 90t93 33q48 0 76.5 -32t28.5 -75q0 -62 -33 -114.5t-90.5 -90t-120 -64t-135.5 -44.5z" />
    <glyph glyph-name="quotedblleft" unicode="&#x201c;" horiz-adv-x="825" 
d="M492 1405l4 -12q-18 -11 -45.5 -29.5t-85.5 -69t-82 -94.5q28 -11 44.5 -35.5t16.5 -56.5q0 -57 -34 -90t-93 -33q-48 0 -76 32t-28 75q0 62 33 114.5t90.5 90t120 64t135.5 44.5zM864 1405l4 -12q-18 -11 -45.5 -29.5t-85.5 -69t-82 -94.5q28 -11 45 -35.5t17 -56.5
q0 -57 -34 -90t-93 -33q-48 0 -76.5 32t-28.5 75q0 62 33 114.5t90.5 90t120 64t135.5 44.5z" />
    <glyph glyph-name="quotedblright" unicode="&#x201d;" horiz-adv-x="825" 
d="M45 991l-4 13q18 11 45.5 29t85.5 68.5t82 94.5q-28 11 -44.5 35.5t-16.5 56.5q0 57 34 90t92 33q48 0 76.5 -31.5t28.5 -74.5q0 -50 -22.5 -94.5t-59 -77.5t-87.5 -61.5t-102 -47.5t-108 -33zM418 991l-4 13q18 11 45.5 29t85.5 68.5t82 94.5q-28 11 -45 35.5t-17 56.5
q0 57 34 90t93 33q48 0 76.5 -31.5t28.5 -74.5q0 -50 -22.5 -94.5t-59 -77.5t-87.5 -61.5t-102 -47.5t-108 -33z" />
    <glyph glyph-name="quotedblbase" unicode="&#x201e;" horiz-adv-x="919" 
d="M-94 -207l-4 12q18 11 45.5 29.5t85.5 69t82 94.5q-28 11 -45 35.5t-17 56.5q0 57 34 90t93 33q48 0 76.5 -32t28.5 -75q0 -62 -33 -114.5t-90.5 -90t-120 -64t-135.5 -44.5zM279 -207l-5 12q18 11 45.5 29.5t85.5 69t82 94.5q-28 11 -44.5 35.5t-16.5 56.5q0 57 34 90
t93 33q48 0 76 -32t28 -75q0 -62 -33 -114.5t-90 -90t-120 -64t-135 -44.5z" />
    <glyph glyph-name="dagger" unicode="&#x2020;" horiz-adv-x="1067" 
d="M705 1391l-105 -369l385 31l-22 -123l-373 31l-8 -267l-162 -694h-82l84 694l82 267l-381 -31l22 123l371 -33l29 371h160z" />
    <glyph glyph-name="daggerdbl" unicode="&#x2021;" horiz-adv-x="1171" 
d="M227 930l23 123l371 -33l28 371h160l-104 -369l385 31l-23 -123l-375 31l-6 -265l-88 -268l387 33l-22 -123l-375 31l-25 -369h-160l101 369l-381 -31l22 123l369 -31l12 266l84 265z" />
    <glyph glyph-name="bullet" unicode="&#x2022;" horiz-adv-x="604" 
d="M283 428q-72 0 -118 42t-46 105q0 83 60 144t136 61q71 0 117.5 -43.5t46.5 -105.5q0 -84 -59.5 -143.5t-136.5 -59.5z" />
    <glyph glyph-name="ellipsis" unicode="&#x2026;" horiz-adv-x="1579" 
d="M1186 -20q-47 0 -78 28t-31 70q0 56 39.5 96.5t91.5 40.5q47 0 78 -29t31 -71q0 -56 -39.5 -95.5t-91.5 -39.5zM154 -20q-47 0 -78 28t-31 70q0 56 39.5 96.5t91.5 40.5q47 0 78 -29t31 -71q0 -56 -39.5 -95.5t-91.5 -39.5zM670 -20q-47 0 -78 28t-31 70q0 56 39.5 96.5
t91.5 40.5q47 0 78 -29t31 -71q0 -56 -39.5 -95.5t-91.5 -39.5z" />
    <glyph glyph-name="perthousand" unicode="&#x2030;" horiz-adv-x="2039" 
d="M680 1079q0 -187 -85 -305.5t-214 -118.5q-106 0 -165.5 65t-59.5 185q0 185 89 304.5t220 119.5q101 0 158 -68.5t57 -181.5zM549 1106q0 184 -88 184q-44 0 -77 -32.5t-50.5 -78.5t-28 -107.5t-13.5 -106t-3 -86.5q0 -183 94 -183q45 0 78 36t49 83.5t25.5 112
t11.5 103t2 75.5zM342 0h-86l838 1309h82zM1274 403q0 -187 -85 -305t-214 -118q-106 0 -165.5 64.5t-59.5 184.5q0 185 89 304.5t220 119.5q101 0 158 -68.5t57 -181.5zM1143 430q0 184 -88 184q-44 0 -77 -32.5t-50.5 -78.5t-28 -107.5t-13.5 -106t-3 -86.5
q0 -183 94 -183q45 0 78 36t49 83.5t25.5 112t11.5 103t2 75.5zM1884 403q0 -187 -85 -305t-214 -118q-106 0 -165.5 64.5t-59.5 184.5q0 185 89 304.5t220 119.5q101 0 158 -68.5t57 -181.5zM1753 430q0 184 -88 184q-44 0 -77 -32.5t-50.5 -78.5t-28 -107.5t-13.5 -106
t-3 -86.5q0 -183 94 -183q45 0 78 36t49 83.5t25.5 112t11.5 103t2 75.5z" />
    <glyph glyph-name="guilsinglleft" unicode="&#x2039;" horiz-adv-x="630" 
d="M559 948l-303 -430l152 -424h-76l-260 393v58l411 403h76z" />
    <glyph glyph-name="guilsinglright" unicode="&#x203a;" horiz-adv-x="630" 
d="M20 94l304 430l-152 424h76l260 -393v-57l-412 -404h-76z" />
    <glyph glyph-name="fraction" unicode="&#x2044;" horiz-adv-x="1009" 
d="M72 0h-86l921 1309h82z" />
    <glyph glyph-name="Euro" unicode="&#x20ac;" horiz-adv-x="1312" 
d="M1157 952q-4 3 -10.5 9.5t-24.5 29.5t-33.5 50.5t-32 73.5t-24.5 97q-95 50 -213 50q-153 0 -272 -127t-160 -338h381l-10 -66h-381q-8 -57 -8 -135v-2h364l-10 -66h-352q12 -201 100.5 -311.5t230.5 -110.5q76 0 141.5 20t117.5 58t89 76t78 92l27 -22q-26 -59 -68 -116
t-103 -112t-147.5 -88.5t-183.5 -33.5q-216 0 -352 145.5t-143 402.5h-115l10 66h105q3 77 14 137h-94l10 66h96q63 250 247 391t421 141q109 0 232 -23.5t151 -25.5l-18 -111q-7 -39 -10 -90t-2 -83l1 -31z" />
    <glyph glyph-name="trademark" unicode="&#x2122;" horiz-adv-x="1656" 
d="M934 1352l-76 22v17h203l213 -473h4l178 473h207v-17l-76 -22v-617l76 -22v-17h-287v17l76 22v469h-4q-13 -47 -25 -78l-153 -397h-47l-197 391q-8 16 -15 37t-9 34l-3 13h-4v-469l76 -22v-17h-213v17l76 22v617zM322 713l84 22v613h-144q-10 -34 -28.5 -70.5
t-31.5 -55.5l-14 -20l-26 4q10 84 10 131v54h600v-54q0 -21 2.5 -53.5t5.5 -55.5l2 -22l-26 -4q-49 70 -74 146h-141v-613l82 -22v-17h-301v17z" />
    <glyph glyph-name="partialdiff" unicode="&#x2202;" horiz-adv-x="1196" 
d="M1012 1055v-1075l-889 501z" />
    <glyph glyph-name="product" unicode="&#x220f;" horiz-adv-x="1200" 
d="M1145 88h-1075l573 889z" />
    <glyph glyph-name="summation" unicode="&#x2211;" horiz-adv-x="1196" 
d="M203 -20v1075l889 -574z" />
    <glyph glyph-name="minus" unicode="&#x2212;" horiz-adv-x="1019" 
d="M102 565v92h816v-92h-816z" />
    <glyph glyph-name="radical" unicode="&#x221a;" horiz-adv-x="2068" 
d="M565 772q197 0 320 -115t123 -282q0 -166 -123.5 -282t-319.5 -116t-319 120.5t-123 305.5q0 139 39 250.5t104.5 185.5t155.5 123.5t187 71t204 21.5q41 0 123 -8v-3q-48 -6 -107 -25.5t-120.5 -52t-110.5 -84.5t-66 -112q10 2 33 2zM1536 772q196 0 319 -115t123 -282
q0 -166 -123 -282t-319 -116q-197 0 -319.5 120.5t-122.5 305.5q0 139 39 250.5t104 185.5t154.5 123.5t186.5 71t204 21.5q43 0 125 -8v-3q-49 -6 -108 -25.5t-121 -52t-110.5 -84.5t-64.5 -112q10 2 33 2z" />
    <glyph glyph-name="infinity" unicode="&#x221e;" horiz-adv-x="1644" 
d="M821 643q41 43 63.5 65t67.5 60t80.5 57.5t85.5 35.5t99 16q148 0 236.5 -86.5t88.5 -215.5q0 -131 -84 -216t-241 -85q-63 0 -120 20t-109.5 60.5t-85 72t-79.5 83.5q-39 -42 -62.5 -65t-67.5 -60.5t-80.5 -58t-86 -36.5t-98.5 -16q-157 0 -241.5 85t-84.5 216
q0 128 89.5 215t236.5 87q49 0 98.5 -15.5t86.5 -36.5t79.5 -56.5t67.5 -61t61 -64.5zM428 346q41 0 84 16t75.5 36.5t71.5 56t60.5 59.5t54.5 61q-31 33 -39.5 42.5t-40.5 42t-48 45.5t-48 37t-55.5 34.5t-54.5 19.5t-60 9q-108 0 -168.5 -61t-60.5 -169t60.5 -168.5
t168.5 -60.5zM1217 346q109 0 170 61t61 168t-61 168.5t-170 61.5q-40 0 -83 -17t-73 -36t-72.5 -58t-60 -58t-56.5 -61q41 -47 71 -77.5t77.5 -70.5t97 -60.5t99.5 -20.5z" />
    <glyph glyph-name="integral" unicode="&#x222b;" horiz-adv-x="903" 
d="M494 692l231 -581h-59l-201 507l-201 -507h-59l231 581l-237 582h61l205 -506l203 506h61zM92 1356v35h739v-35h-739zM92 0v35h739v-35h-739z" />
    <glyph glyph-name="approxequal" unicode="&#x2248;" horiz-adv-x="1236" 
d="M1065 895l70 -59q-39 -63 -108 -104.5t-140 -41.5q-52 0 -115 20.5t-111.5 45t-108.5 45t-108 20.5q-80 0 -150 -39.5t-118 -101.5l-74 59q58 89 150.5 143t206.5 54q73 0 161.5 -34t163.5 -67.5t115 -33.5q101 0 166 94zM1065 524l70 -59q-39 -63 -108 -104.5
t-140 -41.5q-65 0 -146 33t-159.5 66t-137.5 33q-80 0 -150 -40t-118 -102l-74 60q58 89 150.5 142.5t206.5 53.5q57 0 126 -21t120.5 -46.5t106 -46.5t87.5 -21q101 0 166 94z" />
    <glyph glyph-name="notequal" unicode="&#x2260;" horiz-adv-x="1019" 
d="M102 750v92h461l78 172h111l-78 -172h244v-92h-285l-123 -275h408v-92h-449l-78 -174h-112l77 174h-254v92h295l125 275h-420z" />
    <glyph glyph-name="lessequal" unicode="&#x2264;" horiz-adv-x="1019" 
d="M918 330v-107l-816 373v66l816 368v-108l-685 -293zM102 20v93h816v-93h-816z" />
    <glyph glyph-name="greaterequal" unicode="&#x2265;" horiz-adv-x="1019" 
d="M102 223v107l684 299l-684 293v108l816 -368v-66zM918 113v-93h-816v93h816z" />
    <glyph glyph-name="lozenge" unicode="&#x25ca;" horiz-adv-x="903" 
d="M494 692l231 -581h-59l-201 507l-201 -507h-59l231 581l-237 582h61l205 -506l203 506h61zM92 1356v35h739v-35h-739zM92 0v35h739v-35h-739z" />
    <glyph glyph-name="HT" 
 />
    <glyph glyph-name="LF" 
 />
    <glyph glyph-name="CR" 
 />
    <glyph glyph-name="DLE" 
 />
    <glyph glyph-name="DC1" 
 />
    <glyph glyph-name="DC2" 
 />
    <glyph glyph-name="DC3" 
 />
    <glyph glyph-name="DC4" 
 />
    <glyph glyph-name="RS" 
 />
    <glyph glyph-name="US" 
 />
    <glyph glyph-name="DEL" 
 />
    <glyph glyph-name="apple" horiz-adv-x="2965" 
d="M1454 655q35 0 58.5 -27.5t23.5 -76.5q0 -64 -43.5 -101.5t-134.5 -37.5v-82l6 -66q-48 -16 -66 -16q-22 0 -22 16v154l-51 -6v-6q0 -31 -6.5 -58t-21.5 -51.5t-43.5 -38.5t-68.5 -14q-43 0 -63.5 21t-20.5 48q0 75 144 109v86q-34 -98 -94 -98q-58 0 -58 63v6
q-37 -67 -108 -67q-28 0 -44 16.5t-16 44.5v207l-59 -4v8q0 41 25 41h34l-6 61q51 17 66 17q22 0 22 -17v-59h97v-6q0 -43 -25 -43h-72v-176q0 -33 27 -33q19 0 39 15.5t20 37.5v51l-6 68q48 16 66 16q22 0 22 -18v-135q0 -31 15 -31q14 0 34 35.5t19 62.5l-4 70
q48 16 63 16q23 0 23 -18v-203l51 6v125l-6 74q48 16 65 16q23 0 23 -18v-82q34 98 96 98zM776 592v-100l6 -66q-48 -16 -63 -16q-23 0 -23 16v135q0 33 -16 33q-13 0 -33.5 -36t-19.5 -62l4 -70q-48 -16 -64 -16q-22 0 -22 16v135q0 33 -17 33q-14 0 -33.5 -35.5
t-19.5 -62.5l6 -70q-48 -16 -65 -16q-23 0 -23 16v141l-6 74q48 16 66 16q22 0 22 -18v-82q9 33 33 66.5t59 33.5q60 0 60 -65v-35q9 34 32.5 67t59.5 33q57 0 57 -65zM2482 680l-59 -4v8q0 41 24 41h35l-6 61q51 17 66 17q22 0 22 -17v-59h96v-6q0 -43 -24 -43h-72v-184
q0 -31 33 -31q22 0 78.5 11t95.5 11q36 0 81.5 -12t45.5 -37q0 -29 -19 -43t-36 -14q-4 0 -54.5 24.5t-91.5 24.5q-14 0 -65 -8t-90 -8q-40 0 -48.5 25.5t-9.5 136.5q-1 65 -2 106zM139 1083v17h2740v-17h-2740zM139 0v16h2740v-16h-2740zM2191 592v-100l4 -66
q-48 -16 -63 -16q-23 0 -23 16v137q0 31 -16 31q-14 0 -33.5 -35.5t-19.5 -62.5l6 -70q-48 -16 -66 -16q-22 0 -22 16v141l-6 74q48 16 65 16q23 0 23 -18v-82q34 100 92 100q59 0 59 -65zM305 528q-33 -12 -90 -12q1 -21 16 -33t37 -12q36 0 66 18q16 -11 16 -32
q0 -8 -5.5 -17t-29 -19.5t-61.5 -10.5q-57 0 -90 30t-33 78q0 56 38 97.5t103 41.5q40 0 62 -19.5t22 -43.5q0 -49 -51 -66zM1737 528q-33 -12 -90 -12q1 -21 16 -33t37 -12q35 0 65 18q17 -11 17 -32q0 -8 -5.5 -17t-29 -19.5t-61.5 -10.5q-57 0 -90 30t-33 78
q0 56 38 97.5t103 41.5q40 0 62 -19.5t22 -43.5q0 -49 -51 -66zM2398 528q-33 -12 -90 -12q1 -21 16 -33t37 -12q36 0 66 18q16 -11 16 -32q0 -8 -5.5 -17t-29 -19.5t-61.5 -10.5q-57 0 -90 30t-33 78q0 56 38 97.5t103 41.5q40 0 62 -19.5t22 -43.5q0 -49 -51 -66z
M1358 449q92 12 92 104q0 41 -27 41q-26 0 -45.5 -38t-19.5 -60v-47zM1870 512q22 0 37.5 -14t15.5 -35q0 -20 -15.5 -33.5t-37.5 -13.5t-36.5 13.5t-14.5 33.5q0 22 14.5 35.5t36.5 13.5zM1143 397q-84 -19 -84 -65q0 -14 8 -21.5t20 -7.5q51 0 56 94zM213 541
q31 0 53.5 10.5t22.5 32.5q0 26 -27 26q-20 0 -33 -20.5t-16 -48.5zM2306 541q31 0 53.5 10.5t22.5 32.5q0 26 -27 26q-20 0 -33 -20.5t-16 -48.5zM1645 541q31 0 53 10.5t22 32.5q0 26 -26 26q-20 0 -33 -20.5t-16 -48.5z" />
    <glyph glyph-name="zero.tab" horiz-adv-x="1126" 
d="M489 -20q-200 0 -313 134t-113 369q0 250 76.5 444.5t206 298t287.5 103.5q200 0 314 -134t114 -372q0 -187 -44 -346t-121 -267.5t-182 -169t-225 -60.5zM492 41q85 0 152 54t108 138.5t68 197.5t37.5 222t10.5 221q0 183 -59 291.5t-178 108.5q-64 0 -117.5 -30
t-91.5 -79.5t-68 -119.5t-48.5 -144.5t-30.5 -159t-16.5 -159.5t-4.5 -150q0 -181 59 -286t179 -105z" />
    <glyph glyph-name="one.tab" horiz-adv-x="1126" 
d="M98 0l4 29l291 57l180 1024h-100q-76 0 -130 11t-71 21l-16 11l4 27q12 1 33.5 3.5t84.5 13.5t123.5 26t140 43.5t144.5 62.5l15 -20l-217 -1223l276 -57l-4 -29h-758z" />
    <glyph glyph-name="two.tab" horiz-adv-x="1126" 
d="M-2 0v76q20 14 72.5 50.5t94 66t105.5 76.5t115 87.5t112.5 95t109 103t94 106t77 110.5t49.5 110t19 110q0 93 -59.5 140t-159.5 47q-116 0 -220.5 -55t-179.5 -138l-30 23q23 43 52.5 83t75.5 84.5t98 77.5t123 54.5t148 21.5q166 0 260.5 -86t94.5 -235
q0 -56 -16.5 -113.5t-43 -108t-68.5 -103.5t-84.5 -96.5t-99 -91.5t-103.5 -83.5t-108 -77.5t-103 -68.5t-96.5 -61.5t-80.5 -52v-7h534q31 56 75 103t73 66l28 20l31 -17q-41 -119 -57 -213l-19 -104h-913z" />
    <glyph glyph-name="three.tab" horiz-adv-x="1126" 
d="M412 -20q-119 0 -228 32t-149 72q12 62 35.5 123.5t40.5 93t20 31.5h76q-13 -146 18 -236q91 -53 203 -53q148 0 240 94t92 271q0 67 -25 115t-71.5 76t-96.5 42.5t-116 22.5l32 63q76 6 131 20.5t105 45.5t76 87.5t26 137.5q0 90 -57 131t-148 41q-100 0 -194 -48
t-158 -118l-28 16q58 119 174 204t264 85q159 0 247.5 -74.5t88.5 -193.5q0 -66 -20 -119.5t-48.5 -86.5t-71 -59t-75.5 -38t-74 -23v-4q42 -10 82.5 -31.5t78 -56.5t60.5 -89t23 -120q0 -140 -73 -244t-197.5 -157t-282.5 -53z" />
    <glyph glyph-name="four.tab" horiz-adv-x="1126" 
d="M55 371v22l832 916h147l-153 -877h172l-11 -61h-174l-51 -297l154 -45l-6 -29h-510l6 29l168 45l51 297h-625zM801 1096l-600 -664h491l117 664h-8z" />
    <glyph glyph-name="five.tab" horiz-adv-x="1126" 
d="M426 -20q-114 0 -219.5 27t-140.5 65q3 64 21 129t35 98l17 33h68q-6 -138 31 -236q1 -1 9.5 -5.5t12 -6.5t13.5 -7t16 -7.5t17.5 -7t21 -7t22.5 -5.5t25.5 -5t28 -3t30.5 -1q163 0 258.5 91.5t95.5 268.5q0 271 -356 271q-109 0 -209 -21l-4 6l137 652h719l-49 -164
h-604l-74 -334q108 10 154 10q101 0 186.5 -20t154 -61.5t107.5 -112t39 -164.5q0 -230 -155.5 -356.5t-407.5 -126.5z" />
    <glyph glyph-name="six.tab" horiz-adv-x="1126" 
d="M530 -20q-197 0 -310.5 121t-113.5 325q0 191 46.5 356t131.5 286.5t212.5 191t281.5 69.5q49 0 92.5 -8t73 -21t54 -28.5t39.5 -30.5t24.5 -28t13.5 -21l4 -8l-39 -37q-10 7 -30 18t-85.5 29t-136.5 18q-93 0 -171.5 -41.5t-134.5 -115.5t-95 -167t-61 -204
q134 131 327 131q161 0 262 -95.5t101 -252.5q0 -149 -68 -261.5t-177 -169t-241 -56.5zM594 729q-78 0 -162.5 -57.5t-128.5 -149.5q-6 -61 -6 -125q0 -170 61.5 -262t178.5 -92q133 0 209.5 113.5t76.5 302.5q0 270 -229 270z" />
    <glyph glyph-name="seven.tab" horiz-adv-x="1126" 
d="M166 0v43l813 1102h-631q-25 -50 -70 -102.5t-78 -79.5l-32 -27l-45 16q47 141 65 252l19 105h872v-158l-778 -1151h-135z" />
    <glyph glyph-name="eight.tab" horiz-adv-x="1126" 
d="M514 -20q-195 0 -311.5 70.5t-116.5 221.5q0 53 22 106t66 104t119 93t172 66l-2 2q-207 113 -207 315q0 116 61.5 202t158 127.5t212.5 41.5q157 0 251.5 -79.5t94.5 -192.5q0 -109 -85.5 -199.5t-223.5 -128.5l31 -18q125 -74 184 -153t59 -175q0 -167 -134.5 -285
t-350.5 -118zM639 547l-127 67q-113 -54 -182.5 -143t-69.5 -188q0 -101 66.5 -169.5t189.5 -68.5q144 0 212.5 72t68.5 192q0 70 -40.5 133t-117.5 105zM444 1030q0 -70 36.5 -123.5t115.5 -101.5l82 -49q194 117 194 303q0 39 -9 73.5t-29.5 66.5t-60.5 50.5t-95 18.5
q-66 0 -113.5 -20.5t-73 -56t-36.5 -75t-11 -86.5z" />
    <glyph glyph-name="nine.tab" horiz-adv-x="1126" 
d="M348 -20q-67 0 -122.5 15t-87 37t-53 43.5t-29.5 36.5l-7 15l39 37q4 -3 11 -7.5t31.5 -16t51.5 -20.5t69.5 -16.5t86.5 -7.5q74 0 139.5 27.5t116 76t92 115.5t69.5 144.5t46 165.5q-134 -131 -328 -131q-161 0 -261.5 95.5t-100.5 252.5q0 112 39 205t106 154
t154.5 94.5t185.5 33.5q197 0 310.5 -121t113.5 -325q0 -191 -46.5 -356t-131.5 -286.5t-212.5 -191t-281.5 -69.5zM535 580q77 0 159.5 56t128.5 148q1 15 2.5 40.5t2.5 46.5t1 40q0 172 -60 263.5t-179 91.5q-132 0 -209.5 -114t-77.5 -302q0 -136 60 -203t172 -67z" />
    </font>
</defs>
</svg>
