<?xml version="1.0" encoding="UTF-8"?>
<svg id="Capa_2" data-name="Capa 2" xmlns="http://www.w3.org/2000/svg" xmlns:xlink="http://www.w3.org/1999/xlink" viewBox="0 0 325 85">
  <defs>
    <style>
      .cls-1 {
        stroke-width: 0px;
      }

      .cls-2 {
        filter: url(#drop-shadow-1);
      }

      .cls-3 {
        fill: #e3af16;
        stroke: #fff;
        stroke-miterlimit: 10;
        stroke-width: 5px;
      }
    </style>
    <filter id="drop-shadow-1" filterUnits="userSpaceOnUse">
      <feOffset dx="0" dy="7"/>
      <feGaussianBlur result="blur" stdDeviation="5"/>
      <feFlood flood-color="#000" flood-opacity=".5"/>
      <feComposite in2="blur" operator="in"/>
      <feComposite in="SourceGraphic"/>
    </filter>
  </defs>
  <g id="Capa_1-2" data-name="Capa 1">
    <g class="cls-2">
      <rect class="cls-3" x="2.5" y="2.5" width="320" height="80" rx="40" ry="40"/>
      <g>
        <path class="cls-1" d="M53.95,49.81c0-1.79-.39-3.51-.39-3.51l.86-.39s1.95,1.59,2.73,4.11c1.09.55,2.11.78,2.99.78,1.92,0,3.02-1.14,3.02-3.2,0-.96-.52-1.98-1.74-2.39l-3.07-1.01c-2.44-.81-3.98-2.44-3.98-4.97,0-3.72,3.22-5.2,6.6-5.2,2.03,0,3.8.55,5.8.78v.94c0,1.85.36,3.22.36,3.22l-.68.34s-1.92-1.3-2.73-3.41c-.73-.34-1.56-.57-2.78-.57-1.64,0-2.55.94-2.55,2.44,0,.86.44,1.69,1.46,2.03l2.91.96c3.33,1.09,4.81,2.78,4.81,5.72s-2.57,5.69-7.02,5.69c-2.42,0-4.52-.42-6.6-1.33v-1.04Z"/>
        <path class="cls-1" d="M84.37,35.27l-1.82-.57v-.44h5.46v.44l-1.82.57v13.16c-1.3,2.31-3.22,3.74-7.15,3.74-3.46,0-6.66-1.43-7.8-3.77v-13.13l-1.82-.57v-.44h8.32v.44l-1.82.57v11.39c0,2.63,1.53,3.93,3.82,3.93,2.73,0,4.63-1.59,4.63-4.11v-11.21Z"/>
        <path class="cls-1" d="M89.96,49.81c0-1.79-.39-3.51-.39-3.51l.86-.39s1.95,1.59,2.73,4.11c1.09.55,2.11.78,2.99.78,1.92,0,3.02-1.14,3.02-3.2,0-.96-.52-1.98-1.74-2.39l-3.07-1.01c-2.44-.81-3.98-2.44-3.98-4.97,0-3.72,3.22-5.2,6.6-5.2,2.03,0,3.8.55,5.8.78v.94c0,1.85.36,3.22.36,3.22l-.68.34s-1.92-1.3-2.73-3.41c-.73-.34-1.56-.57-2.78-.57-1.64,0-2.55.94-2.55,2.44,0,.86.44,1.69,1.46,2.03l2.91.96c3.33,1.09,4.81,2.78,4.81,5.72s-2.57,5.69-7.02,5.69c-2.42,0-4.52-.42-6.6-1.33v-1.04Z"/>
        <path class="cls-1" d="M114.16,52.18c-5.17,0-8.61-3.09-8.61-8.84s4-9.33,9.39-9.33c2.26,0,3.69.57,5.02.57v1.27c0,1.92.39,3.48.39,3.48l-.68.29s-2.13-1.38-2.94-3.98c-.47-.18-.99-.29-1.79-.29-2.76,0-4.47,2.52-4.47,7.64,0,4.5,2.08,6.71,4.58,6.71,2.94,0,4.45-1.53,5.43-2.73l.44.29c-.57,1.95-2.5,4.91-6.76,4.91Z"/>
        <path class="cls-1" d="M140.55,51.92h-5.36c-.81-.34-1.66-1.17-2.29-2.57l-2.18-4.99h-1.69v6.55l1.74.57v.44h-8.16v-.44l1.82-.57v-15.63l-1.82-.57v-.44h9.05c3.93,0,6.86,1.38,6.86,4.81,0,2.24-1.35,3.64-3.28,4.34v.18l1.74,3.8c1.61,3.51,3.56,4.08,3.56,4.08v.44ZM129.03,43.23h2.91c.75-.49,1.79-1.69,1.79-4.08,0-2.63-1.25-3.69-3.25-3.69h-1.46v7.77Z"/>
        <path class="cls-1" d="M141.72,34.7v-.44h8.32v.44l-1.82.57v15.63l1.82.57v.44h-8.32v-.44l1.82-.57v-15.63l-1.82-.57ZM148.06,28.15l1.9,2.21-4.99,2.18-.34-.36,2.99-4.03h.44Z"/>
        <path class="cls-1" d="M152.25,51.92v-.44l1.82-.57v-15.63l-1.82-.57v-.44h8.55c4.08,0,7.12,1.09,7.12,4.21,0,2.57-1.79,3.67-4.91,4.03v.05c3.43.34,5.8,1.51,5.8,4.55,0,3.43-3.09,4.81-7.18,4.81h-9.39ZM158.75,35.43v6.58h1.3c2.11,0,3.17-1.2,3.17-3.15,0-2.29-1.04-3.43-3.12-3.43h-1.35ZM158.75,43.18v7.57h2.13c2.11,0,3.17-1.27,3.17-3.82,0-2.34-1.04-3.74-3.12-3.74h-2.18Z"/>
        <path class="cls-1" d="M170.89,34.7v-.44h14.46v.68c0,2.29.29,4.03.29,4.03l-.52.18s-1.48-1.3-2.31-3.69h-5.41v6.97l5.17-.21.52-1.22h.6v3.85h-.49l-.6-1.22-5.2-.21v7.31h6.01c.62-2.13,2.29-3.93,2.29-3.93l.55.16s-.29,2-.29,4v.96h-15.05v-.44l1.82-.57v-15.63l-1.82-.57Z"/>
        <path class="cls-1" d="M188.05,39.31l-.52-.18s.29-1.74.29-4.03v-.83h16.02v.83c0,2.29.29,4.03.29,4.03l-.52.18s-1.48-1.46-2.31-3.85h-3.12v15.45l1.82.57v.44h-8.32v-.44l1.82-.57v-15.45h-3.12c-.83,2.39-2.31,3.85-2.31,3.85Z"/>
        <path class="cls-1" d="M205.68,34.7v-.44h14.46v.68c0,2.29.29,4.03.29,4.03l-.52.18s-1.48-1.3-2.31-3.69h-5.41v6.97l5.17-.21.52-1.22h.6v3.85h-.49l-.6-1.22-5.2-.21v7.31h6.01c.62-2.13,2.29-3.93,2.29-3.93l.55.16s-.29,2-.29,4v.96h-15.05v-.44l1.82-.57v-15.63l-1.82-.57Z"/>
      </g>
      <g>
        <path class="cls-1" d="M259.93,57.76c-.43,0-.86-.18-1.17-.53-.57-.64-.51-1.63.13-2.21l13.28-11.79-13.28-11.8c-.64-.57-.7-1.56-.13-2.21.57-.65,1.56-.7,2.21-.13l14.59,12.96c.33.3.53.72.53,1.17s-.19.87-.53,1.17l-14.59,12.96c-.3.26-.67.39-1.04.39Z"/>
        <path class="cls-1" d="M246.04,57.76c-.43,0-.86-.18-1.17-.53-.57-.64-.51-1.63.13-2.21l13.28-11.79-13.28-11.8c-.64-.57-.7-1.56-.13-2.21.57-.65,1.56-.7,2.21-.13l14.59,12.96c.33.3.53.72.53,1.17s-.19.87-.53,1.17l-14.59,12.96c-.3.26-.67.39-1.04.39Z"/>
      </g>
    </g>
  </g>
</svg>