<?xml version="1.0" standalone="no"?>
<!DOCTYPE svg PUBLIC "-//W3C//DTD SVG 1.1//EN" "http://www.w3.org/Graphics/SVG/1.1/DTD/svg11.dtd" >
<svg xmlns="http://www.w3.org/2000/svg" xmlns:xlink="http://www.w3.org/1999/xlink" version="1.1">
<metadata>
Created by FontForge 20170731 at Mon Mar 21 13:56:59 2022
 By Aleksey,,,
Copyright (c) 2010 by Eduardo Manso. All rights reserved.
</metadata>
<defs>
<font id="ABCDisplay-Md" horiz-adv-x="1030" >
  <font-face 
    font-family="ABCDisplay Md"
    font-weight="500"
    font-stretch="normal"
    units-per-em="2048"
    panose-1="0 0 0 0 0 0 0 0 0 0"
    ascent="1638"
    descent="-410"
    x-height="1044"
    cap-height="1391"
    bbox="-123.321 -367 2894 1860"
    underline-thickness="102"
    underline-position="-307"
    unicode-range="U+0020-FB02"
  />
<missing-glyph horiz-adv-x="958" 
d="M535 694l243 -547h-96l-190 455l-195 -455h-94l241 547l-243 543h94l197 -451l190 451h94zM96 1327v64h776v-64h-776zM96 0v63h776v-63h-776z" />
    <glyph glyph-name="fi" unicode="fi" horiz-adv-x="1376" 
d="M1006 1210h-109q0 119 -41 191q-47 31 -131 31q-68 0 -117.5 -21t-77.5 -53t-44 -81.5t-20.5 -94t-4.5 -103.5v-45h344q79 0 165 8t132 16l47 7h43v-987l137 -45v-33h-530v33l139 45v878h-477v-878l168 -45v-33h-570v33l148 45v878h-146v50l146 26v41q0 89 28 161
t76.5 121.5t116 83t145 49t164.5 15.5q103 0 198 -19.5t142 -47.5q0 -55 -17.5 -111.5t-35.5 -85.5z" />
    <glyph glyph-name="fl" unicode="fl" horiz-adv-x="1386" 
d="M1200 1503v-1425l139 -45v-33h-530v33l137 45v1284q-109 70 -229 70q-66 0 -113.5 -21t-74.5 -52.5t-43 -81t-20.5 -94.5t-4.5 -104v-45h258v-78h-258v-878l168 -45v-33h-570v33l148 45v878h-146v50l146 26v41q0 112 41 197t113.5 134.5t164 74t201.5 24.5q141 0 262 -33
l168 33h43z" />
    <glyph glyph-name=".notdef" horiz-adv-x="958" 
d="M535 694l243 -547h-96l-190 455l-195 -455h-94l241 547l-243 543h94l197 -451l190 451h94zM96 1327v64h776v-64h-776zM96 0v63h776v-63h-776z" />
    <glyph glyph-name=".null" horiz-adv-x="0" 
 />
    <glyph glyph-name="nonmarkingreturn" horiz-adv-x="682" 
 />
    <glyph glyph-name="space" unicode=" " horiz-adv-x="428" 
 />
    <glyph glyph-name="exclam" unicode="!" horiz-adv-x="624" 
d="M326 399h-27l-141 899q9 53 53.5 83t101.5 30q55 0 99.5 -29.5t54.5 -83.5zM162 123q0 62 42.5 104.5t106.5 42.5q65 0 107.5 -42.5t42.5 -104.5q0 -60 -42.5 -101.5t-107.5 -41.5q-64 0 -106.5 42t-42.5 101z" />
    <glyph glyph-name="quotedbl" unicode="&#x22;" horiz-adv-x="712" 
d="M213 922h-33l-102 383q0 45 35.5 75.5t83.5 30.5t84 -30.5t36 -75.5zM530 922h-32l-103 383q0 45 35.5 75.5t83.5 30.5t84.5 -30.5t36.5 -75.5z" />
    <glyph glyph-name="numbersign" unicode="#" horiz-adv-x="1206" 
d="M176 659v95h223l95 290h120l-94 -290h316l94 290h121l-95 -290h158v-95h-188l-84 -258h190v-94h-221l-100 -307h-121l100 307h-315l-101 -307h-120l100 307h-160v94h191l84 258h-193zM489 659l-83 -258h315l84 258h-316z" />
    <glyph glyph-name="dollar" unicode="$" horiz-adv-x="1206" 
d="M127 86v84q0 53 -7.5 114t-14.5 96l-7 34l58 26q6 -5 16 -14t38 -39.5t52 -64t50 -85t40 -104.5q110 -63 228 -63h12v497l-148 54q-127 43 -198.5 131.5t-71.5 208.5q0 89 33.5 158.5t93 112t132.5 66.5t159 29v127h82v-125q91 -3 217.5 -31t171.5 -32v-76
q0 -54 6.5 -109t13.5 -83l7 -29l-52 -25q-5 4 -14 11t-34.5 31.5t-48 52t-48.5 71t-43 88.5q-78 40 -176 45v-416l121 -43q172 -62 251.5 -153.5t79.5 -227.5q0 -161 -121.5 -282.5t-330.5 -138.5v-121h-82v119q-258 6 -465 106zM688 535l-14 4v-461q194 42 194 256
q0 139 -180 201zM420 1040q0 -124 143 -174l29 -10v385q-84 -13 -128 -67.5t-44 -133.5z" />
    <glyph glyph-name="percent" unicode="%" horiz-adv-x="1466" 
d="M369 707q94 0 94 284q0 138 -25.5 213.5t-75.5 75.5q-94 0 -94 -289q0 -284 101 -284zM369 1329q124 0 196 -86.5t72 -247.5q0 -158 -75 -249t-200 -91t-197.5 87t-72.5 243q0 161 75.5 252.5t201.5 91.5zM446 0h-104l684 1309h102zM1104 653q125 0 197.5 -86.5
t72.5 -247.5q0 -158 -75 -248.5t-199 -90.5q-126 0 -199.5 86t-73.5 243q0 161 75.5 252.5t201.5 91.5zM1104 31q94 0 94 284q0 289 -98 289q-96 0 -96 -289q0 -284 100 -284z" />
    <glyph glyph-name="ampersand" unicode="&#x26;" horiz-adv-x="1423" 
d="M1124 0q-87 49 -184 127q-163 -147 -393 -147q-57 0 -109.5 7t-108 23t-101.5 45.5t-82.5 70.5t-57 102t-20.5 137q0 63 24 119.5t58.5 94.5t81 70t82.5 48.5t73 29.5q-119 195 -119 346q0 75 23 135t59.5 97.5t85.5 62t97 34t98 9.5q158 0 246 -76t88 -202
q0 -73 -32 -132.5t-85.5 -98.5t-105 -63t-109.5 -40q62 -93 158 -201q110 -122 223 -221q97 136 170 379l37 -6q-24 -238 -134 -437q112 -95 219 -169.5t171 -108.5v-35h-353zM614 434q-120 129 -196 246q-92 -106 -92 -258q0 -65 19 -114.5t47 -77.5t66.5 -45.5t71.5 -23
t68 -5.5q133 0 238 57q-134 123 -222 221zM506 1137q0 -128 94 -287q156 123 156 297q0 89 -31.5 136.5t-91.5 47.5q-127 0 -127 -194z" />
    <glyph glyph-name="quotesingle" unicode="'" horiz-adv-x="397" 
d="M213 922h-33l-102 383q0 45 35.5 75.5t83.5 30.5t84 -30.5t36 -75.5z" />
    <glyph glyph-name="parenleft" unicode="(" horiz-adv-x="667" 
d="M598 -242l-33 -34q-77 62 -137 120.5t-123.5 141.5t-105 171t-68.5 204t-27 245q0 128 27 243.5t68.5 203t105 170t124 140.5t136.5 118l33 -35q-301 -308 -301 -840t301 -848z" />
    <glyph glyph-name="parenright" unicode=")" horiz-adv-x="667" 
d="M102 -276l-32 34q301 316 301 848t-301 840l32 35q76 -60 136.5 -118t124 -140.5t105 -170t68.5 -203t27 -243.5q0 -129 -27 -245t-68.5 -204t-105 -171t-123.5 -141.5t-137 -120.5z" />
    <glyph glyph-name="asterisk" unicode="*" horiz-adv-x="940" 
d="M657 684l-188 221q-15 -21 -95 -110.5t-95 -110.5l-35 21l96 280q-26 3 -134.5 26.5t-133.5 26.5v39l268 49l-94 269l35 18l188 -219l184 219l37 -18l-92 -269q24 -2 133 -24.5t133 -24.5v-39l-270 -53q8 -21 46.5 -136.5t51.5 -143.5zM399 1051q0 -31 20.5 -51.5
t51.5 -20.5q32 0 52 20.5t20 51.5t-20 51t-52 20q-31 0 -51.5 -20t-20.5 -51z" />
    <glyph glyph-name="plus" unicode="+" 
d="M94 553v111h365v358h112v-358h365v-111h-365v-373h-112v373h-365z" />
    <glyph glyph-name="comma" unicode="," horiz-adv-x="440" 
d="M70 129q0 62 42 100.5t109 38.5t107.5 -44t40.5 -103q0 -67 -28.5 -125.5t-77.5 -100.5t-109.5 -72t-130.5 -48l-13 22q68 53 96 88q45 56 52 113q-40 17 -64 52t-24 79z" />
    <glyph glyph-name="hyphen" unicode="-" horiz-adv-x="677" 
d="M94 502v121h490v-121h-490z" />
    <glyph glyph-name="period" unicode="." horiz-adv-x="440" 
d="M70 123q0 62 42.5 104.5t106.5 42.5q65 0 108.5 -42.5t43.5 -104.5q0 -59 -43.5 -101t-108.5 -42q-64 0 -106.5 42t-42.5 101z" />
    <glyph glyph-name="slash" unicode="/" horiz-adv-x="804" 
d="M113 -342h-101l598 1825h101z" />
    <glyph glyph-name="zero" unicode="0" horiz-adv-x="1165" 
d="M588 1329q236 0 373 -173t137 -494q0 -316 -142 -499t-376 -183q-237 0 -373.5 173t-136.5 488q0 320 141.5 504t376.5 184zM588 51q235 0 235 600q0 293 -60.5 452t-182.5 159q-236 0 -236 -611q0 -290 60.5 -445t183.5 -155z" />
    <glyph glyph-name="one" unicode="1" horiz-adv-x="849" 
d="M307 90v1004h-49q-73 0 -126 14t-70 28l-17 13v31q12 1 33 3.5t82 13.5t118 26t128.5 43.5t125.5 62.5l41 -24v-1213l246 -59v-33h-749v33z" />
    <glyph glyph-name="two" unicode="2" horiz-adv-x="1095" 
d="M92 963l-39 32q22 54 62.5 108.5t101 107t148.5 85.5t188 33q193 0 306.5 -101.5t113.5 -277.5q0 -52 -14 -104.5t-34.5 -97t-59 -94.5t-70 -86.5t-85.5 -83.5t-89 -75.5t-97 -72.5t-93 -65t-91 -61q-31 -20 -45 -30v-6h539q23 58 64 104t71 63l30 17l35 -16
q-22 -104 -22 -233v-109h-975l-14 74q59 48 100.5 82t118 101.5t131 122.5t120.5 130.5t107 140.5t69.5 138.5t28.5 136.5q0 105 -65.5 159t-171.5 54t-204 -51t-165 -125z" />
    <glyph glyph-name="three" unicode="3" horiz-adv-x="1042" 
d="M383 731q51 4 86 10t74 21t62 37.5t38.5 62t15.5 92.5q0 103 -60.5 153t-160.5 50q-97 0 -188 -43t-144 -104l-32 28q19 43 44.5 82t64.5 78.5t85.5 67.5t110 45.5t135.5 17.5q190 0 298 -87t108 -228q0 -114 -78.5 -185.5t-194.5 -93.5v-4q143 -22 240.5 -110t97.5 -232
q0 -191 -141.5 -300t-372.5 -109q-128 0 -251 33.5t-177 76.5q0 65 17.5 128t34 94t22.5 34h73q13 -145 62 -237q97 -50 209 -50q115 0 182.5 67t67.5 206q0 53 -10.5 96.5t-27 74.5t-44 55.5t-55 40t-66 28t-70.5 19t-76 13.5z" />
    <glyph glyph-name="four" unicode="4" horiz-adv-x="1122" 
d="M35 350v39l682 920h201v-879h167v-80h-167v-272l155 -45v-33h-586v33l164 45v272h-616zM643 1049l-459 -619h467v619h-8z" />
    <glyph glyph-name="five" unicode="5" horiz-adv-x="1056" 
d="M141 635l31 674h752l-23 -209h-633l-14 -291q91 12 188 12q111 0 208 -23t176.5 -69t126 -124.5t46.5 -180.5q0 -214 -145.5 -329t-390.5 -115q-117 0 -225 30.5t-154 71.5q-5 67 9.5 132.5t30 96.5t21.5 35h74q15 -153 64 -237q1 -1 10 -5.5t13.5 -6.5t15 -7.5t19 -8
t20.5 -7t24 -7t26 -5.5t29 -4t31 -1q120 0 190 74t70 229q0 66 -22 116.5t-57 82t-84.5 51.5t-100 27.5t-107.5 7.5q-116 0 -206 -22z" />
    <glyph glyph-name="six" unicode="6" horiz-adv-x="1124" 
d="M991 1159l-37 -43q-11 8 -32 19t-89 30t-139 19q-311 0 -348 -455q125 96 287 96q195 0 311.5 -107t116.5 -292q0 -137 -67.5 -240t-176.5 -154.5t-242 -51.5q-251 0 -378 145.5t-127 449.5q0 354 151.5 554t425.5 200q76 0 139.5 -17.5t99.5 -41.5t61.5 -50.5t34.5 -42
t9 -18.5zM571 721q-70 0 -130.5 -30.5t-98.5 -84.5v-16q0 -199 25.5 -315.5t77.5 -166t139 -49.5q98 0 152.5 92.5t54.5 262.5q0 307 -220 307z" />
    <glyph glyph-name="seven" unicode="7" horiz-adv-x="1017" 
d="M995 1309v-150l-559 -1159h-205v55l629 1053h-614q-17 -52 -58 -103t-74 -77l-32 -25l-47 15q22 176 22 268v123h938z" />
    <glyph glyph-name="eight" unicode="8" horiz-adv-x="1085" 
d="M57 317q0 101 80.5 188.5t227.5 119.5q-240 126 -240 358q0 109 59.5 189t154 118.5t210.5 38.5q186 0 295.5 -88t109.5 -215q0 -54 -22 -101.5t-59.5 -81t-79.5 -57t-88 -38.5l6 -3q170 -78 245.5 -172t75.5 -219q0 -161 -133 -267.5t-360 -106.5q-104 0 -188.5 18
t-152 56.5t-104.5 105t-37 157.5zM616 514l-182 78q-65 -47 -105 -125.5t-40 -169.5q0 -99 68 -169.5t184 -70.5q122 0 182.5 60t60.5 166q0 159 -168 231zM360 1051q0 -141 154 -215l119 -56q104 96 104 260q0 83 -48 148t-142 65q-97 0 -142 -55t-45 -147z" />
    <glyph glyph-name="nine" unicode="9" horiz-adv-x="1124" 
d="M133 150l37 43q11 -8 32 -19t89.5 -30t140.5 -19q312 0 348 457q-122 -97 -286 -97q-195 0 -313 107t-118 291q0 137 69.5 240t180.5 154.5t244 51.5q250 0 375 -144.5t125 -449.5q0 -354 -152 -554.5t-426 -200.5q-77 0 -140.5 17.5t-100 41.5t-62 50.5t-34.5 42
t-9 18.5zM555 588q69 0 129 30t100 84v17q0 293 -54.5 412.5t-180.5 119.5q-100 0 -157.5 -91t-57.5 -265q0 -307 221 -307z" />
    <glyph glyph-name="colon" unicode=":" horiz-adv-x="440" 
d="M70 918q0 62 42.5 103.5t106.5 41.5q66 0 109 -41.5t43 -103.5q0 -59 -43.5 -101.5t-108.5 -42.5q-64 0 -106.5 42.5t-42.5 101.5zM70 123q0 62 42.5 104.5t106.5 42.5q65 0 108.5 -42.5t43.5 -104.5q0 -59 -43.5 -101t-108.5 -42q-64 0 -106.5 42t-42.5 101z" />
    <glyph glyph-name="semicolon" unicode=";" horiz-adv-x="440" 
d="M70 129q0 62 42 100.5t109 38.5t107.5 -44t40.5 -103q0 -67 -28.5 -125.5t-77.5 -100.5t-109.5 -72t-130.5 -48l-13 22q68 53 96 88q45 56 52 113q-40 17 -64 52t-24 79zM68 918q0 62 42.5 103.5t106.5 41.5q66 0 109 -41.5t43 -103.5q0 -59 -43.5 -101.5t-108.5 -42.5
q-64 0 -106.5 42.5t-42.5 101.5z" />
    <glyph glyph-name="less" unicode="&#x3c;" 
d="M94 559v100l842 371v-129l-684 -291l684 -295v-127z" />
    <glyph glyph-name="equal" unicode="=" 
d="M94 750v112h842v-112h-842zM94 397v111h842v-111h-842z" />
    <glyph glyph-name="greater" unicode="&#x3e;" 
d="M936 659v-100l-842 -371v127l684 295l-684 291v129z" />
    <glyph glyph-name="question" unicode="?" horiz-adv-x="1024" 
d="M82 1255q54 60 157.5 108t252.5 48q201 0 324.5 -95t123.5 -265q0 -82 -27.5 -152.5t-71.5 -120t-105 -87.5t-122.5 -60.5t-128.5 -34.5l-49 -197h-37l-102 340q128 25 184 47q211 81 211 281q0 73 -21.5 126t-59 81.5t-80.5 41.5t-93 13q-56 0 -108 -20
q-32 -55 -60 -122t-40 -107l-13 -40h-88q-2 4 -6 11.5t-14.5 31.5t-16 47.5t-11 59t0.5 65.5zM270 123q0 62 43 104.5t107 42.5q65 0 108 -42.5t43 -104.5q0 -59 -43 -101t-108 -42q-64 0 -107 42t-43 101z" />
    <glyph glyph-name="at" unicode="@" horiz-adv-x="1841" 
d="M1378 1024l-114 -635q-4 -20 -5.5 -30t-4 -29t-2 -30t1 -26t5.5 -23.5t11.5 -17t18 -12.5t26.5 -4q54 0 104 31t92 91.5t67.5 162t25.5 229.5q0 120 -36.5 227.5t-106 192.5t-180.5 134.5t-249 49.5q-217 0 -386 -108.5t-261 -299t-92 -431.5q0 -124 29 -225.5t74 -168.5
t108 -117.5t123.5 -77.5t128.5 -43.5t113.5 -21t88.5 -4.5q211 0 392 53l8 -38q-189 -91 -420 -91q-54 0 -111.5 5t-141 23.5t-157 49t-150 87t-131 130.5t-89.5 187.5t-35 251.5q0 261 112.5 469t320.5 327t476 119q181 0 325 -56t233.5 -151t136.5 -216t47 -257
q0 -126 -32 -229t-82.5 -168.5t-116 -110.5t-130 -63.5t-127.5 -18.5q-76 0 -127.5 18t-75.5 50t-32.5 63t-6.5 68l3 39h-9q-109 -209 -278 -209q-110 0 -179 77.5t-69 223.5q0 245 137.5 406t337.5 161q131 0 225 -75l129 69zM850 299q71 0 136 100.5t87 233.5l45 262
q-48 78 -125 78q-66 0 -119.5 -64t-83.5 -175t-30 -247q0 -188 90 -188z" />
    <glyph glyph-name="A" unicode="A" horiz-adv-x="1441" 
d="M670 1391l104 20l547 -1333l133 -45v-33h-588v33l154 43l-143 366h-492l-143 -366l151 -43v-33h-405v33l139 45zM846 520l-209 545h-8l-213 -545h430z" />
    <glyph glyph-name="B" unicode="B" horiz-adv-x="1382" 
d="M735 0h-655v33l153 45v1235l-153 45v33h592q124 0 222.5 -18.5t175.5 -57t119 -104.5t42 -156q0 -263 -352 -316v-4q419 -53 419 -354q0 -98 -42 -172t-119 -119t-177.5 -67.5t-224.5 -22.5zM717 692h-211v-612h207q303 0 303 309q0 143 -76.5 223t-222.5 80zM653 1311
h-147v-539h143q148 0 224.5 68t76.5 192q0 279 -297 279z" />
    <glyph glyph-name="C" unicode="C" horiz-adv-x="1269" 
d="M1235 346q-15 -48 -39.5 -95t-67 -97t-96.5 -87.5t-132.5 -62t-168.5 -24.5q-143 0 -262 45.5t-206.5 132t-136 219t-48.5 299.5q0 173 54 313t149 231.5t222.5 141t276.5 49.5q100 0 224 -23t157 -24v-90q0 -60 7.5 -123t14.5 -96l7 -33l-51 -21q-6 4 -15.5 11.5
t-36.5 34t-51 57t-51.5 80t-44.5 102.5q-80 39 -182 39q-180 0 -285.5 -163t-105.5 -460q0 -273 116 -420t295 -147q68 0 127.5 14.5t101 35.5t81.5 55t63.5 61t52.5 66z" />
    <glyph glyph-name="D" unicode="D" horiz-adv-x="1515" 
d="M233 1313l-153 45v33h657q323 0 515 -179.5t192 -504.5q0 -215 -92.5 -376.5t-252.5 -246t-364 -84.5h-655v33l153 45v1235zM729 1307h-223v-1221h237q198 0 305 160.5t107 445.5t-114.5 450t-311.5 165z" />
    <glyph glyph-name="E" unicode="E" horiz-adv-x="1302" 
d="M233 1313l-153 45v33h1089v-66q0 -68 5.5 -141.5t11.5 -112.5l6 -39l-41 -14q-11 12 -29.5 35t-62 98t-70.5 156h-483v-562l446 15l41 106h45v-315h-39l-47 108l-446 13v-588h530q22 75 62 150.5t69 113.5l29 39l43 -10q-22 -158 -22 -295v-82h-1137v33l153 45v1235z" />
    <glyph glyph-name="F" unicode="F" horiz-adv-x="1243" 
d="M233 1313l-153 45v33h1100v-66q0 -68 5.5 -141.5t10.5 -112.5l6 -39l-41 -14q-11 12 -29.5 35t-62 98t-70.5 156h-493v-596l457 14l41 141h45v-385h-39l-45 144l-459 12v-559l174 -45v-33h-600v33l153 45v1235z" />
    <glyph glyph-name="G" unicode="G" horiz-adv-x="1390" 
d="M803 1411q89 0 242.5 -23.5t193.5 -23.5v-127q0 -38 7.5 -90t14.5 -85l7 -32l-51 -22q-6 3 -15.5 9.5t-36 30.5t-50 52.5t-51 76.5t-44.5 101q-102 47 -229 47q-198 0 -313.5 -172.5t-115.5 -472.5q0 -283 121.5 -447.5t304.5 -164.5q98 0 173 28v451l-113 45v31h467v-31
l-92 -45v-443l61 -16v-29q-85 -34 -217.5 -56.5t-282.5 -22.5q-117 0 -222.5 27t-195 83t-155 136.5t-102.5 193t-37 246.5q0 179 57.5 322t158 234.5t232 140t283.5 48.5z" />
    <glyph glyph-name="H" unicode="H" horiz-adv-x="1589" 
d="M1083 1313l-153 45v33h579v-33l-153 -45v-1235l153 -45v-33h-579v33l153 45v614h-577v-614l153 -45v-33h-579v33l153 45v1235l-153 45v33h579v-33l-153 -45v-533h577v533z" />
    <glyph glyph-name="I" unicode="I" horiz-adv-x="739" 
d="M233 1313l-153 45v33h579v-33l-153 -45v-1235l153 -45v-33h-579v33l153 45v1235z" />
    <glyph glyph-name="J" unicode="J" horiz-adv-x="720" 
d="M506 1313v-1432q-226 -243 -531 -243q-45 0 -94 6q-11 63 6 142t35 108h115q6 -109 41 -179q105 39 155 119v1479l-153 45v33h575v-33z" />
    <glyph glyph-name="K" unicode="K" horiz-adv-x="1447" 
d="M233 1313l-153 45v33h579v-33l-153 -45v-574h119l483 578l-137 41v33h413v-33l-139 -45l-426 -488l359 -524q40 -59 83 -108.5t75.5 -77.5t59.5 -48t42 -27l14 -7v-33h-324q-93 43 -200 197l-303 458h-119v-577l153 -45v-33h-579v33l153 45v1235z" />
    <glyph glyph-name="L" unicode="L" horiz-adv-x="1216" 
d="M233 1313l-153 45v33h579v-33l-153 -45v-1229h475q20 81 60 159t70 116l30 38l41 -12q-21 -176 -21 -309v-76h-1081v33l153 45v1235z" />
    <glyph glyph-name="M" unicode="M" horiz-adv-x="1744" 
d="M231 1315l-151 43v33h385l416 -965h6l399 965h381v-33l-154 -43v-1239l154 -43v-33h-571v33l151 43v942h-6q-37 -107 -57 -156l-334 -796h-92l-361 782q-16 36 -29.5 78.5t-18.5 67.5l-5 24h-6v-942l151 -43v-33h-409v33l151 43v1239z" />
    <glyph glyph-name="N" unicode="N" horiz-adv-x="1490" 
d="M1176 1315l-152 43v33h408v-33l-152 -43v-1315h-98l-844 1071v-995l151 -43v-33h-409v33l151 43v1239l-151 43v33h344l752 -959v883z" />
    <glyph glyph-name="O" unicode="O" horiz-adv-x="1443" 
d="M727 1411q294 0 469.5 -186.5t175.5 -522.5q0 -166 -49 -302.5t-135.5 -228t-206.5 -141.5t-262 -50q-145 0 -264.5 46.5t-204.5 135t-131.5 221t-46.5 299.5q0 337 181.5 533t473.5 196zM709 1333q-171 0 -259 -168.5t-88 -472.5q0 -294 101.5 -463.5t273.5 -169.5
q168 0 256 166.5t88 466.5q0 297 -101 469t-271 172z" />
    <glyph glyph-name="P" unicode="P" horiz-adv-x="1331" 
d="M233 1313l-153 45v33h616q127 0 231.5 -26.5t184.5 -79t124 -139t44 -200.5q0 -103 -40.5 -190.5t-107.5 -145t-154.5 -89.5t-182.5 -32q-89 0 -187 33v37h84q147 2 225 99.5t78 281.5q0 179 -80.5 273t-234.5 94h-174v-1229l178 -45v-33h-604v33l153 45v1235z" />
    <glyph glyph-name="Q" unicode="Q" horiz-adv-x="1443" 
d="M930 2l90 -84q10 -9 45.5 -41.5t58.5 -51.5t58.5 -45.5t71.5 -43.5t73 -25v-33h-332q-46 18 -86 44.5t-63 48t-60 59.5l-145 154q-263 24 -416 206t-153 492q0 337 181.5 533t473.5 196q294 0 469.5 -186.5t175.5 -522.5q0 -266 -119.5 -448t-322.5 -246v-6zM715 1333
q-171 0 -262 -169t-91 -472q0 -295 99 -464t270 -169q169 0 259.5 167t90.5 466q0 298 -98.5 469.5t-267.5 171.5z" />
    <glyph glyph-name="R" unicode="R" horiz-adv-x="1406" 
d="M1407 33v-33h-338q-48 20 -94.5 71t-79.5 128l-182 411h-211v-532l153 -45v-33h-575v33l153 45v1235l-153 45v33h629q118 0 214 -22t169.5 -66.5t114 -118t40.5 -170.5q0 -130 -72 -219t-196 -129v-13l143 -307q37 -78 79.5 -139t77.5 -92.5t65 -51.5t46 -25zM502 1307
v-619h307q158 98 158 320q0 150 -76 224.5t-219 74.5h-170z" />
    <glyph glyph-name="S" unicode="S" horiz-adv-x="1173" 
d="M82 86v84q0 56 -7 120.5t-13 101.5l-7 36l56 27q6 -5 16 -14.5t38 -41.5t52 -66.5t50 -88.5t40 -109q119 -65 238 -65q136 0 210 72t74 200q0 79 -45 140.5t-139 95.5l-244 86q-134 47 -209 138t-75 220q0 99 41 175.5t111 122t156.5 68.5t184.5 23q105 0 244.5 -30.5
t173.5 -34.5v-74q0 -57 7 -116.5t15 -90.5l7 -31l-53 -22q-5 4 -14.5 11.5t-35 33t-48 54.5t-48.5 74t-43 93q-93 49 -207 49q-121 0 -186.5 -59t-65.5 -156q0 -147 164 -205l234 -80q175 -59 257.5 -162t82.5 -255q0 -81 -35 -158t-99 -137.5t-163.5 -97.5t-218.5 -37
q-266 0 -496 106z" />
    <glyph glyph-name="T" unicode="T" horiz-adv-x="1298" 
d="M229 1307q-26 -81 -66.5 -153.5t-67.5 -105.5l-27 -32l-41 12q22 133 22 289v74h1200v-74q0 -69 5.5 -141.5t10.5 -109.5l5 -38l-41 -12q-11 12 -29.5 35t-61.5 99t-69 157h-285v-1229l166 -45v-33h-602v33l166 45v1229h-285z" />
    <glyph glyph-name="U" unicode="U" horiz-adv-x="1515" 
d="M1190 420v893l-156 45v33h426v-33l-155 -45v-1022q-65 -153 -194 -232t-337 -79q-201 0 -354 75t-213 217v1041l-154 45v33h580v-33l-154 -45v-910q0 -149 87 -232t237 -83q170 0 278.5 91t108.5 241z" />
    <glyph glyph-name="V" unicode="V" horiz-adv-x="1431" 
d="M788 -20h-104l-563 1333l-133 45v33h590v-33l-154 -43l395 -973h6l363 973l-152 43v33h408v-33l-139 -45z" />
    <glyph glyph-name="W" unicode="W" horiz-adv-x="2129" 
d="M694 -20h-106l-467 1333l-133 45v33h590v-33l-154 -43l295 -963h6l281 848l-45 123l100 68h180l338 -1039h2l307 963l-151 43v33h405v-33l-139 -45l-449 -1333h-106l-385 1060z" />
    <glyph glyph-name="X" unicode="X" horiz-adv-x="1425" 
d="M844 0v33l137 39l-336 497l-373 -495l121 -41v-33h-391v33l131 45l459 573l-445 666l-122 41v33h569v-33l-131 -35l313 -473l359 467l-125 43v31h383v-33l-131 -45l-433 -541l467 -702l127 -37v-33h-579z" />
    <glyph glyph-name="Y" unicode="Y" horiz-adv-x="1382" 
d="M387 33l166 45v520l-436 715l-129 45v33h583v-33l-147 -43l352 -604h2l367 604l-146 43v33h396v-33l-133 -45l-439 -705v-530l166 -45v-33h-602v33z" />
    <glyph glyph-name="Z" unicode="Z" horiz-adv-x="1273" 
d="M1151 1391v-68l-758 -1239h600q23 76 65 147.5t72 105.5l31 34l51 -13q-22 -124 -22 -276v-82h-1129v57l768 1250h-503q-11 -46 -32.5 -92.5t-45 -80t-45 -60.5t-35.5 -40l-14 -14l-48 14q23 132 23 279v78h1022z" />
    <glyph glyph-name="bracketleft" unicode="[" horiz-adv-x="649" 
d="M578 -254h-437v1737h437v-78h-256v-1583h256v-76z" />
    <glyph glyph-name="backslash" unicode="\" horiz-adv-x="804" 
d="M793 -342h-101l-598 1825h101z" />
    <glyph glyph-name="bracketright" unicode="]" horiz-adv-x="649" 
d="M508 -254h-436v76h256v1583h-256v78h436v-1737z" />
    <glyph glyph-name="asciicircum" unicode="^" horiz-adv-x="878" 
d="M786 750h-122l-228 520l-223 -520h-119l266 641h154z" />
    <glyph glyph-name="underscore" unicode="_" 
d="M0 -301v94h1042v-94h-1042z" />
    <glyph glyph-name="grave" unicode="`" horiz-adv-x="591" 
d="M221 1511h27l237 -305l-28 -28l-361 190z" />
    <glyph glyph-name="a" unicode="a" horiz-adv-x="1116" 
d="M537 1065q182 0 282.5 -89t100.5 -276q0 -56 -3.5 -208.5t-3.5 -323.5q0 -76 58 -76q33 0 64 38t48 81l41 -18q-36 -113 -95 -162t-152 -49q-82 0 -133.5 36.5t-69.5 100.5q-135 -139 -293 -139q-60 0 -110.5 14t-93.5 44t-67 83.5t-24 126.5v121q147 166 584 258v102
q0 133 -45 195.5t-148 62.5q-69 0 -133 -35q-23 -38 -38.5 -99t-19.5 -103l-5 -41h-101q-7 8 -18.5 24t-33 66t-26.5 102q61 65 177.5 114.5t257.5 49.5zM475 104q104 0 191 72v12q0 58 1 181.5t1 189.5q-219 -54 -336 -143v-131q0 -91 39.5 -136t103.5 -45z" />
    <glyph glyph-name="b" unicode="b" horiz-adv-x="1193" 
d="M406 1503v-583q54 60 135 102.5t174 42.5q88 0 161 -30t130 -90.5t88.5 -163t31.5 -238.5q0 -253 -139 -408t-362 -155q-166 0 -289 73l-154 -76l-30 21v1380l-140 23v37l353 65h41zM598 928q-48 0 -100 -20t-92 -56v-684q97 -109 212 -109q131 0 185.5 114.5t54.5 350.5
q0 114 -18 194t-53.5 125t-81.5 65t-107 20z" />
    <glyph glyph-name="c" unicode="c" horiz-adv-x="980" 
d="M856 719h-111q-6 139 -51 233q-50 31 -108 31q-129 0 -195.5 -112t-66.5 -330q0 -114 23.5 -198.5t65 -132.5t92.5 -70.5t113 -22.5q83 0 155.5 34t148.5 99l32 -29q-53 -104 -151.5 -172.5t-237.5 -68.5q-231 0 -364 136.5t-133 397.5q0 125 42.5 230.5t115 174.5
t166.5 107.5t198 38.5q99 0 191.5 -32t146.5 -83q-3 -63 -21 -120.5t-35 -83.5z" />
    <glyph glyph-name="d" unicode="d" horiz-adv-x="1226" 
d="M1042 1503v-1425l138 -41v-37h-361l-20 125h-11q-52 -59 -134.5 -102t-174.5 -43q-89 0 -161.5 29t-129.5 89.5t-88.5 162t-31.5 237.5q0 253 139 410t362 157q121 0 219 -41v354l-141 23v37l352 65h43zM596 115q108 0 192 75v687q-100 108 -213 108q-130 0 -184.5 -116
t-54.5 -353q0 -114 18 -193.5t54 -124t81.5 -64t106.5 -19.5z" />
    <glyph glyph-name="e" unicode="e" horiz-adv-x="1015" 
d="M915 242l29 -25q-139 -237 -393 -237q-225 0 -354 139t-129 403q0 122 37.5 224.5t102 172t150.5 108t183 38.5q198 0 305.5 -126t107.5 -331v-84l-635 6q1 -218 78.5 -317.5t204.5 -99.5q100 0 169.5 33t143.5 96zM532 993q-98 0 -151.5 -112.5t-61.5 -288.5l394 18v37
q0 162 -46 254t-135 92z" />
    <glyph glyph-name="f" unicode="f" horiz-adv-x="741" 
d="M791 1235h-95q0 6 -3.5 36t-13.5 80t-24 79q-18 6 -49 6q-33 0 -57.5 -11.5t-40 -35t-25.5 -49.5t-14.5 -64t-6 -69t-1.5 -74v-99h258v-78h-258v-878l168 -45v-33h-570v33l148 45v878h-146v50l146 26v70q0 105 33.5 184.5t92 125.5t129 68.5t152.5 22.5q70 0 135 -15
t97 -36q0 -53 -14 -107t-28 -82z" />
    <glyph glyph-name="g" unicode="g" horiz-adv-x="1107" 
d="M1049 1085l20 -135q-86 -24 -195 -6l-4 -8q103 -99 103 -213q0 -160 -121 -254t-309 -94q-199 0 -199 -72q0 -50 98 -59l244 -23q284 -28 383 -139v-113q0 -93 -69.5 -169t-191 -119t-269.5 -43q-250 0 -372 66.5t-122 170.5q0 54 51.5 100.5t136.5 75.5
q-110 55 -110 170q0 163 229 182q-111 38 -174 117.5t-63 194.5q0 162 120 256t308 94q109 0 202 -35q82 3 158 16.5t111 25.5zM549 436q94 0 138 75.5t44 207.5q0 130 -49.5 208.5t-144.5 78.5q-94 0 -138.5 -77.5t-44.5 -209.5q0 -129 50 -206t145 -77zM664 -10l-283 28
q-25 2 -70 11q-63 -57 -63 -119q0 -93 73 -149t220 -56q146 0 220.5 52t74.5 147v39q-50 35 -172 47z" />
    <glyph glyph-name="h" unicode="h" horiz-adv-x="1269" 
d="M414 1501h43v-583q60 63 145.5 105t175.5 42q65 0 120 -19.5t99.5 -59.5t69.5 -109t25 -160v-639l139 -45v-33h-512v33l121 45v663q0 187 -176 187q-52 0 -108.5 -20.5t-98.5 -55.5v-774l118 -45v-33h-512v33l140 45v1298l-142 25v37z" />
    <glyph glyph-name="i" unicode="i" horiz-adv-x="638" 
d="M172 1356q0 59 40 98t107 39q69 0 109.5 -39t40.5 -98t-40.5 -98t-109.5 -39q-67 0 -107 39t-40 98zM455 1065v-987l137 -45v-33h-531v33l140 45v840l-142 24v37l353 86h43z" />
    <glyph glyph-name="j" unicode="j" horiz-adv-x="616" 
d="M207 -207v1122l-158 27v37l371 86h41v-1212q-71 -91 -197 -153t-268 -62q-66 0 -115 10q-5 51 5.5 107.5t23.5 86.5l14 31h103q6 -111 49 -172q30 12 46 19.5t43 28t42 44.5zM180 1356q0 59 40 98t106 39q69 0 109 -39t40 -98t-40 -98t-109 -39q-66 0 -106 39t-40 98z
" />
    <glyph glyph-name="k" unicode="k" horiz-adv-x="1189" 
d="M449 1501v-880h83l365 350l-106 41v32h346v-32l-115 -47l-307 -283l221 -338q85 -130 146 -203t128 -108v-33h-295q-57 32 -99.5 76.5t-86.5 118.5l-209 344h-71v-461l114 -45v-33h-506v33l138 45v1298l-140 25v37l351 63h43z" />
    <glyph glyph-name="l" unicode="l" horiz-adv-x="634" 
d="M449 1503v-1425l139 -45v-33h-531v33l138 45v1300l-140 23v37l351 65h43z" />
    <glyph glyph-name="m" unicode="m" horiz-adv-x="1882" 
d="M408 1065h38v-147h9q61 65 144.5 106t172.5 41t161.5 -41t110.5 -123h5q159 164 350 164q133 0 220 -85.5t87 -262.5v-639l137 -45v-33h-512v33l121 45v663q0 187 -170 187q-54 0 -112 -24t-105 -64q14 -65 14 -123v-639l113 -45v-33h-475v33l110 45v663q0 187 -170 187
q-50 0 -105.5 -20.5t-96.5 -55.5v-774l118 -45v-33h-512v33l140 45v840l-142 24v37z" />
    <glyph glyph-name="n" unicode="n" horiz-adv-x="1267" 
d="M408 1065h38v-147h9q61 64 146 105.5t175 41.5q65 0 120 -19.5t99.5 -59.5t69.5 -109t25 -160v-639l139 -45v-33h-512v33l121 45v663q0 187 -176 187q-52 0 -108.5 -20.5t-98.5 -55.5v-774l118 -45v-33h-512v33l140 45v840l-142 24v37z" />
    <glyph glyph-name="o" unicode="o" horiz-adv-x="1146" 
d="M578 1065q227 0 364 -142t137 -397q0 -167 -66.5 -292t-181.5 -189.5t-262 -64.5q-227 0 -364 141t-137 393q0 254 142.5 402.5t367.5 148.5zM588 53q115 0 168 115.5t53 351.5q0 229 -65.5 349t-184.5 120q-115 0 -168 -116.5t-53 -352.5q0 -229 65.5 -348t184.5 -119z
" />
    <glyph glyph-name="p" unicode="p" horiz-adv-x="1222" 
d="M428 1065v-145h6q56 60 136.5 102.5t174.5 42.5q88 0 160.5 -29.5t129.5 -90t88.5 -162.5t31.5 -238q0 -253 -138.5 -409t-361.5 -156q-122 0 -219 38v-282l172 -45v-33h-573v33l147 45v1184l-149 24v35l342 86h53zM627 928q-48 0 -99 -20t-92 -56v-686q88 -107 213 -107
q129 0 184.5 116.5t55.5 352.5q0 220 -67 310t-195 90z" />
    <glyph glyph-name="q" unicode="q" horiz-adv-x="1198" 
d="M1042 -264l148 -45v-33h-574v33l172 45v387q-54 -60 -135.5 -101.5t-173.5 -41.5q-88 0 -161 30t-130 90.5t-88.5 163t-31.5 238.5q0 253 139 408t362 155q161 0 289 -76l154 78l30 -12v-1319zM596 115q108 0 192 75v684q-99 111 -213 111q-130 0 -184.5 -114.5
t-54.5 -350.5q0 -114 18 -194t53.5 -125.5t81.5 -65.5t107 -20z" />
    <glyph glyph-name="r" unicode="r" horiz-adv-x="919" 
d="M838 745h-119q-14 132 -53 189q-29 -8 -58 -21.5t-52.5 -30.5t-41 -30.5t-33.5 -28t-18 -16.5v-729l172 -45v-33h-574v33l148 45v842l-150 24v35l357 86h39v-180h8q61 86 147.5 133t186.5 47q40 0 92 -10q0 -79 -12.5 -156.5t-25.5 -115.5z" />
    <glyph glyph-name="s" unicode="s" horiz-adv-x="946" 
d="M86 66v63q0 46 -6 92t-12 69l-5 23l50 19q4 -3 10.5 -8.5t26 -26.5t37.5 -45t39 -64.5t36 -85.5q103 -47 195 -47t141 50t49 141q0 110 -127 155l-178 64q-229 81 -229 289q0 65 23 118.5t60.5 88.5t87.5 59t102.5 34.5t107.5 10.5q86 0 192.5 -23.5t138.5 -23.5v-78
q0 -35 5.5 -70.5t11.5 -53.5l6 -19l-35 -23q-4 2 -12 6.5t-29.5 21.5t-40.5 37t-41.5 53.5t-36.5 70.5q-70 28 -149 28q-75 0 -121.5 -40.5t-46.5 -114.5q0 -112 117 -154l168 -57q258 -86 258 -297q0 -161 -112.5 -254.5t-293.5 -93.5q-194 0 -387 86z" />
    <glyph glyph-name="t" unicode="t" horiz-adv-x="786" 
d="M39 969v47l149 26l166 293h82v-291h258v-75h-258v-834q56 -59 146 -59q82 0 166 59l26 -39q-125 -116 -291 -116q-87 0 -165.5 32t-133.5 90v867h-145z" />
    <glyph glyph-name="u" unicode="u" horiz-adv-x="1251" 
d="M428 1065v-858q15 -33 56.5 -62.5t113.5 -29.5q114 0 205 78v725l-144 24v37l349 86h49v-987l139 -45v-33h-358l-21 129h-10q-142 -149 -324 -149q-229 0 -307 202v736l-137 24v37l348 86h41z" />
    <glyph glyph-name="v" unicode="v" horiz-adv-x="1103" 
d="M614 -20h-92l-446 987l-109 45v32h510v-34l-119 -43l283 -684h8l258 684l-106 45v32h325v-32l-112 -45z" />
    <glyph glyph-name="w" unicode="w" horiz-adv-x="1683" 
d="M565 -20h-102l-381 987l-109 45v32h496v-34l-109 -43l228 -678h4l194 600l-38 94l47 61h217l264 -755h4l207 678l-101 45v32h316v-32l-115 -45l-330 -987h-104l-313 776z" />
    <glyph glyph-name="x" unicode="x" horiz-adv-x="1171" 
d="M645 0v33l107 39l-244 342l-283 -340l105 -43v-31h-332v31l113 47l350 407l-340 484l-96 43v32h507v-32l-100 -37l217 -311l256 305l-94 43v32h319v-32l-110 -47l-328 -363l371 -532l100 -37v-33h-518z" />
    <glyph glyph-name="y" unicode="y" horiz-adv-x="1103" 
d="M285 -268q158 0 262 254l-471 981l-109 45v32h510v-34l-119 -43l306 -684h6l239 684l-108 45v32h325v-32l-114 -45l-348 -949q-79 -217 -177 -298.5t-254 -81.5q-81 0 -139 24q-11 59 -0.5 119.5t26.5 91.5l17 31h105q6 -109 43 -172z" />
    <glyph glyph-name="z" unicode="z" horiz-adv-x="1036" 
d="M936 1044v-67l-590 -899h445q24 72 65 141t70 102l30 33l35 -10q-22 -133 -22 -274v-70h-924v66l592 899h-342q-11 -40 -33 -79t-44.5 -66t-43 -48.5t-34.5 -31.5l-13 -11l-33 14q21 109 21 232v69h821z" />
    <glyph glyph-name="braceleft" unicode="{" horiz-adv-x="727" 
d="M223 68l21 301q6 91 -7 135t-52.5 63.5t-127.5 26.5v45q126 9 161 50t26 173l-21 301q-12 176 71.5 258t256.5 82q33 0 111 -8v-47l-44 -4q-41 -4 -67 -11t-51.5 -24.5t-36 -53t-6.5 -89.5l20 -287q4 -68 0 -118.5t-19.5 -87t-36.5 -61.5t-57.5 -42.5t-74 -28
t-94.5 -20.5v-11q57 -10 94.5 -20.5t74 -28t57.5 -42.5t36.5 -61.5t19.5 -87t0 -118.5l-20 -287q-7 -98 32.5 -135.5t116.5 -42.5l56 -4v-47q-78 -8 -111 -8q-173 0 -256.5 82t-71.5 258z" />
    <glyph glyph-name="bar" unicode="|" horiz-adv-x="485" 
d="M293 -342h-96v1825h96v-1825z" />
    <glyph glyph-name="braceright" unicode="}" horiz-adv-x="727" 
d="M483 369l21 -301q12 -176 -71.5 -258t-256.5 -82q-32 0 -110 8v47l55 4q77 5 116.5 42.5t32.5 135.5l-20 287q-4 68 0 118.5t19.5 87t36.5 61.5t57.5 42.5t74 28t94.5 20.5v11q-57 10 -94.5 20.5t-74 28t-57.5 42.5t-36.5 61.5t-19.5 87t0 118.5l20 287q4 54 -6.5 89.5
t-36 53t-51.5 24.5t-67 11l-43 4v47q78 8 110 8q173 0 256.5 -82t71.5 -258l-21 -301q-9 -132 26 -173t161 -50v-45q-88 -7 -127.5 -26.5t-52.5 -63.5t-7 -135z" />
    <glyph glyph-name="asciitilde" unicode="~" horiz-adv-x="1226" 
d="M1057 731l78 -69q-39 -67 -108 -109.5t-144 -42.5q-52 0 -115 21t-111.5 45.5t-108.5 45.5t-108 21q-148 0 -264 -141l-82 69q58 94 151 149.5t210 55.5q57 0 126 -21.5t120.5 -47t106 -47t87.5 -21.5q90 0 162 92z" />
    <glyph glyph-name="uni00A0" unicode="&#xa0;" horiz-adv-x="428" 
 />
    <glyph glyph-name="exclamdown" unicode="&#xa1;" horiz-adv-x="624" 
d="M301 645h27l141 -899q-10 -54 -54.5 -83.5t-99.5 -29.5q-57 0 -101.5 30t-53.5 83zM164 922q0 59 42.5 101t106.5 42q65 0 107.5 -41.5t42.5 -101.5q0 -62 -42.5 -105t-107.5 -43q-64 0 -106.5 43t-42.5 105z" />
    <glyph glyph-name="cent" unicode="&#xa2;" horiz-adv-x="1091" 
d="M647 -20h-82v126q-214 15 -336.5 151.5t-122.5 381.5q0 225 131 371.5t328 173.5v145h82v-139q100 0 192.5 -32t145.5 -83q-3 -63 -21.5 -120.5t-35.5 -84.5l-17 -26h-108q-8 139 -51 235q-55 27 -105 29v-866h27q83 0 154 34t149 99l35 -27q-53 -101 -144.5 -169
t-220.5 -75v-124zM362 666q0 -333 203 -408v840q-203 -60 -203 -432z" />
    <glyph glyph-name="sterling" unicode="&#xa3;" horiz-adv-x="1251" 
d="M100 0v35l146 39q28 78 28 323v215h-172v82h172v146q0 157 67.5 269.5t180 166t258.5 53.5q89 0 211.5 -23t147.5 -26v-102q0 -35 6 -80.5t12 -73.5l6 -29l-43 -20q-5 3 -14.5 8.5t-34.5 27t-47 46.5t-46 67t-38 88q-76 39 -147 39q-59 0 -103.5 -20t-72.5 -54.5t-45 -85
t-24 -106t-7 -123.5v-168h268v-82h-268v-153q0 -267 -154 -375h590q9 56 28.5 109t41.5 88t42.5 62t34.5 39l13 13l41 -10q-21 -174 -21 -266v-119h-1057z" />
    <glyph glyph-name="yen" unicode="&#xa5;" horiz-adv-x="1417" 
d="M244 629v80h268l-322 522l-129 45v33h586v-33l-147 -43l299 -522h4l334 522l-146 43v33h393v-33l-131 -45l-342 -522h295v-80h-346l-4 -6v-140h350v-82h-350v-323l166 -45v-33h-604v33l166 45v323h-340v82h340v109l-23 37h-317z" />
    <glyph glyph-name="brokenbar" unicode="&#xa6;" horiz-adv-x="485" 
d="M299 -252h-113v725h113v-725zM299 758h-113v725h113v-725z" />
    <glyph glyph-name="section" unicode="&#xa7;" horiz-adv-x="1204" 
d="M1108 520q0 -161 -152 -274q115 -97 115 -248q0 -74 -26.5 -135t-71.5 -102t-106 -69t-129 -41t-142 -13q-103 0 -238.5 30.5t-171.5 34.5v102q0 36 -7 86.5t-14 82.5l-7 32l53 12q5 -2 13 -6.5t31.5 -23.5t43.5 -43t43 -68t37 -96q99 -57 227 -57q112 0 174 52.5
t62 133.5q0 130 -148 178l-233 74q-174 55 -257 145.5t-83 220.5q0 165 151 275q-112 95 -112 250q0 92 39.5 162.5t107.5 112t151 62.5t177 21q103 0 238 -30.5t171 -34.5v-103q0 -36 7 -86t13 -81l7 -32l-51 -14q-5 2 -13 6.5t-31.5 23.5t-43.5 43.5t-43 68.5t-37 96
q-103 59 -227 59q-111 0 -173.5 -53.5t-62.5 -134.5q0 -133 148 -178l233 -72q338 -103 338 -369zM418 725q-33 9 -66 25q-18 -52 -18 -119q0 -156 196 -219l283 -88q33 -11 64 -27q18 55 18 123q0 74 -45 129t-152 88z" />
    <glyph glyph-name="dieresis" unicode="&#xa8;" horiz-adv-x="684" 
d="M184 1223q-47 0 -80.5 33t-33.5 79t33.5 80.5t80.5 34.5q49 0 82 -34t33 -81q0 -46 -33 -79t-82 -33zM500 1223q-47 0 -81 33t-34 79t34 80.5t81 34.5t80.5 -34.5t33.5 -80.5t-33.5 -79t-80.5 -33z" />
    <glyph glyph-name="copyright" unicode="&#xa9;" horiz-adv-x="1576" 
d="M80 694q0 146 56.5 278.5t152.5 228.5t228.5 153t277.5 57t278 -57t228.5 -153t152.5 -228.5t57 -278.5q0 -194 -96 -358.5t-261 -260t-359 -95.5q-146 0 -278 56.5t-228 152t-152.5 227.5t-56.5 278zM795 1356q-132 0 -252.5 -52.5t-208 -141t-139.5 -211.5t-52 -257
t52 -256.5t139.5 -210.5t208 -140t252.5 -52q177 0 327.5 88t238 240t87.5 331q0 134 -52 257t-139.5 211.5t-208 141t-253.5 52.5zM1145 461q-14 -45 -40.5 -87t-67.5 -80t-102 -60.5t-134 -22.5q-203 0 -326 122.5t-123 342.5q0 226 137.5 353.5t350.5 127.5
q65 0 145.5 -14.5t108.5 -14.5v-79q0 -35 4.5 -75t9.5 -62l4 -23l-37 -15q-4 2 -10 6t-24.5 20t-35 36.5t-37 56.5t-34.5 78q-47 21 -96 21q-108 0 -174 -103t-66 -289q0 -171 70.5 -266.5t189.5 -95.5q51 0 92 11.5t71.5 35t49 43.5t41.5 51z" />
    <glyph glyph-name="ordfeminine" unicode="&#xaa;" horiz-adv-x="702" 
d="M324 1329q217 0 217 -190q0 -31 -2 -103.5t-2 -144.5q0 -35 26 -35q34 0 60 43l14 -14q-46 -97 -148 -97q-87 0 -112 68q-66 -70 -152 -70q-62 0 -103.5 33t-41.5 103v67q80 87 293 125v39q0 68 -19 97.5t-61 29.5q-32 0 -60 -12q-9 -18 -14.5 -49.5t-6.5 -53.5l-1 -22
h-84q-27 34 -37 100q32 32 97 59t137 27zM299 868q31 0 72 27v4q0 113 2 172q-74 -17 -125 -49v-94q0 -60 51 -60z" />
    <glyph glyph-name="guillemotleft" unicode="&#xab;" horiz-adv-x="995" 
d="M66 489v64l370 395h78l-231 -424l231 -430h-78zM475 489v64l371 395h78l-232 -424l232 -430h-78z" />
    <glyph glyph-name="logicalnot" unicode="&#xac;" 
d="M94 557v111h842v-469h-113v358h-729z" />
    <glyph glyph-name="registered" unicode="&#xae;" horiz-adv-x="1267" 
d="M80 850q0 152 75 281t204 204.5t282 75.5q114 0 218 -44.5t179 -119.5t119.5 -179t44.5 -218q0 -153 -75.5 -281.5t-204.5 -203t-281 -74.5q-153 0 -282 74.5t-204 203t-75 281.5zM641 1360q-136 0 -251 -68.5t-182 -186t-67 -255.5q0 -139 67 -256.5t182 -185.5t251 -68
t251 68t182 185.5t67 256.5q0 138 -67 255.5t-182 186t-251 68.5zM961 571v-14h-179q-46 17 -75 92l-66 162h-63v-221l57 -19v-14h-281v14l64 19v536l-64 21v14h303q114 0 180 -42t66 -128q0 -108 -108 -149v-4l57 -129q15 -35 32 -62t30 -41t24 -22.5t17 -10.5zM621 1122
h-43v-274h94q67 40 67 137q0 137 -118 137z" />
    <glyph glyph-name="macron" unicode="&#xaf;" horiz-adv-x="696" 
d="M115 1284v90h479v-90h-479z" />
    <glyph glyph-name="degree" unicode="&#xb0;" horiz-adv-x="669" 
d="M80 1067q0 107 77.5 184.5t184.5 77.5t184.5 -77.5t77.5 -184.5q0 -108 -77 -185t-185 -77t-185 77t-77 185zM170 1067q0 -78 51.5 -133t122.5 -55q69 0 119.5 55t50.5 133q0 76 -50.5 131t-119.5 55q-71 0 -122.5 -55t-51.5 -131z" />
    <glyph glyph-name="plusminus" unicode="&#xb1;" 
d="M94 590v110h365v332h110v-332h367v-110h-367v-332h-110v332h-365zM94 12v111h842v-111h-842z" />
    <glyph glyph-name="twosuperior" unicode="&#xb2;" horiz-adv-x="724" 
d="M162 1133l-31 18q12 30 31.5 58t49 56.5t73 46t94.5 17.5q100 0 157.5 -51.5t57.5 -140.5q0 -33 -10.5 -65.5t-26 -59t-43 -56t-50 -50t-60 -47.5t-60 -42.5t-61.5 -40.5v-4h239q13 28 35.5 51.5t38.5 32.5l16 10l21 -10q-10 -68 -10 -131v-61h-510l-11 41
q138 118 198 185q120 134 120 230q0 45 -27 67.5t-71 22.5q-45 0 -89 -21.5t-71 -55.5z" />
    <glyph glyph-name="threesuperior" unicode="&#xb3;" horiz-adv-x="692" 
d="M270 1030q63 5 96 29t33 86q0 42 -28.5 64t-73.5 22q-44 0 -87 -22t-71 -52l-24 14q27 67 87 112.5t154 45.5q99 0 155 -43t56 -112q0 -108 -161 -142v-2q84 -12 139 -52t55 -116q0 -99 -78.5 -153t-193.5 -54q-70 0 -133 17t-93 39q0 35 12 68.5t22.5 49.5t15.5 19h38
q9 -80 27 -127q42 -21 94 -21t82.5 36t30.5 108q0 34 -9.5 60t-23.5 40.5t-38.5 25.5t-43.5 15.5t-51 9.5z" />
    <glyph glyph-name="acute" unicode="&#xb4;" horiz-adv-x="591" 
d="M336 1511h26l123 -143l-360 -190l-29 28z" />
    <glyph glyph-name="mu" unicode="&#xb5;" horiz-adv-x="1251" 
d="M428 1065v-858q15 -33 56.5 -62.5t113.5 -29.5q114 0 205 78v725l-144 24v37l349 86h49v-987l139 -45v-33h-358l-21 129h-10q-142 -149 -324 -149q-51 0 -84 8l47 -330h-270v1260l-137 24v37l348 86h41z" />
    <glyph glyph-name="mu" unicode="&#x3bc;" horiz-adv-x="1251" 
d="M428 1065v-858q15 -33 56.5 -62.5t113.5 -29.5q114 0 205 78v725l-144 24v37l349 86h49v-987l139 -45v-33h-358l-21 129h-10q-142 -149 -324 -149q-51 0 -84 8l47 -330h-270v1260l-137 24v37l348 86h41z" />
    <glyph glyph-name="paragraph" unicode="&#xb6;" horiz-adv-x="1163" 
d="M627 1391v-1069q-142 -1 -254 40.5t-181.5 116t-105 171.5t-35.5 210q0 230 160.5 380.5t415.5 150.5zM922 1313v-1186q0 -115 -31 -203.5t-80.5 -141.5t-119 -86.5t-138 -45.5t-145.5 -12q-98 0 -156 18q-10 59 7.5 124t40.5 100l22 36h81q-1 -15 0 -39t12 -78t34 -84
q20 1 38.5 3.5t51 13t59 26t56.5 45t50.5 69t34 100t13.5 134.5v1285h333v-33z" />
    <glyph glyph-name="periodcentered" unicode="&#xb7;" horiz-adv-x="462" 
d="M82 629q0 62 42.5 104.5t106.5 42.5q65 0 108.5 -42.5t43.5 -104.5q0 -59 -43.5 -101.5t-108.5 -42.5q-64 0 -106.5 42.5t-42.5 101.5z" />
    <glyph glyph-name="cedilla" unicode="&#xb8;" horiz-adv-x="561" 
d="M365 31l-72 -117q199 -13 199 -143q0 -62 -60.5 -97.5t-165.5 -35.5q-114 0 -186 57l16 37q64 -31 137 -31q95 0 95 59q0 38 -34.5 61.5t-105.5 39.5v8l103 162h74z" />
    <glyph glyph-name="onesuperior" unicode="&#xb9;" horiz-adv-x="604" 
d="M231 713v485h-22q-36 0 -63 9t-36 19l-8 9v18q19 2 50.5 6t104.5 23.5t118 46.5l28 -12v-604l109 -29v-20h-385v20z" />
    <glyph glyph-name="ordmasculine" unicode="&#xba;" horiz-adv-x="694" 
d="M358 1329q124 0 197.5 -70.5t73.5 -197.5t-76.5 -201t-198.5 -74q-126 0 -200 71t-74 198t77 200.5t201 73.5zM360 836q91 0 91 221q0 225 -99 225q-51 0 -71.5 -53.5t-20.5 -171.5q0 -221 100 -221z" />
    <glyph glyph-name="guillemotright" unicode="&#xbb;" horiz-adv-x="995" 
d="M520 553v-64l-370 -395h-78l231 430l-231 424h78zM930 553v-64l-371 -395h-78l232 430l-232 424h78z" />
    <glyph glyph-name="onequarter" unicode="&#xbc;" horiz-adv-x="1292" 
d="M631 160v24l323 469h136v-446h79v-47h-79v-119l73 -23v-18h-327v18l82 23v119h-287zM913 508l-206 -301h211v301h-5zM231 713v485h-22q-36 0 -63 9t-36 19l-8 9v18q19 2 50.5 6t104.5 23.5t118 46.5l28 -12v-604l109 -29v-20h-385v20zM258 0h-96l956 1309h94z" />
    <glyph glyph-name="onehalf" unicode="&#xbd;" horiz-adv-x="1361" 
d="M799 469l-31 18q12 30 31.5 58t49 57t73 46.5t94.5 17.5q100 0 157.5 -52t57.5 -141q0 -45 -20.5 -90t-47 -78t-75.5 -73t-80.5 -61.5t-87.5 -57.5v-4h239q13 28 35.5 51.5t38.5 33.5l16 9l21 -10q-10 -69 -10 -132v-61h-510l-11 41q142 121 204 193q114 130 114 223
q0 45 -27.5 67.5t-71.5 22.5q-45 0 -88.5 -22t-70.5 -56zM231 713v485h-22q-36 0 -63 9t-36 19l-8 9v18q19 2 50.5 6t104.5 23.5t118 46.5l28 -12v-604l109 -29v-20h-385v20zM258 0h-96l956 1309h94z" />
    <glyph glyph-name="threequarters" unicode="&#xbe;" horiz-adv-x="1290" 
d="M616 160v24l324 469h135v-446h80v-47h-80v-119l74 -23v-18h-326v18l82 23v119h-289zM901 508l-207 -301h211v301h-4zM270 1030q63 5 96 29t33 86q0 42 -28.5 64t-73.5 22q-44 0 -87 -22t-71 -52l-24 14q27 67 87 112.5t154 45.5q99 0 155 -43t56 -112q0 -108 -161 -142
v-2q84 -12 139 -52t55 -116q0 -99 -78.5 -153t-193.5 -54q-70 0 -133 17t-93 39q0 35 12 68.5t22.5 49.5t15.5 19h38q9 -80 27 -127q42 -21 94 -21t82.5 36t30.5 108q0 34 -9.5 60t-23.5 40.5t-38.5 25.5t-43.5 15.5t-51 9.5zM258 0h-96l956 1309h94z" />
    <glyph glyph-name="questiondown" unicode="&#xbf;" horiz-adv-x="1024" 
d="M942 -211q-54 -60 -157.5 -108t-252.5 -48q-201 0 -324.5 95.5t-123.5 265.5q0 82 27.5 152.5t71.5 120t105 87.5t122.5 60.5t128.5 34.5l49 196h37l102 -340q-128 -25 -184 -47q-211 -81 -211 -281q0 -73 21.5 -126t59 -81.5t80.5 -41.5t93 -13q54 0 108 21
q32 55 60 122t40 106l13 40h88q2 -4 6 -11.5t14.5 -31.5t16 -47.5t11 -59t-0.5 -65.5zM754 922q0 -62 -43 -105t-107 -43q-65 0 -108 43t-43 105q0 59 43 101t108 42q64 0 107 -42t43 -101z" />
    <glyph glyph-name="Agrave" unicode="&#xc0;" horiz-adv-x="1441" 
d="M670 1391l104 20l547 -1333l133 -45v-33h-588v33l154 43l-143 366h-492l-143 -366l151 -43v-33h-405v33l139 45zM846 520l-209 545h-8l-213 -545h430zM543 1860h26l238 -306l-29 -28l-360 190z" />
    <glyph glyph-name="Aacute" unicode="&#xc1;" horiz-adv-x="1441" 
d="M670 1391l104 20l547 -1333l133 -45v-33h-588v33l154 43l-143 366h-492l-143 -366l151 -43v-33h-405v33l139 45zM846 520l-209 545h-8l-213 -545h430zM877 1860h26l123 -144l-360 -190l-29 28z" />
    <glyph glyph-name="Acircumflex" unicode="&#xc2;" horiz-adv-x="1441" 
d="M670 1391l104 20l547 -1333l133 -45v-33h-588v33l154 43l-143 366h-492l-143 -366l151 -43v-33h-405v33l139 45zM846 520l-209 545h-8l-213 -545h430zM696 1827h58l250 -281l-23 -24l-256 129l-256 -129l-23 24z" />
    <glyph glyph-name="Atilde" unicode="&#xc3;" horiz-adv-x="1441" 
d="M670 1391l104 20l547 -1333l133 -45v-33h-588v33l154 43l-143 366h-492l-143 -366l151 -43v-33h-405v33l139 45zM846 520l-209 545h-8l-213 -545h430zM1047 1827q-2 -66 -17.5 -119.5t-56 -94t-101.5 -40.5q-67 0 -164.5 43.5t-158.5 44.5q-68 -25 -141 -123l-23 10
q4 36 11.5 68t23 68.5t37.5 62.5t57.5 43.5t79.5 17.5q69 0 163 -40.5t142 -41.5q70 23 125 111z" />
    <glyph glyph-name="Adieresis" unicode="&#xc4;" horiz-adv-x="1441" 
d="M670 1391l104 20l547 -1333l133 -45v-33h-588v33l154 43l-143 366h-492l-143 -366l151 -43v-33h-405v33l139 45zM846 520l-209 545h-8l-213 -545h430zM563 1571q-47 0 -80.5 33t-33.5 79t33.5 80.5t80.5 34.5q49 0 82 -34t33 -81q0 -46 -33 -79t-82 -33zM879 1571
q-47 0 -81 33t-34 79t34 80.5t81 34.5t80.5 -34.5t33.5 -80.5t-33.5 -79t-80.5 -33z" />
    <glyph glyph-name="Aring" unicode="&#xc5;" horiz-adv-x="1441" 
d="M670 1391l104 20l547 -1333l133 -45v-33h-588v33l154 43l-143 366h-492l-143 -366l151 -43v-33h-405v33l139 45zM846 520l-209 545h-8l-213 -545h430zM731 1843q101 0 160 -43t59 -123q0 -81 -61.5 -126.5t-161.5 -45.5t-159.5 44t-59.5 122q0 81 61.5 126.5t161.5 45.5z
M735 1548q80 0 80 125q0 65 -24 98t-68 33q-82 0 -82 -131q0 -60 25 -92.5t69 -32.5z" />
    <glyph glyph-name="AE" unicode="&#xc6;" horiz-adv-x="2000" 
d="M117 78l743 1313h1008v-66q0 -68 5.5 -141.5t10.5 -112.5l6 -39l-43 -14q-11 12 -29.5 35t-61 98t-68.5 156h-486v-562l449 15l41 106h45v-315h-41l-45 108l-449 13v-588h533q22 75 61.5 150.5t68.5 113.5l29 39l43 -10q-22 -158 -22 -295v-82h-1139v33l156 45v364h-483
l-201 -366l151 -43v-33h-405v33zM932 1303h-8l-432 -783h440v783z" />
    <glyph glyph-name="Ccedilla" unicode="&#xc7;" horiz-adv-x="1269" 
d="M1235 346q-15 -48 -39.5 -95t-67 -97t-96.5 -87.5t-132.5 -62t-168.5 -24.5q-6 0 -18.5 1t-18.5 1l-41 -68q199 -13 199 -143q0 -62 -60 -97.5t-165 -35.5q-115 0 -187 57l17 37q64 -31 137 -31q94 0 94 59q0 38 -34 61.5t-105 39.5v8l74 119q-249 32 -397 210t-148 478
q0 173 54 313t149 231.5t222.5 141t276.5 49.5q100 0 224 -23t157 -24v-90q0 -60 7.5 -123t14.5 -96l7 -33l-51 -21q-6 4 -15.5 11.5t-36.5 34t-51 57t-51.5 80t-44.5 102.5q-80 39 -182 39q-180 0 -285.5 -163t-105.5 -460q0 -273 116 -420t295 -147q68 0 127.5 14.5
t101 35.5t81.5 55t63.5 61t52.5 66z" />
    <glyph glyph-name="Egrave" unicode="&#xc8;" horiz-adv-x="1302" 
d="M233 1313l-153 45v33h1089v-66q0 -68 5.5 -141.5t11.5 -112.5l6 -39l-41 -14q-11 12 -29.5 35t-62 98t-70.5 156h-483v-562l446 15l41 106h45v-315h-39l-47 108l-446 13v-588h530q22 75 62 150.5t69 113.5l29 39l43 -10q-22 -158 -22 -295v-82h-1137v33l153 45v1235z
M514 1860h27l237 -306l-28 -28l-361 190z" />
    <glyph glyph-name="Eacute" unicode="&#xc9;" horiz-adv-x="1302" 
d="M840 1860h26l123 -144l-360 -190l-29 28zM233 1313l-153 45v33h1089v-66q0 -68 5.5 -141.5t11.5 -112.5l6 -39l-41 -14q-11 12 -29.5 35t-62 98t-70.5 156h-483v-562l446 15l41 106h45v-315h-39l-47 108l-446 13v-588h530q22 75 62 150.5t69 113.5l29 39l43 -10
q-22 -158 -22 -295v-82h-1137v33l153 45v1235z" />
    <glyph glyph-name="Ecircumflex" unicode="&#xca;" horiz-adv-x="1302" 
d="M633 1827h57l250 -281l-22 -24l-256 129l-256 -129l-23 24zM233 1313l-153 45v33h1089v-66q0 -68 5.5 -141.5t11.5 -112.5l6 -39l-41 -14q-11 12 -29.5 35t-62 98t-70.5 156h-483v-562l446 15l41 106h45v-315h-39l-47 108l-446 13v-588h530q22 75 62 150.5t69 113.5
l29 39l43 -10q-22 -158 -22 -295v-82h-1137v33l153 45v1235z" />
    <glyph glyph-name="Edieresis" unicode="&#xcb;" horiz-adv-x="1302" 
d="M498 1571q-47 0 -81 33t-34 79t34 80.5t81 34.5q49 0 81.5 -34t32.5 -81q0 -46 -32.5 -79t-81.5 -33zM813 1571q-47 0 -81 33t-34 79t34 80.5t81 34.5t81 -34.5t34 -80.5t-34 -79t-81 -33zM233 1313l-153 45v33h1089v-66q0 -68 5.5 -141.5t11.5 -112.5l6 -39l-41 -14
q-11 12 -29.5 35t-62 98t-70.5 156h-483v-562l446 15l41 106h45v-315h-39l-47 108l-446 13v-588h530q22 75 62 150.5t69 113.5l29 39l43 -10q-22 -158 -22 -295v-82h-1137v33l153 45v1235z" />
    <glyph glyph-name="Igrave" unicode="&#xcc;" horiz-adv-x="739" 
d="M233 1313l-153 45v33h579v-33l-153 -45v-1235l153 -45v-33h-579v33l153 45v1235zM209 1860h27l237 -306l-29 -28l-360 190z" />
    <glyph glyph-name="Iacute" unicode="&#xcd;" horiz-adv-x="739" 
d="M233 1313l-153 45v33h579v-33l-153 -45v-1235l153 -45v-33h-579v33l153 45v1235zM524 1860h27l123 -144l-361 -190l-28 28z" />
    <glyph glyph-name="Icircumflex" unicode="&#xce;" horiz-adv-x="739" 
d="M233 1313l-153 45v33h579v-33l-153 -45v-1235l153 -45v-33h-579v33l153 45v1235zM350 1827h58l249 -281l-22 -24l-256 129l-256 -129l-23 24z" />
    <glyph glyph-name="Idieresis" unicode="&#xcf;" horiz-adv-x="739" 
d="M233 1313l-153 45v33h579v-33l-153 -45v-1235l153 -45v-33h-579v33l153 45v1235zM217 1571q-47 0 -81 33t-34 79t34 80.5t81 34.5q49 0 82 -34t33 -81q0 -46 -33 -79t-82 -33zM532 1571q-47 0 -80.5 33t-33.5 79t33.5 80.5t80.5 34.5t81 -34.5t34 -80.5t-34 -79t-81 -33z
" />
    <glyph glyph-name="Eth" unicode="&#xd0;" horiz-adv-x="1515" 
d="M86 698v82h147v533l-153 45v33h657q323 0 515 -179.5t192 -504.5q0 -215 -92.5 -376.5t-252.5 -246t-364 -84.5h-655v33l153 45v620h-147zM729 1307h-223v-527h262v-82h-262v-612h237q198 0 305 160.5t107 445.5t-114.5 450t-311.5 165z" />
    <glyph glyph-name="Ntilde" unicode="&#xd1;" horiz-adv-x="1490" 
d="M1176 1315l-152 43v33h408v-33l-152 -43v-1315h-98l-844 1071v-995l151 -43v-33h-409v33l151 43v1239l-151 43v33h344l752 -959v883zM1085 1808q-2 -48 -11.5 -90.5t-28.5 -80.5t-53.5 -60.5t-80.5 -22.5q-67 0 -164.5 43.5t-158.5 44.5q-70 -26 -142 -122l-22 10
q4 36 11.5 68t23 68.5t37.5 62.5t57.5 43.5t79.5 17.5q69 0 163 -40.5t142 -41.5q70 23 125 111z" />
    <glyph glyph-name="Ograve" unicode="&#xd2;" horiz-adv-x="1443" 
d="M727 1411q294 0 469.5 -186.5t175.5 -522.5q0 -166 -49 -302.5t-135.5 -228t-206.5 -141.5t-262 -50q-145 0 -264.5 46.5t-204.5 135t-131.5 221t-46.5 299.5q0 337 181.5 533t473.5 196zM709 1333q-171 0 -259 -168.5t-88 -472.5q0 -294 101.5 -463.5t273.5 -169.5
q168 0 256 166.5t88 466.5q0 297 -101 469t-271 172zM547 1860h26l238 -306l-29 -28l-360 190z" />
    <glyph glyph-name="Oacute" unicode="&#xd3;" horiz-adv-x="1443" 
d="M877 1860h26l123 -144l-360 -190l-29 28zM727 1411q294 0 469.5 -186.5t175.5 -522.5q0 -166 -49 -302.5t-135.5 -228t-206.5 -141.5t-262 -50q-145 0 -264.5 46.5t-204.5 135t-131.5 221t-46.5 299.5q0 337 181.5 533t473.5 196zM709 1333q-171 0 -259 -168.5
t-88 -472.5q0 -294 101.5 -463.5t273.5 -169.5q168 0 256 166.5t88 466.5q0 297 -101 469t-271 172z" />
    <glyph glyph-name="Ocircumflex" unicode="&#xd4;" horiz-adv-x="1443" 
d="M709 1827h57l250 -281l-23 -24l-256 129l-256 -129l-22 24zM727 1411q294 0 469.5 -186.5t175.5 -522.5q0 -166 -49 -302.5t-135.5 -228t-206.5 -141.5t-262 -50q-145 0 -264.5 46.5t-204.5 135t-131.5 221t-46.5 299.5q0 337 181.5 533t473.5 196zM709 1333
q-171 0 -259 -168.5t-88 -472.5q0 -294 101.5 -463.5t273.5 -169.5q168 0 256 166.5t88 466.5q0 297 -101 469t-271 172z" />
    <glyph glyph-name="Otilde" unicode="&#xd5;" horiz-adv-x="1443" 
d="M727 1411q294 0 469.5 -186.5t175.5 -522.5q0 -166 -49 -302.5t-135.5 -228t-206.5 -141.5t-262 -50q-145 0 -264.5 46.5t-204.5 135t-131.5 221t-46.5 299.5q0 337 181.5 533t473.5 196zM709 1333q-171 0 -259 -168.5t-88 -472.5q0 -294 101.5 -463.5t273.5 -169.5
q168 0 256 166.5t88 466.5q0 297 -101 469t-271 172zM1053 1827q-2 -48 -11.5 -90.5t-28.5 -80.5t-53.5 -60.5t-80.5 -22.5q-67 0 -165 43.5t-159 44.5q-68 -25 -141 -123l-23 10q4 36 11.5 68t23 68.5t37.5 62.5t57.5 43.5t79.5 17.5q69 0 163 -40.5t142 -41.5
q70 23 125 111z" />
    <glyph glyph-name="Odieresis" unicode="&#xd6;" horiz-adv-x="1443" 
d="M578 1571q-47 0 -81 33t-34 79t34 80.5t81 34.5q49 0 81.5 -34t32.5 -81q0 -46 -32.5 -79t-81.5 -33zM893 1571q-47 0 -81 33t-34 79t34 80.5t81 34.5t81 -34.5t34 -80.5t-34 -79t-81 -33zM727 1411q294 0 469.5 -186.5t175.5 -522.5q0 -166 -49 -302.5t-135.5 -228
t-206.5 -141.5t-262 -50q-145 0 -264.5 46.5t-204.5 135t-131.5 221t-46.5 299.5q0 337 181.5 533t473.5 196zM709 1333q-171 0 -259 -168.5t-88 -472.5q0 -294 101.5 -463.5t273.5 -169.5q168 0 256 166.5t88 466.5q0 297 -101 469t-271 172z" />
    <glyph glyph-name="multiply" unicode="&#xd7;" horiz-adv-x="868" 
d="M172 270l-78 80l258 258l-254 254l80 80l252 -254l258 258l80 -80l-258 -258l264 -264l-78 -78l-264 264z" />
    <glyph glyph-name="Oslash" unicode="&#xd8;" horiz-adv-x="1443" 
d="M727 1411q212 0 367 -100l69 100h105l-107 -154q211 -189 211 -555q0 -166 -49 -302.5t-135.5 -228t-206.5 -141.5t-262 -50q-222 0 -375 102l-70 -102h-106l108 155q-204 185 -204 547q0 337 181.5 533t473.5 196zM1081 692q0 215 -55 369l-569 -819q101 -183 280 -183
q168 0 256 166.5t88 466.5zM709 1333q-171 0 -259 -168.5t-88 -472.5q0 -204 52 -358l569 819q-102 180 -274 180z" />
    <glyph glyph-name="Ugrave" unicode="&#xd9;" horiz-adv-x="1515" 
d="M1190 420v893l-156 45v33h426v-33l-155 -45v-1022q-65 -153 -194 -232t-337 -79q-201 0 -354 75t-213 217v1041l-154 45v33h580v-33l-154 -45v-910q0 -149 87 -232t237 -83q170 0 278.5 91t108.5 241zM616 1860h27l238 -306l-29 -28l-360 190z" />
    <glyph glyph-name="Uacute" unicode="&#xda;" horiz-adv-x="1515" 
d="M946 1860h27l123 -144l-361 -190l-28 28zM1190 420v893l-156 45v33h426v-33l-155 -45v-1022q-65 -153 -194 -232t-337 -79q-201 0 -354 75t-213 217v1041l-154 45v33h580v-33l-154 -45v-910q0 -149 87 -232t237 -83q170 0 278.5 91t108.5 241z" />
    <glyph glyph-name="Ucircumflex" unicode="&#xdb;" horiz-adv-x="1515" 
d="M782 1827h58l250 -281l-23 -24l-256 129l-256 -129l-23 24zM1190 420v893l-156 45v33h426v-33l-155 -45v-1022q-65 -153 -194 -232t-337 -79q-201 0 -354 75t-213 217v1041l-154 45v33h580v-33l-154 -45v-910q0 -149 87 -232t237 -83q170 0 278.5 91t108.5 241z" />
    <glyph glyph-name="Udieresis" unicode="&#xdc;" horiz-adv-x="1515" 
d="M639 1571q-47 0 -81 33t-34 79t34 80.5t81 34.5q49 0 82 -34t33 -81q0 -46 -33 -79t-82 -33zM954 1571q-47 0 -80.5 33t-33.5 79t33.5 80.5t80.5 34.5t81 -34.5t34 -80.5t-34 -79t-81 -33zM1190 420v893l-156 45v33h426v-33l-155 -45v-1022q-65 -153 -194 -232t-337 -79
q-201 0 -354 75t-213 217v1041l-154 45v33h580v-33l-154 -45v-910q0 -149 87 -232t237 -83q170 0 278.5 91t108.5 241z" />
    <glyph glyph-name="Yacute" unicode="&#xdd;" horiz-adv-x="1382" 
d="M387 33l166 45v520l-436 715l-129 45v33h583v-33l-147 -43l352 -604h2l367 604l-146 43v33h396v-33l-133 -45l-439 -705v-530l166 -45v-33h-602v33zM915 1860h27l123 -144l-360 -190l-29 28z" />
    <glyph glyph-name="Thorn" unicode="&#xde;" horiz-adv-x="1320" 
d="M608 330h84q141 2 217 94.5t76 265.5q0 169 -78 257.5t-227 88.5h-174v-958l178 -45v-33h-604v33l153 45v1235l-153 45v33h579v-33l-153 -45v-193h190q124 0 226.5 -25t181.5 -75t122.5 -132t43.5 -190q0 -130 -67.5 -232t-175 -154t-232.5 -52q-75 0 -187 33v37z" />
    <glyph glyph-name="germandbls" unicode="&#xdf;" horiz-adv-x="1323" 
d="M731 1503q172 0 280.5 -77t108.5 -201q0 -44 -20.5 -83.5t-51.5 -66.5t-67 -56t-67 -54t-51.5 -59t-20.5 -72q0 -26 18.5 -52t37 -40.5t54.5 -39.5l166 -114q96 -67 137 -136t41 -163q0 -135 -99 -222t-247 -87q-129 0 -262 47v86q0 27 -5.5 64.5t-10.5 60.5l-6 24l34 12
q4 -3 11.5 -8t28 -23t38 -38.5t37 -55t29.5 -71.5q58 -25 100 -25q66 0 103.5 40t37.5 112q0 61 -28.5 100.5t-95.5 87.5l-140 103q-70 51 -110.5 107t-40.5 132q0 56 23 107t56 90t65.5 77.5t55.5 87t23 101.5q0 104 -53.5 164.5t-145.5 60.5q-221 0 -221 -360v-985
l111 -45v-33h-512v33l147 45v878h-160v56l158 22v15q0 136 71.5 241t188 159t254.5 54z" />
    <glyph glyph-name="agrave" unicode="&#xe0;" horiz-adv-x="1116" 
d="M537 1065q182 0 282.5 -89t100.5 -276q0 -56 -3.5 -208.5t-3.5 -323.5q0 -76 58 -76q33 0 64 38t48 81l41 -18q-36 -113 -95 -162t-152 -49q-82 0 -133.5 36.5t-69.5 100.5q-135 -139 -293 -139q-60 0 -110.5 14t-93.5 44t-67 83.5t-24 126.5v121q147 166 584 258v102
q0 133 -45 195.5t-148 62.5q-69 0 -133 -35q-23 -38 -38.5 -99t-19.5 -103l-5 -41h-101q-7 8 -18.5 24t-33 66t-26.5 102q61 65 177.5 114.5t257.5 49.5zM475 104q104 0 191 72v12q0 58 1 181.5t1 189.5q-219 -54 -336 -143v-131q0 -91 39.5 -136t103.5 -45zM338 1511h27
l237 -305l-29 -28l-360 190z" />
    <glyph glyph-name="aacute" unicode="&#xe1;" horiz-adv-x="1116" 
d="M537 1065q182 0 282.5 -89t100.5 -276q0 -56 -3.5 -208.5t-3.5 -323.5q0 -76 58 -76q33 0 64 38t48 81l41 -18q-36 -113 -95 -162t-152 -49q-82 0 -133.5 36.5t-69.5 100.5q-135 -139 -293 -139q-60 0 -110.5 14t-93.5 44t-67 83.5t-24 126.5v121q147 166 584 258v102
q0 133 -45 195.5t-148 62.5q-69 0 -133 -35q-23 -38 -38.5 -99t-19.5 -103l-5 -41h-101q-7 8 -18.5 24t-33 66t-26.5 102q61 65 177.5 114.5t257.5 49.5zM475 104q104 0 191 72v12q0 58 1 181.5t1 189.5q-219 -54 -336 -143v-131q0 -91 39.5 -136t103.5 -45zM659 1511h27
l123 -143l-360 -190l-29 28z" />
    <glyph glyph-name="acircumflex" unicode="&#xe2;" horiz-adv-x="1116" 
d="M537 1065q182 0 282.5 -89t100.5 -276q0 -56 -3.5 -208.5t-3.5 -323.5q0 -76 58 -76q33 0 64 38t48 81l41 -18q-36 -113 -95 -162t-152 -49q-82 0 -133.5 36.5t-69.5 100.5q-135 -139 -293 -139q-60 0 -110.5 14t-93.5 44t-67 83.5t-24 126.5v121q147 166 584 258v102
q0 133 -45 195.5t-148 62.5q-69 0 -133 -35q-23 -38 -38.5 -99t-19.5 -103l-5 -41h-101q-7 8 -18.5 24t-33 66t-26.5 102q61 65 177.5 114.5t257.5 49.5zM475 104q104 0 191 72v12q0 58 1 181.5t1 189.5q-219 -54 -336 -143v-131q0 -91 39.5 -136t103.5 -45zM506 1479h57
l250 -281l-22 -24l-256 129l-256 -129l-23 24z" />
    <glyph glyph-name="atilde" unicode="&#xe3;" horiz-adv-x="1116" 
d="M537 1065q182 0 282.5 -89t100.5 -276q0 -56 -3.5 -208.5t-3.5 -323.5q0 -76 58 -76q33 0 64 38t48 81l41 -18q-36 -113 -95 -162t-152 -49q-82 0 -133.5 36.5t-69.5 100.5q-135 -139 -293 -139q-60 0 -110.5 14t-93.5 44t-67 83.5t-24 126.5v121q147 166 584 258v102
q0 133 -45 195.5t-148 62.5q-69 0 -133 -35q-23 -38 -38.5 -99t-19.5 -103l-5 -41h-101q-7 8 -18.5 24t-33 66t-26.5 102q61 65 177.5 114.5t257.5 49.5zM475 104q104 0 191 72v12q0 58 1 181.5t1 189.5q-219 -54 -336 -143v-131q0 -91 39.5 -136t103.5 -45zM862 1479
q-2 -48 -11.5 -90.5t-28.5 -80.5t-53.5 -60.5t-80.5 -22.5q-67 0 -164.5 43.5t-158.5 44.5q-69 -26 -142 -123l-22 10q4 36 11.5 68t23 68.5t37.5 62.5t57.5 43.5t79.5 17.5q69 0 163 -40.5t142 -41.5q70 23 125 111z" />
    <glyph glyph-name="adieresis" unicode="&#xe4;" horiz-adv-x="1116" 
d="M537 1065q182 0 282.5 -89t100.5 -276q0 -56 -3.5 -208.5t-3.5 -323.5q0 -76 58 -76q33 0 64 38t48 81l41 -18q-36 -113 -95 -162t-152 -49q-82 0 -133.5 36.5t-69.5 100.5q-135 -139 -293 -139q-60 0 -110.5 14t-93.5 44t-67 83.5t-24 126.5v121q147 166 584 258v102
q0 133 -45 195.5t-148 62.5q-69 0 -133 -35q-23 -38 -38.5 -99t-19.5 -103l-5 -41h-101q-7 8 -18.5 24t-33 66t-26.5 102q61 65 177.5 114.5t257.5 49.5zM475 104q104 0 191 72v12q0 58 1 181.5t1 189.5q-219 -54 -336 -143v-131q0 -91 39.5 -136t103.5 -45zM379 1223
q-47 0 -81 33t-34 79t34 80.5t81 34.5q49 0 82 -34t33 -81q0 -46 -33 -79t-82 -33zM694 1223q-47 0 -80.5 33t-33.5 79t33.5 80.5t80.5 34.5t81 -34.5t34 -80.5t-34 -79t-81 -33z" />
    <glyph glyph-name="aring" unicode="&#xe5;" horiz-adv-x="1116" 
d="M537 1065q182 0 282.5 -89t100.5 -276q0 -56 -3.5 -208.5t-3.5 -323.5q0 -76 58 -76q33 0 64 38t48 81l41 -18q-36 -113 -95 -162t-152 -49q-82 0 -133.5 36.5t-69.5 100.5q-135 -139 -293 -139q-60 0 -110.5 14t-93.5 44t-67 83.5t-24 126.5v121q147 166 584 258v102
q0 133 -45 195.5t-148 62.5q-69 0 -133 -35q-23 -38 -38.5 -99t-19.5 -103l-5 -41h-101q-7 8 -18.5 24t-33 66t-26.5 102q61 65 177.5 114.5t257.5 49.5zM475 104q104 0 191 72v12q0 58 1 181.5t1 189.5q-219 -54 -336 -143v-131q0 -91 39.5 -136t103.5 -45zM528 1495
q101 0 160.5 -43t59.5 -123q0 -81 -62 -126.5t-162 -45.5t-159.5 44t-59.5 122q0 81 61.5 126.5t161.5 45.5zM532 1200q80 0 80 125q0 65 -24 98t-68 33q-82 0 -82 -131q0 -60 25 -92.5t69 -32.5z" />
    <glyph glyph-name="ae" unicode="&#xe6;" horiz-adv-x="1609" 
d="M1509 242l27 -25q-135 -237 -391 -237q-265 0 -391 184q-171 -184 -379 -184q-60 0 -110.5 14t-93.5 44t-67 83.5t-24 126.5v121q147 166 584 258v102q2 132 -44 195t-149 63q-71 0 -131 -35q-24 -38 -40.5 -99t-21.5 -103l-4 -41h-100q-7 8 -18.5 24t-33 66t-26.5 102
q61 64 178 114t258 50q209 0 295 -137q127 137 306 137q199 0 307 -126t108 -331v-84l-635 8q1 -220 78 -319.5t205 -99.5q100 0 169.5 33t143.5 96zM469 104q80 0 147.5 30t112.5 69q-67 125 -67 319v37q-217 -53 -336 -143v-131q0 -91 39.5 -136t103.5 -45zM1124 993
q-66 0 -113 -56.5t-70 -144t-28 -200.5l394 18v37q0 162 -47 254t-136 92z" />
    <glyph glyph-name="ccedilla" unicode="&#xe7;" horiz-adv-x="985" 
d="M856 719h-111q-6 139 -51 233q-50 31 -108 31q-129 0 -195.5 -112t-66.5 -330q0 -114 23.5 -198.5t65 -132.5t92.5 -70.5t113 -22.5q83 0 155.5 34t148.5 99l32 -29q-53 -104 -151.5 -172.5t-237.5 -68.5q-29 0 -41 2l-41 -68q199 -13 199 -143q0 -62 -60 -97.5
t-165 -35.5q-115 0 -187 57l17 37q64 -31 137 -31q94 0 94 59q0 38 -34 61.5t-105 39.5v8l76 121q-183 30 -285 163t-102 361q0 125 42.5 230.5t115 174.5t166.5 107.5t198 38.5q99 0 191.5 -32t146.5 -83q-3 -63 -21 -120.5t-35 -83.5z" />
    <glyph glyph-name="egrave" unicode="&#xe8;" horiz-adv-x="1015" 
d="M915 242l29 -25q-139 -237 -393 -237q-225 0 -354 139t-129 403q0 122 37.5 224.5t102 172t150.5 108t183 38.5q198 0 305.5 -126t107.5 -331v-84l-635 6q1 -218 78.5 -317.5t204.5 -99.5q100 0 169.5 33t143.5 96zM532 993q-98 0 -151.5 -112.5t-61.5 -288.5l394 18v37
q0 162 -46 254t-135 92zM358 1511h27l238 -305l-29 -28l-361 190z" />
    <glyph glyph-name="eacute" unicode="&#xe9;" horiz-adv-x="1015" 
d="M915 242l29 -25q-139 -237 -393 -237q-225 0 -354 139t-129 403q0 122 37.5 224.5t102 172t150.5 108t183 38.5q198 0 305.5 -126t107.5 -331v-84l-635 6q1 -218 78.5 -317.5t204.5 -99.5q100 0 169.5 33t143.5 96zM532 993q-98 0 -151.5 -112.5t-61.5 -288.5l394 18v37
q0 162 -46 254t-135 92zM698 1511h27l123 -143l-361 -190l-28 28z" />
    <glyph glyph-name="ecircumflex" unicode="&#xea;" horiz-adv-x="1015" 
d="M915 242l29 -25q-139 -237 -393 -237q-225 0 -354 139t-129 403q0 122 37.5 224.5t102 172t150.5 108t183 38.5q198 0 305.5 -126t107.5 -331v-84l-635 6q1 -218 78.5 -317.5t204.5 -99.5q100 0 169.5 33t143.5 96zM532 993q-98 0 -151.5 -112.5t-61.5 -288.5l394 18v37
q0 162 -46 254t-135 92zM489 1479h58l250 -281l-23 -24l-256 129l-256 -129l-22 24z" />
    <glyph glyph-name="edieresis" unicode="&#xeb;" horiz-adv-x="1015" 
d="M915 242l29 -25q-139 -237 -393 -237q-225 0 -354 139t-129 403q0 122 37.5 224.5t102 172t150.5 108t183 38.5q198 0 305.5 -126t107.5 -331v-84l-635 6q1 -218 78.5 -317.5t204.5 -99.5q100 0 169.5 33t143.5 96zM532 993q-98 0 -151.5 -112.5t-61.5 -288.5l394 18v37
q0 162 -46 254t-135 92zM356 1223q-47 0 -80.5 33t-33.5 79t33.5 80.5t80.5 34.5q49 0 82 -34t33 -81q0 -46 -33 -79t-82 -33zM672 1223q-47 0 -81 33t-34 79t34 80.5t81 34.5t80.5 -34.5t33.5 -80.5t-33.5 -79t-80.5 -33z" />
    <glyph glyph-name="igrave" unicode="&#xec;" horiz-adv-x="638" 
d="M455 1065v-987l137 -45v-33h-531v33l140 45v840l-142 24v37l353 86h43zM168 1511h27l237 -305l-29 -28l-360 190z" />
    <glyph glyph-name="iacute" unicode="&#xed;" horiz-adv-x="638" 
d="M444 1511h27l123 -143l-361 -190l-28 28zM455 1065v-987l137 -45v-33h-531v33l140 45v840l-142 24v37l353 86h43z" />
    <glyph glyph-name="icircumflex" unicode="&#xee;" horiz-adv-x="638" 
d="M295 1479h57l250 -281l-22 -24l-256 129l-256 -129l-23 24zM455 1065v-987l137 -45v-33h-531v33l140 45v840l-142 24v37l353 86h43z" />
    <glyph glyph-name="idieresis" unicode="&#xef;" horiz-adv-x="638" 
d="M170 1223q-47 0 -81 33t-34 79t34 80.5t81 34.5q49 0 82 -34t33 -81q0 -46 -33 -79t-82 -33zM485 1223q-47 0 -80.5 33t-33.5 79t33.5 80.5t80.5 34.5t81 -34.5t34 -80.5t-34 -79t-81 -33zM455 1065v-987l137 -45v-33h-531v33l140 45v840l-142 24v37l353 86h43z" />
    <glyph glyph-name="eth" unicode="&#xf0;" horiz-adv-x="1146" 
d="M920 1358l-138 -62q144 -146 220.5 -346.5t76.5 -423.5q0 -167 -66.5 -292t-181.5 -189.5t-262 -64.5q-227 0 -364 141t-137 393q0 254 142.5 402.5t367.5 148.5q106 0 186 -55q-39 125 -111 229l-168 -74l-26 56l153 69q-72 93 -170 172l37 41q137 -59 256 -157l156 69z
M588 53q115 0 168 115.5t53 351.5q0 229 -65.5 348t-184.5 119q-115 0 -168 -115.5t-53 -351.5q0 -229 65.5 -348t184.5 -119z" />
    <glyph glyph-name="ntilde" unicode="&#xf1;" horiz-adv-x="1267" 
d="M408 1065h38v-147h9q61 64 146 105.5t175 41.5q65 0 120 -19.5t99.5 -59.5t69.5 -109t25 -160v-639l139 -45v-33h-512v33l121 45v663q0 187 -176 187q-52 0 -108.5 -20.5t-98.5 -55.5v-774l118 -45v-33h-512v33l140 45v840l-142 24v37zM965 1479q-2 -48 -11.5 -90.5
t-28.5 -80.5t-53.5 -60.5t-80.5 -22.5q-67 0 -165 43.5t-159 44.5q-68 -25 -141 -123l-23 10q4 36 11.5 68t23 68.5t37.5 62.5t57.5 43.5t79.5 17.5q69 0 163 -40.5t142 -41.5q70 23 125 111z" />
    <glyph glyph-name="ograve" unicode="&#xf2;" horiz-adv-x="1146" 
d="M578 1065q227 0 364 -142t137 -397q0 -167 -66.5 -292t-181.5 -189.5t-262 -64.5q-227 0 -364 141t-137 393q0 254 142.5 402.5t367.5 148.5zM588 53q115 0 168 115.5t53 351.5q0 229 -65.5 349t-184.5 120q-115 0 -168 -116.5t-53 -352.5q0 -229 65.5 -348t184.5 -119z
M399 1511h27l238 -305l-29 -28l-361 190z" />
    <glyph glyph-name="oacute" unicode="&#xf3;" horiz-adv-x="1146" 
d="M713 1511h26l123 -143l-360 -190l-29 28zM578 1065q227 0 364 -142t137 -397q0 -167 -66.5 -292t-181.5 -189.5t-262 -64.5q-227 0 -364 141t-137 393q0 254 142.5 402.5t367.5 148.5zM588 53q115 0 168 115.5t53 351.5q0 229 -65.5 349t-184.5 120q-115 0 -168 -116.5
t-53 -352.5q0 -229 65.5 -348t184.5 -119z" />
    <glyph glyph-name="ocircumflex" unicode="&#xf4;" horiz-adv-x="1146" 
d="M555 1479h57l250 -281l-22 -24l-256 129l-256 -129l-23 24zM578 1065q227 0 364 -142t137 -397q0 -167 -66.5 -292t-181.5 -189.5t-262 -64.5q-227 0 -364 141t-137 393q0 254 142.5 402.5t367.5 148.5zM588 53q115 0 168 115.5t53 351.5q0 229 -65.5 349t-184.5 120
q-115 0 -168 -116.5t-53 -352.5q0 -229 65.5 -348t184.5 -119z" />
    <glyph glyph-name="otilde" unicode="&#xf5;" horiz-adv-x="1146" 
d="M578 1065q227 0 364 -142t137 -397q0 -167 -66.5 -292t-181.5 -189.5t-262 -64.5q-227 0 -364 141t-137 393q0 254 142.5 402.5t367.5 148.5zM588 53q115 0 168 115.5t53 351.5q0 229 -65.5 349t-184.5 120q-115 0 -168 -116.5t-53 -352.5q0 -229 65.5 -348t184.5 -119z
M903 1479q-2 -48 -11.5 -90.5t-28.5 -80.5t-53.5 -60.5t-80.5 -22.5q-67 0 -164.5 43.5t-158.5 44.5q-69 -26 -142 -123l-22 10q4 36 11.5 68t23 68.5t37.5 62.5t57.5 43.5t79.5 17.5q69 0 163 -40.5t142 -41.5q70 23 125 111z" />
    <glyph glyph-name="odieresis" unicode="&#xf6;" horiz-adv-x="1146" 
d="M418 1223q-47 0 -81 33t-34 79t34 80.5t81 34.5q49 0 81.5 -34t32.5 -81q0 -46 -32.5 -79t-81.5 -33zM733 1223q-47 0 -81 33t-34 79t34 80.5t81 34.5t81 -34.5t34 -80.5t-34 -79t-81 -33zM578 1065q227 0 364 -142t137 -397q0 -167 -66.5 -292t-181.5 -189.5t-262 -64.5
q-227 0 -364 141t-137 393q0 254 142.5 402.5t367.5 148.5zM588 53q115 0 168 115.5t53 351.5q0 229 -65.5 349t-184.5 120q-115 0 -168 -116.5t-53 -352.5q0 -229 65.5 -348t184.5 -119z" />
    <glyph glyph-name="divide" unicode="&#xf7;" 
d="M393 942q0 51 36.5 87t86.5 36t85.5 -36t35.5 -87q0 -49 -35.5 -84t-85.5 -35t-86.5 35t-36.5 84zM94 551v113h842v-113h-842zM393 268q0 52 36.5 87.5t86.5 35.5t85.5 -35.5t35.5 -87.5q0 -47 -36 -82.5t-85 -35.5t-86 35.5t-37 82.5z" />
    <glyph glyph-name="oslash" unicode="&#xf8;" horiz-adv-x="1146" 
d="M578 1065q178 0 303 -90l69 90h94l-108 -137q143 -143 143 -402q0 -167 -66.5 -292t-181.5 -189.5t-262 -64.5q-180 0 -305 90l-69 -90h-97l109 139q-139 142 -139 395q0 254 142.5 402.5t367.5 148.5zM588 53q115 0 168 115.5t53 351.5q0 110 -21 217l-407 -518
q64 -166 207 -166zM338 520q0 -122 18 -211l406 516q-62 164 -203 164q-115 0 -168 -116.5t-53 -352.5z" />
    <glyph glyph-name="ugrave" unicode="&#xf9;" horiz-adv-x="1251" 
d="M428 1065v-858q15 -33 56.5 -62.5t113.5 -29.5q114 0 205 78v725l-144 24v37l349 86h49v-987l139 -45v-33h-358l-21 129h-10q-142 -149 -324 -149q-229 0 -307 202v736l-137 24v37l348 86h41zM420 1511h26l238 -305l-29 -28l-360 190z" />
    <glyph glyph-name="uacute" unicode="&#xfa;" horiz-adv-x="1251" 
d="M776 1511h27l123 -143l-361 -190l-28 28zM428 1065v-858q15 -33 56.5 -62.5t113.5 -29.5q114 0 205 78v725l-144 24v37l349 86h49v-987l139 -45v-33h-358l-21 129h-10q-142 -149 -324 -149q-229 0 -307 202v736l-137 24v37l348 86h41z" />
    <glyph glyph-name="ucircumflex" unicode="&#xfb;" horiz-adv-x="1251" 
d="M596 1479h57l250 -281l-22 -24l-256 129l-256 -129l-23 24zM428 1065v-858q15 -33 56.5 -62.5t113.5 -29.5q114 0 205 78v725l-144 24v37l349 86h49v-987l139 -45v-33h-358l-21 129h-10q-142 -149 -324 -149q-229 0 -307 202v736l-137 24v37l348 86h41z" />
    <glyph glyph-name="udieresis" unicode="&#xfc;" horiz-adv-x="1251" 
d="M457 1223q-47 0 -81 33t-34 79t34 80.5t81 34.5q49 0 81.5 -34t32.5 -81q0 -46 -32.5 -79t-81.5 -33zM772 1223q-47 0 -81 33t-34 79t34 80.5t81 34.5t81 -34.5t34 -80.5t-34 -79t-81 -33zM428 1065v-858q15 -33 56.5 -62.5t113.5 -29.5q114 0 205 78v725l-144 24v37
l349 86h49v-987l139 -45v-33h-358l-21 129h-10q-142 -149 -324 -149q-229 0 -307 202v736l-137 24v37l348 86h41z" />
    <glyph glyph-name="yacute" unicode="&#xfd;" horiz-adv-x="1103" 
d="M285 -268q158 0 262 254l-471 981l-109 45v32h510v-34l-119 -43l306 -684h6l239 684l-108 45v32h325v-32l-114 -45l-348 -949q-79 -217 -177 -298.5t-254 -81.5q-81 0 -139 24q-11 59 -0.5 119.5t26.5 91.5l17 31h105q6 -109 43 -172zM805 1511h26l123 -143l-360 -190
l-29 28z" />
    <glyph glyph-name="thorn" unicode="&#xfe;" horiz-adv-x="1222" 
d="M436 1503v-583q52 60 133.5 102.5t175.5 42.5q88 0 160.5 -29.5t129.5 -90t88.5 -162.5t31.5 -238q0 -253 -138.5 -409t-361.5 -156q-122 0 -219 38v-282l172 -45v-33h-573v33l147 45v1634l-149 25v35l348 73h55zM627 928q-48 0 -99 -20t-92 -56v-686q88 -107 213 -107
q129 0 184.5 116.5t55.5 352.5q0 220 -67 310t-195 90z" />
    <glyph glyph-name="ydieresis" unicode="&#xff;" horiz-adv-x="1103" 
d="M285 -268q158 0 262 254l-471 981l-109 45v32h510v-34l-119 -43l306 -684h6l239 684l-108 45v32h325v-32l-114 -45l-348 -949q-79 -217 -177 -298.5t-254 -81.5q-81 0 -139 24q-11 59 -0.5 119.5t26.5 91.5l17 31h105q6 -109 43 -172zM395 1223q-47 0 -80.5 33t-33.5 79
t33.5 80.5t80.5 34.5q49 0 82 -34t33 -81q0 -46 -33 -79t-82 -33zM711 1223q-47 0 -81 33t-34 79t34 80.5t81 34.5t80.5 -34.5t33.5 -80.5t-33.5 -79t-80.5 -33z" />
    <glyph glyph-name="dotlessi" unicode="&#x131;" horiz-adv-x="638" 
d="M455 1065v-987l137 -45v-33h-531v33l140 45v840l-142 24v37l353 86h43z" />
    <glyph glyph-name="Lslash" unicode="&#x141;" horiz-adv-x="1216" 
d="M233 1313l-153 45v33h579v-33l-153 -45v-385l192 137v-104l-192 -138v-739h475q20 81 60 159t70 116l30 38l41 -12q-21 -176 -21 -309v-76h-1081v33l153 45v553l-159 -113v105l159 112v578z" />
    <glyph glyph-name="lslash" unicode="&#x142;" horiz-adv-x="634" 
d="M449 1503v-569l184 131v-104l-184 -132v-751l139 -45v-33h-531v33l138 45v571l-187 -131v105l187 131v624l-140 23v37l351 65h43z" />
    <glyph glyph-name="OE" unicode="&#x152;" horiz-adv-x="1955" 
d="M893 0q-92 -20 -174 -20q-143 0 -262 47t-204.5 134.5t-133 221t-47.5 299.5q0 168 49.5 306t136.5 230.5t207.5 142.5t261.5 50q86 0 178 -20h920v-66q0 -68 5 -141.5t10 -112.5l5 -39l-41 -14q-11 12 -29.5 35t-61 98t-68.5 156h-486v-562l447 15l41 106h45v-315h-39
l-47 108l-447 13v-588h533q21 75 60 150.5t68 113.5l29 39l43 -10q-20 -158 -20 -295v-82h-979zM737 59q92 0 150 47v1160q-76 67 -178 67q-171 0 -259 -168.5t-88 -472.5q0 -294 101.5 -463.5t273.5 -169.5z" />
    <glyph glyph-name="oe" unicode="&#x153;" horiz-adv-x="1765" 
d="M1665 242l27 -25q-135 -237 -392 -237q-248 0 -366 167q-126 -167 -365 -167q-227 0 -364 141t-137 393q0 254 142.5 402.5t367.5 148.5q248 0 370 -172q62 82 150 127t190 45q200 0 308 -126t108 -331v-84l-635 8q1 -220 78 -319.5t205 -99.5q100 0 169.5 33t143.5 96z
M588 53q115 0 168 115.5t53 351.5q0 229 -65.5 349t-184.5 120q-115 0 -168 -116.5t-53 -352.5q0 -229 65.5 -348t184.5 -119zM1280 993q-66 0 -113 -56.5t-70 -144t-28 -200.5l393 18v37q0 162 -46.5 254t-135.5 92z" />
    <glyph glyph-name="Scaron" unicode="&#x160;" horiz-adv-x="1173" 
d="M627 1516h-58l-250 282l23 25l256 -129l256 129l23 -25zM82 86v84q0 56 -7 120.5t-13 101.5l-7 36l56 27q6 -5 16 -14.5t38 -41.5t52 -66.5t50 -88.5t40 -109q119 -65 238 -65q136 0 210 72t74 200q0 79 -45 140.5t-139 95.5l-244 86q-134 47 -209 138t-75 220
q0 99 41 175.5t111 122t156.5 68.5t184.5 23q105 0 244.5 -30.5t173.5 -34.5v-74q0 -57 7 -116.5t15 -90.5l7 -31l-53 -22q-5 4 -14.5 11.5t-35 33t-48 54.5t-48.5 74t-43 93q-93 49 -207 49q-121 0 -186.5 -59t-65.5 -156q0 -147 164 -205l234 -80q176 -61 258 -163
t82 -254q0 -81 -35 -158t-99 -137.5t-163.5 -97.5t-218.5 -37q-266 0 -496 106z" />
    <glyph glyph-name="scaron" unicode="&#x161;" horiz-adv-x="946" 
d="M510 1167h-57l-250 283l22 25l256 -129l256 129l23 -25zM86 66v63q0 46 -6 92t-12 69l-5 23l50 19q4 -3 10.5 -8.5t26 -26.5t37.5 -45t39 -64.5t36 -85.5q103 -47 195 -47t141 50t49 141q0 110 -127 155l-178 64q-229 81 -229 289q0 65 23 118.5t60.5 88.5t87.5 59
t102.5 34.5t107.5 10.5q86 0 192.5 -23.5t138.5 -23.5v-78q0 -35 5.5 -70.5t11.5 -53.5l6 -19l-35 -23q-4 2 -12 6.5t-29.5 21.5t-40.5 37t-41.5 53.5t-36.5 70.5q-70 28 -149 28q-75 0 -121.5 -40.5t-46.5 -114.5q0 -112 117 -154l168 -57q258 -86 258 -297
q0 -161 -112.5 -254.5t-293.5 -93.5q-194 0 -387 86z" />
    <glyph glyph-name="Ydieresis" unicode="&#x178;" horiz-adv-x="1382" 
d="M387 33l166 45v520l-436 715l-129 45v33h583v-33l-147 -43l352 -604h2l367 604l-146 43v33h396v-33l-133 -45l-439 -705v-530l166 -45v-33h-602v33zM532 1571q-47 0 -80.5 33t-33.5 79t33.5 80.5t80.5 34.5q49 0 82 -34t33 -81q0 -46 -33 -79t-82 -33zM848 1571
q-47 0 -81 33t-34 79t34 80.5t81 34.5t81 -34.5t34 -80.5t-34 -79t-81 -33z" />
    <glyph glyph-name="Zcaron" unicode="&#x17d;" horiz-adv-x="1273" 
d="M672 1516h-58l-249 282l22 25l256 -129l256 129l23 -25zM1151 1391v-68l-758 -1239h600q23 76 65 147.5t72 105.5l31 34l51 -13q-22 -124 -22 -276v-82h-1129v57l768 1250h-503q-11 -46 -32.5 -92.5t-45 -80t-45 -60.5t-35.5 -40l-14 -14l-48 14q23 132 23 279v78h1022z
" />
    <glyph glyph-name="zcaron" unicode="&#x17e;" horiz-adv-x="1036" 
d="M559 1167h-57l-250 283l22 25l256 -129l256 129l23 -25zM936 1044v-67l-590 -899h445q24 72 65 141t70 102l30 33l35 -10q-22 -133 -22 -274v-70h-924v66l592 899h-342q-11 -40 -33 -79t-44.5 -66t-43 -48.5t-34.5 -31.5l-13 -11l-33 14q21 109 21 232v69h821z" />
    <glyph glyph-name="florin" unicode="&#x192;" horiz-adv-x="1079" 
d="M860 1065q6 8 15 23.5t26 64t21 96.5q-46 13 -76 13q-48 0 -83.5 -22t-57 -62t-33.5 -81.5t-21 -95.5l-43 -253h230v-82h-244l-105 -627q-17 -106 -55.5 -185t-93 -125.5t-117.5 -68.5t-137 -22q-49 0 -98.5 11.5t-73.5 21.5t-37 18q2 64 25.5 121t45.5 82l23 26l121 -20
q-47 -80 -59 -191q12 -2 37 -2q31 0 56 15.5t40.5 38.5t28 60.5t19 68.5t13.5 77l117 701h-180v82h194l31 180q17 105 60.5 184.5t104.5 125.5t130 68.5t147 22.5q58 0 116.5 -12t87 -22t40.5 -17q-2 -64 -24.5 -122.5t-44.5 -85.5l-21 -26z" />
    <glyph glyph-name="circumflex" unicode="&#x2c6;" horiz-adv-x="755" 
d="M356 1479h58l250 -281l-23 -24l-256 129l-256 -129l-23 24z" />
    <glyph glyph-name="caron" unicode="&#x2c7;" horiz-adv-x="755" 
d="M414 1167h-58l-250 283l23 25l256 -129l256 129l23 -25z" />
    <glyph glyph-name="breve" unicode="&#x2d8;" horiz-adv-x="663" 
d="M340 1333q84 0 136 34.5t73 86.5l43 -14q-16 -102 -81.5 -171t-172.5 -69q-106 0 -172 69t-82 171l45 12q21 -52 73 -85.5t138 -33.5z" />
    <glyph glyph-name="dotaccent" unicode="&#x2d9;" horiz-adv-x="464" 
d="M84 1333q0 62 42.5 105t106.5 43q65 0 108.5 -43t43.5 -105q0 -59 -43.5 -101t-108.5 -42q-64 0 -106.5 42t-42.5 101z" />
    <glyph glyph-name="ring" unicode="&#x2da;" horiz-adv-x="602" 
d="M309 1495q101 0 160 -43t59 -123q0 -81 -61.5 -126.5t-161.5 -45.5t-159.5 44t-59.5 122q0 81 61.5 126.5t161.5 45.5zM313 1200q80 0 80 125q0 65 -24 98t-68 33q-82 0 -82 -131q0 -60 25 -92.5t69 -32.5z" />
    <glyph glyph-name="ogonek" unicode="&#x2db;" horiz-adv-x="581" 
d="M473 -209l14 -53q-88 -100 -202 -100q-87 0 -143 39t-56 122q0 59 34 108.5t92 83.5t115 55.5t122 37.5l28 -21q-94 -32 -155.5 -85.5t-61.5 -118.5q0 -92 111 -92q49 0 102 24z" />
    <glyph glyph-name="tilde" unicode="&#x2dc;" horiz-adv-x="997" 
d="M829 1479q-2 -48 -11.5 -90.5t-28.5 -80.5t-53.5 -60.5t-80.5 -22.5q-67 0 -164.5 43.5t-158.5 44.5q-69 -26 -142 -123l-22 10q4 36 11.5 68t23 68.5t37.5 62.5t57.5 43.5t79.5 17.5q69 0 163 -40.5t142 -41.5q70 23 125 111z" />
    <glyph glyph-name="hungarumlaut" unicode="&#x2dd;" horiz-adv-x="776" 
d="M297 1511h22l125 -129l-366 -202l-29 37zM330 1214l315 234l100 -127v-41l-391 -102z" />
    <glyph glyph-name="Delta" unicode="&#x394;" horiz-adv-x="2068" 
d="M1546 262q-198 0 -322 116.5t-124 285.5q0 167 124 284t322 117t322.5 -122t124.5 -308q0 -140 -40 -253t-106.5 -187t-157.5 -124.5t-189.5 -72t-205.5 -21.5q-62 0 -123 9v2q47 5 107 25t122 53t112 85.5t67 112.5q-6 -2 -33 -2zM567 262q-198 0 -322 116.5t-124 285.5
q0 167 124 284t322 117q199 0 322 -121.5t123 -308.5q0 -140 -39 -253t-105 -187t-156.5 -124t-188.5 -72t-206 -22q-63 0 -124 9v2q48 5 108 25t122 53t111 85.5t66 112.5q-6 -2 -33 -2z" />
    <glyph glyph-name="Delta" unicode="&#x2206;" horiz-adv-x="2068" 
d="M1546 262q-198 0 -322 116.5t-124 285.5q0 167 124 284t322 117t322.5 -122t124.5 -308q0 -140 -40 -253t-106.5 -187t-157.5 -124.5t-189.5 -72t-205.5 -21.5q-62 0 -123 9v2q47 5 107 25t122 53t112 85.5t67 112.5q-6 -2 -33 -2zM567 262q-198 0 -322 116.5t-124 285.5
q0 167 124 284t322 117q199 0 322 -121.5t123 -308.5q0 -140 -39 -253t-105 -187t-156.5 -124t-188.5 -72t-206 -22q-63 0 -124 9v2q48 5 108 25t122 53t111 85.5t66 112.5q-6 -2 -33 -2z" />
    <glyph glyph-name="Omega" unicode="&#x3a9;" horiz-adv-x="958" 
d="M535 694l243 -547h-96l-190 455l-195 -455h-94l241 547l-243 543h94l197 -451l190 451h94zM96 1327v64h776v-64h-776zM96 0v63h776v-63h-776z" />
    <glyph glyph-name="Omega" unicode="&#x2126;" horiz-adv-x="958" 
d="M535 694l243 -547h-96l-190 455l-195 -455h-94l241 547l-243 543h94l197 -451l190 451h94zM96 1327v64h776v-64h-776zM96 0v63h776v-63h-776z" />
    <glyph glyph-name="pi" unicode="&#x3c0;" horiz-adv-x="1193" 
d="M66 952h1085l-522 -897z" />
    <glyph glyph-name="endash" unicode="&#x2013;" horiz-adv-x="1077" 
d="M94 506v96h889v-96h-889z" />
    <glyph glyph-name="emdash" unicode="&#x2014;" horiz-adv-x="1693" 
d="M94 506v96h1503v-96h-1503z" />
    <glyph glyph-name="quoteleft" unicode="&#x2018;" horiz-adv-x="462" 
d="M385 1055q0 -62 -42.5 -101t-109.5 -39t-107 44t-40 104q0 129 98.5 217t247.5 129l12 -23l-12 -10q-13 -9 -17 -12.5t-16.5 -14t-19 -17t-18.5 -19t-18.5 -21.5t-15.5 -23t-14 -26t-9.5 -27t-6.5 -30q40 -17 64 -52t24 -79z" />
    <glyph glyph-name="quoteright" unicode="&#x2019;" horiz-adv-x="462" 
d="M78 1272q0 62 42 100.5t109 38.5t107.5 -44t40.5 -103q0 -67 -28.5 -125.5t-77.5 -100.5t-109.5 -72t-130.5 -48l-13 22q68 53 96 88q45 56 52 113q-40 17 -64 52t-24 79z" />
    <glyph glyph-name="quotesinglbase" unicode="&#x201a;" horiz-adv-x="440" 
d="M70 129q0 62 42 100.5t109 38.5t107.5 -44t40.5 -103q0 -67 -28.5 -125.5t-77.5 -100.5t-109.5 -72t-130.5 -48l-13 22q68 53 96 88q45 56 52 113q-40 17 -64 52t-24 79z" />
    <glyph glyph-name="quotedblleft" unicode="&#x201c;" horiz-adv-x="880" 
d="M385 1055q0 -62 -42.5 -101t-109.5 -39t-107 44t-40 104q0 129 98.5 217t247.5 129l12 -23l-12 -10q-13 -9 -17 -12.5t-16.5 -14t-19 -17t-18.5 -19t-18.5 -21.5t-15.5 -23t-14 -26t-9.5 -27t-6.5 -30q40 -17 64 -52t24 -79zM803 1055q0 -62 -42.5 -101t-109.5 -39
t-107 44t-40 104q0 129 98.5 217t247.5 129l12 -23l-12 -10q-13 -9 -17 -12.5t-16.5 -14t-19 -17t-18.5 -19t-18.5 -21.5t-15.5 -23t-14 -26t-9.5 -27t-6.5 -30q40 -17 64 -52t24 -79z" />
    <glyph glyph-name="quotedblright" unicode="&#x201d;" horiz-adv-x="878" 
d="M78 1272q0 62 42 100.5t109 38.5t107.5 -44t40.5 -103q0 -67 -28.5 -125.5t-77.5 -100.5t-109.5 -72t-130.5 -48l-13 22q68 53 96 88q45 56 52 113q-40 17 -64 52t-24 79zM494 1272q0 62 42 100.5t109 38.5t107.5 -44t40.5 -103q0 -130 -99 -218.5t-248 -127.5l-12 22
q68 53 96 88q45 56 52 113q-40 17 -64 52t-24 79z" />
    <glyph glyph-name="quotedblbase" unicode="&#x201e;" horiz-adv-x="856" 
d="M70 129q0 62 42 100.5t109 38.5t107.5 -44t40.5 -103q0 -67 -28.5 -125.5t-77.5 -100.5t-109.5 -72t-130.5 -48l-13 22q68 53 96 88q45 56 52 113q-40 17 -64 52t-24 79zM485 129q0 62 42.5 100.5t109.5 38.5t107 -44t40 -103q0 -67 -28.5 -125.5t-77.5 -100.5
t-109.5 -72t-130.5 -48l-12 22q70 55 99 93q41 53 48 108q-40 17 -64 52t-24 79z" />
    <glyph glyph-name="dagger" unicode="&#x2020;" horiz-adv-x="1042" 
d="M631 1391l-74 -390l393 62v-178l-391 57l72 -256l-76 -686h-66l-77 686l69 256l-387 -57v178l389 -62l-71 390h219z" />
    <glyph glyph-name="daggerdbl" unicode="&#x2021;" horiz-adv-x="1042" 
d="M94 885v178l389 -62l-71 390h219l-74 -390l393 62v-178l-391 57l72 -246l-72 -250l391 62v-178l-393 59l74 -389h-219l71 387l-389 -57v178l387 -59l-69 247l69 244z" />
    <glyph glyph-name="bullet" unicode="&#x2022;" horiz-adv-x="741" 
d="M143 559q0 93 64 157t160 64q99 0 163 -64t64 -157q0 -89 -64.5 -152t-162.5 -63q-96 0 -160 63t-64 152z" />
    <glyph glyph-name="ellipsis" unicode="&#x2026;" horiz-adv-x="1333" 
d="M70 123q0 62 42.5 104.5t106.5 42.5q65 0 108.5 -42.5t43.5 -104.5q0 -59 -43.5 -101t-108.5 -42q-64 0 -106.5 42t-42.5 101zM516 123q0 62 43 104.5t107 42.5q65 0 108 -42.5t43 -104.5q0 -59 -43 -101t-108 -42q-64 0 -107 42t-43 101zM963 123q0 62 42.5 104.5
t106.5 42.5q65 0 108.5 -42.5t43.5 -104.5q0 -59 -43.5 -101t-108.5 -42q-64 0 -106.5 42t-42.5 101z" />
    <glyph glyph-name="perthousand" unicode="&#x2030;" horiz-adv-x="2097" 
d="M459 0h-105l684 1309h103zM381 1329q125 0 197.5 -86.5t72.5 -247.5q0 -158 -75 -249t-199 -91q-126 0 -199.5 87t-73.5 243q0 161 75.5 252.5t201.5 91.5zM381 707q94 0 94 284q0 138 -24.5 213.5t-73.5 75.5q-96 0 -96 -289q0 -284 100 -284zM1118 653q124 0 196 -86.5
t72 -247.5q0 -158 -75 -248.5t-199 -90.5q-125 0 -198.5 86t-73.5 243q0 161 76 252.5t202 91.5zM1118 31q92 0 92 284q0 289 -98 289q-96 0 -96 -289q0 -284 102 -284zM1753 653q125 0 197.5 -86.5t72.5 -247.5q0 -158 -75 -248.5t-199 -90.5q-126 0 -199 85.5t-73 243.5
q0 161 75 252.5t201 91.5zM1753 31q94 0 94 284q0 289 -98 289q-96 0 -96 -289q0 -284 100 -284z" />
    <glyph glyph-name="guilsinglleft" unicode="&#x2039;" horiz-adv-x="585" 
d="M66 489v64l370 395h78l-231 -424l231 -430h-78z" />
    <glyph glyph-name="guilsinglright" unicode="&#x203a;" horiz-adv-x="585" 
d="M520 553v-64l-370 -395h-78l231 430l-231 424h78z" />
    <glyph glyph-name="fraction" unicode="&#x2044;" horiz-adv-x="1001" 
d="M74 0h-97l957 1309h94z" />
    <glyph glyph-name="Euro" unicode="&#x20ac;" horiz-adv-x="1327" 
d="M78 727v82h117q31 164 120.5 283t218.5 178t285 59q97 0 216.5 -23t150.5 -24v-104q0 -56 6.5 -115.5t13.5 -90.5l6 -32l-55 -25q-6 4 -15.5 11t-37 33.5t-51.5 57.5t-51 82.5t-44 108.5q-75 35 -163 35q-129 0 -214 -112t-108 -322h326v-82h-332v-65q0 -44 2 -64h330
v-82h-324q28 -188 124.5 -284.5t231.5 -96.5q45 0 86 8t72 19t62.5 32.5t51 37.5t45 45t37 44t34.5 46l41 -21q-19 -62 -54 -120.5t-92.5 -116.5t-147 -93.5t-198.5 -35.5q-236 0 -394 139.5t-190 396.5h-106v82h100v37q0 30 4 92h-104z" />
    <glyph glyph-name="trademark" unicode="&#x2122;" horiz-adv-x="1703" 
d="M866 1352l-73 22v17h233l211 -430h4l166 430h231v-17l-69 -22v-617l69 -20v-19h-317v19l74 20v443h-4q-11 -47 -25 -82l-149 -367h-58l-196 356q-11 20 -18.5 43.5t-8.5 36.5l-2 13h-4v-443l69 -20v-19h-206v19l73 20v617zM229 715l86 22v609h-120q-14 -37 -36.5 -78.5
t-38.5 -64.5l-16 -23l-24 6q12 75 12 143v62h623v-62q0 -30 2.5 -66t4.5 -57l3 -20l-25 -6q-57 82 -88 166h-123v-609l86 -22v-19h-346v19z" />
    <glyph glyph-name="partialdiff" unicode="&#x2202;" horiz-adv-x="1177" 
d="M1018 1065v-1085l-897 522z" />
    <glyph glyph-name="product" unicode="&#x220f;" horiz-adv-x="1193" 
d="M1151 88h-1085l563 897z" />
    <glyph glyph-name="summation" unicode="&#x2211;" horiz-adv-x="1177" 
d="M184 -20v1085l897 -563z" />
    <glyph glyph-name="minus" unicode="&#x2212;" 
d="M94 553v111h842v-111h-842z" />
    <glyph glyph-name="radical" unicode="&#x221a;" horiz-adv-x="2068" 
d="M567 780q198 0 322.5 -116.5t124.5 -284.5q0 -167 -124.5 -284.5t-322.5 -117.5q-197 0 -321.5 122.5t-124.5 308.5q0 140 39.5 252.5t105.5 187t156.5 124.5t189 71.5t205.5 21.5q41 0 123 -8v-2q-48 -6 -107 -26t-121 -53t-111 -85.5t-66 -112.5q10 2 32 2zM1546 780
q198 0 322.5 -116.5t124.5 -284.5q0 -167 -124.5 -284.5t-322.5 -117.5q-199 0 -322.5 122t-123.5 309q0 140 39.5 252.5t105 187t156 124.5t189 71.5t206.5 21.5q43 0 125 -8v-2q-38 -4 -83.5 -17.5t-97.5 -37.5t-97 -55t-81 -74.5t-49 -92.5q10 2 33 2z" />
    <glyph glyph-name="infinity" unicode="&#x221e;" horiz-adv-x="1646" 
d="M823 659q46 49 80 80.5t86 70t109.5 58t118.5 19.5q153 0 245 -89.5t92 -222.5q0 -136 -87 -224.5t-250 -88.5q-62 0 -119.5 19.5t-108.5 57.5t-85 70t-79 80q-47 -49 -80.5 -79.5t-86 -69.5t-110 -58.5t-118.5 -19.5q-163 0 -249.5 88.5t-86.5 224.5q0 133 91.5 222.5
t244.5 89.5q61 0 118 -19.5t109 -58t86 -70t80 -80.5zM430 360q48 0 95 19t91.5 55.5t73.5 66.5t68 74q-33 35 -45 48t-46 46t-56 48.5t-54.5 36t-63.5 29t-63 8.5q-101 0 -158 -58t-57 -158q0 -101 57 -158t158 -57zM1217 360q102 0 158.5 56.5t56.5 158.5
q0 101 -56.5 158.5t-158.5 57.5q-37 0 -78 -16t-68 -32.5t-69.5 -56t-56 -53.5t-54.5 -58q39 -44 68 -74t73 -66.5t91 -55.5t94 -19z" />
    <glyph glyph-name="integral" unicode="&#x222b;" horiz-adv-x="958" 
d="M535 694l243 -547h-96l-190 455l-195 -455h-94l241 547l-243 543h94l197 -451l190 451h94zM96 1327v64h776v-64h-776zM96 0v63h776v-63h-776z" />
    <glyph glyph-name="approxequal" unicode="&#x2248;" horiz-adv-x="1226" 
d="M1057 903l78 -69q-39 -67 -108 -109.5t-144 -42.5q-52 0 -115 21t-111.5 45.5t-108.5 45.5t-108 21q-148 0 -264 -141l-82 69q58 94 151 149.5t210 55.5q57 0 126 -21.5t120.5 -47t106 -47t87.5 -21.5q90 0 162 92zM1057 532l78 -69q-39 -67 -108 -109.5t-144 -42.5
q-52 0 -115 21t-111.5 45.5t-108.5 45.5t-108 21q-148 0 -264 -141l-82 70q58 94 151 149.5t210 55.5q73 0 161.5 -34.5t163.5 -69t115 -34.5q90 0 162 92z" />
    <glyph glyph-name="notequal" unicode="&#x2260;" 
d="M94 750v112h471l80 178h107l-80 -178h264v-112h-315l-109 -242h424v-111h-473l-72 -161h-108l71 161h-260v111h312l108 242h-420z" />
    <glyph glyph-name="lessequal" unicode="&#x2264;" 
d="M936 377v-121l-842 346v88l842 344v-123l-668 -264zM94 20v113h842v-113h-842z" />
    <glyph glyph-name="greaterequal" unicode="&#x2265;" 
d="M94 256v121l668 270l-668 264v123l842 -344v-88zM936 133v-113h-842v113h842z" />
    <glyph glyph-name="lozenge" unicode="&#x25ca;" horiz-adv-x="958" 
d="M535 694l243 -547h-96l-190 455l-195 -455h-94l241 547l-243 543h94l197 -451l190 451h94zM96 1327v64h776v-64h-776zM96 0v63h776v-63h-776z" />
    <glyph glyph-name="HT" horiz-adv-x="0" 
 />
    <glyph glyph-name="LF" horiz-adv-x="0" 
 />
    <glyph glyph-name="CR" horiz-adv-x="0" 
 />
    <glyph glyph-name="DLE" horiz-adv-x="0" 
 />
    <glyph glyph-name="DC1" horiz-adv-x="0" 
 />
    <glyph glyph-name="DC2" horiz-adv-x="0" 
 />
    <glyph glyph-name="DC3" horiz-adv-x="0" 
 />
    <glyph glyph-name="DC4" horiz-adv-x="0" 
 />
    <glyph glyph-name="RS" horiz-adv-x="0" 
 />
    <glyph glyph-name="US" horiz-adv-x="0" 
 />
    <glyph glyph-name="DEL" horiz-adv-x="0" 
 />
    <glyph glyph-name="apple" horiz-adv-x="2947" 
d="M1450 655q35 0 58.5 -27.5t23.5 -76.5q0 -64 -43.5 -101.5t-134.5 -37.5v-82l6 -66q-48 -16 -66 -16q-22 0 -22 16v154l-51 -6v-6q0 -31 -6.5 -58t-21.5 -51.5t-43.5 -38.5t-68.5 -14q-43 0 -63.5 21t-20.5 48q0 75 144 109v86q-34 -98 -94 -98q-58 0 -58 63v6
q-37 -67 -108 -67q-28 0 -44 16.5t-16 44.5v207l-59 -4v8q0 41 24 41h35l-6 61q51 17 66 17q22 0 22 -17v-59h96v-6q0 -43 -24 -43h-72v-176q0 -33 27 -33q19 0 39 15.5t20 37.5v51l-6 68q48 16 66 16q22 0 22 -18v-135q0 -31 14 -31t34.5 35.5t19.5 62.5l-4 70q48 16 63 16
q23 0 23 -18v-203l51 6v125l-6 74q48 16 65 16q23 0 23 -18v-82q34 98 96 98zM772 592v-100l6 -66q-48 -16 -63 -16q-23 0 -23 16v135q0 33 -16 33q-13 0 -33.5 -36t-19.5 -62l4 -70q-48 -16 -64 -16q-22 0 -22 16v135q0 33 -17 33q-14 0 -33.5 -35.5t-19.5 -62.5l6 -70
q-48 -16 -65 -16q-23 0 -23 16v141l-6 74q48 16 66 16q22 0 22 -18v-82q9 33 33 66.5t59 33.5q60 0 60 -65v-35q9 34 32.5 67t59.5 33q57 0 57 -65zM2478 680l-59 -4v8q0 41 24 41h35l-6 61q51 17 65 17q23 0 23 -17v-59h96v-6q0 -43 -24 -43h-72v-184q0 -31 33 -31
q22 0 78.5 11t95.5 11q36 0 81.5 -12t45.5 -37q0 -29 -19 -43t-36 -14q-4 0 -54.5 24.5t-91.5 24.5q-14 0 -65.5 -8t-90.5 -8q-40 0 -48 24.5t-9 132.5q-1 68 -2 111zM135 1083v17h2740v-17h-2740zM135 0v16h2740v-16h-2740zM2187 592v-100l4 -66q-48 -16 -63 -16
q-23 0 -23 16v137q0 31 -16 31q-14 0 -33.5 -35.5t-19.5 -62.5l6 -70q-48 -16 -66 -16q-22 0 -22 16v141l-6 74q48 16 65 16q23 0 23 -18v-82q34 100 92 100q59 0 59 -65zM301 528q-33 -12 -90 -12q1 -21 16 -33t37 -12q36 0 66 18q16 -11 16 -32q0 -8 -5.5 -17t-29 -19.5
t-61.5 -10.5q-57 0 -90 30t-33 78q0 56 38 97.5t103 41.5q40 0 62 -19.5t22 -43.5q0 -49 -51 -66zM1733 528q-33 -12 -91 -12q1 -21 16.5 -33t37.5 -12q35 0 65 18q17 -11 17 -32q0 -8 -6 -17t-29.5 -19.5t-61.5 -10.5q-57 0 -89.5 30t-32.5 78q0 56 38 97.5t103 41.5
q40 0 62 -19.5t22 -43.5q0 -49 -51 -66zM2394 528q-33 -12 -90 -12q1 -21 16 -33t37 -12q36 0 66 18q16 -11 16 -32q0 -8 -5.5 -17t-29 -19.5t-61.5 -10.5q-57 0 -90 30t-33 78q0 56 38 97.5t103 41.5q40 0 62 -19.5t22 -43.5q0 -49 -51 -66zM1354 449q92 12 92 104
q0 41 -27 41q-26 0 -45.5 -38t-19.5 -60v-47zM1866 512q22 0 37.5 -14t15.5 -35q0 -20 -15.5 -33.5t-37.5 -13.5t-36.5 13.5t-14.5 33.5q0 22 14.5 35.5t36.5 13.5zM1139 397q-84 -19 -84 -65q0 -14 8 -21.5t20 -7.5q51 0 56 94zM209 541q31 0 53.5 10.5t22.5 32.5
q0 26 -27 26q-20 0 -33 -20.5t-16 -48.5zM2302 541q31 0 53.5 10.5t22.5 32.5q0 26 -27 26q-20 0 -33 -20.5t-16 -48.5zM1640 541q31 0 53.5 10.5t22.5 32.5q0 26 -26 26q-20 0 -33.5 -20.5t-16.5 -48.5z" />
    <glyph glyph-name="zero.tab" horiz-adv-x="1138" 
d="M573 1329q237 0 373.5 -172.5t136.5 -494.5q0 -317 -141 -499.5t-377 -182.5q-237 0 -373.5 173t-136.5 488q0 320 141.5 504t376.5 184zM573 51q236 0 236 600q0 293 -60.5 452t-183.5 159q-235 0 -235 -611q0 -600 243 -600z" />
    <glyph glyph-name="one.tab" horiz-adv-x="1138" 
d="M455 90v1004h-66q-68 0 -119.5 14t-68.5 28l-17 13v31q13 1 35 3.5t85.5 13.5t121.5 26t130 43.5t124 62.5l41 -24v-1213l229 -59v-33h-719v33z" />
    <glyph glyph-name="two.tab" horiz-adv-x="1138" 
d="M135 963l-41 32q22 54 62.5 108.5t101 107t148.5 85.5t188 33q193 0 306.5 -101.5t113.5 -277.5q0 -52 -14 -104.5t-34.5 -97t-59 -94.5t-70 -86.5t-85.5 -83.5t-89 -75.5t-97 -72.5t-93 -65t-91 -61q-31 -20 -45 -30v-6h541q14 37 35.5 69.5t43 52.5t41 35t31.5 21l12 6
l35 -16q-22 -104 -22 -233v-109h-975l-15 74q57 45 101 81.5t119 102t131 122t120.5 131.5t106.5 140.5t70 138.5t28 136q0 105 -65.5 159t-169.5 54q-106 0 -205 -51.5t-164 -124.5z" />
    <glyph glyph-name="three.tab" horiz-adv-x="1138" 
d="M434 731q52 4 87.5 10t74.5 21t62.5 37.5t39 62t15.5 92.5q0 103 -60.5 153t-160.5 50q-97 0 -188 -43t-144 -104l-33 28q19 43 44.5 82t64.5 78.5t85.5 67.5t110 45.5t135.5 17.5q190 0 298 -87t108 -228q0 -114 -78.5 -185.5t-196.5 -93.5v-4q144 -22 242 -110t98 -232
q0 -191 -141.5 -300t-372.5 -109q-128 0 -251 33.5t-177 76.5q0 65 17.5 128t34 94t22.5 34h72q14 -145 63 -237q97 -50 209 -50q115 0 182.5 67t67.5 206q0 74 -20 129t-50 88t-79.5 56.5t-92.5 33.5t-106 20z" />
    <glyph glyph-name="four.tab" horiz-adv-x="1138" 
d="M45 350v39l682 920h201v-879h168v-80h-168v-272l155 -45v-33h-585v33l164 45v272h-617zM655 1049l-458 -619h465v619h-7z" />
    <glyph glyph-name="five.tab" horiz-adv-x="1138" 
d="M201 1309h753l-22 -209h-635l-14 -291q95 12 188 12q111 0 208 -23t176.5 -69t126 -124.5t46.5 -180.5q0 -215 -145 -329.5t-389 -114.5q-119 0 -226 30t-153 72q-5 67 9 132t30 97t22 35h74q2 -17 5.5 -45t19.5 -91.5t38 -100.5l11 -6q12 -6 16.5 -8t17.5 -8t22 -9
t25 -8t29.5 -7t31.5 -4t36 -2q120 0 189 74t69 229q0 66 -21.5 116.5t-56.5 82t-84.5 51.5t-99.5 27.5t-107 7.5q-121 0 -207 -22l-14 12z" />
    <glyph glyph-name="six.tab" horiz-adv-x="1138" 
d="M995 1159l-37 -43q-11 8 -32 19t-89 30t-139 19q-311 0 -348 -455q125 96 287 96q195 0 311.5 -107t116.5 -292q0 -137 -67 -240t-176 -154.5t-242 -51.5q-506 0 -506 595q0 354 151.5 554t425.5 200q76 0 139.5 -17.5t99.5 -41.5t61.5 -50.5t34.5 -42t9 -18.5zM575 721
q-144 0 -229 -115v-16q0 -199 25.5 -315.5t77.5 -166t139 -49.5q98 0 152.5 92.5t54.5 262.5q0 307 -220 307z" />
    <glyph glyph-name="seven.tab" horiz-adv-x="1138" 
d="M1047 1309v-150l-560 -1159h-204v55l628 1053h-614q-17 -52 -58 -103t-73 -77l-33 -25l-47 15q23 176 23 268v123h938z" />
    <glyph glyph-name="eight.tab" horiz-adv-x="1138" 
d="M80 317q0 102 80.5 189t226.5 119q-246 128 -246 358q0 162 122 254t302 92q187 0 296.5 -88t109.5 -215q0 -54 -22.5 -101.5t-60.5 -81t-79.5 -57t-87.5 -38.5l6 -3q175 -81 251.5 -173.5t76.5 -217.5q0 -161 -133 -267.5t-361 -106.5q-103 0 -187 18t-151.5 56.5
t-105 105t-37.5 157.5zM639 514l-182 78q-65 -47 -105.5 -125.5t-40.5 -169.5q0 -99 69 -169.5t185 -70.5q121 0 182.5 60t61.5 166q0 72 -41 132.5t-129 98.5zM377 1051q0 -145 153 -215l119 -56q48 44 76.5 104t28.5 156q0 38 -11 74t-33 68t-60 51.5t-87 19.5
q-96 0 -141 -55.5t-45 -146.5z" />
    <glyph glyph-name="nine.tab" horiz-adv-x="1138" 
d="M143 150l37 43q11 -8 32 -19t89 -30t139 -19q76 0 136 29t96.5 73.5t62 107.5t37 121t16.5 124q-123 -95 -286 -95q-195 0 -311.5 106.5t-116.5 291.5q0 137 68.5 240t179 154.5t243.5 51.5q251 0 375.5 -144.5t124.5 -449.5q0 -354 -152 -554.5t-426 -200.5
q-76 0 -139.5 17.5t-99.5 41.5t-61.5 50.5t-34.5 42t-9 18.5zM563 588q69 0 129.5 29.5t100.5 82.5v19q0 292 -54.5 412t-179.5 120q-100 0 -157.5 -91t-57.5 -265q0 -160 55.5 -233.5t163.5 -73.5z" />
    </font>
</defs>
</svg>
