<?xml version="1.0" standalone="no"?>
<!DOCTYPE svg PUBLIC "-//W3C//DTD SVG 1.1//EN" "http://www.w3.org/Graphics/SVG/1.1/DTD/svg11.dtd" >
<svg xmlns="http://www.w3.org/2000/svg" xmlns:xlink="http://www.w3.org/1999/xlink" version="1.1">
<metadata>
Created by FontForge 20170731 at Tue Feb  1 14:38:14 2022
 By Aleksey,,,
Copyright (c) 2010 by Eduardo Manso. All rights reserved.
</metadata>
<defs>
<font id="ABCDisplay-Rg" horiz-adv-x="1024" >
  <font-face 
    font-family="ABCDisplay Rg"
    font-weight="400"
    font-stretch="normal"
    units-per-em="2048"
    panose-1="0 0 0 0 0 0 0 0 0 0"
    ascent="1638"
    descent="-410"
    x-height="1038"
    cap-height="1391"
    bbox="-113 -373 2896 1851"
    underline-thickness="102"
    underline-position="-307"
    unicode-range="U+0020-FB02"
  />
<missing-glyph horiz-adv-x="927" 
d="M512 692l236 -565h-76l-197 485l-196 -485h-74l235 565l-241 565h75l201 -481l199 481h76zM94 1343v48h756v-48h-756zM94 0v47h756v-47h-756z" />
    <glyph glyph-name="fi" unicode="fi" horiz-adv-x="1316" 
d="M948 1227h-90q0 11 -1.5 33.5t-12 70t-27.5 78.5q-43 33 -135 33q-56 0 -99 -13.5t-70.5 -39.5t-46 -57t-27.5 -73.5t-12 -80.5t-3 -86v-64h348q75 0 156 8t124 16l44 7h24v-983l144 -45v-31h-500v31l143 45v878h-483v-878l166 -45v-31h-527v31l148 45v878h-145v45
l145 27v57q0 136 66.5 232.5t174 142t242.5 45.5q98 0 187 -19.5t133 -49.5q0 -54 -16.5 -105.5t-33.5 -76.5z" />
    <glyph glyph-name="fl" unicode="fl" horiz-adv-x="1320" 
d="M1124 1503v-1427l144 -45v-31h-500v31l143 45v1280q-93 86 -241 86q-63 0 -109 -20.5t-71.5 -52.5t-41 -80.5t-20 -93.5t-4.5 -103v-64h258v-74h-258v-878l166 -45v-31h-527v31l148 45v878h-145v45l145 27v57q0 138 63.5 234.5t167 141t236.5 44.5q143 0 250 -35l172 35
h24z" />
    <glyph glyph-name=".notdef" horiz-adv-x="927" 
d="M512 692l236 -565h-76l-197 485l-196 -485h-74l235 565l-241 565h75l201 -481l199 481h76zM94 1343v48h756v-48h-756zM94 0v47h756v-47h-756z" />
    <glyph glyph-name=".null" horiz-adv-x="0" 
 />
    <glyph glyph-name="nonmarkingreturn" horiz-adv-x="682" 
 />
    <glyph glyph-name="space" unicode=" " horiz-adv-x="428" 
 />
    <glyph glyph-name="exclam" unicode="!" horiz-adv-x="626" 
d="M326 373h-25l-125 940q9 45 49 71.5t90 26.5q48 0 86.5 -25.5t47.5 -72.5zM178 109q0 54 39 92.5t94 38.5t94 -38.5t39 -92.5q0 -53 -39 -91t-94 -38t-94 38t-39 91z" />
    <glyph glyph-name="quotedbl" unicode="&#x22;" horiz-adv-x="702" 
d="M211 932h-29l-94 381q0 42 32.5 70t76.5 28t77 -28t33 -70zM516 932h-29l-94 381q0 42 32.5 70t76.5 28t77 -28t33 -70z" />
    <glyph glyph-name="numbersign" unicode="#" horiz-adv-x="1216" 
d="M180 664v90h221l95 286h106l-94 -286h348l94 286h107l-94 -286h155v-90h-184l-90 -273h192v-90h-221l-98 -301h-107l99 301h-349l-98 -301h-106l98 301h-156v90h185l90 273h-193zM479 664l-90 -273h348l90 273h-348z" />
    <glyph glyph-name="dollar" unicode="$" horiz-adv-x="1179" 
d="M125 86v84q0 51 -7.5 111t-14.5 95l-7 34l51 24q6 -5 16 -14t37.5 -40t51 -64.5t48.5 -85.5t38 -105q110 -66 231 -66h15v533l-150 55q-118 42 -186 125.5t-68 190.5q0 88 32.5 157t89.5 111.5t127.5 66.5t154.5 29v127h71v-125q102 -2 227 -31.5t158 -33.5v-74
q0 -52 7 -106t13 -82l7 -29l-49 -23q-5 4 -13.5 11t-33 31.5t-46 52t-46.5 71.5t-41 90q-73 43 -183 49v-444l131 -47q162 -58 238 -148t76 -217q0 -75 -30 -146.5t-85 -129t-140.5 -96t-189.5 -45.5v-121h-71v119q-251 6 -459 106zM678 559l-23 8v-501q109 21 167.5 90.5
t58.5 183.5q0 146 -203 219zM393 1034q0 -130 160 -186l31 -12v415q-94 -13 -142.5 -71.5t-48.5 -145.5z" />
    <glyph glyph-name="percent" unicode="%" horiz-adv-x="1449" 
d="M362 700q107 0 107 291q0 295 -111 295q-108 0 -108 -295q0 -291 112 -291zM362 1329q121 0 191 -86.5t70 -247.5q0 -158 -72.5 -249t-192.5 -91q-122 0 -193 86.5t-71 243.5q0 161 73 252.5t195 91.5zM446 0h-94l660 1309h92zM1094 653q121 0 190.5 -86.5t69.5 -247.5
q0 -158 -72 -248.5t-192 -90.5q-122 0 -193.5 86t-71.5 243q0 161 73.5 252.5t195.5 91.5zM1094 25q106 0 106 290q0 295 -110 295q-109 0 -109 -295q0 -290 113 -290z" />
    <glyph glyph-name="ampersand" unicode="&#x26;" horiz-adv-x="1386" 
d="M1141 0q-88 48 -201 137q-164 -157 -403 -157q-61 0 -118.5 9t-121.5 34.5t-111.5 66t-78.5 109.5t-31 159q0 67 25 126.5t60 98.5t82 72.5t79.5 49.5t64.5 28q-125 194 -125 350q0 74 21.5 132t56 94t80.5 60t90.5 33t91.5 9q147 0 233.5 -74t86.5 -198
q0 -235 -336 -342q72 -109 174 -217q101 -112 231 -226q105 149 176 394l35 -5q-24 -250 -141 -448q243 -198 385 -264v-31h-305zM623 438q-140 154 -211 258q-117 -123 -117 -301q0 -64 19.5 -113.5t48.5 -77.5t68 -46t72.5 -23.5t67.5 -5.5q161 0 281 84
q-122 106 -229 225zM457 1135q0 -129 102 -297q182 122 182 307q0 92 -36.5 141t-102.5 49q-69 0 -107 -50.5t-38 -149.5z" />
    <glyph glyph-name="quotesingle" unicode="'" horiz-adv-x="395" 
d="M211 932h-29l-94 381q0 42 32.5 70t76.5 28t77 -28t33 -70z" />
    <glyph glyph-name="parenleft" unicode="(" horiz-adv-x="679" 
d="M598 -238l-33 -36q-75 62 -134 120t-121 141t-102.5 171t-66.5 205t-26 247q0 161 37 299t105.5 245.5t140 184.5t167.5 154l33 -37q-322 -318 -322 -846q0 -526 322 -848z" />
    <glyph glyph-name="parenright" unicode=")" horiz-adv-x="679" 
d="M115 -274l-33 36q321 321 321 848q0 529 -321 846l33 37q96 -77 167.5 -154t140 -184.5t105.5 -245.5t37 -299q0 -130 -26 -247t-66.5 -205t-102.5 -171t-121 -141t-134 -120z" />
    <glyph glyph-name="asterisk" unicode="*" horiz-adv-x="942" 
d="M655 698l-186 226q-23 -32 -95 -114.5t-93 -111.5l-31 19l100 280q-37 5 -136 26t-136 26v32l272 47l-98 269l31 16l186 -223l184 223l31 -16l-94 -269q34 -4 132.5 -24t137.5 -23v-32l-274 -52q16 -36 50 -140t50 -140zM403 1057q0 -31 19.5 -50.5t50.5 -19.5
q30 0 50 20t20 50q0 29 -20.5 49t-49.5 20q-31 0 -50.5 -20t-19.5 -49z" />
    <glyph glyph-name="plus" unicode="+" 
d="M98 559v100h365v359h100v-359h363v-100h-363v-369h-100v369h-365z" />
    <glyph glyph-name="comma" unicode="," horiz-adv-x="425" 
d="M80 119q0 54 37.5 86.5t97.5 32.5t94.5 -40.5t34.5 -93.5q0 -115 -93 -197.5t-233 -121.5l-8 20q84 63 119 113q28 41 35 80q-39 14 -61.5 46.5t-22.5 74.5z" />
    <glyph glyph-name="hyphen" unicode="-" horiz-adv-x="692" 
d="M104 502v112h484v-112h-484z" />
    <glyph glyph-name="period" unicode="." horiz-adv-x="425" 
d="M80 109q0 54 39 92.5t94 38.5t94 -38.5t39 -92.5q0 -53 -39 -91t-94 -38t-94 38t-39 91z" />
    <glyph glyph-name="slash" unicode="/" horiz-adv-x="811" 
d="M115 -342h-92l598 1825h92z" />
    <glyph glyph-name="zero" unicode="0" horiz-adv-x="1148" 
d="M580 1329q230 0 361.5 -172.5t131.5 -494.5q0 -316 -137 -499t-365 -183q-230 0 -362.5 172.5t-132.5 488.5q0 320 137.5 504t366.5 184zM580 43q260 0 260 608q0 296 -67 457.5t-202 161.5q-262 0 -262 -619q0 -293 67 -450.5t204 -157.5z" />
    <glyph glyph-name="one" unicode="1" horiz-adv-x="845" 
d="M322 88v1014h-64q-72 0 -123 12t-67 24l-15 13v29q11 1 31 3.5t78 13.5t112.5 26t123.5 43.5t122 62.5l27 -22v-1219l260 -57v-31h-739v31z" />
    <glyph glyph-name="two" unicode="2" horiz-adv-x="1075" 
d="M88 975l-35 26q21 53 60 106.5t97 105t142 84t178 32.5q192 0 304 -99.5t112 -275.5q0 -51 -13.5 -103t-34.5 -97.5t-57 -94.5t-68.5 -87t-82.5 -84t-86.5 -76.5t-92 -72t-88 -64t-85.5 -59.5t-74 -52v-6h553q21 58 60 104.5t67 63.5l29 18l33 -16q-21 -103 -21 -228
v-100h-950l-15 72q66 52 101 80t119 99.5t136 123.5t123 131t112.5 144t71.5 140.5t30 141.5q0 113 -69 171t-181 58q-110 0 -208 -54t-167 -132z" />
    <glyph glyph-name="three" unicode="3" 
d="M387 727q52 4 89.5 10.5t77.5 22.5t64 40t40 65t16 96q0 111 -64 163t-168 52q-99 0 -191 -47.5t-145 -114.5l-28 28q22 54 56.5 101.5t84.5 91t122.5 69t156.5 25.5q185 0 290 -87t105 -228q0 -117 -73.5 -187.5t-180.5 -91.5v-4q61 -11 116 -36.5t101.5 -67t74 -104.5
t27.5 -140q0 -188 -139.5 -295.5t-367.5 -107.5q-121 0 -238 32.5t-166 73.5q0 64 15 126.5t29 93t18 32.5h69q19 -146 70 -238q99 -51 213 -51q121 0 192.5 69.5t71.5 211.5q0 75 -20.5 131t-51.5 90t-81 57.5t-95 34t-108 19.5z" />
    <glyph glyph-name="four" unicode="4" horiz-adv-x="1089" 
d="M35 360v31l684 918h164v-879h172v-70h-172v-284l159 -45v-31h-548v31l163 45v284h-622zM649 1069l-475 -639h483v639h-8z" />
    <glyph glyph-name="five" unicode="5" horiz-adv-x="1050" 
d="M147 647l27 662h741l-20 -185h-627l-14 -315q83 12 174 12q108 0 204.5 -22.5t177 -68.5t128 -124.5t47.5 -181.5q0 -215 -141 -329.5t-379 -114.5q-113 0 -220 28.5t-151 67.5q-7 66 3.5 131t23 97t16.5 34h72q2 -17 6 -44.5t22 -91.5t42 -102l14 -7q14 -7 20.5 -10
t23 -9.5t30 -10t32 -8t39 -6.5t41.5 -2q130 0 204.5 77.5t74.5 237.5q0 69 -23 122.5t-60 86t-89.5 53t-105 28t-113.5 7.5q-117 0 -209 -20z" />
    <glyph glyph-name="six" unicode="6" horiz-adv-x="1105" 
d="M963 1174l-33 -41q-12 8 -33.5 19t-90.5 29.5t-140 18.5q-68 0 -123 -21.5t-91.5 -61t-63.5 -86.5t-43 -106t-24 -110.5t-12 -109.5q127 114 309 114q189 0 301.5 -106t112.5 -291q0 -135 -64 -237t-169.5 -153.5t-233.5 -51.5q-489 0 -489 595q0 354 146.5 554
t410.5 200q73 0 134 -16t96 -38t59 -46t32.5 -38t8.5 -17zM563 725q-78 0 -147 -39t-109 -106q0 -197 29 -314.5t86.5 -167t150.5 -49.5q108 0 169 95t61 270q0 311 -240 311z" />
    <glyph glyph-name="seven" unicode="7" horiz-adv-x="1007" 
d="M981 1309v-144l-563 -1165h-176v49l624 1079h-630q-17 -51 -56.5 -102t-70.5 -76l-31 -26l-45 12q20 168 20 260v113h928z" />
    <glyph glyph-name="eight" unicode="8" horiz-adv-x="1067" 
d="M63 315q0 104 82.5 194.5t235.5 125.5q-248 126 -248 352q0 108 57 187t148.5 117t204.5 38q177 0 283 -87t106 -212q0 -104 -76 -182t-176 -111l22 -10q163 -79 234.5 -168.5t71.5 -210.5q0 -157 -130 -262.5t-352 -105.5q-79 0 -146.5 10.5t-127 35.5t-100.5 63
t-65 95.5t-24 130.5zM612 530l-174 78q-76 -48 -125 -131t-49 -178q0 -104 71 -177t193 -73q133 0 198 61.5t65 172.5q0 168 -179 247zM338 1051q0 -79 41 -134.5t127 -95.5l112 -55q56 47 91.5 110t35.5 164q0 40 -11 77.5t-33.5 71.5t-64 54.5t-95.5 20.5
q-106 0 -154.5 -58.5t-48.5 -154.5z" />
    <glyph glyph-name="nine" unicode="9" horiz-adv-x="1105" 
d="M143 135l33 41q12 -8 33.5 -19t90.5 -29.5t140 -18.5q81 0 143.5 32t99.5 81t62.5 118t35.5 130.5t14 131.5q-126 -113 -308 -113q-189 0 -301 106.5t-112 291.5q0 135 65.5 237t172 153.5t235.5 51.5q241 0 362 -146t121 -450q0 -354 -146.5 -553.5t-410.5 -199.5
q-73 0 -134 16t-96 38t-59 46t-32.5 38t-8.5 17zM543 584q79 0 148 38.5t108 106.5q-1 290 -61.5 410.5t-196.5 120.5q-112 0 -175 -93t-63 -272q0 -311 240 -311z" />
    <glyph glyph-name="colon" unicode=":" horiz-adv-x="425" 
d="M80 926q0 55 38.5 93t94.5 38t94.5 -38t38.5 -93q0 -53 -39 -90t-94 -37t-94 37t-39 90zM80 109q0 54 39 92.5t94 38.5t94 -38.5t39 -92.5q0 -53 -39 -91t-94 -38t-94 38t-39 91z" />
    <glyph glyph-name="semicolon" unicode=";" horiz-adv-x="425" 
d="M80 119q0 54 37.5 86.5t97.5 32.5t94.5 -40.5t34.5 -93.5q0 -115 -93 -197.5t-233 -121.5l-8 20q84 63 119 113q28 41 35 80q-39 14 -61.5 46.5t-22.5 74.5zM78 926q0 56 38 93.5t93 37.5q57 0 95 -37.5t38 -93.5q0 -53 -38 -90t-95 -37q-55 0 -93 37t-38 90z" />
    <glyph glyph-name="less" unicode="&#x3c;" 
d="M98 567v84l828 379v-117l-690 -303l690 -307v-117z" />
    <glyph glyph-name="equal" unicode="=" 
d="M98 750v100h828v-100h-828zM98 389v100h828v-100h-828z" />
    <glyph glyph-name="greater" unicode="&#x3e;" 
d="M926 651v-84l-828 -381v117l690 307l-690 303v117z" />
    <glyph glyph-name="question" unicode="?" horiz-adv-x="1015" 
d="M88 1257q53 59 151.5 106.5t239.5 47.5q200 0 321.5 -94t121.5 -264q0 -86 -28.5 -158.5t-73.5 -122t-107 -87.5t-123.5 -59.5t-128.5 -33.5l-37 -219h-25l-73 362q138 22 210 56q177 84 177 278q0 74 -23 128.5t-62 84t-84.5 43.5t-97.5 14q-62 0 -122 -24
q-29 -52 -56.5 -117t-39.5 -104l-13 -39h-84q-6 10 -15 28.5t-21 72t-7 101.5zM281 109q0 54 38 92.5t93 38.5q56 0 94.5 -38t38.5 -93q0 -53 -38.5 -91t-94.5 -38q-55 0 -93 38t-38 91z" />
    <glyph glyph-name="at" unicode="@" horiz-adv-x="1828" 
d="M1356 1024l-115 -643q-7 -39 -9.5 -61t-1 -52t16.5 -44.5t43 -14.5q57 0 110.5 32t98 93.5t71.5 164t27 232.5q0 96 -22.5 184.5t-69 165.5t-113 134t-161.5 89.5t-207 32.5q-218 0 -387 -108.5t-261.5 -299.5t-92.5 -433q0 -125 29 -227.5t74.5 -169.5t108.5 -117.5
t123.5 -78t129 -44t114 -21t88.5 -4.5q208 0 379 53l8 -34q-186 -91 -407 -91q-40 0 -82 3t-102 12.5t-116 25.5t-119 44.5t-117 66.5t-104 94.5t-85.5 124.5t-56.5 161.5t-21 201.5q0 195 65 364.5t181.5 290.5t284.5 190.5t366 69.5q178 0 319.5 -56t229.5 -151t134 -216
t46 -257q0 -126 -31.5 -229t-81 -168t-113 -109.5t-125.5 -63t-122 -18.5q-56 0 -98 12.5t-66 31.5t-38 46.5t-18 53t-3 55.5l2 45l-8 2q-109 -217 -279 -217q-115 0 -181.5 78t-66.5 215q0 160 64 292t171 205.5t232 73.5q124 0 211 -75l113 73zM840 289q81 0 153 103.5
t97 246.5l40 240q-52 94 -145 94q-73 0 -132 -70.5t-89.5 -181t-30.5 -234.5q0 -198 107 -198z" />
    <glyph glyph-name="A" unicode="A" horiz-adv-x="1421" 
d="M674 1391l80 20l538 -1337l138 -45v-29h-553v29l159 45l-145 387h-510l-148 -387l160 -45v-29h-401v29l143 45zM864 530l-221 584h-6l-227 -584h454z" />
    <glyph glyph-name="B" unicode="B" horiz-adv-x="1366" 
d="M707 0h-621v31l160 45v1239l-160 45v31h555q125 0 224 -18.5t175.5 -57.5t118 -105.5t41.5 -156.5q0 -257 -340 -314v-6q408 -53 408 -354q0 -97 -42.5 -170.5t-119 -118.5t-177 -67.5t-222.5 -22.5zM702 696h-229v-624h225q162 0 245 79.5t83 235.5q0 147 -83 228
t-241 81zM639 1319h-166v-553h162q160 0 244 70.5t84 195.5q0 141 -82 214t-242 73z" />
    <glyph glyph-name="C" unicode="C" horiz-adv-x="1263" 
d="M1223 338q-15 -47 -39 -93t-66 -95t-94.5 -86t-128.5 -60.5t-164 -23.5q-138 0 -255 45.5t-204 132t-135.5 219.5t-48.5 299q0 172 53.5 312.5t147 232t218.5 141t269 49.5q102 0 223.5 -23.5t149.5 -25.5v-84q0 -56 6.5 -116.5t13.5 -93.5l7 -32l-48 -18q-5 4 -14 11
t-33.5 32t-47 54t-48.5 77t-43 100q-91 43 -201 43q-185 0 -297 -168t-112 -465q0 -143 34 -256t93.5 -184.5t138 -109t170.5 -37.5q69 0 128.5 15t101 36.5t81 56.5t63 63t52.5 68z" />
    <glyph glyph-name="D" unicode="D" horiz-adv-x="1490" 
d="M246 1315l-160 45v31h637q203 0 357 -77.5t242.5 -233.5t88.5 -373q0 -161 -53 -295t-145.5 -223.5t-218.5 -139t-271 -49.5h-637v31l160 45v1239zM721 1315h-248v-1235h252q207 0 324.5 163t117.5 449q0 288 -120.5 455.5t-325.5 167.5z" />
    <glyph glyph-name="E" unicode="E" horiz-adv-x="1298" 
d="M246 1315l-160 45v31h1069v-70q0 -64 5.5 -135.5t11.5 -110.5l6 -39l-41 -12q-11 12 -28 35t-58 98.5t-66 155.5h-512v-570l467 13l41 112h43v-319h-39l-45 113l-467 12v-596h559q21 75 59 150.5t65 113.5l28 39l41 -10q-23 -156 -23 -287v-84h-1116v31l160 45v1239z" />
    <glyph glyph-name="F" unicode="F" horiz-adv-x="1241" 
d="M246 1315l-160 45v31h1085v-70q0 -64 5.5 -135.5t10.5 -110.5l5 -39l-39 -12q-11 12 -28.5 35t-59 98.5t-66.5 155.5h-526v-604l483 14l41 145h43v-385h-39l-45 146l-483 10v-563l180 -45v-31h-567v31l160 45v1239z" />
    <glyph glyph-name="G" unicode="G" horiz-adv-x="1384" 
d="M795 1411q83 0 235 -24.5t191 -24.5v-111q0 -38 6.5 -88.5t12.5 -82.5l7 -31l-47 -23q-5 3 -14 9t-33.5 28.5t-47 49.5t-48.5 73t-43 98q-109 51 -238 51q-208 0 -329 -175.5t-121 -479.5q0 -144 35.5 -262.5t96.5 -197t143 -121t175 -42.5q111 0 203 39v447l-117 45v28
h438v-28l-96 -45v-443l58 -14v-29q-205 -77 -486 -77q-143 0 -268 43.5t-221 127t-151.5 216.5t-55.5 299q0 178 56.5 321.5t154.5 235t227 140t277 48.5z" />
    <glyph glyph-name="H" unicode="H" horiz-adv-x="1568" 
d="M1096 1315l-160 45v31h547v-31l-160 -45v-1239l160 -45v-31h-547v31l160 45v622h-623v-622l160 -45v-31h-547v31l160 45v1239l-160 45v31h547v-31l-160 -45v-537h623v537z" />
    <glyph glyph-name="I" unicode="I" horiz-adv-x="718" 
d="M246 1315l-160 45v31h547v-31l-160 -45v-1239l160 -45v-31h-547v31l160 45v1239z" />
    <glyph glyph-name="J" unicode="J" horiz-adv-x="704" 
d="M475 1315v-1440q-97 -105 -224.5 -171t-275.5 -66q-41 0 -84 6q-8 63 9 141.5t30 93.5h105q8 -106 39 -172q117 44 174 133v1475l-160 45v31h539v-31z" />
    <glyph glyph-name="K" unicode="K" horiz-adv-x="1427" 
d="M246 1315l-160 45v31h547v-31l-160 -45v-578h152l477 580l-148 45v29h412v-29l-145 -45l-430 -506l356 -516q67 -96 137 -162t106 -84l37 -18v-31h-288q-95 44 -197 193l-311 466h-158v-583l160 -45v-31h-547v31l160 45v1239z" />
    <glyph glyph-name="L" unicode="L" horiz-adv-x="1198" 
d="M246 1315l-160 45v31h547v-31l-160 -45v-1237h498q13 50 33.5 100.5t40.5 86t38.5 64t29.5 42.5l11 14l39 -10q-20 -174 -20 -301v-74h-1057v31l160 45v1239z" />
    <glyph glyph-name="M" unicode="M" horiz-adv-x="1724" 
d="M246 1317l-160 45v29h352l430 -1014h6l416 1014h348v-29l-159 -45v-1243l159 -45v-29h-538v29l157 45v999h-8q-37 -108 -53 -147l-356 -860h-70l-381 854q-13 28 -24.5 66t-16.5 62l-6 25h-8v-999l160 -45v-29h-408v29l160 45v1243z" />
    <glyph glyph-name="N" unicode="N" horiz-adv-x="1497" 
d="M1184 1317l-158 45v29h406v-29l-160 -45v-1317h-84l-854 1137v-1063q4 -1 46 -13t78.5 -22t35.5 -10v-29h-408v29l160 45v1243l-160 45v29h340l758 -1018v944z" />
    <glyph glyph-name="O" unicode="O" horiz-adv-x="1423" 
d="M717 1411q283 0 454.5 -186.5t171.5 -522.5q0 -166 -48 -302.5t-132.5 -228t-200.5 -141.5t-253 -50q-284 0 -456.5 185t-172.5 517q0 168 48 306t133 230.5t202 142.5t254 50zM698 1343q-178 0 -275 -173t-97 -478q0 -296 110 -468.5t291 -172.5q177 0 274 170t97 471
q0 299 -110.5 475t-289.5 176z" />
    <glyph glyph-name="P" unicode="P" horiz-adv-x="1314" 
d="M246 1315l-160 45v31h588q126 0 230 -26.5t183.5 -79t123.5 -138.5t44 -199q0 -102 -40.5 -188.5t-108 -143.5t-154.5 -88.5t-182 -31.5q-90 0 -182 32v31h94q161 2 246.5 99.5t85.5 281.5q0 181 -88 277t-254 96h-199v-1237l182 -45v-31h-569v31l160 45v1239z" />
    <glyph glyph-name="Q" unicode="Q" horiz-adv-x="1423" 
d="M893 -4l94 -86q2 -2 44.5 -40t60 -52t56 -42t73.5 -44t71 -25v-29h-301q-46 18 -86 44.5t-63 48t-60 59.5l-145 154q-256 22 -406.5 204.5t-150.5 493.5q0 168 48 306t133 230.5t202 142.5t254 50q283 0 454.5 -186.5t171.5 -522.5q0 -273 -122.5 -456.5t-327.5 -243.5
v-6zM707 1343q-179 0 -280 -173.5t-101 -477.5q0 -297 106.5 -469t286.5 -172q178 0 278.5 170.5t100.5 470.5t-106.5 475.5t-284.5 175.5z" />
    <glyph glyph-name="R" unicode="R" horiz-adv-x="1382" 
d="M1374 31v-31h-297q-106 45 -174 199l-184 417h-248v-540l162 -45v-31h-547v31l160 45v1239l-160 45v31h592q118 0 214 -22t169 -66.5t113 -118t40 -170.5q0 -129 -73 -219.5t-199 -128.5v-13l148 -311q37 -79 79.5 -140t77.5 -91.5t64.5 -50t46.5 -24.5zM471 1313v-625
h342q166 98 166 320q0 152 -79.5 228.5t-231.5 76.5h-197z" />
    <glyph glyph-name="S" unicode="S" horiz-adv-x="1163" 
d="M88 86v84q0 54 -7 117t-15 99l-7 36l52 24q6 -5 16 -14.5t37.5 -41t51 -66.5t48 -89t37.5 -110q118 -66 236 -66q148 0 228.5 76t80.5 209q0 179 -207 256l-244 88q-129 47 -200.5 134t-71.5 208q0 97 40 172t108 119.5t152.5 67t180.5 22.5q110 0 241 -31t159 -34v-74
q0 -56 6.5 -114t13.5 -88l6 -30l-47 -20q-5 4 -14 11.5t-33.5 33.5t-46.5 54.5t-47 74.5t-41 94q-84 49 -199 49q-132 0 -203 -63t-71 -162q0 -159 186 -225l234 -84q166 -59 243.5 -158.5t77.5 -243.5q0 -80 -34 -155t-96 -134.5t-158 -95.5t-212 -36q-258 0 -481 106z" />
    <glyph glyph-name="T" unicode="T" horiz-adv-x="1284" 
d="M227 1313q-26 -80 -64.5 -151.5t-63.5 -103.5l-25 -32l-39 10q20 134 20 277v78h1174v-78q0 -64 5 -133t10 -106l5 -38l-39 -10q-11 12 -28 34.5t-58 97.5t-67 155h-301v-1237l176 -45v-31h-580v31l176 45v1237h-301z" />
    <glyph glyph-name="U" unicode="U" horiz-adv-x="1499" 
d="M1178 416v899l-160 45v31h420v-31l-160 -45v-1016q-118 -319 -516 -319q-198 0 -343.5 73.5t-201.5 218.5v1043l-160 45v31h547v-31l-160 -45v-916q0 -149 90 -235t244 -86q174 0 287 93t113 245z" />
    <glyph glyph-name="V" unicode="V" horiz-adv-x="1417" 
d="M760 -20h-78l-553 1337l-137 45v29h555v-29l-162 -45l406 -1024h6l385 1024l-158 45v29h401v-29l-143 -45z" />
    <glyph glyph-name="W" unicode="W" horiz-adv-x="2113" 
d="M666 -20h-78l-459 1337l-137 45v29h555v-29l-162 -45l311 -1012h4l306 924l-37 104l82 58h151l352 -1086h2l326 1012l-160 45v29h400v-29l-146 -45l-450 -1337h-78l-395 1114z" />
    <glyph glyph-name="X" unicode="X" horiz-adv-x="1417" 
d="M860 0v29l146 41l-353 518l-387 -514l131 -45v-29h-385v29l135 45l461 581l-444 666l-129 41v29h534v-29l-139 -39l332 -496l368 490l-129 45v29h373v-29l-135 -45l-432 -555l465 -696l133 -37v-29h-545z" />
    <glyph glyph-name="Y" unicode="Y" horiz-adv-x="1372" 
d="M389 31l176 45v516l-444 725l-129 45v29h545v-29l-154 -45l369 -633h4l391 633l-152 45v29h385v-29l-135 -45l-452 -713v-528l176 -45v-31h-580v31z" />
    <glyph glyph-name="Z" unicode="Z" horiz-adv-x="1255" 
d="M1122 1391v-68l-780 -1245h639q22 75 61 146t67 104l28 34l49 -12q-21 -127 -21 -272v-78h-1095v63l786 1250h-537q-9 -45 -28.5 -91t-41 -79.5t-41.5 -61t-33 -41.5l-13 -14l-47 14q20 134 20 275v76h987z" />
    <glyph glyph-name="bracketleft" unicode="[" horiz-adv-x="657" 
d="M578 -254h-431v1737h431v-74h-273v-1591h273v-72z" />
    <glyph glyph-name="backslash" unicode="\" horiz-adv-x="811" 
d="M788 -342h-92l-598 1825h92z" />
    <glyph glyph-name="bracketright" unicode="]" horiz-adv-x="657" 
d="M510 -254h-430v72h272v1591h-272v74h430v-1737z" />
    <glyph glyph-name="asciicircum" unicode="^" horiz-adv-x="868" 
d="M770 750h-106l-234 526l-227 -526h-105l267 641h133z" />
    <glyph glyph-name="underscore" unicode="_" horiz-adv-x="1032" 
d="M0 -291v90h1044v-90h-1044z" />
    <glyph glyph-name="grave" unicode="`" horiz-adv-x="593" 
d="M215 1499h23l239 -301l-26 -27l-349 199z" />
    <glyph glyph-name="a" unicode="a" horiz-adv-x="1091" 
d="M526 1059q167 0 263 -84t96 -266q0 -49 -3 -201t-3 -340q0 -80 65 -80q34 0 67.5 35.5t47.5 73.5l35 -19q-37 -105 -91.5 -149.5t-134.5 -44.5t-129 37t-63 104q-130 -145 -293 -145q-59 0 -109 14t-92 43.5t-66 82t-24 122.5v123q145 170 584 258v106q0 133 -48 197.5
t-153 64.5q-71 0 -143 -39q-23 -37 -38.5 -97t-19.5 -101l-4 -41h-90q-7 8 -17.5 23.5t-31 64.5t-25.5 100q61 64 170.5 111t249.5 47zM457 92q119 0 215 84v2q0 117 4 383q-245 -56 -379 -160v-122q0 -93 44.5 -140t115.5 -47z" />
    <glyph glyph-name="b" unicode="b" horiz-adv-x="1171" 
d="M375 1503v-594q49 60 129.5 105t177.5 45q195 0 304.5 -133t109.5 -389q0 -249 -134 -403t-348 -154q-172 0 -297 73l-129 -76l-26 21v1384l-146 25v33l334 63h25zM588 938q-117 0 -213 -90v-684q102 -115 227 -115q145 0 206.5 119.5t61.5 353.5q0 117 -19.5 199
t-58 129t-88 67.5t-116.5 20.5z" />
    <glyph glyph-name="c" unicode="c" horiz-adv-x="978" 
d="M850 723h-107q-4 137 -45 227q-57 37 -120 37q-142 0 -215.5 -118.5t-73.5 -342.5q0 -112 25 -196.5t69 -133t97 -71.5t116 -23q87 0 159 35t156 103l31 -25q-53 -102 -149.5 -168.5t-235.5 -66.5q-224 0 -353.5 136t-129.5 394q0 125 42.5 230t114 174t164 107t193.5 38
q99 0 189 -33.5t141 -85.5q-3 -60 -20 -114t-32 -78z" />
    <glyph glyph-name="d" unicode="d" horiz-adv-x="1206" 
d="M1010 1503v-1427l143 -39v-37h-326l-20 129h-10q-48 -59 -130 -104t-178 -45q-195 0 -305 131.5t-110 386.5q0 249 134.5 405t348.5 156q128 0 240 -45v368l-146 25v33l332 63h27zM584 100q116 0 213 90v687q-104 112 -228 112q-144 0 -206 -122t-62 -357
q0 -117 20 -198.5t58.5 -127t88 -65t116.5 -19.5z" />
    <glyph glyph-name="e" unicode="e" horiz-adv-x="1003" 
d="M899 238l27 -25q-139 -233 -385 -233q-218 0 -342.5 139.5t-124.5 404.5q0 119 36 220t98 169.5t146 107t178 38.5q194 0 298 -124t104 -327v-82l-649 6v-6q0 -222 80 -325t213 -103q107 0 177 35.5t144 104.5zM524 995q-103 0 -166.5 -108.5t-72.5 -296.5l444 18v39
q0 161 -53.5 254.5t-151.5 93.5z" />
    <glyph glyph-name="f" unicode="f" horiz-adv-x="710" 
d="M756 1249h-78q-10 122 -41 185q-18 10 -53 10q-42 0 -72.5 -19.5t-47 -48.5t-26 -74t-12 -84.5t-2.5 -91.5v-98h258v-74h-258v-878l166 -45v-31h-527v31l148 45v878h-145v45l145 27v80q0 193 109 295t274 102q65 0 125 -14.5t90 -36.5q0 -53 -13.5 -103.5t-26.5 -74.5z
" />
    <glyph glyph-name="g" unicode="g" horiz-adv-x="1101" 
d="M1032 1081l23 -127q-78 -23 -201 -8l-2 -6q98 -102 98 -219q0 -159 -116.5 -250.5t-296.5 -91.5q-94 0 -154.5 -19.5t-60.5 -62.5q0 -57 114 -68l240 -22q290 -29 379 -135v-103q0 -92 -68.5 -168.5t-186.5 -119.5t-261 -43q-244 0 -365 66.5t-121 170.5q0 55 53.5 105
t141.5 83q-111 54 -111 168q0 152 211 179q-105 36 -164 113.5t-59 189.5q0 161 115 253.5t297 92.5q109 0 194 -33q81 3 156 16.5t110 25.5zM543 434q101 0 148.5 75.5t47.5 207.5q0 131 -54 210t-155 79q-102 0 -149 -77.5t-47 -211.5q0 -129 53.5 -206t155.5 -77zM655 6
l-272 29q-23 2 -70 10q-35 -31 -56 -68t-21 -69q0 -94 76.5 -151.5t224.5 -57.5q149 0 232 55t83 156v43q-50 39 -197 53z" />
    <glyph glyph-name="h" unicode="h" horiz-adv-x="1249" 
d="M399 1501h27v-596q58 66 146 110t180 44q134 0 221.5 -85.5t87.5 -260.5v-637l143 -45v-31h-485v31l131 45v659q0 101 -48.5 152t-139.5 51q-61 0 -124 -24t-112 -66v-772l129 -45v-31h-485v31l143 45v1304l-145 25v33z" />
    <glyph glyph-name="i" unicode="i" horiz-adv-x="618" 
d="M178 1362q0 53 36.5 89t92.5 36q57 0 93 -35.5t36 -89.5q0 -52 -36 -87.5t-93 -35.5q-56 0 -92.5 35.5t-36.5 87.5zM422 1059v-983l143 -45v-31h-499v31l143 45v842l-146 24v33l334 84h25z" />
    <glyph glyph-name="j" unicode="j" horiz-adv-x="595" 
d="M217 -205v1118l-164 29v33l353 84h24v-1211q-67 -89 -188 -149.5t-250 -60.5q-60 0 -101 10q-4 53 5.5 106t21.5 80l12 27h90q9 -107 52 -166q105 40 145 100zM186 1362q0 53 36.5 89t92.5 36q58 0 94.5 -36t36.5 -89q0 -52 -36.5 -87.5t-94.5 -35.5q-56 0 -92.5 35.5
t-36.5 87.5z" />
    <glyph glyph-name="k" unicode="k" horiz-adv-x="1150" 
d="M414 1501v-895h100l354 359l-102 45v28h336v-28l-119 -47l-317 -301l221 -332q85 -128 146.5 -197t129.5 -102v-31h-256q-58 34 -98 75t-82 109l-223 355h-90v-463l123 -45v-31h-480v31l144 45v1304l-146 25v33l334 63h25z" />
    <glyph glyph-name="l" unicode="l" horiz-adv-x="610" 
d="M414 1503v-1427l143 -45v-31h-500v31l144 45v1306l-146 25v33l334 63h25z" />
    <glyph glyph-name="m" unicode="m" horiz-adv-x="1859" 
d="M391 1059h23v-152h8q60 66 144.5 109t176.5 43q89 0 161.5 -43t109.5 -129h4q62 69 152 120.5t198 51.5q131 0 216 -85.5t85 -260.5v-637l143 -45v-31h-485v31l131 45v659q0 101 -46.5 152t-133.5 51q-130 0 -248 -102q17 -63 17 -123v-637l120 -45v-31h-448v31l115 45
v659q0 203 -181 203q-58 0 -121.5 -24t-109.5 -66v-772l129 -45v-31h-485v31l143 45v842l-146 24v33z" />
    <glyph glyph-name="n" unicode="n" horiz-adv-x="1247" 
d="M391 1059h23v-152h8q60 66 146.5 109t179.5 43q134 0 221.5 -85.5t87.5 -260.5v-637l143 -45v-31h-485v31l131 45v659q0 101 -48.5 152t-140.5 51q-59 0 -122.5 -24t-112.5 -66v-772l129 -45v-31h-485v31l143 45v842l-146 24v33z" />
    <glyph glyph-name="o" unicode="o" horiz-adv-x="1126" 
d="M567 1059q218 0 352 -141.5t134 -393.5q0 -126 -37.5 -229t-103.5 -171.5t-156 -106t-195 -37.5q-218 0 -352.5 140.5t-134.5 391.5q0 252 138.5 399.5t354.5 147.5zM582 45q241 0 241 471q0 229 -74.5 353t-201.5 124q-244 0 -244 -477q0 -226 75 -348.5t204 -122.5z
" />
    <glyph glyph-name="p" unicode="p" horiz-adv-x="1196" 
d="M391 1059v-152h6q49 61 130.5 106.5t179.5 45.5q195 0 304 -131t109 -387q0 -249 -133.5 -405t-347.5 -156q-136 0 -240 45v-291q7 -3 85 -23t87 -22v-31h-530v31l147 45v1184l-149 24v33l317 84h35zM612 938q-117 0 -213 -90v-686q97 -113 228 -113q144 0 206 122
t62 357q0 117 -20 198.5t-58.5 127t-88 65t-116.5 19.5z" />
    <glyph glyph-name="q" unicode="q" horiz-adv-x="1171" 
d="M1010 -266l147 -45v-31h-532v31l172 45v395q-48 -59 -130 -104t-178 -45q-195 0 -305 133t-110 389q0 248 134.5 402.5t348.5 154.5q175 0 297 -76l129 78l27 -6v-1321zM584 100q116 0 213 90v684q-102 115 -228 115q-145 0 -206.5 -119.5t-61.5 -353.5q0 -117 20 -199
t58.5 -129t88 -67.5t116.5 -20.5z" />
    <glyph glyph-name="r" unicode="r" horiz-adv-x="884" 
d="M803 760h-101q-16 133 -55 188q-21 -5 -42.5 -14t-39.5 -19t-36.5 -23t-31.5 -23.5t-26.5 -23.5t-21 -20t-15.5 -15l-8 -9v-725q7 -3 85 -23t87 -22v-31h-532v31l147 45v842l-150 24v33l332 84h23v-189h8q59 90 145.5 139.5t190.5 49.5q49 0 90 -8q0 -77 -12 -150
t-24 -107z" />
    <glyph glyph-name="s" unicode="s" horiz-adv-x="940" 
d="M96 61v62q0 44 -5.5 88.5t-10.5 66.5l-6 23l49 18q4 -3 10.5 -9t25 -27t35 -45t36.5 -64t34 -84q99 -45 199 -45q97 0 150 53.5t53 151.5q0 123 -138 168l-190 63q-104 35 -159.5 107.5t-55.5 169.5q0 80 33.5 140.5t89 94t117.5 50t129 16.5q89 0 190 -23.5t129 -23.5
v-72q0 -35 5 -69.5t10 -52.5l5 -17l-34 -25q-4 2 -11.5 7t-28.5 22.5t-39 37.5t-39.5 53.5t-35.5 70.5q-70 28 -154 28q-81 0 -131.5 -44.5t-50.5 -123.5q0 -121 131 -165l180 -60q127 -42 185.5 -117.5t58.5 -167.5q0 -158 -108.5 -247.5t-282.5 -89.5q-196 0 -375 81z" />
    <glyph glyph-name="t" unicode="t" horiz-adv-x="759" 
d="M45 967v45l150 26l143 297h63v-297h258v-71h-258v-836q58 -61 152 -61q88 0 164 59l26 -35q-126 -114 -282 -114q-168 0 -271 118v869h-145z" />
    <glyph glyph-name="u" unicode="u" horiz-adv-x="1224" 
d="M395 1059v-862q18 -37 64 -67t121 -30q127 0 231 90v728l-149 24v33l327 84h35v-983l143 -45v-31h-319l-21 137h-10q-142 -157 -328 -157q-225 0 -305 204v734l-139 24v33l328 84h22z" />
    <glyph glyph-name="v" unicode="v" horiz-adv-x="1075" 
d="M590 -20h-74l-434 985l-111 45v28h478v-30l-130 -43l293 -719h9l272 719l-119 45v28h326v-28l-117 -45z" />
    <glyph glyph-name="w" unicode="w" horiz-adv-x="1658" 
d="M545 -20h-80l-375 985l-110 45v28h471v-30l-125 -43l241 -717h2l211 649l-37 96l37 45h185l278 -790h2l223 717l-114 45v28h321v-28l-119 -45l-331 -985h-82l-316 798z" />
    <glyph glyph-name="x" unicode="x" horiz-adv-x="1153" 
d="M655 0v31l115 39l-260 358l-289 -354l111 -45v-29h-326v29l115 47l350 413l-340 478l-100 43v28h467v-28l-107 -39l236 -332l270 326l-102 45v28h315v-28l-115 -47l-331 -377l362 -520l107 -37v-29h-478z" />
    <glyph glyph-name="y" unicode="y" horiz-adv-x="1075" 
d="M268 -276q165 0 271 268l-457 973l-111 45v28h478v-30l-130 -43l316 -719h4l256 719l-121 45v28h326v-28l-119 -45l-344 -947q-42 -115 -84.5 -189t-94 -116.5t-108 -58.5t-135.5 -16q-78 0 -119 20q-9 67 0 117.5t24 80.5l15 29h92q6 -100 41 -161z" />
    <glyph glyph-name="z" unicode="z" horiz-adv-x="1038" 
d="M928 1038v-63l-621 -901h488q24 69 63.5 137t67.5 101l28 34l33 -10q-20 -133 -20 -266v-70h-914v63l617 902h-377q-10 -38 -30.5 -76t-42 -65t-41.5 -48.5t-33 -31.5l-13 -11l-33 15q23 106 23 221v69h805z" />
    <glyph glyph-name="braceleft" unicode="{" horiz-adv-x="737" 
d="M240 68l20 297q5 71 0 110.5t-28.5 66t-62 36.5t-110.5 16v43q72 6 110.5 16t62 36.5t28.5 66t0 110.5l-20 297q-12 176 68 258t245 82q33 0 111 -8v-43l-43 -4q-45 -4 -72 -11.5t-54.5 -26.5t-38.5 -56t-7 -94l20 -281q6 -81 -2 -138.5t-26.5 -94.5t-56 -61.5t-79 -38
t-108.5 -25.5v-11q67 -12 108.5 -25.5t79 -38t56 -61.5t26.5 -94.5t2 -138.5l-20 -281q-4 -56 6.5 -93t35 -56t51.5 -27.5t68 -11.5l54 -4v-43q-78 -8 -111 -8q-165 0 -245 82t-68 258z" />
    <glyph glyph-name="bar" unicode="|" horiz-adv-x="487" 
d="M291 -342h-90v1825h90v-1825z" />
    <glyph glyph-name="braceright" unicode="}" horiz-adv-x="737" 
d="M477 365l21 -297q12 -176 -68 -258t-246 -82q-32 0 -110 8v43l53 4q41 3 68 11.5t52 27.5t35.5 56t6.5 93l-21 281q-6 45 -2.5 83t6 68t14 54.5t22 43.5t30.5 34t38.5 26t46.5 20.5t55 15.5t63 13v11q-36 7 -63 13t-55 15.5t-46.5 20.5t-38.5 26t-30.5 34t-22 43.5
t-14 54.5t-6 68t2.5 83l21 281q4 57 -7 94t-38.5 56t-54.5 26.5t-72 11.5l-43 4v43q78 8 110 8q166 0 246 -82t68 -258l-21 -297q-5 -71 0 -110.5t28.5 -66t62 -36.5t110.5 -16v-43q-72 -6 -110.5 -16t-62 -36.5t-28.5 -66t0 -110.5z" />
    <glyph glyph-name="asciitilde" unicode="~" horiz-adv-x="1232" 
d="M1061 727l74 -63q-39 -65 -108 -107.5t-142 -42.5q-52 0 -115 21t-111.5 45.5t-108.5 45.5t-108 21q-80 0 -148.5 -40t-117.5 -103l-78 65q58 91 151 145t208 54q73 0 161.5 -34t163.5 -67.5t115 -33.5q97 0 164 94z" />
    <glyph glyph-name="uni00A0" unicode="&#xa0;" horiz-adv-x="428" 
 />
    <glyph glyph-name="exclamdown" unicode="&#xa1;" horiz-adv-x="626" 
d="M303 666h25l123 -940q-9 -47 -47.5 -73t-86.5 -26q-50 0 -90 27t-49 72zM180 930q0 53 39 91t94 38t94 -38t39 -91q0 -54 -39 -92.5t-94 -38.5t-94 38.5t-39 92.5z" />
    <glyph glyph-name="cent" unicode="&#xa2;" horiz-adv-x="1060" 
d="M621 -20h-72v129q-209 14 -328 149.5t-119 380.5q0 113 35.5 210.5t97 165.5t142.5 111.5t172 55.5v147h72v-141h4q101 0 189.5 -33t141.5 -86q-3 -61 -20 -115t-33 -78l-16 -24h-105q-6 137 -47 227q-60 35 -114 37v-885h12q87 0 159 35t156 103l31 -25
q-51 -98 -141 -163t-217 -72v-129zM317 653q0 -181 63.5 -282t168.5 -129v866q-114 -25 -173 -141.5t-59 -313.5z" />
    <glyph glyph-name="sterling" unicode="&#xa3;" horiz-adv-x="1232" 
d="M100 0v31l150 39q37 85 37 362v180h-185v72h185v168q0 224 133 350.5t356 126.5q92 0 207.5 -25.5t130.5 -27.5v-98q0 -33 6 -75t12 -67l5 -26l-39 -21q-5 3 -14 9t-33.5 27.5t-45.5 46.5t-44.5 66.5t-36.5 86.5q-76 39 -146 39q-266 0 -266 -402v-178h289v-72h-289v-153
q0 -134 -34.5 -228.5t-119.5 -152.5h605q9 55 28.5 106.5t40 86t40 61t32.5 38.5l12 13l39 -8q-20 -172 -20 -264v-111h-1035z" />
    <glyph glyph-name="yen" unicode="&#xa5;" horiz-adv-x="1402" 
d="M231 612v72h301l-342 551l-129 45v29h547v-29l-153 -45l317 -551h4l359 551l-152 45v29h385v-29l-135 -45l-367 -551h328v-72h-373v-147h373v-72h-373v-317l176 -45v-31h-579v31l176 45v317h-363v72h363v123l-16 24h-347z" />
    <glyph glyph-name="brokenbar" unicode="&#xa6;" horiz-adv-x="493" 
d="M297 -252h-100v725h100v-725zM297 758h-100v725h100v-725z" />
    <glyph glyph-name="section" unicode="&#xa7;" horiz-adv-x="1183" 
d="M1085 500q0 -83 -43 -153t-120 -118q118 -92 118 -241q0 -72 -25.5 -131t-69 -99t-103 -67.5t-125 -40t-137.5 -12.5q-108 0 -235.5 31t-158.5 34v98q0 38 -6.5 89t-13.5 82l-6 32l49 12q5 -2 13 -7t30.5 -25t42 -45.5t42 -71t36.5 -98.5q94 -58 215 -58q120 0 186 56.5
t66 140.5q0 139 -162 196l-236 80q-321 109 -321 367q0 80 43 149t119 117q-117 96 -117 246q0 88 39 156.5t105 109.5t146.5 61.5t170.5 20.5q110 0 237 -31t156 -34v-99q0 -37 7 -88t13 -83l7 -32l-48 -12q-5 2 -13 7.5t-30.5 26t-42.5 46t-42.5 70.5t-36.5 98
q-93 57 -216 57q-120 0 -185.5 -55t-65.5 -141q0 -140 161 -197l236 -80q321 -107 321 -364zM688 655l-278 95q-29 9 -74 32q-29 -69 -29 -147q0 -169 213 -242l277 -94q27 -10 71 -33q31 67 31 148q0 83 -48.5 143t-162.5 98z" />
    <glyph glyph-name="dieresis" unicode="&#xa8;" horiz-adv-x="686" 
d="M190 1227q-43 0 -73.5 30.5t-30.5 73.5t30.5 74t73.5 31q44 0 74.5 -31t30.5 -74t-30.5 -73.5t-74.5 -30.5zM496 1227q-43 0 -74 30.5t-31 73.5t31 74t74 31t73.5 -31t30.5 -74t-30.5 -73.5t-73.5 -30.5z" />
    <glyph glyph-name="copyright" unicode="&#xa9;" horiz-adv-x="1579" 
d="M80 694q0 146 56.5 278.5t152.5 228.5t228.5 153t277.5 57t278 -57t228.5 -153t152.5 -228.5t57 -278.5q0 -194 -96 -358.5t-261 -260t-359 -95.5q-146 0 -278 56.5t-228 152t-152.5 227.5t-56.5 278zM795 1360q-178 0 -329.5 -89.5t-240 -243t-88.5 -333.5t88.5 -333
t240 -241.5t329.5 -88.5q134 0 256.5 52.5t211 141t141 211.5t52.5 258q0 181 -88.5 334t-241 242.5t-331.5 89.5zM1141 453q-14 -42 -39 -82t-64.5 -78.5t-100.5 -62t-134 -23.5q-200 0 -321.5 122t-121.5 341q0 229 134 357t344 128q65 0 147 -14t107 -15v-84
q0 -30 4 -67.5t8 -59.5l4 -22l-37 -12l-9 6t-22.5 19t-31.5 34t-33.5 52.5t-32.5 72.5q-60 29 -115 29q-115 0 -183.5 -106t-68.5 -298q0 -175 74 -271.5t195 -96.5q54 0 96.5 12t75 37.5t50 44.5t42.5 53z" />
    <glyph glyph-name="ordfeminine" unicode="&#xaa;" horiz-adv-x="681" 
d="M315 1329q203 0 203 -186q0 -30 -2 -104t-2 -154q0 -39 29 -39q27 0 59 41l12 -19q-48 -80 -133 -80q-87 0 -106 68q-66 -70 -148 -70q-63 0 -105 33t-42 103v63q73 84 293 129v35q0 70 -20.5 102.5t-67.5 32.5q-38 0 -66 -16q-7 -18 -11.5 -48.5t-5.5 -51.5l-1 -21h-76
q-29 37 -35 98q30 32 92.5 58t132.5 26zM287 862q42 0 84 33q0 115 2 176q-87 -21 -150 -61v-82q0 -33 18 -49.5t46 -16.5z" />
    <glyph glyph-name="guillemotleft" unicode="&#xab;" horiz-adv-x="993" 
d="M74 487v68l352 393h76l-232 -424l232 -430h-76zM483 487v68l353 393h75l-231 -424l231 -430h-75z" />
    <glyph glyph-name="logicalnot" unicode="&#xac;" 
d="M98 567v101h828v-469h-101v368h-727z" />
    <glyph glyph-name="registered" unicode="&#xae;" horiz-adv-x="1243" 
d="M80 862q0 149 73.5 275.5t199.5 200t274 73.5q149 0 276 -73.5t201 -200t74 -275.5t-74 -275t-201 -199t-276 -73q-148 0 -274 73t-199.5 199t-73.5 275zM627 1364q-134 0 -247.5 -67.5t-180 -183t-66.5 -251.5t66.5 -251.5t180 -183t247.5 -67.5q135 0 249 67.5t180 183
t66 251.5t-66 251.5t-180 183t-249 67.5zM942 582v-13h-162q-50 18 -78 88l-71 172h-76v-229l61 -18v-13h-264v13l64 18v543l-64 18v13h285q110 0 175 -41.5t65 -126.5q0 -110 -113 -152v-2l59 -131q26 -57 56 -92t47 -41zM612 1137h-57v-275h115q65 39 65 139
q0 136 -123 136z" />
    <glyph glyph-name="macron" unicode="&#xaf;" horiz-adv-x="698" 
d="M115 1284v82h479v-82h-479z" />
    <glyph glyph-name="degree" unicode="&#xb0;" horiz-adv-x="661" 
d="M80 1071q0 106 75 182t181 76t182 -76t76 -182t-76 -181t-182 -75t-181 75t-75 181zM162 1071q0 -78 52.5 -135t123.5 -57t122.5 57t51.5 135t-52 135.5t-122 57.5q-71 0 -123.5 -57.5t-52.5 -135.5z" />
    <glyph glyph-name="plusminus" unicode="&#xb1;" 
d="M98 586v98h365v338h98v-338h365v-98h-365v-338h-98v338h-365zM98 16v101h828v-101h-828z" />
    <glyph glyph-name="twosuperior" unicode="&#xb2;" horiz-adv-x="733" 
d="M172 1135l-31 18q13 29 31.5 56.5t47.5 56t71.5 46t91.5 17.5q99 0 156 -50.5t57 -139.5q0 -39 -13 -76t-41.5 -72.5t-55 -63t-71 -61t-70.5 -51.5t-73 -49v-4h252q13 25 33.5 47.5t34.5 32.5l14 10l25 -6q-10 -68 -10 -121v-61h-498l-10 38q4 3 36.5 30.5t45.5 39.5
t46 41.5t50 48.5t45 49t43 53.5t31.5 52t24 55.5t7.5 52q0 49 -28 73t-74 24q-51 0 -95.5 -23t-72.5 -63z" />
    <glyph glyph-name="threesuperior" unicode="&#xb3;" horiz-adv-x="700" 
d="M285 1028q64 7 97.5 31.5t33.5 87.5q0 45 -30.5 68.5t-76.5 23.5q-44 0 -87.5 -23.5t-71.5 -54.5l-25 10q25 65 84 111.5t147 46.5q97 0 152 -43t55 -112q0 -106 -147 -142v-2q35 -7 65 -18.5t57 -31t42.5 -50.5t15.5 -70q0 -96 -74.5 -150.5t-189.5 -54.5
q-68 0 -129.5 16.5t-89.5 39.5q0 33 10.5 65.5t20.5 48.5t14 17h37q8 -76 28 -121q40 -23 99 -23q55 0 87.5 36t32.5 110q0 43 -13.5 72t-40.5 45t-52.5 23.5t-63.5 12.5z" />
    <glyph glyph-name="acute" unicode="&#xb4;" horiz-adv-x="593" 
d="M342 1499h23l112 -129l-346 -199l-29 27z" />
    <glyph glyph-name="mu" unicode="&#xb5;" horiz-adv-x="1224" 
d="M395 1059v-862q18 -37 64 -67t121 -30q127 0 231 90v728l-149 24v33l327 84h35v-983l143 -45v-31h-319l-21 137h-10q-142 -157 -328 -157q-69 0 -131 20l45 -342h-219v1260l-139 24v33l328 84h22z" />
    <glyph glyph-name="mu" unicode="&#x3bc;" horiz-adv-x="1224" 
d="M395 1059v-862q18 -37 64 -67t121 -30q127 0 231 90v728l-149 24v33l327 84h35v-983l143 -45v-31h-319l-21 137h-10q-142 -157 -328 -157q-69 0 -131 20l45 -342h-219v1260l-139 24v33l328 84h22z" />
    <glyph glyph-name="paragraph" unicode="&#xb6;" horiz-adv-x="1138" 
d="M621 1391v-1045q-139 -1 -248 40t-176.5 113.5t-102.5 167.5t-35 205q0 225 156.5 372t405.5 147zM889 1315v-1202q0 -113 -30.5 -199.5t-78 -137.5t-115 -83.5t-131 -43.5t-135.5 -11q-87 0 -133 18q-10 54 6 112.5t37 90.5l21 32h69q0 -14 0.5 -35.5t11 -70.5t31.5 -76
q26 1 54.5 6.5t76 29t83 61.5t62.5 113.5t27 176.5v1295h308v-31z" />
    <glyph glyph-name="periodcentered" unicode="&#xb7;" horiz-adv-x="458" 
d="M96 614q0 54 39 92.5t94 38.5t94 -38.5t39 -92.5q0 -53 -39 -91t-94 -38t-94 38t-39 91z" />
    <glyph glyph-name="cedilla" unicode="&#xb8;" horiz-adv-x="563" 
d="M367 31l-74 -117q186 -19 186 -147q0 -60 -57.5 -94.5t-157.5 -34.5q-102 0 -172 55l14 31q65 -29 134 -29q96 0 96 65q0 75 -133 105v8l98 158h66z" />
    <glyph glyph-name="onesuperior" unicode="&#xb9;" horiz-adv-x="620" 
d="M250 711v499h-29q-36 0 -63 6t-36 12l-9 7v18q18 2 47 6t98.5 23.5t114.5 46.5l26 -12v-606l117 -29v-18h-379v18z" />
    <glyph glyph-name="ordmasculine" unicode="&#xba;" horiz-adv-x="673" 
d="M346 1329q118 0 189 -70.5t71 -197.5t-74 -201t-190 -74q-119 0 -190.5 71t-71.5 198t74 200.5t192 73.5zM350 834q53 0 77 55t24 168q0 227 -113 227q-54 0 -78 -55.5t-24 -171.5q0 -223 114 -223z" />
    <glyph glyph-name="guillemotright" unicode="&#xbb;" horiz-adv-x="993" 
d="M510 555v-68l-352 -393h-76l231 430l-231 424h76zM920 555v-68l-353 -393h-75l231 430l-231 424h75z" />
    <glyph glyph-name="onequarter" unicode="&#xbc;" horiz-adv-x="1318" 
d="M666 162v26l321 465h129v-448h82v-43h-82v-123l76 -23v-16h-307v16l82 23v123h-301zM963 530l-224 -325h228v325h-4zM250 711v499h-29q-36 0 -63 6t-36 12l-9 7v18q18 2 47 6t98.5 23.5t114.5 46.5l26 -12v-606l117 -29v-18h-379v18zM276 0h-88l951 1309h86z" />
    <glyph glyph-name="onehalf" unicode="&#xbd;" horiz-adv-x="1400" 
d="M840 471l-31 18q13 29 31.5 57t47.5 56.5t71.5 46t91.5 17.5q99 0 156 -51t57 -140q0 -39 -13 -76t-41.5 -72.5t-55 -63t-71 -61t-70.5 -51.5t-73 -49v-4h252q13 25 33.5 47.5t34.5 32.5l14 10l24 -6q-10 -68 -10 -121v-61h-497l-11 39q5 4 36.5 30.5t45.5 39t46.5 41.5
t50.5 48.5t45 49t43 54t32 52.5t23.5 55t7.5 52q0 49 -28 72.5t-74 23.5q-51 0 -95.5 -23t-72.5 -63zM250 711v499h-29q-36 0 -63 6t-36 12l-9 7v18q18 2 47 6t98.5 23.5t114.5 46.5l26 -12v-606l117 -29v-18h-379v18zM276 0h-88l951 1309h86z" />
    <glyph glyph-name="threequarters" unicode="&#xbe;" horiz-adv-x="1296" 
d="M633 162v26l321 465h127v-448h82v-43h-82v-123l76 -23v-16h-307v16l82 23v123h-299zM928 530l-223 -325h227v325h-4zM285 1028q64 7 97.5 31.5t33.5 87.5q0 45 -30.5 68.5t-76.5 23.5q-44 0 -87.5 -23.5t-71.5 -54.5l-25 10q25 65 84 111.5t147 46.5q97 0 152 -43
t55 -112q0 -106 -147 -142v-2q35 -7 65 -18.5t57 -31t42.5 -50.5t15.5 -70q0 -96 -74.5 -150.5t-189.5 -54.5q-68 0 -129.5 16.5t-89.5 39.5q0 33 10.5 65.5t20.5 48.5t14 17h37q8 -76 28 -121q40 -23 99 -23q55 0 87.5 36t32.5 110q0 43 -13.5 72t-40.5 45t-52.5 23.5
t-63.5 12.5zM254 0h-88l950 1309h86z" />
    <glyph glyph-name="questiondown" unicode="&#xbf;" horiz-adv-x="1015" 
d="M928 -219q-53 -59 -151.5 -106.5t-239.5 -47.5q-200 0 -321.5 94.5t-121.5 264.5q0 86 28.5 158t73.5 121.5t107 87.5t123.5 59.5t128.5 33.5l37 220h24l74 -363q-138 -22 -210 -56q-177 -84 -177 -278q0 -59 15.5 -106.5t40.5 -77.5t60 -50t72 -28t78 -8q61 0 123 25
q29 52 56.5 117t39.5 104l13 39h84q6 -11 15 -29.5t21 -72t7 -101.5zM735 930q0 -54 -38 -92.5t-93 -38.5q-56 0 -94.5 38.5t-38.5 92.5q0 53 38.5 91t94.5 38q55 0 93 -38t38 -91z" />
    <glyph glyph-name="Agrave" unicode="&#xc0;" horiz-adv-x="1421" 
d="M674 1391l80 20l538 -1337l138 -45v-29h-553v29l159 45l-145 387h-510l-148 -387l160 -45v-29h-401v29l143 45zM864 530l-221 584h-6l-227 -584h454zM528 1851h23l240 -301l-27 -26l-348 198z" />
    <glyph glyph-name="Aacute" unicode="&#xc1;" horiz-adv-x="1421" 
d="M674 1391l80 20l538 -1337l138 -45v-29h-553v29l159 45l-145 387h-510l-148 -387l160 -45v-29h-401v29l143 45zM864 530l-221 584h-6l-227 -584h454zM874 1851h23l113 -129l-346 -198l-29 26z" />
    <glyph glyph-name="Acircumflex" unicode="&#xc2;" horiz-adv-x="1421" 
d="M674 1391l80 20l538 -1337l138 -45v-29h-553v29l159 45l-145 387h-510l-148 -387l160 -45v-29h-401v29l143 45zM864 530l-221 584h-6l-227 -584h454zM684 1823h61l242 -275l-20 -22l-252 135l-252 -135l-21 22z" />
    <glyph glyph-name="Atilde" unicode="&#xc3;" horiz-adv-x="1421" 
d="M674 1391l80 20l538 -1337l138 -45v-29h-553v29l159 45l-145 387h-510l-148 -387l160 -45v-29h-401v29l143 45zM864 530l-221 584h-6l-227 -584h454zM1036 1823q-3 -63 -19 -114t-55.5 -89.5t-97.5 -38.5q-67 0 -163.5 44t-159.5 44q-70 -26 -142 -125l-20 10
q6 43 18.5 82t35.5 78.5t62.5 63.5t90.5 24q69 0 164 -41.5t143 -42.5q39 14 71 46.5t50 66.5z" />
    <glyph glyph-name="Adieresis" unicode="&#xc4;" horiz-adv-x="1421" 
d="M674 1391l80 20l538 -1337l138 -45v-29h-553v29l159 45l-145 387h-510l-148 -387l160 -45v-29h-401v29l143 45zM864 530l-221 584h-6l-227 -584h454zM557 1579q-43 0 -73.5 30.5t-30.5 73.5t30.5 74t73.5 31q44 0 74.5 -31t30.5 -74t-30.5 -73.5t-74.5 -30.5zM862 1579
q-43 0 -73.5 30.5t-30.5 73.5t30.5 74t73.5 31t74 -31t31 -74t-31 -73.5t-74 -30.5z" />
    <glyph glyph-name="Aring" unicode="&#xc5;" horiz-adv-x="1421" 
d="M674 1391l80 20l538 -1337l138 -45v-29h-553v29l159 45l-145 387h-510l-148 -387l160 -45v-29h-401v29l143 45zM864 530l-221 584h-6l-227 -584h454zM719 1845q93 0 148 -43t55 -123q0 -81 -57.5 -126.5t-149.5 -45.5q-93 0 -149 44t-56 122q0 81 58.5 126.5t150.5 45.5z
M723 1548q80 0 80 127q0 65 -24 98t-68 33q-82 0 -82 -131q0 -61 24.5 -94t69.5 -33z" />
    <glyph glyph-name="AE" unicode="&#xc6;" horiz-adv-x="1990" 
d="M129 74l752 1317h966v-70q0 -64 5.5 -135.5t11.5 -110.5l6 -39l-41 -12q-11 12 -28 35t-58 98.5t-66 155.5h-512v-570l467 13l41 112h43v-319h-39l-45 113l-467 12v-596h559q21 75 59 150.5t65 113.5l28 39l41 -10q-23 -156 -23 -287v-84h-1116v31l160 45v385h-481
l-215 -387l159 -45v-29h-401v29zM938 1307h-6l-434 -777h440v777z" />
    <glyph glyph-name="Ccedilla" unicode="&#xc7;" horiz-adv-x="1263" 
d="M1223 338q-15 -47 -39 -93t-66 -95t-94.5 -86t-128.5 -60.5t-164 -23.5q-27 0 -41 2l-41 -68q187 -20 187 -147q0 -60 -57.5 -94.5t-157.5 -34.5q-102 0 -172 55l14 31q65 -29 133 -29q96 0 96 65q0 75 -133 105v8l70 113q-244 32 -392.5 211.5t-148.5 478.5
q0 172 53.5 312.5t147 232t218.5 141t269 49.5q102 0 223.5 -23.5t149.5 -25.5v-84q0 -56 6.5 -116.5t13.5 -93.5l7 -32l-48 -18q-5 4 -14 11t-33.5 32t-47 54t-48.5 77t-43 100q-91 43 -201 43q-185 0 -297 -168t-112 -465q0 -143 34 -256t93.5 -184.5t138 -109
t170.5 -37.5q69 0 128.5 15t101 36.5t81 56.5t63 63t52.5 68z" />
    <glyph glyph-name="Egrave" unicode="&#xc8;" horiz-adv-x="1298" 
d="M246 1315l-160 45v31h1069v-70q0 -64 5.5 -135.5t11.5 -110.5l6 -39l-41 -12q-11 12 -28 35t-58 98.5t-66 155.5h-512v-570l467 13l41 112h43v-319h-39l-45 113l-467 12v-596h559q21 75 59 150.5t65 113.5l28 39l41 -10q-23 -156 -23 -287v-84h-1116v31l160 45v1239z
M510 1851h22l240 -301l-27 -26l-348 198z" />
    <glyph glyph-name="Eacute" unicode="&#xc9;" horiz-adv-x="1298" 
d="M838 1851h22l113 -129l-346 -198l-29 26zM246 1315l-160 45v31h1069v-70q0 -64 5.5 -135.5t11.5 -110.5l6 -39l-41 -12q-11 12 -28 35t-58 98.5t-66 155.5h-512v-570l467 13l41 112h43v-319h-39l-45 113l-467 12v-596h559q21 75 59 150.5t65 113.5l28 39l41 -10
q-23 -156 -23 -287v-84h-1116v31l160 45v1239z" />
    <glyph glyph-name="Ecircumflex" unicode="&#xca;" horiz-adv-x="1298" 
d="M629 1823h61l242 -275l-21 -22l-252 135l-251 -135l-21 22zM246 1315l-160 45v31h1069v-70q0 -64 5.5 -135.5t11.5 -110.5l6 -39l-41 -12q-11 12 -28 35t-58 98.5t-66 155.5h-512v-570l467 13l41 112h43v-319h-39l-45 113l-467 12v-596h559q21 75 59 150.5t65 113.5
l28 39l41 -10q-23 -156 -23 -287v-84h-1116v31l160 45v1239z" />
    <glyph glyph-name="Edieresis" unicode="&#xcb;" horiz-adv-x="1298" 
d="M500 1579q-43 0 -74 30.5t-31 73.5t31 74t74 31q44 0 74 -31t30 -74t-30 -73.5t-74 -30.5zM805 1579q-43 0 -74 30.5t-31 73.5t31 74t74 31t73.5 -31t30.5 -74t-30.5 -73.5t-73.5 -30.5zM246 1315l-160 45v31h1069v-70q0 -64 5.5 -135.5t11.5 -110.5l6 -39l-41 -12
q-11 12 -28 35t-58 98.5t-66 155.5h-512v-570l467 13l41 112h43v-319h-39l-45 113l-467 12v-596h559q21 75 59 150.5t65 113.5l28 39l41 -10q-23 -156 -23 -287v-84h-1116v31l160 45v1239z" />
    <glyph glyph-name="Igrave" unicode="&#xcc;" horiz-adv-x="718" 
d="M246 1315l-160 45v31h547v-31l-160 -45v-1239l160 -45v-31h-547v31l160 45v1239zM199 1851h22l240 -301l-27 -26l-348 198z" />
    <glyph glyph-name="Iacute" unicode="&#xcd;" horiz-adv-x="718" 
d="M246 1315l-160 45v31h547v-31l-160 -45v-1239l160 -45v-31h-547v31l160 45v1239zM522 1851h23l112 -129l-346 -198l-28 26z" />
    <glyph glyph-name="Icircumflex" unicode="&#xce;" horiz-adv-x="718" 
d="M246 1315l-160 45v31h547v-31l-160 -45v-1239l160 -45v-31h-547v31l160 45v1239zM338 1823h61l242 -275l-20 -22l-252 135l-252 -135l-21 22z" />
    <glyph glyph-name="Idieresis" unicode="&#xcf;" horiz-adv-x="718" 
d="M246 1315l-160 45v31h547v-31l-160 -45v-1239l160 -45v-31h-547v31l160 45v1239zM211 1579q-43 0 -74 30.5t-31 73.5t31 74t74 31q44 0 74 -31t30 -74t-30 -73.5t-74 -30.5zM516 1579q-43 0 -73.5 30.5t-30.5 73.5t30.5 74t73.5 31t74 -31t31 -74t-31 -73.5t-74 -30.5z
" />
    <glyph glyph-name="Eth" unicode="&#xd0;" horiz-adv-x="1490" 
d="M86 702v76h160v537l-160 45v31h637q203 0 357 -77.5t242.5 -233.5t88.5 -373q0 -161 -53 -295t-145.5 -223.5t-218.5 -139t-271 -49.5h-637v31l160 45v626h-160zM721 1315h-248v-537h295v-76h-295v-622h252q207 0 324.5 163t117.5 449q0 288 -120.5 455.5t-325.5 167.5z
" />
    <glyph glyph-name="Ntilde" unicode="&#xd1;" horiz-adv-x="1497" 
d="M1184 1317l-158 45v29h406v-29l-160 -45v-1317h-84l-854 1137v-1063q4 -1 46 -13t78.5 -22t35.5 -10v-29h-408v29l160 45v1243l-160 45v29h340l758 -1018v944zM1073 1798q-3 -63 -19 -114t-55.5 -89.5t-97.5 -38.5q-67 0 -163.5 44.5t-159.5 44.5q-70 -26 -142 -125
l-20 10q6 43 18.5 82t35.5 78.5t62.5 63.5t90.5 24q69 0 164 -41.5t143 -42.5q39 14 71 46t50 66z" />
    <glyph glyph-name="Ograve" unicode="&#xd2;" horiz-adv-x="1423" 
d="M717 1411q283 0 454.5 -186.5t171.5 -522.5q0 -166 -48 -302.5t-132.5 -228t-200.5 -141.5t-253 -50q-284 0 -456.5 185t-172.5 517q0 168 48 306t133 230.5t202 142.5t254 50zM698 1343q-178 0 -275 -173t-97 -478q0 -296 110 -468.5t291 -172.5q177 0 274 170t97 471
q0 299 -110.5 475t-289.5 176zM526 1851h23l239 -301l-26 -26l-348 198z" />
    <glyph glyph-name="Oacute" unicode="&#xd3;" horiz-adv-x="1423" 
d="M868 1851h23l113 -129l-347 -198l-28 26zM717 1411q283 0 454.5 -186.5t171.5 -522.5q0 -166 -48 -302.5t-132.5 -228t-200.5 -141.5t-253 -50q-284 0 -456.5 185t-172.5 517q0 168 48 306t133 230.5t202 142.5t254 50zM698 1343q-178 0 -275 -173t-97 -478
q0 -296 110 -468.5t291 -172.5q177 0 274 170t97 471q0 299 -110.5 475t-289.5 176z" />
    <glyph glyph-name="Ocircumflex" unicode="&#xd4;" horiz-adv-x="1423" 
d="M696 1823h62l241 -275l-20 -22l-252 135l-252 -135l-20 22zM717 1411q283 0 454.5 -186.5t171.5 -522.5q0 -166 -48 -302.5t-132.5 -228t-200.5 -141.5t-253 -50q-284 0 -456.5 185t-172.5 517q0 168 48 306t133 230.5t202 142.5t254 50zM698 1343q-178 0 -275 -173
t-97 -478q0 -296 110 -468.5t291 -172.5q177 0 274 170t97 471q0 299 -110.5 475t-289.5 176z" />
    <glyph glyph-name="Otilde" unicode="&#xd5;" horiz-adv-x="1423" 
d="M717 1411q283 0 454.5 -186.5t171.5 -522.5q0 -166 -48 -302.5t-132.5 -228t-200.5 -141.5t-253 -50q-284 0 -456.5 185t-172.5 517q0 168 48 306t133 230.5t202 142.5t254 50zM698 1343q-178 0 -275 -173t-97 -478q0 -296 110 -468.5t291 -172.5q177 0 274 170t97 471
q0 299 -110.5 475t-289.5 176zM1044 1823q-3 -63 -19 -114t-55.5 -89.5t-97.5 -38.5q-67 0 -163.5 44t-159.5 44q-68 -25 -141 -125l-21 10q6 43 18.5 82t35.5 78.5t62.5 63.5t90.5 24q69 0 164 -41.5t143 -42.5q39 14 71 46.5t50 66.5z" />
    <glyph glyph-name="Odieresis" unicode="&#xd6;" horiz-adv-x="1423" 
d="M569 1579q-43 0 -73.5 30.5t-30.5 73.5t30.5 74t73.5 31q44 0 74.5 -31t30.5 -74t-30.5 -73.5t-74.5 -30.5zM874 1579q-43 0 -73.5 30.5t-30.5 73.5t30.5 74t73.5 31t74 -31t31 -74t-31 -73.5t-74 -30.5zM717 1411q283 0 454.5 -186.5t171.5 -522.5q0 -166 -48 -302.5
t-132.5 -228t-200.5 -141.5t-253 -50q-284 0 -456.5 185t-172.5 517q0 168 48 306t133 230.5t202 142.5t254 50zM698 1343q-178 0 -275 -173t-97 -478q0 -296 110 -468.5t291 -172.5q177 0 274 170t97 471q0 299 -110.5 475t-289.5 176z" />
    <glyph glyph-name="multiply" unicode="&#xd7;" horiz-adv-x="858" 
d="M168 285l-70 69l258 258l-254 254l70 70l254 -254l258 258l70 -72l-258 -258l264 -262l-72 -69l-262 262z" />
    <glyph glyph-name="Oslash" unicode="&#xd8;" horiz-adv-x="1423" 
d="M717 1411q209 0 356 -102l70 102h92l-100 -149q208 -192 208 -560q0 -166 -48 -302.5t-132.5 -228t-200.5 -141.5t-253 -50q-216 0 -365 104l-72 -104h-94l105 155q-203 190 -203 547q0 168 48 306t133 230.5t202 142.5t254 50zM1098 692q0 239 -74 406l-588 -875
q112 -172 291 -172q177 0 274 170t97 471zM698 1343q-178 0 -275 -173t-97 -478q0 -235 69 -391l588 873q-110 169 -285 169z" />
    <glyph glyph-name="Ugrave" unicode="&#xd9;" horiz-adv-x="1499" 
d="M1178 416v899l-160 45v31h420v-31l-160 -45v-1016q-118 -319 -516 -319q-198 0 -343.5 73.5t-201.5 218.5v1043l-160 45v31h547v-31l-160 -45v-916q0 -149 90 -235t244 -86q174 0 287 93t113 245zM588 1851h22l240 -301l-27 -26l-348 198z" />
    <glyph glyph-name="Uacute" unicode="&#xda;" horiz-adv-x="1499" 
d="M936 1851h22l113 -129l-346 -198l-29 26zM1178 416v899l-160 45v31h420v-31l-160 -45v-1016q-118 -319 -516 -319q-198 0 -343.5 73.5t-201.5 218.5v1043l-160 45v31h547v-31l-160 -45v-916q0 -149 90 -235t244 -86q174 0 287 93t113 245z" />
    <glyph glyph-name="Ucircumflex" unicode="&#xdb;" horiz-adv-x="1499" 
d="M750 1823h61l242 -275l-21 -22l-252 135l-252 -135l-20 22zM1178 416v899l-160 45v31h420v-31l-160 -45v-1016q-118 -319 -516 -319q-198 0 -343.5 73.5t-201.5 218.5v1043l-160 45v31h547v-31l-160 -45v-916q0 -149 90 -235t244 -86q174 0 287 93t113 245z" />
    <glyph glyph-name="Udieresis" unicode="&#xdc;" horiz-adv-x="1499" 
d="M631 1579q-43 0 -74 30.5t-31 73.5t31 74t74 31q44 0 74 -31t30 -74t-30 -73.5t-74 -30.5zM936 1579q-43 0 -74 30.5t-31 73.5t31 74t74 31t73.5 -31t30.5 -74t-30.5 -73.5t-73.5 -30.5zM1178 416v899l-160 45v31h420v-31l-160 -45v-1016q-118 -319 -516 -319
q-198 0 -343.5 73.5t-201.5 218.5v1043l-160 45v31h547v-31l-160 -45v-916q0 -149 90 -235t244 -86q174 0 287 93t113 245z" />
    <glyph glyph-name="Yacute" unicode="&#xdd;" horiz-adv-x="1372" 
d="M389 31l176 45v516l-444 725l-129 45v29h545v-29l-154 -45l369 -633h4l391 633l-152 45v29h385v-29l-135 -45l-452 -713v-528l176 -45v-31h-580v31zM913 1851h23l113 -129l-347 -198l-28 26z" />
    <glyph glyph-name="Thorn" unicode="&#xde;" horiz-adv-x="1298" 
d="M588 330h94q154 1 234.5 94t80.5 268q0 170 -83.5 260t-241.5 90h-199v-966l182 -45v-31h-569v31l160 45v1239l-160 45v31h547v-31l-160 -45v-195h201q122 0 223 -25t178.5 -75t120.5 -132t43 -190q0 -128 -67 -228.5t-173 -152t-229 -51.5q-73 0 -182 33v31z" />
    <glyph glyph-name="germandbls" unicode="&#xdf;" horiz-adv-x="1277" 
d="M715 1503q167 0 268.5 -77t101.5 -197q0 -51 -30 -96.5t-72.5 -80.5t-85 -69.5t-72.5 -78.5t-30 -93q0 -26 18.5 -52t36.5 -41t53 -40l174 -119q93 -65 132.5 -132.5t39.5 -156.5q0 -125 -94 -207.5t-233 -82.5q-122 0 -252 45v79q0 29 -5 67t-11 61l-5 24l31 12
q4 -3 11 -8.5t26 -24t35.5 -40t34.5 -55.5t28 -70q61 -23 105 -23q70 0 109.5 43.5t39.5 120.5q0 60 -27 98t-98 88l-139 97q-156 106 -156 243q0 58 24.5 110t59.5 92t70 79t59.5 87.5t24.5 100.5q0 102 -57.5 163t-155.5 61q-232 0 -232 -388v-966l109 -45v-31h-471v31
l147 45v878h-164v54l160 20v21q0 125 65 229.5t178 164.5t249 60z" />
    <glyph glyph-name="agrave" unicode="&#xe0;" horiz-adv-x="1091" 
d="M526 1059q167 0 263 -84t96 -266q0 -49 -3 -201t-3 -340q0 -80 65 -80q34 0 67.5 35.5t47.5 73.5l35 -19q-37 -105 -91.5 -149.5t-134.5 -44.5t-129 37t-63 104q-130 -145 -293 -145q-59 0 -109 14t-92 43.5t-66 82t-24 122.5v123q145 170 584 258v106q0 133 -48 197.5
t-153 64.5q-71 0 -143 -39q-23 -37 -38.5 -97t-19.5 -101l-4 -41h-90q-7 8 -17.5 23.5t-31 64.5t-25.5 100q61 64 170.5 111t249.5 47zM457 92q119 0 215 84v2q0 117 4 383q-245 -56 -379 -160v-122q0 -93 44.5 -140t115.5 -47zM322 1499h22l240 -301l-27 -27l-348 199z" />
    <glyph glyph-name="aacute" unicode="&#xe1;" horiz-adv-x="1091" 
d="M526 1059q167 0 263 -84t96 -266q0 -49 -3 -201t-3 -340q0 -80 65 -80q34 0 67.5 35.5t47.5 73.5l35 -19q-37 -105 -91.5 -149.5t-134.5 -44.5t-129 37t-63 104q-130 -145 -293 -145q-59 0 -109 14t-92 43.5t-66 82t-24 122.5v123q145 170 584 258v106q0 133 -48 197.5
t-153 64.5q-71 0 -143 -39q-23 -37 -38.5 -97t-19.5 -101l-4 -41h-90q-7 8 -17.5 23.5t-31 64.5t-25.5 100q61 64 170.5 111t249.5 47zM457 92q119 0 215 84v2q0 117 4 383q-245 -56 -379 -160v-122q0 -93 44.5 -140t115.5 -47zM649 1499h23l112 -129l-346 -199l-28 27z" />
    <glyph glyph-name="acircumflex" unicode="&#xe2;" horiz-adv-x="1091" 
d="M526 1059q167 0 263 -84t96 -266q0 -49 -3 -201t-3 -340q0 -80 65 -80q34 0 67.5 35.5t47.5 73.5l35 -19q-37 -105 -91.5 -149.5t-134.5 -44.5t-129 37t-63 104q-130 -145 -293 -145q-59 0 -109 14t-92 43.5t-66 82t-24 122.5v123q145 170 584 258v106q0 133 -48 197.5
t-153 64.5q-71 0 -143 -39q-23 -37 -38.5 -97t-19.5 -101l-4 -41h-90q-7 8 -17.5 23.5t-31 64.5t-25.5 100q61 64 170.5 111t249.5 47zM457 92q119 0 215 84v2q0 117 4 383q-245 -56 -379 -160v-122q0 -93 44.5 -140t115.5 -47zM492 1470h61l242 -274l-21 -22l-252 135
l-252 -135l-20 22z" />
    <glyph glyph-name="atilde" unicode="&#xe3;" horiz-adv-x="1091" 
d="M526 1059q167 0 263 -84t96 -266q0 -49 -3 -201t-3 -340q0 -80 65 -80q34 0 67.5 35.5t47.5 73.5l35 -19q-37 -105 -91.5 -149.5t-134.5 -44.5t-129 37t-63 104q-130 -145 -293 -145q-59 0 -109 14t-92 43.5t-66 82t-24 122.5v123q145 170 584 258v106q0 133 -48 197.5
t-153 64.5q-71 0 -143 -39q-23 -37 -38.5 -97t-19.5 -101l-4 -41h-90q-7 8 -17.5 23.5t-31 64.5t-25.5 100q61 64 170.5 111t249.5 47zM457 92q119 0 215 84v2q0 117 4 383q-245 -56 -379 -160v-122q0 -93 44.5 -140t115.5 -47zM846 1470q-2 -46 -12.5 -86t-29.5 -76.5
t-52.5 -57.5t-77.5 -21q-67 0 -164 44t-160 44q-68 -25 -141 -125l-21 10q6 43 18.5 82t35.5 78.5t62.5 63.5t90.5 24q69 0 164 -41.5t143 -42.5q39 14 71 46.5t50 66.5z" />
    <glyph glyph-name="adieresis" unicode="&#xe4;" horiz-adv-x="1091" 
d="M526 1059q167 0 263 -84t96 -266q0 -49 -3 -201t-3 -340q0 -80 65 -80q34 0 67.5 35.5t47.5 73.5l35 -19q-37 -105 -91.5 -149.5t-134.5 -44.5t-129 37t-63 104q-130 -145 -293 -145q-59 0 -109 14t-92 43.5t-66 82t-24 122.5v123q145 170 584 258v106q0 133 -48 197.5
t-153 64.5q-71 0 -143 -39q-23 -37 -38.5 -97t-19.5 -101l-4 -41h-90q-7 8 -17.5 23.5t-31 64.5t-25.5 100q61 64 170.5 111t249.5 47zM457 92q119 0 215 84v2q0 117 4 383q-245 -56 -379 -160v-122q0 -93 44.5 -140t115.5 -47zM367 1227q-43 0 -74 30.5t-31 73.5t31 74
t74 31q44 0 74 -31t30 -74t-30 -73.5t-74 -30.5zM672 1227q-43 0 -74 30.5t-31 73.5t31 74t74 31t73.5 -31t30.5 -74t-30.5 -73.5t-73.5 -30.5z" />
    <glyph glyph-name="aring" unicode="&#xe5;" horiz-adv-x="1091" 
d="M526 1059q167 0 263 -84t96 -266q0 -49 -3 -201t-3 -340q0 -80 65 -80q34 0 67.5 35.5t47.5 73.5l35 -19q-37 -105 -91.5 -149.5t-134.5 -44.5t-129 37t-63 104q-130 -145 -293 -145q-59 0 -109 14t-92 43.5t-66 82t-24 122.5v123q145 170 584 258v106q0 133 -48 197.5
t-153 64.5q-71 0 -143 -39q-23 -37 -38.5 -97t-19.5 -101l-4 -41h-90q-7 8 -17.5 23.5t-31 64.5t-25.5 100q61 64 170.5 111t249.5 47zM457 92q119 0 215 84v2q0 117 4 383q-245 -56 -379 -160v-122q0 -93 44.5 -140t115.5 -47zM520 1493q93 0 148 -43t55 -123
q0 -81 -57.5 -126.5t-149.5 -45.5q-93 0 -149 44t-56 122q0 81 58.5 126.5t150.5 45.5zM524 1196q80 0 80 127q0 65 -24 98t-68 33q-82 0 -82 -131q0 -61 24.5 -94t69.5 -33z" />
    <glyph glyph-name="ae" unicode="&#xe6;" horiz-adv-x="1595" 
d="M1491 238l27 -25q-139 -233 -385 -233q-254 0 -377 182q-186 -182 -381 -182q-59 0 -109 14t-92 43.5t-66 82t-24 122.5v123q145 170 584 258v106q2 132 -46.5 197t-154.5 65q-71 0 -143 -39q-23 -37 -38.5 -97t-19.5 -101l-4 -41h-90q-7 8 -17.5 23.5t-31 64.5
t-25.5 100q61 64 171 111t249 47q215 0 293 -154q125 154 313 154q194 0 298 -124t104 -327v-82l-649 9v-9q0 -222 79.5 -325t212.5 -103q74 0 137 21.5t100 47.5t85 71zM449 92q92 0 166 32.5t120 72.5q-69 132 -69 327v37q-242 -55 -377 -160v-122q0 -93 44.5 -140
t115.5 -47zM1116 995q-103 0 -166.5 -108.5t-72.5 -296.5l444 18v39q0 161 -53.5 254.5t-151.5 93.5z" />
    <glyph glyph-name="ccedilla" unicode="&#xe7;" horiz-adv-x="985" 
d="M850 723h-107q-4 137 -45 227q-57 37 -120 37q-142 0 -215.5 -118.5t-73.5 -342.5q0 -112 25 -196.5t69 -133t97 -71.5t116 -23q87 0 159 35t156 103l31 -25q-53 -102 -149.5 -168.5t-235.5 -66.5h-33l-41 -66q187 -20 187 -147q0 -60 -57.5 -94.5t-157.5 -34.5
q-102 0 -172 55l14 31q65 -29 133 -29q96 0 96 65q0 75 -133 105v8l70 113q-183 27 -286 160.5t-103 363.5q0 125 42.5 230t114 174t164 107t193.5 38q99 0 189 -33.5t141 -85.5q-3 -60 -20 -114t-32 -78z" />
    <glyph glyph-name="egrave" unicode="&#xe8;" horiz-adv-x="1003" 
d="M899 238l27 -25q-139 -233 -385 -233q-218 0 -342.5 139.5t-124.5 404.5q0 119 36 220t98 169.5t146 107t178 38.5q194 0 298 -124t104 -327v-82l-649 6v-6q0 -222 80 -325t213 -103q107 0 177 35.5t144 104.5zM524 995q-103 0 -166.5 -108.5t-72.5 -296.5l444 18v39
q0 161 -53.5 254.5t-151.5 93.5zM346 1499h23l239 -301l-26 -27l-349 199z" />
    <glyph glyph-name="eacute" unicode="&#xe9;" horiz-adv-x="1003" 
d="M899 238l27 -25q-139 -233 -385 -233q-218 0 -342.5 139.5t-124.5 404.5q0 119 36 220t98 169.5t146 107t178 38.5q194 0 298 -124t104 -327v-82l-649 6v-6q0 -222 80 -325t213 -103q107 0 177 35.5t144 104.5zM524 995q-103 0 -166.5 -108.5t-72.5 -296.5l444 18v39
q0 161 -53.5 254.5t-151.5 93.5zM690 1499h23l112 -129l-346 -199l-28 27z" />
    <glyph glyph-name="ecircumflex" unicode="&#xea;" horiz-adv-x="1003" 
d="M899 238l27 -25q-139 -233 -385 -233q-218 0 -342.5 139.5t-124.5 404.5q0 119 36 220t98 169.5t146 107t178 38.5q194 0 298 -124t104 -327v-82l-649 6v-6q0 -222 80 -325t213 -103q107 0 177 35.5t144 104.5zM524 995q-103 0 -166.5 -108.5t-72.5 -296.5l444 18v39
q0 161 -53.5 254.5t-151.5 93.5zM481 1470h62l241 -274l-20 -22l-252 135l-252 -135l-20 22z" />
    <glyph glyph-name="edieresis" unicode="&#xeb;" horiz-adv-x="1003" 
d="M899 238l27 -25q-139 -233 -385 -233q-218 0 -342.5 139.5t-124.5 404.5q0 119 36 220t98 169.5t146 107t178 38.5q194 0 298 -124t104 -327v-82l-649 6v-6q0 -222 80 -325t213 -103q107 0 177 35.5t144 104.5zM524 995q-103 0 -166.5 -108.5t-72.5 -296.5l444 18v39
q0 161 -53.5 254.5t-151.5 93.5zM354 1227q-43 0 -73.5 30.5t-30.5 73.5t30.5 74t73.5 31q44 0 74.5 -31t30.5 -74t-30.5 -73.5t-74.5 -30.5zM659 1227q-43 0 -73.5 30.5t-30.5 73.5t30.5 74t73.5 31t74 -31t31 -74t-31 -73.5t-74 -30.5z" />
    <glyph glyph-name="igrave" unicode="&#xec;" horiz-adv-x="618" 
d="M422 1059v-983l143 -45v-31h-499v31l143 45v842l-146 24v33l334 84h25zM139 1499h23l239 -301l-26 -27l-348 199z" />
    <glyph glyph-name="iacute" unicode="&#xed;" horiz-adv-x="618" 
d="M436 1499h23l112 -129l-346 -199l-28 27zM422 1059v-983l143 -45v-31h-499v31l143 45v842l-146 24v33l334 84h25z" />
    <glyph glyph-name="icircumflex" unicode="&#xee;" horiz-adv-x="618" 
d="M285 1470h61l242 -274l-21 -22l-252 135l-252 -135l-20 22zM422 1059v-983l143 -45v-31h-499v31l143 45v842l-146 24v33l334 84h25z" />
    <glyph glyph-name="idieresis" unicode="&#xef;" horiz-adv-x="618" 
d="M164 1227q-43 0 -74 30.5t-31 73.5t31 74t74 31q44 0 74 -31t30 -74t-30 -73.5t-74 -30.5zM469 1227q-43 0 -73.5 30.5t-30.5 73.5t30.5 74t73.5 31t73.5 -31t30.5 -74t-30.5 -73.5t-73.5 -30.5zM422 1059v-983l143 -45v-31h-499v31l143 45v842l-146 24v33l334 84h25z
" />
    <glyph glyph-name="eth" unicode="&#xf0;" horiz-adv-x="1126" 
d="M915 1356l-145 -66q137 -144 210 -342.5t73 -423.5q0 -126 -37.5 -229t-103.5 -171.5t-156 -106t-195 -37.5q-218 0 -352.5 140.5t-134.5 391.5q0 252 138.5 399.5t354.5 147.5q125 0 217 -70q-46 140 -131 250l-172 -76l-26 54l157 69q-73 88 -188 174l39 43
q147 -63 262 -166l162 74zM582 45q241 0 241 473q0 227 -74.5 350t-201.5 123q-244 0 -244 -473q0 -229 75 -351t204 -122z" />
    <glyph glyph-name="ntilde" unicode="&#xf1;" horiz-adv-x="1247" 
d="M391 1059h23v-152h8q60 66 146.5 109t179.5 43q134 0 221.5 -85.5t87.5 -260.5v-637l143 -45v-31h-485v31l131 45v659q0 101 -48.5 152t-140.5 51q-59 0 -122.5 -24t-112.5 -66v-772l129 -45v-31h-485v31l143 45v842l-146 24v33zM952 1470q-2 -46 -12.5 -86t-29.5 -76.5
t-52.5 -57.5t-77.5 -21q-67 0 -163.5 44t-159.5 44q-70 -26 -142 -125l-20 10q6 43 18.5 82t35.5 78.5t62.5 63.5t90.5 24q69 0 164 -41.5t143 -42.5q39 14 71 46.5t50 66.5z" />
    <glyph glyph-name="ograve" unicode="&#xf2;" horiz-adv-x="1126" 
d="M567 1059q218 0 352 -141.5t134 -393.5q0 -126 -37.5 -229t-103.5 -171.5t-156 -106t-195 -37.5q-218 0 -352.5 140.5t-134.5 391.5q0 252 138.5 399.5t354.5 147.5zM582 45q241 0 241 471q0 229 -74.5 353t-201.5 124q-244 0 -244 -477q0 -226 75 -348.5t204 -122.5z
M385 1499h23l239 -301l-26 -27l-349 199z" />
    <glyph glyph-name="oacute" unicode="&#xf3;" horiz-adv-x="1126" 
d="M705 1499h22l113 -129l-346 -199l-29 27zM567 1059q218 0 352 -141.5t134 -393.5q0 -126 -37.5 -229t-103.5 -171.5t-156 -106t-195 -37.5q-218 0 -352.5 140.5t-134.5 391.5q0 252 138.5 399.5t354.5 147.5zM582 45q241 0 241 471q0 229 -74.5 353t-201.5 124
q-244 0 -244 -477q0 -226 75 -348.5t204 -122.5z" />
    <glyph glyph-name="ocircumflex" unicode="&#xf4;" horiz-adv-x="1126" 
d="M541 1470h61l242 -274l-21 -22l-252 135l-252 -135l-20 22zM567 1059q218 0 352 -141.5t134 -393.5q0 -126 -37.5 -229t-103.5 -171.5t-156 -106t-195 -37.5q-218 0 -352.5 140.5t-134.5 391.5q0 252 138.5 399.5t354.5 147.5zM582 45q241 0 241 471q0 229 -74.5 353
t-201.5 124q-244 0 -244 -477q0 -226 75 -348.5t204 -122.5z" />
    <glyph glyph-name="otilde" unicode="&#xf5;" horiz-adv-x="1126" 
d="M567 1059q218 0 352 -141.5t134 -393.5q0 -126 -37.5 -229t-103.5 -171.5t-156 -106t-195 -37.5q-218 0 -352.5 140.5t-134.5 391.5q0 252 138.5 399.5t354.5 147.5zM582 45q241 0 241 471q0 229 -74.5 353t-201.5 124q-244 0 -244 -477q0 -226 75 -348.5t204 -122.5z
M893 1470q-2 -46 -12.5 -86t-29.5 -76.5t-52.5 -57.5t-77.5 -21q-67 0 -164 44t-160 44q-68 -25 -141 -125l-20 10q6 43 18.5 82t35 79t62 63.5t90.5 23.5q69 0 164.5 -41.5t143.5 -42.5q39 14 70 46.5t50 66.5z" />
    <glyph glyph-name="odieresis" unicode="&#xf6;" horiz-adv-x="1126" 
d="M414 1227q-43 0 -74 30.5t-31 73.5t31 74t74 31q44 0 74 -31t30 -74t-30 -73.5t-74 -30.5zM719 1227q-43 0 -74 30.5t-31 73.5t31 74t74 31t73.5 -31t30.5 -74t-30.5 -73.5t-73.5 -30.5zM567 1059q218 0 352 -141.5t134 -393.5q0 -126 -37.5 -229t-103.5 -171.5
t-156 -106t-195 -37.5q-218 0 -352.5 140.5t-134.5 391.5q0 252 138.5 399.5t354.5 147.5zM582 45q241 0 241 471q0 229 -74.5 353t-201.5 124q-244 0 -244 -477q0 -226 75 -348.5t204 -122.5z" />
    <glyph glyph-name="divide" unicode="&#xf7;" 
d="M397 944q0 47 35.5 81t81.5 34t80.5 -34t34.5 -81t-34.5 -81t-80.5 -34t-81.5 34t-35.5 81zM98 557v100h828v-100h-828zM397 268q0 47 35.5 81t81.5 34t80.5 -34t34.5 -81t-34.5 -80.5t-80.5 -33.5t-81.5 33.5t-35.5 80.5z" />
    <glyph glyph-name="oslash" unicode="&#xf8;" horiz-adv-x="1126" 
d="M567 1059q171 0 293 -90l70 90h84l-103 -135q142 -145 142 -400q0 -126 -37.5 -229t-103.5 -171.5t-156 -106t-195 -37.5q-175 0 -297 90l-69 -90h-86l104 137q-139 142 -139 395q0 252 138.5 399.5t354.5 147.5zM582 45q241 0 241 471q0 148 -30 250l-433 -567
q74 -154 222 -154zM303 516q0 -136 29 -242l432 566q-75 153 -217 153q-244 0 -244 -477z" />
    <glyph glyph-name="ugrave" unicode="&#xf9;" horiz-adv-x="1224" 
d="M395 1059v-862q18 -37 64 -67t121 -30q127 0 231 90v728l-149 24v33l327 84h35v-983l143 -45v-31h-319l-21 137h-10q-142 -157 -328 -157q-225 0 -305 204v734l-139 24v33l328 84h22zM408 1499h22l240 -301l-27 -27l-348 199z" />
    <glyph glyph-name="uacute" unicode="&#xfa;" horiz-adv-x="1224" 
d="M762 1499h22l113 -129l-346 -199l-29 27zM395 1059v-862q18 -37 64 -67t121 -30q127 0 231 90v728l-149 24v33l327 84h35v-983l143 -45v-31h-319l-21 137h-10q-142 -157 -328 -157q-225 0 -305 204v734l-139 24v33l328 84h22z" />
    <glyph glyph-name="ucircumflex" unicode="&#xfb;" horiz-adv-x="1224" 
d="M584 1470h61l242 -274l-21 -22l-252 135l-252 -135l-20 22zM395 1059v-862q18 -37 64 -67t121 -30q127 0 231 90v728l-149 24v33l327 84h35v-983l143 -45v-31h-319l-21 137h-10q-142 -157 -328 -157q-225 0 -305 204v734l-139 24v33l328 84h22z" />
    <glyph glyph-name="udieresis" unicode="&#xfc;" horiz-adv-x="1224" 
d="M444 1227q-43 0 -73.5 30.5t-30.5 73.5t30.5 74t73.5 31q44 0 74.5 -31t30.5 -74t-30.5 -73.5t-74.5 -30.5zM750 1227q-43 0 -74 30.5t-31 73.5t31 74t74 31t73.5 -31t30.5 -74t-30.5 -73.5t-73.5 -30.5zM395 1059v-862q18 -37 64 -67t121 -30q127 0 231 90v728l-149 24
v33l327 84h35v-983l143 -45v-31h-319l-21 137h-10q-142 -157 -328 -157q-225 0 -305 204v734l-139 24v33l328 84h22z" />
    <glyph glyph-name="yacute" unicode="&#xfd;" horiz-adv-x="1075" 
d="M268 -276q165 0 271 268l-457 973l-111 45v28h478v-30l-130 -43l316 -719h4l256 719l-121 45v28h326v-28l-119 -45l-344 -947q-42 -115 -84.5 -189t-94 -116.5t-108 -58.5t-135.5 -16q-78 0 -119 20q-9 67 0 117.5t24 80.5l15 29h92q6 -100 41 -161zM797 1499h22
l113 -129l-346 -199l-29 27z" />
    <glyph glyph-name="thorn" unicode="&#xfe;" horiz-adv-x="1196" 
d="M399 1503v-594q49 60 130 105t178 45q195 0 304 -131t109 -387q0 -249 -133.5 -405t-347.5 -156q-136 0 -240 45v-291q7 -3 85 -23t87 -22v-31h-530v31l147 45v1644l-149 25v33l326 67h34zM612 938q-117 0 -213 -90v-686q97 -113 228 -113q144 0 206 122t62 357
q0 117 -20 198.5t-58.5 127t-88 65t-116.5 19.5z" />
    <glyph glyph-name="ydieresis" unicode="&#xff;" horiz-adv-x="1075" 
d="M268 -276q165 0 271 268l-457 973l-111 45v28h478v-30l-130 -43l316 -719h4l256 719l-121 45v28h326v-28l-119 -45l-344 -947q-42 -115 -84.5 -189t-94 -116.5t-108 -58.5t-135.5 -16q-78 0 -119 20q-9 67 0 117.5t24 80.5l15 29h92q6 -100 41 -161zM387 1227
q-43 0 -73.5 30.5t-30.5 73.5t30.5 74t73.5 31q44 0 74.5 -31t30.5 -74t-30.5 -73.5t-74.5 -30.5zM692 1227q-43 0 -73.5 30.5t-30.5 73.5t30.5 74t73.5 31t74 -31t31 -74t-31 -73.5t-74 -30.5z" />
    <glyph glyph-name="dotlessi" unicode="&#x131;" horiz-adv-x="618" 
d="M422 1059v-983l143 -45v-31h-499v31l143 45v842l-146 24v33l334 84h25z" />
    <glyph glyph-name="Lslash" unicode="&#x141;" horiz-adv-x="1198" 
d="M246 1315l-160 45v31h547v-31l-160 -45v-406l205 150v-96l-205 -150v-735h498q13 50 33.5 100.5t40.5 86t38.5 64t29.5 42.5l11 14l39 -10q-20 -174 -20 -301v-74h-1057v31l160 45v569l-172 -125v96l172 125v574z" />
    <glyph glyph-name="lslash" unicode="&#x142;" horiz-adv-x="610" 
d="M414 1503v-585l192 141v-96l-192 -142v-745l143 -45v-31h-500v31l144 45v588l-197 -144v96l197 144v622l-146 25v33l334 63h25z" />
    <glyph glyph-name="OE" unicode="&#x152;" horiz-adv-x="1927" 
d="M879 0q-92 -20 -170 -20q-136 0 -251 47t-199 134.5t-131.5 221t-47.5 299.5q0 168 49 306.5t135 230t202.5 142t250.5 50.5q84 0 172 -20h897v-70q0 -64 5 -135.5t10 -110.5l5 -39l-39 -12q-11 12 -28 35t-58 98.5t-67 155.5h-510v-570l465 13l41 112h43v-319h-37
l-45 113l-467 12v-596h557q22 75 59.5 150.5t64.5 113.5l27 39l41 -10q-20 -156 -20 -287v-84h-954zM727 51q89 0 147 41v1192q-77 59 -176 59q-178 0 -275 -173t-97 -478q0 -296 110 -468.5t291 -172.5z" />
    <glyph glyph-name="oe" unicode="&#x153;" horiz-adv-x="1757" 
d="M1653 238l24 -25q-135 -233 -383 -233q-251 0 -364 186q-126 -186 -369 -186q-218 0 -352.5 140.5t-134.5 391.5q0 252 138.5 399.5t354.5 147.5q124 0 219 -49.5t154 -143.5q58 92 148 142.5t196 50.5q195 0 299.5 -124t104.5 -327v-82l-650 9v-9q0 -222 80 -325
t213 -103q106 0 177.5 36t144.5 104zM582 45q241 0 241 471q0 229 -74.5 353t-201.5 124q-244 0 -244 -477q0 -226 75 -348.5t204 -122.5zM1276 995q-102 0 -165.5 -109t-72.5 -296l445 18v39q0 161 -53.5 254.5t-153.5 93.5z" />
    <glyph glyph-name="Scaron" unicode="&#x160;" horiz-adv-x="1163" 
d="M618 1518h-61l-242 274l21 23l252 -134l252 134l20 -23zM88 86v84q0 54 -7 117t-15 99l-7 36l52 24q6 -5 16 -14.5t37.5 -41t51 -66.5t48 -89t37.5 -110q118 -66 236 -66q148 0 228.5 76t80.5 209q0 179 -207 256l-244 88q-129 47 -200.5 134t-71.5 208q0 97 40 172
t108 119.5t152.5 67t180.5 22.5q110 0 241 -31t159 -34v-74q0 -56 6.5 -114t13.5 -88l6 -30l-47 -20q-5 4 -14 11.5t-33.5 33.5t-46.5 54.5t-47 74.5t-41 94q-84 49 -199 49q-132 0 -203 -63t-71 -162q0 -159 186 -225l234 -84q166 -59 243.5 -158.5t77.5 -243.5
q0 -80 -34 -155t-96 -134.5t-158 -95.5t-212 -36q-258 0 -481 106z" />
    <glyph glyph-name="scaron" unicode="&#x161;" horiz-adv-x="940" 
d="M504 1165h-62l-241 275l20 22l252 -133l252 133l20 -22zM96 61v62q0 44 -5.5 88.5t-10.5 66.5l-6 23l49 18q4 -3 10.5 -9t25 -27t35 -45t36.5 -64t34 -84q99 -45 199 -45q97 0 150 53.5t53 151.5q0 123 -138 168l-190 63q-104 35 -159.5 107.5t-55.5 169.5
q0 80 33.5 140.5t89 94t117.5 50t129 16.5q89 0 190 -23.5t129 -23.5v-72q0 -35 5 -69.5t10 -52.5l5 -17l-34 -25q-4 2 -11.5 7t-28.5 22.5t-39 37.5t-39.5 53.5t-35.5 70.5q-70 28 -154 28q-81 0 -131.5 -44.5t-50.5 -123.5q0 -121 131 -165l180 -60q127 -42 185.5 -117.5
t58.5 -167.5q0 -158 -108.5 -247.5t-282.5 -89.5q-196 0 -375 81z" />
    <glyph glyph-name="Ydieresis" unicode="&#x178;" horiz-adv-x="1372" 
d="M389 31l176 45v516l-444 725l-129 45v29h545v-29l-154 -45l369 -633h4l391 633l-152 45v29h385v-29l-135 -45l-452 -713v-528l176 -45v-31h-580v31zM532 1579q-43 0 -73.5 30.5t-30.5 73.5t30.5 74t73.5 31q44 0 74.5 -31t30.5 -74t-30.5 -73.5t-74.5 -30.5zM838 1579
q-43 0 -74 30.5t-31 73.5t31 74t74 31t73.5 -31t30.5 -74t-30.5 -73.5t-73.5 -30.5z" />
    <glyph glyph-name="Zcaron" unicode="&#x17d;" horiz-adv-x="1255" 
d="M664 1518h-62l-242 274l21 23l252 -134l252 134l20 -23zM1122 1391v-68l-780 -1245h639q22 75 61 146t67 104l28 34l49 -12q-21 -127 -21 -272v-78h-1095v63l786 1250h-537q-9 -45 -28.5 -91t-41 -79.5t-41.5 -61t-33 -41.5l-13 -14l-47 14q20 134 20 275v76h987z" />
    <glyph glyph-name="zcaron" unicode="&#x17e;" horiz-adv-x="1038" 
d="M559 1165h-61l-242 275l20 22l252 -133l252 133l21 -22zM928 1038v-63l-621 -901h488q24 69 63.5 137t67.5 101l28 34l33 -10q-20 -133 -20 -266v-70h-914v63l617 902h-377q-10 -38 -30.5 -76t-42 -65t-41.5 -48.5t-33 -31.5l-13 -11l-33 15q23 106 23 221v69h805z" />
    <glyph glyph-name="florin" unicode="&#x192;" horiz-adv-x="1032" 
d="M838 1075q5 9 13.5 24.5t24 62.5t19.5 93q-45 15 -74 15q-42 0 -75.5 -17.5t-54.5 -43t-37.5 -65.5t-25 -74.5t-16.5 -80.5l-41 -250h234v-71h-246l-102 -633q-31 -196 -130.5 -296.5t-242.5 -100.5q-21 0 -41.5 2t-37.5 5.5t-33 8t-27.5 8.5t-22.5 9t-17 8.5t-12 6.5
l-6 3q2 60 24.5 113.5t44.5 77.5l21 24l115 -21q-47 -78 -57 -184q12 -2 33 -2q34 0 61 17.5t44 42.5t30.5 65.5t20.5 74.5t14 80l112 691h-182v71h192l33 193q22 130 85 221.5t148 133.5t185 42q127 0 229 -51q-2 -61 -23.5 -116.5t-42.5 -81.5l-20 -25z" />
    <glyph glyph-name="circumflex" unicode="&#x2c6;" horiz-adv-x="757" 
d="M354 1470h62l241 -274l-20 -22l-252 135l-252 -135l-20 22z" />
    <glyph glyph-name="caron" unicode="&#x2c7;" horiz-adv-x="757" 
d="M416 1165h-62l-241 275l20 22l252 -133l252 133l20 -22z" />
    <glyph glyph-name="breve" unicode="&#x2d8;" horiz-adv-x="665" 
d="M340 1323q83 0 134.5 37t70.5 94l43 -16q-16 -99 -80 -166.5t-170 -67.5q-103 0 -168.5 68t-81.5 166l41 12q21 -54 74 -90.5t137 -36.5z" />
    <glyph glyph-name="dotaccent" unicode="&#x2d9;" horiz-adv-x="460" 
d="M98 1335q0 54 39 92.5t94 38.5t94.5 -38.5t39.5 -92.5q0 -53 -39.5 -91t-94.5 -38t-94 38t-39 91z" />
    <glyph glyph-name="ring" unicode="&#x2da;" horiz-adv-x="591" 
d="M303 1493q93 0 148 -43t55 -123q0 -81 -57.5 -126.5t-149.5 -45.5q-93 0 -149 44t-56 122q0 81 58.5 126.5t150.5 45.5zM307 1196q80 0 80 127q0 65 -24 98t-68 33q-82 0 -82 -131q0 -61 24.5 -94t69.5 -33z" />
    <glyph glyph-name="ogonek" unicode="&#x2db;" horiz-adv-x="583" 
d="M463 -229l26 -50q-83 -83 -188 -83q-88 0 -146.5 39.5t-58.5 123.5q0 58 34 107.5t91.5 83t113.5 55.5t118 37l18 -23q-97 -32 -162 -88.5t-65 -124.5q0 -53 32.5 -76.5t83.5 -23.5q52 0 103 23z" />
    <glyph glyph-name="tilde" unicode="&#x2dc;" horiz-adv-x="1001" 
d="M829 1470q-2 -46 -12.5 -86t-29.5 -76.5t-52.5 -57.5t-77.5 -21q-67 0 -163.5 44t-159.5 44q-68 -25 -141 -125l-21 10q6 43 18.5 82t35.5 78.5t62.5 63.5t90.5 24q69 0 164 -41.5t143 -42.5q39 14 71 46.5t50 66.5z" />
    <glyph glyph-name="hungarumlaut" unicode="&#x2dd;" horiz-adv-x="778" 
d="M305 1501h21l112 -123l-354 -202l-31 36zM328 1210l315 217l96 -116v-33l-383 -104z" />
    <glyph glyph-name="Delta" unicode="&#x394;" horiz-adv-x="2066" 
d="M1540 262q-198 0 -321 115t-123 282t123 283.5t321 116.5q197 0 321 -121t124 -307q0 -139 -39.5 -251.5t-105.5 -186t-157 -123.5t-188.5 -71.5t-204.5 -21.5q-62 0 -123 9v2q47 5 106.5 24.5t121.5 52.5t111.5 85t66.5 112h-33zM565 262q-197 0 -320.5 115t-123.5 282
t124 283.5t320 116.5q199 0 322 -120.5t123 -307.5q0 -139 -39 -251.5t-105 -186.5t-156 -123.5t-188 -71t-205 -21.5q-63 0 -124 9v2q48 5 107.5 24.5t121 52.5t110.5 85t66 112h-33z" />
    <glyph glyph-name="Delta" unicode="&#x2206;" horiz-adv-x="2066" 
d="M1540 262q-198 0 -321 115t-123 282t123 283.5t321 116.5q197 0 321 -121t124 -307q0 -139 -39.5 -251.5t-105.5 -186t-157 -123.5t-188.5 -71.5t-204.5 -21.5q-62 0 -123 9v2q47 5 106.5 24.5t121.5 52.5t111.5 85t66.5 112h-33zM565 262q-197 0 -320.5 115t-123.5 282
t124 283.5t320 116.5q199 0 322 -120.5t123 -307.5q0 -139 -39 -251.5t-105 -186.5t-156 -123.5t-188 -71t-205 -21.5q-63 0 -124 9v2q48 5 107.5 24.5t121 52.5t110.5 85t66 112h-33z" />
    <glyph glyph-name="Omega" unicode="&#x3a9;" horiz-adv-x="927" 
d="M512 692l236 -565h-76l-197 485l-196 -485h-74l235 565l-241 565h75l201 -481l199 481h76zM94 1343v48h756v-48h-756zM94 0v47h756v-47h-756z" />
    <glyph glyph-name="Omega" unicode="&#x2126;" horiz-adv-x="927" 
d="M512 692l236 -565h-76l-197 485l-196 -485h-74l235 565l-241 565h75l201 -481l199 481h76zM94 1343v48h756v-48h-756zM94 0v47h756v-47h-756z" />
    <glyph glyph-name="pi" unicode="&#x3c0;" horiz-adv-x="1196" 
d="M68 952h1079l-510 -893z" />
    <glyph glyph-name="endash" unicode="&#x2013;" horiz-adv-x="1056" 
d="M104 508v92h846v-92h-846z" />
    <glyph glyph-name="emdash" unicode="&#x2014;" horiz-adv-x="1669" 
d="M104 508v92h1461v-92h-1461z" />
    <glyph glyph-name="quoteleft" unicode="&#x2018;" horiz-adv-x="450" 
d="M367 1075q0 -54 -38 -86.5t-98 -32.5t-94.5 40.5t-34.5 93.5q0 115 93 197.5t233 121.5l8 -20q-138 -102 -153 -193q39 -14 61.5 -46.5t22.5 -74.5z" />
    <glyph glyph-name="quoteright" unicode="&#x2019;" horiz-adv-x="450" 
d="M84 1292q0 54 37.5 86.5t97.5 32.5t94.5 -40t34.5 -93q0 -116 -93 -198.5t-232 -121.5l-9 21q78 58 112 102q35 45 42 90q-39 14 -61.5 46.5t-22.5 74.5z" />
    <glyph glyph-name="quotesinglbase" unicode="&#x201a;" horiz-adv-x="425" 
d="M80 119q0 54 37.5 86.5t97.5 32.5t94.5 -40.5t34.5 -93.5q0 -115 -93 -197.5t-233 -121.5l-8 20q84 63 119 113q28 41 35 80q-39 14 -61.5 46.5t-22.5 74.5z" />
    <glyph glyph-name="quotedblleft" unicode="&#x201c;" horiz-adv-x="847" 
d="M367 1075q0 -54 -38 -86.5t-98 -32.5t-94.5 40.5t-34.5 93.5q0 115 93 197.5t233 121.5l8 -20q-138 -102 -153 -193q39 -14 61.5 -46.5t22.5 -74.5zM764 1075q0 -54 -37.5 -86.5t-97.5 -32.5t-94.5 40.5t-34.5 93.5q0 78 47 144.5t117.5 108t160.5 66.5l9 -20
q-84 -63 -119 -113q-28 -41 -35 -80q39 -14 61.5 -46.5t22.5 -74.5z" />
    <glyph glyph-name="quotedblright" unicode="&#x201d;" horiz-adv-x="845" 
d="M84 1292q0 54 37.5 86.5t97.5 32.5t94.5 -40t34.5 -93q0 -116 -93 -198.5t-232 -121.5l-9 21q78 58 112 102q35 45 42 90q-39 14 -61.5 46.5t-22.5 74.5zM479 1292q0 54 37.5 86.5t97.5 32.5t94.5 -40t34.5 -93q0 -116 -93 -198.5t-232 -121.5l-8 21q82 61 117 110
q29 41 36 82q-39 14 -61.5 46.5t-22.5 74.5z" />
    <glyph glyph-name="quotedblbase" unicode="&#x201e;" horiz-adv-x="821" 
d="M80 119q0 54 37.5 86.5t97.5 32.5t94.5 -40.5t34.5 -93.5q0 -115 -93 -197.5t-233 -121.5l-8 20q84 63 119 113q28 41 35 80q-39 14 -61.5 46.5t-22.5 74.5zM475 119q0 54 37.5 86.5t97.5 32.5t94.5 -40.5t34.5 -93.5q0 -78 -47 -144.5t-117.5 -108t-160.5 -66.5l-8 20
q138 102 153 193q-39 14 -61.5 46.5t-22.5 74.5z" />
    <glyph glyph-name="dagger" unicode="&#x2020;" horiz-adv-x="1052" 
d="M621 1391l-56 -379l389 45v-148l-389 43l56 -262l-58 -690h-74l-57 690l51 262l-385 -43v148l389 -45l-55 379h189z" />
    <glyph glyph-name="daggerdbl" unicode="&#x2021;" horiz-adv-x="1052" 
d="M98 909v148l389 -45l-55 379h189l-56 -379l389 45v-148l-389 43l56 -256l-56 -260l389 45v-147l-389 43l56 -377h-189l55 377l-389 -43v147l387 -45l-53 260l53 256z" />
    <glyph glyph-name="bullet" unicode="&#x2022;" horiz-adv-x="735" 
d="M168 549q0 82 59 139t142 57t140.5 -57t57.5 -139q0 -79 -57.5 -136t-140.5 -57t-142 57.5t-59 135.5z" />
    <glyph glyph-name="ellipsis" unicode="&#x2026;" horiz-adv-x="1294" 
d="M80 109q0 54 39 92.5t94 38.5t94 -38.5t39 -92.5q0 -53 -39 -91t-94 -38t-94 38t-39 91zM514 109q0 54 39 92.5t94 38.5t94 -38.5t39 -92.5q0 -53 -39 -91t-94 -38t-94 38t-39 91zM948 109q0 54 39 92.5t94 38.5t94 -38.5t39 -92.5q0 -53 -39 -91t-94 -38t-94 38t-39 91z
" />
    <glyph glyph-name="perthousand" unicode="&#x2030;" horiz-adv-x="2072" 
d="M457 0h-95l660 1309h92zM373 1329q121 0 191.5 -86.5t70.5 -247.5q0 -158 -73 -249t-193 -91q-122 0 -192.5 86t-70.5 244q0 161 72.5 252.5t194.5 91.5zM373 700q106 0 106 291q0 295 -110 295q-109 0 -109 -295q0 -139 28.5 -215t84.5 -76zM1104 653q121 0 191.5 -86.5
t70.5 -247.5q0 -158 -73 -248.5t-193 -90.5q-122 0 -192 85.5t-70 243.5q0 161 72.5 252.5t193.5 91.5zM1104 25q106 0 106 290q0 295 -110 295q-109 0 -109 -295q0 -139 28.5 -214.5t84.5 -75.5zM1733 653q121 0 191.5 -86.5t70.5 -247.5q0 -158 -73 -248.5t-193 -90.5
q-122 0 -192.5 86t-70.5 243q0 161 72.5 252.5t194.5 91.5zM1733 25q106 0 106 290q0 295 -110 295q-109 0 -109 -295q0 -139 28.5 -214.5t84.5 -75.5z" />
    <glyph glyph-name="guilsinglleft" unicode="&#x2039;" horiz-adv-x="583" 
d="M74 487v68l352 393h76l-232 -424l232 -430h-76z" />
    <glyph glyph-name="guilsinglright" unicode="&#x203a;" horiz-adv-x="583" 
d="M510 555v-68l-352 -393h-76l231 430l-231 424h76z" />
    <glyph glyph-name="fraction" unicode="&#x2044;" horiz-adv-x="997" 
d="M70 0h-88l950 1309h86z" />
    <glyph glyph-name="Euro" unicode="&#x20ac;" horiz-adv-x="1329" 
d="M88 729v72h117q45 249 214 388.5t402 139.5q99 0 218 -23.5t145 -25.5v-94q0 -55 6.5 -113t13.5 -89l6 -30l-55 -22q-5 3 -13.5 10t-33 32t-46.5 54t-48 78t-43 104q-78 43 -185 43q-137 0 -229.5 -118t-116.5 -334h355v-72h-361v-67q0 -46 2 -66h359v-72h-353
q28 -198 131.5 -303.5t245.5 -105.5q66 0 123 15.5t94.5 36t76 58t58 61.5t50.5 68l36 -16q-15 -48 -38.5 -93.5t-64.5 -95t-92 -86t-125.5 -60t-160.5 -23.5q-233 0 -391 142.5t-188 401.5h-109v72h102v39q0 17 5 94h-107z" />
    <glyph glyph-name="trademark" unicode="&#x2122;" horiz-adv-x="1673" 
d="M858 1352l-74 22v17h215l213 -455h5l172 455h219v-17l-74 -22v-617l74 -22v-17h-301v17l73 22v457h-4q-12 -49 -24 -80l-152 -383h-51l-197 375q-8 16 -15 38t-10 36l-3 14h-4v-457l73 -22v-17h-209v17l74 22v617zM236 713l83 22v613h-133q-11 -36 -31 -75t-35 -60
l-14 -21l-26 4q12 82 12 137v58h608v-58q0 -24 3 -58.5t7 -56.5l3 -22l-25 -4q-53 76 -82 156h-133v-613l84 -22v-17h-321v17z" />
    <glyph glyph-name="partialdiff" unicode="&#x2202;" horiz-adv-x="1187" 
d="M1014 1059v-1079l-893 509z" />
    <glyph glyph-name="product" unicode="&#x220f;" horiz-adv-x="1196" 
d="M1147 88h-1079l569 893z" />
    <glyph glyph-name="summation" unicode="&#x2211;" horiz-adv-x="1187" 
d="M195 -20v1079l892 -570z" />
    <glyph glyph-name="minus" unicode="&#x2212;" 
d="M98 559v100h828v-100h-828z" />
    <glyph glyph-name="radical" unicode="&#x221a;" horiz-adv-x="2066" 
d="M565 776q198 0 321.5 -116t123.5 -283q0 -166 -124 -283t-321 -117q-196 0 -320 122t-124 307q0 139 39.5 251.5t105 186t156 123t188 71t205.5 21.5q41 0 123 -8v-2q-48 -6 -107 -26t-121.5 -52.5t-111.5 -84.5t-66 -112q10 2 33 2zM1540 776q197 0 321 -116t124 -283
q0 -166 -124.5 -283t-320.5 -117q-198 0 -321 121.5t-123 307.5q0 139 39 251.5t104.5 186t155.5 123t187.5 71t205.5 21.5q43 0 125 -8v-2q-49 -6 -108.5 -26t-121.5 -52.5t-111 -84.5t-65 -112q10 2 33 2z" />
    <glyph glyph-name="infinity" unicode="&#x221e;" horiz-adv-x="1644" 
d="M821 649q47 50 80.5 81.5t86.5 71t110.5 59.5t118.5 20q150 0 239.5 -88t89.5 -218q0 -133 -85 -219t-244 -86q-62 0 -119.5 19.5t-110 59.5t-85 71t-79.5 82q-37 -40 -62 -64.5t-68 -60t-80 -56t-86.5 -36t-98.5 -15.5q-159 0 -244.5 86t-85.5 219q0 130 90 218t240 88
q49 0 98.5 -15.5t85.5 -35.5t79.5 -56.5t67.5 -60.5t62 -64zM428 352q49 0 98 20t95 58.5t76 69t69 75.5q-31 34 -45 49t-47.5 48t-57.5 50t-56.5 38t-65.5 30t-66 9q-105 0 -164 -59.5t-59 -164.5t59 -164t164 -59zM1217 352q105 0 164 59t59 164t-59 164.5t-164 59.5
q-46 0 -91.5 -18t-91 -55.5t-72.5 -63.5t-70 -73q-9 -9 -13 -14q34 -38 54 -59.5t59 -57.5t70.5 -55.5t73 -35t81.5 -15.5z" />
    <glyph glyph-name="integral" unicode="&#x222b;" horiz-adv-x="927" 
d="M512 692l236 -565h-76l-197 485l-196 -485h-74l235 565l-241 565h75l201 -481l199 481h76zM94 1343v48h756v-48h-756zM94 0v47h756v-47h-756z" />
    <glyph glyph-name="approxequal" unicode="&#x2248;" horiz-adv-x="1232" 
d="M1061 899l74 -63q-39 -65 -108 -107.5t-142 -42.5q-52 0 -115 21t-111.5 45.5t-108.5 45.5t-108 21q-80 0 -148.5 -40t-117.5 -103l-78 65q58 91 151 145t208 54q73 0 161.5 -34t163.5 -67.5t115 -33.5q97 0 164 94zM1061 528l74 -63q-39 -65 -108 -107.5t-142 -42.5
q-52 0 -115 21t-111.5 46t-108.5 46t-108 21q-79 0 -148 -40.5t-118 -103.5l-78 66q58 90 150.5 144t208.5 54q57 0 126 -21t120.5 -46.5t106 -46.5t87.5 -21q97 0 164 94z" />
    <glyph glyph-name="notequal" unicode="&#x2260;" 
d="M98 750v100h461l84 186h109l-84 -186h258v-100h-303l-117 -261h420v-100h-465l-70 -158h-110l69 158h-252v100h297l119 261h-416z" />
    <glyph glyph-name="lessequal" unicode="&#x2264;" 
d="M926 350v-112l-828 360v76l828 358v-114l-678 -281zM98 20v101h828v-101h-828z" />
    <glyph glyph-name="greaterequal" unicode="&#x2265;" 
d="M98 238v112l678 287l-678 281v114l828 -358v-76zM926 121v-101h-828v101h828z" />
    <glyph glyph-name="lozenge" unicode="&#x25ca;" horiz-adv-x="927" 
d="M512 692l236 -565h-76l-197 485l-196 -485h-74l235 565l-241 565h75l201 -481l199 481h76zM94 1343v48h756v-48h-756zM94 0v47h756v-47h-756z" />
    <glyph glyph-name="HT" horiz-adv-x="0" 
 />
    <glyph glyph-name="LF" horiz-adv-x="0" 
 />
    <glyph glyph-name="CR" horiz-adv-x="0" 
 />
    <glyph glyph-name="DLE" horiz-adv-x="0" 
 />
    <glyph glyph-name="DC1" horiz-adv-x="0" 
 />
    <glyph glyph-name="DC2" horiz-adv-x="0" 
 />
    <glyph glyph-name="DC3" horiz-adv-x="0" 
 />
    <glyph glyph-name="DC4" horiz-adv-x="0" 
 />
    <glyph glyph-name="RS" horiz-adv-x="0" 
 />
    <glyph glyph-name="US" horiz-adv-x="0" 
 />
    <glyph glyph-name="DEL" horiz-adv-x="0" 
 />
    <glyph glyph-name="apple" horiz-adv-x="2955" 
d="M1452 655q35 0 58.5 -27.5t23.5 -76.5q0 -64 -43.5 -101.5t-134.5 -37.5v-82l6 -66q-48 -16 -66 -16q-22 0 -22 16v154l-51 -6v-6q0 -31 -6.5 -58t-21.5 -51.5t-43.5 -38.5t-68.5 -14q-43 0 -63.5 21t-20.5 48q0 75 144 109v86q-34 -98 -94 -98q-58 0 -58 63v6
q-37 -67 -108 -67q-28 0 -44 16.5t-16 44.5v207l-59 -4v8q0 41 24 41h35l-6 61q51 17 66 17q22 0 22 -17v-59h96v-6q0 -43 -24 -43h-72v-176q0 -33 27 -33q19 0 39 15.5t20 37.5v51l-6 68q48 16 66 16q22 0 22 -18v-135q0 -31 14 -31t34.5 35.5t19.5 62.5l-4 70q48 16 63 16
q23 0 23 -18v-203l51 6v125l-6 74q48 16 65 16q23 0 23 -18v-82q34 98 96 98zM774 592v-100l6 -66q-48 -16 -63 -16q-23 0 -23 16v135q0 33 -16 33q-13 0 -33.5 -36t-19.5 -62l4 -70q-48 -16 -64 -16q-22 0 -22 16v135q0 33 -17 33q-14 0 -33.5 -35.5t-19.5 -62.5l6 -70
q-48 -16 -65 -16q-23 0 -23 16v141l-6 74q48 16 66 16q22 0 22 -18v-82q9 33 33 66.5t59 33.5q60 0 60 -65v-35q9 34 32.5 67t59.5 33q57 0 57 -65zM2480 680l-59 -4v8q0 41 24 41h35l-6 61q51 17 66 17q22 0 22 -17v-59h96v-6q0 -43 -24 -43h-72v-184q0 -31 33 -31
q22 0 78.5 11t95.5 11q36 0 81.5 -12t45.5 -37q0 -29 -19 -43t-36 -14q-4 0 -54.5 24.5t-91.5 24.5q-14 0 -65 -8t-90 -8q-40 0 -48.5 25.5t-9.5 136.5q-1 65 -2 106zM137 1083v17h2740v-17h-2740zM137 0v16h2740v-16h-2740zM2189 592v-100l4 -66q-48 -16 -63 -16
q-23 0 -23 16v137q0 31 -16 31q-14 0 -33.5 -35.5t-19.5 -62.5l6 -70q-48 -16 -66 -16q-22 0 -22 16v141l-6 74q48 16 65 16q23 0 23 -18v-82q34 100 92 100q59 0 59 -65zM303 528q-33 -12 -90 -12q1 -21 16 -33t37 -12q36 0 66 18q16 -11 16 -32q0 -8 -5.5 -17t-29 -19.5
t-61.5 -10.5q-57 0 -90 30t-33 78q0 56 38 97.5t103 41.5q40 0 62 -19.5t22 -43.5q0 -49 -51 -66zM1735 528q-33 -12 -90 -12q1 -21 16 -33t37 -12q35 0 65 18q17 -11 17 -32q0 -8 -6 -17t-29.5 -19.5t-61.5 -10.5q-57 0 -89.5 30t-32.5 78q0 56 38 97.5t103 41.5
q40 0 62 -19.5t22 -43.5q0 -49 -51 -66zM2396 528q-33 -12 -90 -12q1 -21 16 -33t37 -12q36 0 66 18q16 -11 16 -32q0 -8 -5.5 -17t-29 -19.5t-61.5 -10.5q-57 0 -90 30t-33 78q0 56 38 97.5t103 41.5q40 0 62 -19.5t22 -43.5q0 -49 -51 -66zM1356 449q92 12 92 104
q0 41 -27 41q-26 0 -45.5 -38t-19.5 -60v-47zM1868 512q22 0 37.5 -14t15.5 -35q0 -20 -15.5 -33.5t-37.5 -13.5t-36.5 13.5t-14.5 33.5q0 22 14.5 35.5t36.5 13.5zM1141 397q-84 -19 -84 -65q0 -14 8 -21.5t20 -7.5q51 0 56 94zM211 541q31 0 53.5 10.5t22.5 32.5
q0 26 -27 26q-20 0 -33 -20.5t-16 -48.5zM2304 541q31 0 53.5 10.5t22.5 32.5q0 26 -27 26q-20 0 -33 -20.5t-16 -48.5zM1642 541q31 0 53.5 10.5t22.5 32.5q0 26 -26 26q-20 0 -33.5 -20.5t-16.5 -48.5z" />
    <glyph glyph-name="zero.tab" horiz-adv-x="1122" 
d="M565 1329q230 0 362 -172.5t132 -494.5q0 -316 -137 -499t-365 -183q-229 0 -362.5 173t-133.5 488q0 320 138.5 504t365.5 184zM565 43q260 0 260 608q0 296 -66.5 457.5t-201.5 161.5q-262 0 -262 -619q0 -293 67 -450.5t203 -157.5z" />
    <glyph glyph-name="one.tab" horiz-adv-x="1122" 
d="M465 88v1014h-86q-40 0 -74.5 5t-55 12t-35 14.5t-20.5 12.5l-6 5v29q12 1 33 3.5t81.5 13.5t116.5 26t125 43.5t120 62.5l26 -22v-1219l236 -57v-31h-690v31z" />
    <glyph glyph-name="two.tab" horiz-adv-x="1122" 
d="M135 975l-35 26q21 53 60 106.5t97 105t142.5 84t178.5 32.5q192 0 303.5 -99.5t111.5 -275.5q0 -51 -13.5 -103t-34.5 -97.5t-57 -94.5t-68.5 -87t-82.5 -84t-86.5 -76.5t-92 -72t-88 -64t-85.5 -59.5t-74 -52v-6h553q21 58 60 104.5t68 63.5l28 18l33 -16
q-21 -103 -21 -228v-100h-950l-14 72q65 51 101 80t119 100t135.5 123t123 131t112 144t71.5 140.5t30 141.5q0 113 -69 171t-181 58q-110 0 -208 -54t-167 -132z" />
    <glyph glyph-name="three.tab" horiz-adv-x="1122" 
d="M440 727q52 4 89.5 10.5t77.5 22.5t64 40t40 65t16 96q0 111 -63.5 163t-167.5 52q-99 0 -191 -47.5t-145 -114.5l-29 28q22 54 56.5 101.5t84.5 91t122.5 69t156.5 25.5q186 0 290.5 -87t104.5 -228q0 -117 -73 -187.5t-181 -91.5v-4q61 -11 116 -36.5t102 -67
t74.5 -104.5t27.5 -140q0 -188 -140 -295.5t-368 -107.5q-120 0 -237.5 32.5t-166.5 73.5q0 64 15 126.5t29 93t18 32.5h69q19 -146 70 -238q99 -51 213 -51q123 0 193.5 69.5t70.5 211.5q0 75 -20.5 131t-51.5 90t-81 57.5t-95 34t-108 19.5z" />
    <glyph glyph-name="four.tab" horiz-adv-x="1122" 
d="M51 360v31l684 918h164v-879h172v-70h-172v-284l160 -45v-31h-549v31l164 45v284h-623zM668 1069l-478 -639h484v639h-6z" />
    <glyph glyph-name="five.tab" horiz-adv-x="1122" 
d="M199 1309h741l-20 -185h-627l-14 -315q83 12 174 12q108 0 204.5 -22.5t177 -68.5t128 -124.5t47.5 -181.5q0 -214 -141.5 -329t-379.5 -115q-113 0 -219.5 28.5t-150.5 67.5q-8 66 2.5 131t23.5 97t17 34h69q2 -17 6.5 -44.5t23 -91.5t42.5 -102q1 -1 12.5 -6.5t17 -8
t19 -8.5t24 -9t26.5 -7.5t31 -7t33.5 -4.5t37.5 -2q130 0 204 77.5t74 237.5q0 69 -23 122.5t-60 86t-90 53t-106 28t-114 7.5q-115 0 -207 -20l-10 8z" />
    <glyph glyph-name="six.tab" horiz-adv-x="1122" 
d="M971 1174l-35 -41q-12 8 -33.5 19t-90.5 29.5t-140 18.5q-68 0 -123 -21.5t-91.5 -61t-63.5 -86.5t-43 -106t-24 -110.5t-12 -109.5q127 114 310 114q189 0 301 -106t112 -291q0 -135 -64 -237t-169.5 -153.5t-233.5 -51.5q-489 0 -489 595q0 354 146.5 554t410.5 200
q73 0 134.5 -16t96.5 -38t59 -46t33 -38t9 -17zM571 725q-80 0 -150 -39.5t-108 -107.5q1 -292 64 -410.5t203 -118.5q108 0 168.5 94.5t60.5 270.5q0 311 -238 311z" />
    <glyph glyph-name="seven.tab" horiz-adv-x="1122" 
d="M1030 1309v-144l-563 -1165h-176v49l624 1079h-630q-17 -51 -56.5 -102t-70.5 -76l-31 -26l-45 12q20 168 20 260v113h928z" />
    <glyph glyph-name="eight.tab" horiz-adv-x="1122" 
d="M86 315q0 104 82.5 194.5t234.5 125.5q-251 125 -251 352q0 108 56 187t147 117t204 38q178 0 284.5 -87t106.5 -212q0 -104 -76.5 -182t-177.5 -111l23 -10q167 -79 239 -168t72 -211q0 -157 -130 -262.5t-351 -105.5q-99 0 -180 17.5t-146 55.5t-101 104.5t-36 157.5z
M635 530l-172 78q-77 -47 -125.5 -130t-48.5 -179q0 -104 70 -177t192 -73q133 0 198.5 61.5t65.5 172.5q0 169 -180 247zM354 1051q0 -150 168 -230l113 -55q56 47 91.5 110t35.5 164q0 40 -11 77.5t-34 71.5t-64.5 54.5t-95.5 20.5q-106 0 -154.5 -58.5t-48.5 -154.5z" />
    <glyph glyph-name="nine.tab" horiz-adv-x="1122" 
d="M152 135l34 41q12 -8 33.5 -19t90 -29.5t139.5 -18.5q68 0 123 21.5t91.5 61t63 86t42 105.5t23.5 110t11 109q-126 -113 -307 -113q-188 0 -301 107t-113 291q0 135 65.5 237t172 153.5t235.5 51.5q241 0 362 -146t121 -450q0 -354 -146.5 -553.5t-410.5 -199.5
q-73 0 -133.5 16t-95 38t-59 46t-33 38t-8.5 17zM551 584q79 0 148 38.5t108 106.5q-1 290 -61.5 410.5t-196.5 120.5q-111 0 -174.5 -93.5t-63.5 -271.5q0 -311 240 -311z" />
    </font>
</defs>
</svg>
