<?xml version="1.0" standalone="no"?>
<!DOCTYPE svg PUBLIC "-//W3C//DTD SVG 1.1//EN" "http://www.w3.org/Graphics/SVG/1.1/DTD/svg11.dtd" >
<svg xmlns="http://www.w3.org/2000/svg" xmlns:xlink="http://www.w3.org/1999/xlink" version="1.1">
<metadata>
Created by FontForge 20170731 at Tue Feb  1 14:38:14 2022
 By Aleksey,,,
Copyright (c) 2010 by Eduardo Manso. All rights reserved.
</metadata>
<defs>
<font id="ABCDisplay-Bd" horiz-adv-x="1040" >
  <font-face 
    font-family="ABCDisplay Bd"
    font-weight="700"
    font-stretch="normal"
    units-per-em="2048"
    panose-1="0 0 0 0 0 0 0 0 0 0"
    ascent="1638"
    descent="-410"
    x-height="1055"
    cap-height="1391"
    bbox="-149.966 -362 2888 1872"
    underline-thickness="102"
    underline-position="-307"
    unicode-range="U+0020-FB02"
  />
<missing-glyph horiz-adv-x="1026" 
d="M586 696l256 -501h-137l-181 389l-188 -389h-133l254 501l-254 498h133l188 -385l181 385h131zM102 1294v97h822v-97h-822zM102 0v96h822v-96h-822z" />
    <glyph glyph-name="fi" unicode="fi" horiz-adv-x="1505" 
d="M1126 1174h-143q0 145 -43 217q-55 24 -121 24q-60 0 -106 -14t-75 -40.5t-49 -58.5t-29.5 -76.5t-13 -84t-3.5 -90.5v-2h329q90 0 189.5 6.5t154.5 12.5l54 7h76v-995l127 -45v-35h-599v35l127 45v887h-458v-887l172 -45v-35h-664v35l148 45v887h-148v51l148 29v2
q0 104 34.5 184t92 130t140.5 82.5t172.5 45t195.5 12.5q110 0 216 -19t160 -42q0 -57 -21 -124t-42 -106z" />
    <glyph glyph-name="fl" unicode="fl" horiz-adv-x="1525" 
d="M1366 1503v-1423l127 -45v-35h-598v35l127 45v1302q-106 33 -203 33q-72 0 -124 -20.5t-80.5 -52.5t-45.5 -82.5t-21.5 -97.5t-4.5 -111v-2h258v-82h-258v-887l172 -45v-35h-664v35l148 45v887h-148v51l148 29v4q0 452 635 452q159 0 292 -28l164 28h76z" />
    <glyph glyph-name=".notdef" horiz-adv-x="1026" 
d="M586 696l256 -501h-137l-181 389l-188 -389h-133l254 501l-254 498h133l188 -385l181 385h131zM102 1294v97h822v-97h-822zM102 0v96h822v-96h-822z" />
    <glyph glyph-name=".null" horiz-adv-x="0" 
 />
    <glyph glyph-name="nonmarkingreturn" horiz-adv-x="682" 
 />
    <glyph glyph-name="space" unicode=" " horiz-adv-x="423" 
 />
    <glyph glyph-name="exclam" unicode="!" horiz-adv-x="616" 
d="M326 461h-35l-180 807q11 69 67 106t131 37q69 0 125.5 -37t69.5 -106zM121 156q0 77 51.5 128.5t134.5 51.5q87 0 139 -51.5t52 -128.5q0 -74 -52 -125t-139 -51q-83 0 -134.5 51t-51.5 125z" />
    <glyph glyph-name="quotedbl" unicode="&#x22;" horiz-adv-x="737" 
d="M213 899h-35l-127 387q0 54 42.5 89.5t99.5 35.5q60 0 104.5 -35.5t44.5 -89.5zM555 899h-35l-127 387q0 54 42.5 89.5t99.5 35.5q60 0 104.5 -35.5t44.5 -89.5z" />
    <glyph glyph-name="numbersign" unicode="#" horiz-adv-x="1183" 
d="M164 655v99h229l99 301h147l-98 -301h250l98 301h147l-98 -301h164v-99h-197l-76 -231h191v-98h-221l-107 -326h-147l106 326h-250l-106 -326h-148l107 326h-172v98h203l75 231h-196zM508 655l-76 -231h250l76 231h-250z" />
    <glyph glyph-name="dollar" unicode="$" horiz-adv-x="1257" 
d="M131 84v82q0 58 -7.5 122t-15.5 99l-8 35l68 31q6 -5 17 -14t41 -40t56.5 -64.5t56 -85t46.5 -104.5q108 -57 213 -57h14v424l-145 49q-142 47 -222.5 148t-80.5 245q0 92 36 163t99.5 114t141.5 67t171 29v127h97v-127q77 -3 214.5 -28t188.5 -31v-74q0 -59 7 -117.5
t15 -86.5l7 -29l-54 -27l-16.5 11t-39.5 32t-55 52t-56 69t-48 86q-75 33 -163 41v-359l106 -35q194 -64 281.5 -161.5t87.5 -259.5q0 -168 -127.5 -288t-347.5 -138v-123h-97v119q-262 3 -481 104zM840 317q0 55 -32.5 99t-98.5 65v-379q131 42 131 215zM481 1055
q0 -49 26 -89.5t79 -58.5l26 -10v326q-63 -12 -97 -56.5t-34 -111.5z" />
    <glyph glyph-name="percent" unicode="%" horiz-adv-x="1497" 
d="M379 719q65 0 65 272q0 279 -71 279q-68 0 -68 -279q0 -272 74 -272zM379 1329q133 0 211 -86t78 -246q0 -158 -80.5 -249t-214.5 -91t-212.5 87t-78.5 243q0 159 81 250.5t216 91.5zM436 0h-119l748 1309h117zM1126 651q133 0 211 -86t78 -246q0 -158 -80.5 -248.5
t-214.5 -90.5t-212.5 86.5t-78.5 242.5q0 159 81 250.5t216 91.5zM1126 41q66 0 66 272q0 279 -72 279q-67 0 -67 -279q0 -272 73 -272z" />
    <glyph glyph-name="ampersand" unicode="&#x26;" horiz-adv-x="1501" 
d="M1083 0q-82 49 -147 102q-154 -122 -367 -122q-86 0 -159 11.5t-140.5 39.5t-115 72t-75.5 113.5t-28 158.5q0 59 23 111t57.5 87.5t82 65.5t88.5 47.5t85 30.5q-108 186 -108 334q0 79 26 142.5t67.5 103t97 66t110.5 37.5t112 11q184 0 276.5 -82t92.5 -209
q0 -68 -30 -124.5t-80.5 -94t-104 -62t-113.5 -38.5q62 -92 123 -164q82 -99 205 -215q94 132 162 350l34 -6q-25 -236 -120 -414q206 -184 409 -315v-37h-463zM600 426q-109 125 -166 215q-41 -64 -41 -164q0 -56 12 -100t33.5 -72t46.5 -47.5t56.5 -29t58.5 -13.5t57 -4
q79 0 136 16q-101 90 -193 199zM612 1143q0 -119 72 -260q107 111 107 270q0 170 -91 170q-88 0 -88 -180z" />
    <glyph glyph-name="quotesingle" unicode="'" horiz-adv-x="395" 
d="M213 899h-35l-127 387q0 54 42.5 89.5t99.5 35.5q60 0 104.5 -35.5t44.5 -89.5z" />
    <glyph glyph-name="parenleft" unicode="(" horiz-adv-x="634" 
d="M594 -258l-23 -25q-66 51 -120 100.5t-112.5 113t-102.5 134t-80 152t-55 178.5t-19 203q0 124 28.5 236.5t73.5 198t112 167t131 138t144 116.5l23 -24q-115 -139 -185.5 -347t-70.5 -485q0 -532 256 -856z" />
    <glyph glyph-name="parenright" unicode=")" horiz-adv-x="634" 
d="M63 -283l-22 25q256 324 256 856q0 277 -70.5 485t-185.5 347l22 24q80 -60 144 -116.5t131.5 -138t112 -167t73.5 -198t29 -236.5q0 -126 -29 -241.5t-73.5 -203t-112 -171.5t-131.5 -143.5t-144 -121.5z" />
    <glyph glyph-name="asterisk" unicode="*" horiz-adv-x="929" 
d="M659 653l-194 211l-197 -211l-41 25l88 278l-260 62v47l260 59l-86 267l41 22l195 -211l190 211l41 -22l-84 -267l260 -59v-47l-262 -62l88 -278zM391 1038q0 -34 22 -55.5t56 -21.5t56 21.5t22 55.5t-22 56t-56 22t-56 -22t-22 -56z" />
    <glyph glyph-name="plus" unicode="+" 
d="M82 539v133h373v360h133v-360h370v-133h-370v-383h-133v383h-373z" />
    <glyph glyph-name="comma" unicode="," horiz-adv-x="466" 
d="M45 156q0 77 51.5 128.5t134.5 51.5q87 0 139 -53t52 -131q0 -82 -33.5 -151t-92.5 -116.5t-125 -80t-144 -52.5l-15 27q25 19 42 34.5t38.5 43t34 63t14.5 78.5q-45 22 -70.5 64t-25.5 94z" />
    <glyph glyph-name="hyphen" unicode="-" horiz-adv-x="643" 
d="M70 506v133h501v-133h-501z" />
    <glyph glyph-name="period" unicode="." horiz-adv-x="466" 
d="M45 156q0 77 51.5 128.5t134.5 51.5q87 0 139 -51.5t52 -128.5q0 -74 -52 -125t-139 -51q-83 0 -134.5 51t-51.5 125z" />
    <glyph glyph-name="slash" unicode="/" horiz-adv-x="790" 
d="M111 -342h-115l598 1825h115z" />
    <glyph glyph-name="zero" unicode="0" horiz-adv-x="1198" 
d="M604 1329q252 0 397.5 -173t145.5 -494q0 -316 -150.5 -499t-400.5 -183q-253 0 -399 173t-146 488q0 320 151 504t402 184zM604 68q178 0 178 583q0 287 -46 440.5t-140 153.5q-180 0 -180 -594q0 -583 188 -583z" />
    <glyph glyph-name="one" unicode="1" horiz-adv-x="849" 
d="M272 92v981h-20q-47 0 -88 7.5t-66.5 18.5t-44 22t-25.5 19l-8 7v31q14 1 38.5 3.5t94.5 14.5t134 27t141.5 44t132.5 64l68 -31v-1206l211 -59v-35h-772v35z" />
    <glyph glyph-name="two" unicode="2" horiz-adv-x="1132" 
d="M96 942l-47 37q19 44 49.5 89t80 93t108.5 84.5t139.5 60t169.5 23.5q198 0 315 -106t117 -285q0 -64 -21.5 -127t-53.5 -115t-87.5 -109t-106 -99.5t-128.5 -96t-133.5 -88t-141.5 -86.5v-10h514q16 38 41.5 71t50 53t47 34.5t36.5 20.5l14 5l33 -18q-25 -109 -25 -248
v-125h-1028l-19 74q76 61 149 125.5t167.5 160.5t163 184t116.5 188t48 181q0 90 -59 135.5t-152 45.5t-192 -45.5t-165 -106.5z" />
    <glyph glyph-name="three" unicode="3" horiz-adv-x="1081" 
d="M371 735q49 4 79.5 9t67.5 18t57.5 33t35 56t14.5 85q0 91 -54 136.5t-145 45.5q-93 0 -180.5 -35.5t-143.5 -85.5l-32 33q22 44 49.5 83t70 80t92.5 70t118.5 47.5t146.5 18.5q200 0 314 -87t114 -228q0 -107 -91.5 -183.5t-228.5 -95.5v-6q173 -19 279 -106t106 -224
q0 -195 -144 -307t-380 -112q-143 0 -282 35.5t-203 80.5q0 54 13.5 105t33 84.5t33.5 53t22 26.5h78q0 -17 1.5 -44t14 -92t33.5 -108q91 -47 201 -47q99 0 157 63t58 193q0 73 -19 128t-46.5 87.5t-74 56t-87 34t-99.5 19.5z" />
    <glyph glyph-name="four" unicode="4" horiz-adv-x="1189" 
d="M31 326v53l688 930h274v-887h156v-96h-156v-246l144 -45v-35h-664v35l164 45v246h-606zM631 999l-426 -577h432v577h-6z" />
    <glyph glyph-name="five" unicode="5" horiz-adv-x="1067" 
d="M123 608l41 701h776l-25 -267h-657l-14 -237q125 16 227 16q115 0 214 -24t176 -71t121 -123.5t44 -174.5q0 -217 -154 -332.5t-415 -115.5q-128 0 -237 34.5t-159 81.5q0 70 24.5 135.5t45 94t33.5 39.5h78q8 -162 49 -244q81 -49 160 -49q98 0 157.5 67.5t59.5 210.5
q0 60 -19 107t-49 75t-72.5 46.5t-85.5 25t-92 6.5q-126 0 -207 -22z" />
    <glyph glyph-name="six" unicode="6" horiz-adv-x="1163" 
d="M1049 1124l-41 -43q-10 8 -30 19t-86 30t-138 19q-282 0 -330 -377q97 64 235 64q211 0 337 -108.5t126 -295.5q0 -138 -73.5 -242.5t-191.5 -157t-259 -52.5q-271 0 -409 146t-138 449q0 353 164.5 553.5t458.5 200.5q85 0 154.5 -21t109 -50t66.5 -60.5t36 -50.5t9 -23
zM584 713q-99 0 -170 -58v-65q0 -290 43 -403t149 -113q72 0 114 89.5t42 250.5q0 160 -45 229.5t-133 69.5z" />
    <glyph glyph-name="seven" unicode="7" horiz-adv-x="1034" 
d="M1024 1309v-164l-545 -1145h-268v70l641 993h-580q-19 -55 -65.5 -106t-83.5 -75l-37 -24l-45 16q22 197 22 289v146h961z" />
    <glyph glyph-name="eight" unicode="8" horiz-adv-x="1124" 
d="M41 322q0 98 76.5 176.5t212.5 103.5q-226 131 -226 369q0 112 63.5 194.5t165.5 122t228 39.5q206 0 323 -88.5t117 -218.5q0 -52 -21 -96t-56.5 -74t-73.5 -50t-82 -34q166 -78 240.5 -174.5t74.5 -222.5q0 -172 -139 -280.5t-381 -108.5q-89 0 -165.5 11t-143 37
t-113 64.5t-73.5 97t-27 132.5zM621 477l-193 78q-90 -97 -90 -262q0 -90 63 -155.5t166 -65.5q98 0 150.5 54.5t52.5 149.5q0 64 -36 117.5t-113 83.5zM406 1055q0 -63 31 -112t91 -75l134 -57q30 39 43.5 90.5t13.5 142.5q0 73 -43.5 134t-116.5 61q-76 0 -114.5 -51
t-38.5 -133z" />
    <glyph glyph-name="nine" unicode="9" horiz-adv-x="1163" 
d="M115 184l41 43q4 -3 11 -7.5t31.5 -16t52 -20.5t71 -16t88.5 -7q281 0 329 375q-97 -62 -235 -62q-211 0 -337 108.5t-126 295.5q0 137 76 242t196 157.5t262 52.5q271 0 404 -142.5t133 -447.5q0 -354 -165 -556.5t-458 -202.5q-85 0 -154.5 21t-108.5 49.5t-66 60
t-36 50.5t-9 23zM580 596q102 0 168 57q2 23 2 66q0 285 -41 400.5t-140 115.5q-76 0 -122 -87.5t-46 -252.5q0 -160 45 -229.5t134 -69.5z" />
    <glyph glyph-name="colon" unicode=":" horiz-adv-x="466" 
d="M45 897q0 77 51.5 128.5t134.5 51.5q87 0 139 -51.5t52 -128.5q0 -74 -52 -125t-139 -51q-83 0 -134.5 51t-51.5 125zM45 156q0 77 51.5 128.5t134.5 51.5q87 0 139 -51.5t52 -128.5q0 -74 -52 -125t-139 -51q-83 0 -134.5 51t-51.5 125z" />
    <glyph glyph-name="semicolon" unicode=";" horiz-adv-x="466" 
d="M45 156q0 77 51.5 128.5t134.5 51.5q87 0 139 -53t52 -131q0 -82 -33.5 -151t-92.5 -116.5t-125 -80t-144 -52.5l-15 27q25 19 42 34.5t38.5 43t34 63t14.5 78.5q-45 22 -70.5 64t-25.5 94zM45 897q0 77 51.5 128.5t134.5 51.5q87 0 139 -51.5t52 -128.5q0 -74 -52 -125
t-139 -51q-83 0 -134.5 51t-51.5 125z" />
    <glyph glyph-name="less" unicode="&#x3c;" 
d="M82 545v131l876 354v-149l-675 -271l675 -270v-150z" />
    <glyph glyph-name="equal" unicode="=" 
d="M82 754v133h876v-133h-876zM82 416v133h876v-133h-876z" />
    <glyph glyph-name="greater" unicode="&#x3e;" 
d="M958 676v-131l-876 -355v150l676 270l-676 271v149z" />
    <glyph glyph-name="question" unicode="?" 
d="M63 1249q61 63 172.5 112.5t276.5 49.5q207 0 337 -96.5t130 -265.5q0 -95 -38 -173.5t-103.5 -131.5t-140.5 -87.5t-162 -54.5l-80 -141h-52l-170 287q11 3 42.5 10.5t51 12t53 14.5t55.5 19t52.5 24t50.5 30t42 37t35 46t21.5 55.5t8.5 66.5q0 71 -19 122t-52.5 77
t-71 37.5t-82.5 11.5q-30 0 -80 -11q-36 -61 -67.5 -134.5t-44.5 -116.5l-13 -43h-92q-8 13 -20 36.5t-29 87.5t-11 119zM248 156q0 77 51.5 128.5t134.5 51.5q87 0 139 -51.5t52 -128.5q0 -74 -52 -125t-139 -51q-83 0 -134.5 51t-51.5 125z" />
    <glyph glyph-name="at" unicode="@" horiz-adv-x="1861" 
d="M1425 1026l-110 -627q-5 -28 -7 -41.5t-4 -38t1 -37.5t10 -27.5t21.5 -21t35.5 -6.5q96 0 169 130.5t73 373.5q0 120 -36 227t-104.5 191.5t-178 134t-246.5 49.5q-215 0 -383 -108t-259.5 -298.5t-91.5 -430.5q0 -123 28.5 -224t73.5 -167.5t107.5 -116.5t122 -77
t127 -43.5t113 -21t88.5 -4.5q218 0 418 54l10 -43q-205 -91 -449 -91q-56 0 -115.5 5t-146 23.5t-162.5 49t-155 87t-135.5 130.5t-92.5 187.5t-36 251.5q0 195 68.5 364.5t190 290.5t297 190.5t382.5 69.5q187 0 337 -56t242.5 -151t141.5 -216t49 -257q0 -127 -33 -231
t-86 -170t-122.5 -111t-138.5 -63.5t-139 -18.5q-282 0 -282 199v22l-8 2q-104 -194 -281 -194q-44 0 -85 16t-78.5 50.5t-60 99.5t-22.5 153q0 250 138.5 402.5t355.5 152.5q148 0 254 -71l174 61zM870 317q52 0 99 91t67 208l56 316q-33 45 -82 45q-78 0 -136.5 -126.5
t-58.5 -361.5q0 -79 14.5 -125.5t40.5 -46.5z" />
    <glyph glyph-name="A" unicode="A" horiz-adv-x="1484" 
d="M664 1391l155 20l563 -1333l123 -45v-33h-661v33l135 43l-135 327h-459l-131 -327l133 -43v-33h-407v33l129 45zM807 492l-189 462h-10l-186 -462h385z" />
    <glyph glyph-name="B" unicode="B" horiz-adv-x="1417" 
d="M801 0h-740v35l144 45v1231l-144 45v35h674q99 0 182 -11t154.5 -35.5t120.5 -62.5t76.5 -94.5t27.5 -128.5q0 -147 -97 -221t-290 -97v-4q106 -11 186 -34t143 -64.5t95.5 -106.5t32.5 -153q0 -99 -42.5 -173t-120 -118.5t-178 -66t-224.5 -21.5zM745 688h-172v-596h168
q250 0 250 301q0 140 -62.5 217.5t-183.5 77.5zM680 1298h-107v-518h103q123 0 186.5 65.5t63.5 182.5q0 270 -246 270z" />
    <glyph glyph-name="C" unicode="C" horiz-adv-x="1282" 
d="M1262 367q-15 -50 -40 -99.5t-70.5 -103t-102.5 -93t-140.5 -65.5t-179.5 -26q-312 0 -495 181t-183 515q0 173 56 313t155 232t234.5 141t294.5 49q98 0 225 -22.5t170 -22.5v-100q0 -68 8 -136.5t16 -103.5l7 -35l-54 -22q-7 4 -18.5 12.5t-44 38.5t-60.5 63.5
t-59 87.5t-49 111q-61 23 -141 23q-166 0 -259.5 -153.5t-93.5 -449.5q0 -254 102.5 -391t258.5 -137q82 0 151.5 19t122 54.5t85.5 67t69 74.5z" />
    <glyph glyph-name="D" unicode="D" horiz-adv-x="1564" 
d="M205 1311l-144 45v35h707q347 0 546 -181t199 -508q0 -216 -93.5 -375.5t-263.5 -243t-396 -83.5h-699v35l144 45v1231zM750 1296h-177v-1202h205q182 0 264 154t82 444q0 282 -98 443t-276 161z" />
    <glyph glyph-name="E" unicode="E" horiz-adv-x="1310" 
d="M205 1311l-144 45v35h1139v-54q0 -80 6 -159.5t12 -118.5l5 -39l-41 -14q-5 4 -13 12t-32 36t-45.5 59t-48 80.5t-44.5 102.5h-426v-548l408 16l41 96h47v-303h-39l-47 96l-410 17v-576h474q22 75 67 152t79 117l34 40l43 -12q-23 -157 -23 -315v-76h-1186v35l144 45
v1231z" />
    <glyph glyph-name="F" unicode="F" horiz-adv-x="1243" 
d="M205 1311l-144 45v35h1139v-54q0 -80 6 -159.5t12 -118.5l5 -39l-41 -14q-5 4 -13 12t-32 36t-45.5 59t-48 80.5t-44.5 102.5h-426v-585l408 16l41 137h47v-385h-39l-47 137l-410 17v-553l164 -45v-35h-676v35l144 45v1231z" />
    <glyph glyph-name="G" unicode="G" horiz-adv-x="1398" 
d="M819 1411q103 0 259.5 -22.5t201.5 -22.5v-162q0 -36 8 -89.5t16 -88.5l7 -35l-54 -24q-7 4 -18.5 11.5t-43.5 35.5t-60 60t-58.5 85t-48.5 111q-81 37 -207 37q-180 0 -280.5 -166t-100.5 -461q0 -277 106 -435.5t267 -158.5q53 0 100 6v469l-98 43v31h526v-29l-77 -45
v-450l71 -23v-27q-91 -33 -238 -57t-300 -24q-124 0 -235 27t-204.5 83t-162 136.5t-106.5 193t-38 246.5q0 179 60 322t165 234.5t243.5 140t299.5 48.5z" />
    <glyph glyph-name="H" unicode="H" horiz-adv-x="1628" 
d="M1055 1311l-144 45v35h656v-35l-144 -45v-1231l144 -45v-35h-656v35l144 45v602h-482v-602l144 -45v-35h-656v35l144 45v1231l-144 45v35h656v-35l-144 -45v-529h482v529z" />
    <glyph glyph-name="I" unicode="I" horiz-adv-x="778" 
d="M205 1311l-144 45v35h656v-35l-144 -45v-1231l144 -45v-35h-656v35l144 45v1231z" />
    <glyph glyph-name="J" unicode="J" horiz-adv-x="757" 
d="M573 1311v-1417q-126 -135 -269.5 -195.5t-326.5 -60.5q-57 0 -122 6q-12 60 5 142.5t44 137.5h135q4 -118 45 -198q80 30 121 86v1499l-144 45v35h656v-35z" />
    <glyph glyph-name="K" unicode="K" horiz-adv-x="1484" 
d="M205 1311l-144 45v35h656v-35l-144 -45v-568h45l510 576l-116 39v33h415v-33l-133 -45l-413 -451l362 -549q58 -88 123.5 -157.5t101.5 -95.5l37 -25v-35h-401q-105 48 -209 207l-287 444h-35v-571l144 -45v-35h-656v35l144 45v1231z" />
    <glyph glyph-name="L" unicode="L" horiz-adv-x="1253" 
d="M205 1311l-144 45v35h656v-35l-144 -45v-1217h426q13 53 36.5 106.5t48 92t47 69.5t37.5 46l14 16l41 -12q-23 -186 -23 -338v-74h-1139v35l144 45v1231z" />
    <glyph glyph-name="M" unicode="M" horiz-adv-x="1781" 
d="M201 1315l-140 43v33h455l389 -859h6l365 859h444v-33l-139 -43v-1239l139 -43v-33h-641v33l140 43v821h-7q-32 -102 -63 -172l-287 -659h-137l-315 628q-24 49 -41 100t-22 77l-5 26h-6v-821l137 -43v-33h-412v33l140 43v1239z" />
    <glyph glyph-name="N" unicode="N" horiz-adv-x="1468" 
d="M1155 1315l-137 43v33h409v-33l-139 -43v-1315h-123l-829 930v-854l137 -43v-33h-412v33l140 43v1239l-140 43v33h353l741 -836v760z" />
    <glyph glyph-name="O" unicode="O" horiz-adv-x="1480" 
d="M745 1411q319 0 502 -186t183 -523q0 -335 -189 -528.5t-504 -193.5q-320 0 -503 184t-183 518q0 225 86.5 390.5t242.5 252t365 86.5zM727 1319q-103 0 -168 -76.5t-92 -212t-27 -338.5q0 -294 81.5 -457t234.5 -163q151 0 217.5 157.5t66.5 462.5q0 297 -81 462
t-232 165z" />
    <glyph glyph-name="P" unicode="P" horiz-adv-x="1366" 
d="M205 1311l-144 45v35h682q129 0 235 -26.5t186.5 -80t125.5 -141t45 -201.5q0 -104 -40.5 -193.5t-108.5 -149t-156.5 -93t-183.5 -33.5q-85 0 -195 35v45h60q116 0 178.5 99.5t62.5 283.5q0 360 -260 360h-119v-1216l172 -45v-35h-684v35l144 45v1231z" />
    <glyph glyph-name="Q" unicode="Q" horiz-adv-x="1480" 
d="M1008 16l84 -82l43 -43t57 -55t59 -50t73 -47.5t75 -27.5v-33h-398q-68 28 -112.5 62.5t-97.5 91.5l-146 152q-280 27 -437 208t-157 490q0 225 86.5 390.5t242.5 252t365 86.5q319 0 502 -186t183 -523q0 -254 -112 -430.5t-310 -248.5v-7zM727 1319q-103 0 -168 -76.5
t-92 -212t-27 -338.5q0 -294 81.5 -457t234.5 -163q151 0 217.5 157.5t66.5 462.5q0 297 -81 462t-232 165z" />
    <glyph glyph-name="R" unicode="R" horiz-adv-x="1454" 
d="M1475 35v-35h-422q-51 22 -98.5 73t-82.5 130l-172 393h-133v-516l138 -45v-35h-644v35l144 45v1231l-144 45v35h713q95 0 175.5 -13.5t148.5 -42.5t115.5 -72.5t74.5 -107.5t27 -143q0 -127 -69 -213t-189 -129v-15l137 -299q36 -77 78 -138.5t76.5 -94t64 -54
t45.5 -27.5zM567 1296v-612h230q56 37 98.5 116.5t42.5 205.5q0 290 -256 290h-115z" />
    <glyph glyph-name="S" unicode="S" horiz-adv-x="1196" 
d="M70 84v82q0 63 -8 132t-16 106l-7 38l67 31q6 -5 17 -14.5t41 -41.5t56 -67t55.5 -89.5t46.5 -110.5q124 -62 235 -62q114 0 176 65.5t62 186.5q0 61 -35 113t-103 75l-241 80q-149 49 -231.5 147.5t-82.5 243.5q0 106 43.5 187t118 128.5t165.5 71t194 23.5
q93 0 254 -28t202 -33v-74q0 -64 7.5 -127.5t14.5 -94.5l7 -32l-53 -27q-6 4 -16.5 12t-40.5 35t-56 56t-55 74.5t-47 91.5q-95 45 -219 45q-96 0 -148.5 -51.5t-52.5 -141.5q0 -54 29 -97.5t86 -62.5l229 -75q198 -65 288.5 -172t90.5 -279q0 -85 -38 -165t-106.5 -143.5
t-175 -101.5t-233.5 -38q-283 0 -520 104z" />
    <glyph glyph-name="T" unicode="T" horiz-adv-x="1327" 
d="M233 1296q-18 -53 -44 -103.5t-49 -85t-43.5 -61.5t-32.5 -40l-13 -13l-41 15q23 137 23 317v66h1261v-66q0 -80 6 -159.5t12 -118.5l5 -39l-41 -15q-13 13 -34 37t-70 103t-78 163h-246v-1216l143 -45v-35h-655v35l143 45v1216h-246z" />
    <glyph glyph-name="U" unicode="U" horiz-adv-x="1546" 
d="M1219 428v883l-144 45v35h430v-35l-143 -45v-1037q-54 -96 -123 -158t-179.5 -99t-260.5 -37q-208 0 -378.5 80t-236.5 216v1035l-143 45v35h655v-35l-143 -45v-897q0 -151 81 -230.5t220 -79.5q163 0 264 88t101 236z" />
    <glyph glyph-name="V" unicode="V" horiz-adv-x="1464" 
d="M850 -20h-162l-586 1333l-122 45v33h665v-33l-135 -43l377 -866h6l313 866l-133 43v33h412v-33l-129 -45z" />
    <glyph glyph-name="W" unicode="W" horiz-adv-x="2158" 
d="M752 -20h-162l-488 1333l-122 45v33h665v-33l-135 -43l260 -860h12l222 680l-62 163l141 93h242l303 -936h6l267 860l-134 43v33h412v-33l-129 -45l-440 -1333h-162l-367 954z" />
    <glyph glyph-name="X" unicode="X" horiz-adv-x="1441" 
d="M807 0v33l123 37l-307 465l-349 -463l101 -39v-33h-395v33l122 45l449 563l-445 676l-106 41v33h647v-33l-119 -33l279 -428l340 424l-115 39v31h400v-33l-123 -45l-435 -518l476 -725l112 -37v-33h-655z" />
    <glyph glyph-name="Y" unicode="Y" horiz-adv-x="1402" 
d="M381 35l143 45v538l-420 695l-124 45v33h671v-33l-135 -43l313 -549h5l313 549l-133 43v33h409v-33l-127 -45l-403 -688v-545l143 -45v-35h-655v35z" />
    <glyph glyph-name="Z" unicode="Z" horiz-adv-x="1310" 
d="M1212 1391v-66l-708 -1231h518q15 48 41 96t52 81.5t50 60t39 40.5l15 13l51 -14q-23 -121 -23 -281v-90h-1206v43l729 1253h-434q-14 -48 -40 -95t-53.5 -79.5t-53 -58.5t-41.5 -39l-17 -12l-43 16q23 123 23 283v80h1101z" />
    <glyph glyph-name="bracketleft" unicode="[" horiz-adv-x="620" 
d="M569 -254h-446v1737h446v-82h-223v-1575h223v-80z" />
    <glyph glyph-name="backslash" unicode="\" horiz-adv-x="790" 
d="M795 -342h-115l-598 1825h115z" />
    <glyph glyph-name="bracketright" unicode="]" horiz-adv-x="620" 
d="M498 -254h-447v80h223v1575h-223v82h447v-1737z" />
    <glyph glyph-name="asciicircum" unicode="^" horiz-adv-x="901" 
d="M819 750h-149l-224 514l-217 -514h-147l266 641h199z" />
    <glyph glyph-name="underscore" unicode="_" horiz-adv-x="1019" 
d="M0 -324v99h1032v-99h-1032z" />
    <glyph glyph-name="grave" unicode="`" horiz-adv-x="585" 
d="M231 1536h35l236 -317l-27 -29l-393 172z" />
    <glyph glyph-name="a" unicode="a" horiz-adv-x="1169" 
d="M563 1075q428 0 428 -391q0 -73 -3 -231t-3 -291q0 -62 45 -62q33 0 62 45.5t43 100.5l55 -17q-30 -134 -101 -191.5t-192 -57.5q-85 0 -143.5 34t-85.5 95q-125 -129 -291 -129q-62 0 -114.5 15t-96.5 46t-69 86.5t-25 130.5v117q49 51 123.5 95t157.5 75t155 52t143 36
v100q0 134 -38 192t-134 58q-50 0 -106 -27q-26 -41 -44.5 -106t-24.5 -110l-5 -44h-119q-8 9 -21 26.5t-37 72t-30 110.5q63 64 193 117t278 53zM514 125q73 0 135 45q-2 14 -2 43q0 53 1 168.5t1 177.5q-143 -39 -246 -104v-160q0 -86 31.5 -128t79.5 -42z" />
    <glyph glyph-name="b" unicode="b" horiz-adv-x="1241" 
d="M473 1503v-559q63 58 144.5 94.5t168.5 36.5q57 0 109 -12.5t107.5 -48.5t95.5 -92t66 -151t26 -218q0 -261 -149.5 -417t-393.5 -156q-155 0 -272 73l-213 -80l-33 27v1372l-129 23v41l397 67h76zM618 909q-91 0 -145 -45v-690q82 -100 182 -100q97 0 135.5 105
t38.5 347q0 108 -14.5 184t-43.5 118.5t-66 61.5t-87 19z" />
    <glyph glyph-name="c" unicode="c" horiz-adv-x="980" 
d="M864 709h-116q-1 17 -4.5 44.5t-20.5 95.5t-41 114q-40 14 -78 14q-207 0 -207 -406q0 -432 267 -432q135 0 278 125l39 -28q-58 -111 -159 -183.5t-244 -72.5q-243 0 -385 138.5t-142 401.5q0 169 75 297t197 193t269 65q102 0 200 -28.5t154 -77.5q-3 -68 -23.5 -133
t-39.5 -96z" />
    <glyph glyph-name="d" unicode="d" horiz-adv-x="1269" 
d="M1112 1503v-1423l127 -45v-35h-440l-21 113h-8q-62 -59 -144.5 -96t-170.5 -37q-57 0 -109 12.5t-107.5 48.5t-95.5 92t-66 151t-26 218q0 261 149.5 417t393.5 156q95 0 174 -28v325l-129 23v41l397 67h76zM623 145q94 0 145 43v691q-88 102 -182 102q-96 0 -135 -105
t-39 -348q0 -108 14.5 -184t43.5 -118.5t66 -61.5t87 -19z" />
    <glyph glyph-name="e" unicode="e" 
d="M950 250l31 -27q-57 -105 -161.5 -174t-250.5 -69q-240 0 -379 138t-139 402q0 127 41.5 233t111 175.5t160.5 108t191 38.5q210 0 327 -130t117 -337v-90l-606 10q13 -391 262 -391q88 0 155 28.5t140 84.5zM547 991q-154 0 -154 -397l283 16v37q0 344 -129 344z" />
    <glyph glyph-name="f" unicode="f" horiz-adv-x="804" 
d="M860 1204h-123q0 10 -3 42.5t-13.5 87.5t-26.5 87q-19 4 -39 4q-23 0 -41 -8.5t-30 -20.5t-20 -35.5t-12 -42.5t-6 -53t-2.5 -56t-0.5 -62v-98h258v-82h-258v-887l172 -45v-35h-664v35l148 45v887h-148v51l148 29v47q0 96 28 170t72 118.5t106.5 72.5t124.5 38t132 10
q76 0 151 -16t111 -35q0 -53 -16 -115t-32 -97z" />
    <glyph glyph-name="g" unicode="g" horiz-adv-x="1122" 
d="M1087 1096l13 -154q-94 -24 -185 -6l-4 -8q44 -31 78.5 -84t34.5 -119q0 -165 -131 -260.5t-336 -95.5q-164 0 -164 -54q0 -38 66 -43l250 -20q284 -25 393 -146v-137q0 -142 -158 -236.5t-405 -94.5q-262 0 -387 65.5t-125 169.5q0 52 51 93t127 57q-115 57 -115 176
q0 53 22 91t62 58.5t84.5 31t101.5 13.5q-125 36 -196.5 119.5t-71.5 204.5q0 166 130 262t335 96q121 0 219 -39q83 4 160.5 19t113.5 28zM563 438q152 0 152 283q0 129 -42.5 208t-121.5 79q-152 0 -152 -287q0 -129 42.5 -206t121.5 -77zM684 -47l-309 29q-27 2 -72 10
q-29 -32 -29 -80q0 -93 64.5 -148t208.5 -55q143 0 198.5 46.5t55.5 133.5v33q-48 25 -117 31z" />
    <glyph glyph-name="h" unicode="h" horiz-adv-x="1312" 
d="M449 1503h75v-561q63 59 144.5 96t169.5 37q68 0 124 -18.5t101.5 -57.5t71.5 -108.5t26 -163.5v-647l127 -45v-35h-569v35l98 45v682q0 147 -147 147q-37 0 -78 -12t-68 -33v-784l97 -45v-35h-568v35l127 45v1292l-129 23v41z" />
    <glyph glyph-name="i" unicode="i" horiz-adv-x="684" 
d="M158 1339q0 73 47.5 118.5t138.5 45.5q94 0 142.5 -45.5t48.5 -118.5q0 -71 -48.5 -116t-142.5 -45q-91 0 -138.5 45t-47.5 116zM524 1075v-995l127 -45v-35h-598v35l127 45v844l-129 22v41l398 88h75z" />
    <glyph glyph-name="j" unicode="j" horiz-adv-x="661" 
d="M184 -219v1143l-149 22v41l418 88h75v-1214q-78 -94 -216 -158.5t-310 -64.5q-70 0 -143 12q-7 46 5.5 108t29.5 101l16 39h125q0 -14 2 -35.5t15 -72t36 -79.5q69 30 96 70zM162 1339q0 73 47.5 118.5t138.5 45.5q94 0 142.5 -45.5t48.5 -118.5q0 -71 -48.5 -116
t-142.5 -45q-91 0 -138.5 45t-47.5 116z" />
    <glyph glyph-name="k" unicode="k" horiz-adv-x="1269" 
d="M524 1503v-854h51l390 336l-117 39v31h369v-31l-109 -49l-289 -242l221 -356q47 -76 65 -104t59.5 -87.5t76.5 -94t70 -56.5v-35h-379q-114 57 -197 213l-182 334h-29v-467l97 -45v-35h-568v35l127 45v1292l-129 23v41l398 67h75z" />
    <glyph glyph-name="l" unicode="l" horiz-adv-x="684" 
d="M524 1503v-1423l127 -45v-35h-598v35l127 45v1292l-129 23v41l398 67h75z" />
    <glyph glyph-name="m" unicode="m" horiz-adv-x="1933" 
d="M449 1075h67v-133h8q63 60 143.5 96.5t166.5 36.5q194 0 274 -143h8q159 143 346 143q67 0 122.5 -18.5t101 -57.5t71 -108.5t25.5 -163.5v-647l127 -45v-35h-570v35l99 45v682q0 147 -144 147q-35 0 -78.5 -15t-76.5 -42q14 -65 14 -125v-647l96 -45v-35h-538v35l98 45
v682q0 147 -143 147q-36 0 -76.5 -12t-65.5 -33v-784l97 -45v-35h-568v35l127 45v844l-129 22v41z" />
    <glyph glyph-name="n" unicode="n" horiz-adv-x="1312" 
d="M449 1075h67v-133h8q63 59 144.5 96t169.5 37q68 0 124 -18.5t101.5 -57.5t71.5 -108.5t26 -163.5v-647l127 -45v-35h-569v35l98 45v682q0 147 -147 147q-37 0 -78 -12t-68 -33v-784l97 -45v-35h-568v35l127 45v844l-129 22v41z" />
    <glyph glyph-name="o" unicode="o" horiz-adv-x="1185" 
d="M600 1075q249 0 392 -142t143 -401q0 -256 -150.5 -404t-396.5 -148q-250 0 -393.5 141.5t-143.5 398.5q0 259 150.5 407t398.5 148zM600 68q96 0 135 108t39 348q0 238 -44 349.5t-142 111.5q-97 0 -136.5 -109t-39.5 -352q0 -235 44.5 -345.5t143.5 -110.5z" />
    <glyph glyph-name="p" unicode="p" horiz-adv-x="1282" 
d="M506 1075v-131h8q63 58 144.5 94.5t168.5 36.5q57 0 109 -12.5t107.5 -48.5t95.5 -92t66 -151t26 -218q0 -261 -149.5 -417t-393.5 -156q-94 0 -174 26v-268q17 -4 79 -21t93 -24v-35h-663v35l147 45v1192q-22 4 -74.5 11t-75.5 11v35l398 88h88zM659 909q-91 0 -145 -45
v-690q82 -100 182 -100q97 0 135.5 105t38.5 347q0 108 -14.5 184t-43.5 118.5t-66 61.5t-87 19z" />
    <glyph glyph-name="q" unicode="q" horiz-adv-x="1249" 
d="M1112 -262l148 -45v-35h-664v35l172 45v373q-62 -59 -144 -95t-169 -36q-57 0 -109 12.5t-107.5 48.5t-95.5 92t-66 151t-26 218q0 261 149.5 417t393.5 156q148 0 272 -74l213 80l33 -26v-1317zM623 145q94 0 145 43v691q-88 102 -182 102q-96 0 -135 -105t-39 -348
q0 -108 14.5 -184t43.5 -118.5t66 -61.5t87 -19z" />
    <glyph glyph-name="r" unicode="r" horiz-adv-x="991" 
d="M907 711h-151q-9 130 -54 200q-89 -30 -157 -90v-741q17 -4 79 -21t93 -24v-35h-664v35l148 45v850q-22 4 -74.5 11t-75.5 11v35l418 88h68v-160h8q63 76 150 118t182 42q42 0 94 -10q0 -86 -16 -174.5t-32 -134.5z" />
    <glyph glyph-name="s" unicode="s" horiz-adv-x="952" 
d="M63 72v63q0 55 -6 106t-12 75l-6 24l43 18q5 -2 12.5 -7t30.5 -24.5t44 -43.5t47 -67t44 -93q92 -53 182 -53q81 0 120.5 43.5t39.5 119.5q0 98 -100 134l-154 57q-127 46 -191.5 122.5t-64.5 196.5q0 84 36 149.5t96 104.5t129.5 58.5t142.5 19.5q77 0 199 -23.5
t165 -23.5v-88q0 -36 6 -73.5t12 -56.5l7 -19l-33 -19q-5 2 -13.5 6t-32 19t-45.5 34.5t-47.5 53.5t-43.5 73q-71 29 -135 29q-62 0 -101 -34.5t-39 -100.5q0 -91 88 -127l142 -53q146 -55 216 -130t70 -194q0 -167 -120.5 -267.5t-311.5 -100.5q-205 0 -416 92z" />
    <glyph glyph-name="t" unicode="t" horiz-adv-x="841" 
d="M20 975v51l156 27l215 282h117v-280h258v-80h-258v-838q56 -53 135 -53q81 0 166 61l33 -43q-128 -122 -314 -122q-101 0 -196.5 35t-165.5 96v864h-146z" />
    <glyph glyph-name="u" unicode="u" horiz-adv-x="1304" 
d="M498 1075v-848q5 -10 12.5 -21t23.5 -26.5t43 -25t60 -9.5q37 0 77.5 12t67.5 33v734l-129 22v41l398 88h75v-995l127 -45v-35h-440l-20 113h-11q-65 -63 -138 -98t-173 -35q-244 0 -317 200v744l-129 22v41l397 88h76z" />
    <glyph glyph-name="v" unicode="v" horiz-adv-x="1161" 
d="M666 -20h-134l-475 997l-98 45v33h578v-35l-93 -43l258 -610h9l233 612l-82 43v33h320v-33l-105 -45z" />
    <glyph glyph-name="w" unicode="w" horiz-adv-x="1736" 
d="M604 -20h-147l-400 997l-98 45v33h549v-35l-72 -43l197 -598h6l158 489l-39 93l71 94h283l240 -676h6l174 600l-72 43v33h297v-33l-104 -45l-326 -997h-147l-318 735z" />
    <glyph glyph-name="x" unicode="x" horiz-adv-x="1210" 
d="M623 0v35l90 37l-215 313l-269 -313l84 -41v-31h-333v31l104 49l354 393l-346 506l-86 43v33h598v-31l-86 -37l182 -270l230 266l-76 39v33h320v-31l-99 -49l-319 -338l385 -567l90 -37v-33h-608z" />
    <glyph glyph-name="y" unicode="y" horiz-adv-x="1161" 
d="M317 -256q150 0 250 231l-510 1002l-98 45v33h578v-35l-93 -43l285 -610h8l207 612l-82 43v33h320v-33l-105 -45l-362 -959q-76 -201 -185.5 -290.5t-257.5 -89.5q-103 0 -182 32q-12 73 -0.5 134t31.5 101l20 40h129q4 -125 47 -201z" />
    <glyph glyph-name="z" unicode="z" horiz-adv-x="1028" 
d="M952 1055v-66l-518 -903h342q26 77 73 149.5t81 106.5l33 33l34 -10q-22 -135 -22 -299v-66h-946v66l534 903h-264q-15 -45 -40 -87t-50 -70t-48 -49.5t-37 -31.5l-15 -10l-33 16q22 107 22 252v66h854z" />
    <glyph glyph-name="braceleft" unicode="{" horiz-adv-x="696" 
d="M182 68l21 313q7 126 -21 165t-131 48v43q103 9 131 48t21 165l-21 313q-12 176 79.5 258t283.5 82q32 0 110 -8v-51l-43 -4q-74 -7 -109 -37.5t-30 -118.5l21 -305q5 -81 -4.5 -138.5t-30.5 -94.5t-63 -61.5t-88 -38t-120 -25.5v-11q74 -12 120 -25.5t88 -38t63 -61.5
t30.5 -94.5t4.5 -138.5l-21 -305q-6 -85 27 -118t98 -38l57 -4v-51q-78 -8 -110 -8q-192 0 -283.5 82t-79.5 258z" />
    <glyph glyph-name="bar" unicode="|" horiz-adv-x="475" 
d="M291 -342h-107v1825h107v-1825z" />
    <glyph glyph-name="braceright" unicode="}" horiz-adv-x="696" 
d="M494 381l20 -313q12 -176 -79 -258t-283 -82q-33 0 -111 8v51l57 4q65 5 98 38t27 118l-20 305q-4 68 0.5 118.5t21.5 87t39.5 61.5t61.5 42.5t80 28t102 20.5v11q-61 10 -102 20.5t-80 28t-61.5 42.5t-39.5 61.5t-21.5 87t-0.5 118.5l20 305q5 88 -30 118.5t-109 37.5
l-43 4v51q78 8 111 8q192 0 283 -82t79 -258l-20 -313q-7 -126 20.5 -165t130.5 -48v-43q-103 -9 -130.5 -48t-20.5 -165z" />
    <glyph glyph-name="asciitilde" unicode="~" horiz-adv-x="1214" 
d="M1047 743l86 -84q-40 -71 -107.5 -115t-148.5 -44q-52 0 -115 21.5t-111.5 47t-108.5 47t-108 21.5q-139 0 -258 -141l-94 84q58 97 153.5 155t213.5 58q73 0 161.5 -35t163.5 -70t115 -35q88 0 158 90z" />
    <glyph glyph-name="uni00A0" unicode="&#xa0;" horiz-adv-x="423" 
 />
    <glyph glyph-name="exclamdown" unicode="&#xa1;" horiz-adv-x="616" 
d="M293 594h35l178 -807q-13 -69 -69.5 -106t-125.5 -37q-75 0 -131 37t-67 106zM123 899q0 74 51.5 125t134.5 51q87 0 139 -51t52 -125q0 -77 -52 -128.5t-139 -51.5q-83 0 -134.5 51.5t-51.5 128.5z" />
    <glyph glyph-name="cent" unicode="&#xa2;" horiz-adv-x="1157" 
d="M702 -20h-96v120q-232 19 -363.5 156t-131.5 383q0 228 140.5 375t354.5 174v141h96v-135q98 -2 194 -31t151 -76q-3 -68 -23.5 -133t-39.5 -96l-19 -31h-117q-1 17 -4.5 44.5t-20.5 95.5t-41 114q-43 15 -77 15h-3v-834q36 -4 62 -4q135 0 278 125l39 -29
q-55 -106 -150.5 -177.5t-228.5 -78.5v-118zM457 690q0 -304 149 -393v778q-149 -73 -149 -385z" />
    <glyph glyph-name="sterling" unicode="&#xa3;" horiz-adv-x="1292" 
d="M100 0v35l136 41q10 59 10 246v296h-144v97h144v98q0 108 30.5 196t81.5 146.5t122 98.5t149 57.5t164 17.5q81 0 221 -19t178 -22v-114q0 -36 7 -89.5t15 -88.5l7 -35l-41 -19q-6 3 -16.5 8.5t-39.5 27t-53.5 47.5t-51 70.5t-40.5 94.5q-73 39 -160 39q-63 0 -107 -26.5
t-67.5 -78.5t-33 -115.5t-9.5 -150.5v-143h223v-97h-223v-159q0 -121 -42.5 -215.5t-113.5 -149.5h562q7 60 28.5 116t46.5 92.5t49.5 64.5t41.5 41l16 12l41 -8q-23 -185 -23 -277v-135h-1108z" />
    <glyph glyph-name="yen" unicode="&#xa5;" horiz-adv-x="1441" 
d="M270 668v96h201l-285 467l-125 45v33h672v-33l-135 -43l260 -467h6l283 467l-133 43v33h409v-33l-127 -45l-288 -467h225v-96h-285l-14 -23v-123h299v-96h-299v-346l143 -45v-35h-655v35l143 45v346h-295v96h295v86l-37 60h-258z" />
    <glyph glyph-name="brokenbar" unicode="&#xa6;" horiz-adv-x="460" 
d="M297 -252h-133v725h133v-725zM297 758h-133v725h133v-725z" />
    <glyph glyph-name="section" unicode="&#xa7;" horiz-adv-x="1245" 
d="M1161 571q0 -166 -133 -284q113 -104 113 -267q0 -99 -43 -174.5t-116.5 -119.5t-162 -66t-188.5 -22q-92 0 -245.5 29t-201.5 34v115q0 33 -7 81t-14 79l-7 32l53 12q5 -1 14.5 -4.5t35 -19.5t48 -38t47.5 -63.5t39 -93.5q111 -59 250 -59q95 0 149 47.5t54 124.5
q0 51 -28.5 88t-88.5 51l-229 56q-196 47 -287.5 137t-91.5 231q0 164 133 285q-113 96 -113 266q0 80 28.5 145t77 108.5t114.5 73.5t138.5 43t151.5 13q92 0 245.5 -29t201.5 -34v-115q0 -33 7 -81t14 -80l7 -32l-53 -12q-5 1 -14.5 4.5t-35 19.5t-48 38t-47.5 63.5
t-39 93.5q-113 60 -250 60q-95 0 -149 -47.5t-54 -124.5q0 -51 28.5 -88.5t88.5 -51.5l229 -55q196 -47 287.5 -137.5t91.5 -231.5zM434 670q-16 2 -39 10q-4 -18 -4 -62q0 -121 162 -163l295 -76l39 -12q4 40 4 63q0 122 -162 164z" />
    <glyph glyph-name="dieresis" unicode="&#xa8;" horiz-adv-x="677" 
d="M172 1214q-59 0 -97 38t-38 94q0 55 38 94t97 39q57 0 94 -39t37 -94q0 -56 -36.5 -94t-94.5 -38zM508 1214q-58 0 -95.5 38t-37.5 94q0 55 38 94t95 39q59 0 96 -39t37 -94q0 -56 -37 -94t-96 -38z" />
    <glyph glyph-name="copyright" unicode="&#xa9;" horiz-adv-x="1568" 
d="M80 694q0 146 56.5 278.5t152.5 228.5t228.5 153t277.5 57t278 -57t228.5 -153t152.5 -228.5t57 -278.5q0 -194 -96 -358.5t-261 -260t-359 -95.5q-146 0 -278 56.5t-228 152t-152.5 227.5t-56.5 278zM795 1350q-173 0 -320.5 -88.5t-233 -239.5t-85.5 -328
q0 -133 50.5 -253.5t136.5 -208t204 -139.5t248 -52t248.5 52t204.5 139.5t137 208t51 253.5q0 177 -86 328t-234 239.5t-321 88.5zM1157 479q-34 -110 -128 -186t-234 -76q-206 0 -332.5 125t-126.5 344q0 112 39 203t107.5 150.5t161.5 91.5t202 32q63 0 145.5 -15
t110.5 -15v-68q0 -45 4.5 -91t9.5 -70l4 -23l-33 -17q-5 2 -13 6t-30.5 21.5t-42.5 40t-44 63.5t-39 90q-28 7 -60 7q-94 0 -150.5 -96t-56.5 -275q0 -165 61 -259.5t179 -94.5q44 0 81 11.5t65.5 34.5t44.5 40t38 45z" />
    <glyph glyph-name="ordfeminine" unicode="&#xaa;" horiz-adv-x="743" 
d="M344 1329q130 0 189 -51.5t59 -151.5q0 -33 -2 -100.5t-2 -124.5q0 -29 22 -29q33 0 56 52l20 -6q-38 -132 -176 -132q-97 0 -129 68q-64 -68 -158 -68q-62 0 -102.5 33t-40.5 103v75q81 79 291 121v43q0 66 -15 90.5t-45 24.5q-27 0 -47 -8q-13 -17 -20.5 -50.5
t-9.5 -57.5l-1 -25h-98q-31 26 -43 102q32 34 103.5 63t148.5 29zM326 879q15 0 43 16v14q0 105 2 162q-14 -3 -38 -10.5t-30 -9.5v-125q0 -21 3.5 -32t7.5 -13t12 -2z" />
    <glyph glyph-name="guillemotleft" unicode="&#xab;" horiz-adv-x="989" 
d="M41 496v51l422 401h76l-232 -424l232 -430h-76zM451 496v51l421 401h76l-231 -424l231 -430h-76z" />
    <glyph glyph-name="logicalnot" unicode="&#xac;" 
d="M82 537v131h876v-469h-133v338h-743z" />
    <glyph glyph-name="registered" unicode="&#xae;" horiz-adv-x="1316" 
d="M80 821q0 160 78.5 296.5t214 216t295.5 79.5t296.5 -79.5t216 -216t79.5 -296.5t-79.5 -295.5t-216 -214t-296.5 -78.5t-295.5 78.5t-214 214t-78.5 295.5zM668 1352q-140 0 -258.5 -71t-187 -193.5t-68.5 -266.5t68.5 -266t187 -193t258.5 -71t258.5 71t187 193
t68.5 266t-68.5 266.5t-187 193.5t-258.5 71zM1001 545v-17h-215q-49 20 -75 101l-47 145h-35v-211l45 -18v-17h-314v17l62 18v535l-62 20v15h342q256 0 256 -170q0 -109 -96 -150v-8l49 -121q22 -54 44.5 -88.5t34.5 -42.5zM641 1092h-12v-279h49q27 13 48.5 47.5
t21.5 89.5q0 142 -107 142z" />
    <glyph glyph-name="macron" unicode="&#xaf;" horiz-adv-x="688" 
d="M115 1292v99h479v-99h-479z" />
    <glyph glyph-name="degree" unicode="&#xb0;" horiz-adv-x="684" 
d="M80 1055q0 113 80 193.5t192 80.5q113 0 194 -81t81 -193t-81 -192.5t-194 -80.5q-112 0 -192 80t-80 193zM184 1055q0 -75 51 -130t119 -55q67 0 116.5 55t49.5 130t-49 129.5t-117 54.5t-119 -54.5t-51 -129.5z" />
    <glyph glyph-name="plusminus" unicode="&#xb1;" 
d="M82 602v131h373v322h131v-322h372v-131h-372v-321h-131v321h-373zM82 0v131h876v-131h-876z" />
    <glyph glyph-name="twosuperior" unicode="&#xb2;" horiz-adv-x="704" 
d="M137 1128l-26 19q11 24 24 46t36 48t50 44.5t66 31t84 12.5q101 0 161 -52.5t60 -141.5q0 -29 -5.5 -55t-20 -51.5t-26 -43.5t-39 -42t-41 -36.5t-50.5 -36.5t-50 -32.5t-55 -34.5v-4h209q15 32 42 56t47 32l20 8l18 -12q-12 -70 -12 -160v-57h-539l-10 41
q291 255 291 405q0 72 -86 72q-38 0 -80 -16.5t-68 -39.5z" />
    <glyph glyph-name="threesuperior" unicode="&#xb3;" horiz-adv-x="671" 
d="M240 1030q61 7 91.5 28.5t30.5 80.5q0 37 -26 57.5t-68 20.5q-79 0 -151 -68l-23 18q75 162 262 162q104 0 163 -42t59 -109q0 -68 -52 -101t-145 -45v-2q227 -15 227 -166q0 -55 -26.5 -97t-70 -65.5t-92.5 -35t-102 -11.5q-78 0 -140.5 17.5t-96.5 40.5q0 38 15 73.5
t27.5 50.5t20.5 21h41q3 -86 23 -141q52 -15 80 -15q46 0 73 35.5t27 102.5q0 26 -5 46.5t-11.5 34.5t-20.5 25.5t-23.5 18t-30 12.5t-31 8.5t-34.5 7.5z" />
    <glyph glyph-name="acute" unicode="&#xb4;" horiz-adv-x="585" 
d="M317 1536h35l150 -174l-393 -172l-27 29z" />
    <glyph glyph-name="mu" unicode="&#xb5;" horiz-adv-x="1304" 
d="M498 1075v-848q5 -10 12.5 -21t23.5 -26.5t43 -25t60 -9.5q37 0 77.5 12t67.5 33v734l-129 22v41l398 88h75v-995l127 -45v-35h-440l-20 113h-11q-63 -61 -133.5 -95.5t-165.5 -37.5l54 -322h-383v1266l-129 22v41l397 88h76z" />
    <glyph glyph-name="mu" unicode="&#x3bc;" horiz-adv-x="1304" 
d="M498 1075v-848q5 -10 12.5 -21t23.5 -26.5t43 -25t60 -9.5q37 0 77.5 12t67.5 33v734l-129 22v41l398 88h75v-995l127 -45v-35h-440l-20 113h-11q-63 -61 -133.5 -95.5t-165.5 -37.5l54 -322h-383v1266l-129 22v41l397 88h76z" />
    <glyph glyph-name="paragraph" unicode="&#xb6;" horiz-adv-x="1212" 
d="M637 1391v-1127q-150 -1 -267.5 43t-190.5 122.5t-110.5 180.5t-37.5 221t44 222t122.5 177.5t192.5 117.5t247 43zM987 1311v-1153q0 -120 -32.5 -212.5t-85 -149.5t-128 -93.5t-153.5 -50.5t-168 -14q-97 0 -203 18q-10 72 12 151t49 123l27 43h103q0 -7 -0.5 -19
t0.5 -45.5t5.5 -64t16 -65.5t29.5 -58q28 3 45.5 6t52.5 14t59 27t54 46.5t48 70.5t31 102t13 138v1266h389v-35z" />
    <glyph glyph-name="periodcentered" unicode="&#xb7;" horiz-adv-x="466" 
d="M45 662q0 77 51.5 128.5t134.5 51.5q87 0 139 -51.5t52 -128.5q0 -75 -52 -126t-139 -51q-83 0 -134.5 51.5t-51.5 125.5z" />
    <glyph glyph-name="cedilla" unicode="&#xb8;" horiz-adv-x="557" 
d="M358 31l-71 -113q114 0 172.5 -31.5t58.5 -109.5q0 -66 -65 -102.5t-185 -36.5q-134 0 -217 63l23 45q72 -35 147 -35q86 0 86 49q0 39 -34.5 57.5t-114.5 35.5v8l110 170h90z" />
    <glyph glyph-name="onesuperior" unicode="&#xb9;" horiz-adv-x="563" 
d="M190 711v465h-10q-22 0 -40.5 6t-29 15t-18 17.5t-10.5 14.5l-2 6v18q22 2 57.5 6t117 24t128.5 48l25 -16v-602l92 -31v-16h-398v16z" />
    <glyph glyph-name="ordmasculine" unicode="&#xba;" horiz-adv-x="739" 
d="M383 1329q138 0 218.5 -70.5t80.5 -199.5q0 -126 -83 -199.5t-220 -73.5q-139 0 -219 70.5t-80 198.5q0 127 83.5 200.5t219.5 73.5zM383 838q36 0 52 53.5t16 165.5q0 115 -17 168t-55 53t-52 -51t-14 -170q0 -114 15.5 -166.5t54.5 -52.5z" />
    <glyph glyph-name="guillemotright" unicode="&#xbb;" horiz-adv-x="989" 
d="M539 547v-51l-422 -402h-76l231 430l-231 424h76zM948 547v-51l-422 -402h-75l231 430l-231 424h75z" />
    <glyph glyph-name="onequarter" unicode="&#xbc;" horiz-adv-x="1228" 
d="M551 158v18l328 477h151v-448h74v-47h-74v-119l68 -23v-16h-367v16l80 23v119h-260zM807 461l-174 -256h178v256h-4zM190 711v465h-10q-22 0 -40.5 6t-29 15t-18 17.5t-10.5 14.5l-2 6v18q22 2 57.5 6t117 24t128.5 48l25 -16v-602l92 -31v-16h-398v16zM209 0h-111
l975 1309h109z" />
    <glyph glyph-name="onehalf" unicode="&#xbd;" horiz-adv-x="1271" 
d="M705 463l-27 18q14 31 33 59t49.5 58t76.5 48t101 18q101 0 161 -53t60 -142q0 -29 -5.5 -55t-20 -51.5t-26 -43.5t-39 -42t-41 -36.5t-50.5 -36.5t-50 -32.5t-55 -34.5v-4h209q15 32 42 56t47 32l20 8l18 -12q-12 -70 -12 -160v-57h-539l-10 41q291 255 291 405
q0 72 -86 72q-38 0 -79.5 -16t-67.5 -39zM190 711v465h-10q-22 0 -40.5 6t-29 15t-18 17.5t-10.5 14.5l-2 6v18q22 2 57.5 6t117 24t128.5 48l25 -16v-602l92 -31v-16h-398v16zM209 0h-111l975 1309h109z" />
    <glyph glyph-name="threequarters" unicode="&#xbe;" horiz-adv-x="1275" 
d="M582 158v18l327 477h152v-448h74v-47h-74v-119l67 -23v-16h-366v16l80 23v119h-260zM838 461l-174 -256h178v256h-4zM240 1030q61 7 91.5 28.5t30.5 80.5q0 37 -26 57.5t-68 20.5q-79 0 -151 -68l-23 18q75 162 262 162q104 0 163 -42t59 -109q0 -68 -52 -101t-145 -45
v-2q227 -15 227 -166q0 -55 -26.5 -97t-70 -65.5t-92.5 -35t-102 -11.5q-78 0 -140.5 17.5t-96.5 40.5q0 38 15 73.5t27.5 50.5t20.5 21h41q3 -86 23 -141q52 -15 80 -15q46 0 73 35.5t27 102.5q0 26 -5 46.5t-11.5 34.5t-20.5 25.5t-23.5 18t-30 12.5t-31 8.5t-34.5 7.5z
M256 0h-111l975 1309h109z" />
    <glyph glyph-name="questiondown" unicode="&#xbf;" 
d="M977 -195q-61 -63 -172.5 -112t-276.5 -49q-207 0 -337 96.5t-130 265.5q0 77 25.5 143t68 114.5t101.5 87t120.5 63t129.5 39.5l80 141h51l170 -287q-11 -3 -42.5 -10.5t-51 -12t-53 -14.5t-55.5 -19t-52.5 -24t-50.5 -30t-42 -37t-35 -46t-21.5 -55.5t-8.5 -66.5
q0 -71 19 -122t53 -77t71.5 -37.5t82.5 -11.5q34 0 79 10q36 61 67.5 134.5t44.5 117.5l13 43h93q8 -14 20 -37.5t28.5 -87.5t10.5 -119zM793 899q0 -77 -52 -128.5t-135 -51.5q-87 0 -138.5 51.5t-51.5 128.5q0 75 51.5 125.5t138.5 50.5q83 0 135 -51t52 -125z" />
    <glyph glyph-name="Agrave" unicode="&#xc0;" horiz-adv-x="1484" 
d="M664 1391l155 20l563 -1333l123 -45v-33h-661v33l135 43l-135 327h-459l-131 -327l133 -43v-33h-407v33l129 45zM807 492l-189 462h-10l-186 -462h385zM571 1872h35l236 -318l-27 -28l-393 172z" />
    <glyph glyph-name="Aacute" unicode="&#xc1;" horiz-adv-x="1484" 
d="M664 1391l155 20l563 -1333l123 -45v-33h-661v33l135 43l-135 327h-459l-131 -327l133 -43v-33h-407v33l129 45zM807 492l-189 462h-10l-186 -462h385zM877 1872h34l150 -174l-393 -172l-27 28z" />
    <glyph glyph-name="Acircumflex" unicode="&#xc2;" horiz-adv-x="1484" 
d="M664 1391l155 20l563 -1333l123 -45v-33h-661v33l135 43l-135 327h-459l-131 -327l133 -43v-33h-407v33l129 45zM807 492l-189 462h-10l-186 -462h385zM727 1833h37l270 -297l-20 -29l-269 115l-268 -115l-20 29z" />
    <glyph glyph-name="Atilde" unicode="&#xc3;" horiz-adv-x="1484" 
d="M664 1391l155 20l563 -1333l123 -45v-33h-661v33l135 43l-135 327h-459l-131 -327l133 -43v-33h-407v33l129 45zM807 492l-189 462h-10l-186 -462h385zM1069 1837q2 -55 -6 -103.5t-27 -91.5t-55.5 -68.5t-87.5 -25.5q-66 0 -166.5 44.5t-155.5 47.5q-67 -25 -151 -118
l-17 8q3 44 8 78.5t19.5 77t36 70.5t59.5 47.5t88 19.5q55 0 108 -20t102.5 -41t93.5 -23q36 14 72.5 45.5t58.5 62.5z" />
    <glyph glyph-name="Adieresis" unicode="&#xc4;" horiz-adv-x="1484" 
d="M664 1391l155 20l563 -1333l123 -45v-33h-661v33l135 43l-135 327h-459l-131 -327l133 -43v-33h-407v33l129 45zM807 492l-189 462h-10l-186 -462h385zM575 1550q-59 0 -97 37.5t-38 93.5q0 55 38 94.5t97 39.5q57 0 94.5 -39.5t37.5 -94.5q0 -56 -37 -93.5t-95 -37.5z
M911 1550q-58 0 -95.5 37.5t-37.5 93.5q0 55 38 94.5t95 39.5q59 0 96 -39t37 -95t-37 -93.5t-96 -37.5z" />
    <glyph glyph-name="Aring" unicode="&#xc5;" horiz-adv-x="1484" 
d="M664 1391l155 20l563 -1333l123 -45v-33h-661v33l135 43l-135 327h-459l-131 -327l133 -43v-33h-407v33l129 45zM807 492l-189 462h-10l-186 -462h385zM756 1837q115 0 183.5 -43t68.5 -123q0 -81 -71 -126.5t-185 -45.5q-116 0 -185 44t-69 122q0 81 71 126.5t187 45.5z
M760 1540q80 0 80 127q0 65 -24 98t-68 33q-82 0 -82 -131q0 -60 25 -93.5t69 -33.5z" />
    <glyph glyph-name="AE" unicode="&#xc6;" horiz-adv-x="2023" 
d="M88 78l735 1313h1090v-54q0 -80 5.5 -159.5t11.5 -118.5l5 -39l-41 -14q-5 4 -13 12t-31.5 36t-45 59t-48 80.5t-44.5 102.5h-426v-548l408 16l41 96h47v-303h-39l-47 96l-410 17v-576h473q22 75 67 152t79 117l34 40l43 -12q-22 -157 -22 -315v-76h-1186v35l144 45v323
h-488l-176 -327l133 -43v-33h-407v33zM918 1296h-7l-434 -804h441v804z" />
    <glyph glyph-name="Ccedilla" unicode="&#xc7;" horiz-adv-x="1282" 
d="M1262 367q-15 -50 -40 -99.5t-70.5 -103t-102.5 -93t-140.5 -65.5t-179.5 -26h-35l-39 -62q115 0 173.5 -31.5t58.5 -109.5q0 -66 -65 -102.5t-185 -36.5q-134 0 -217 63l22 45q72 -35 148 -35q86 0 86 49q0 39 -34.5 57t-115.5 36v8l82 127q-260 33 -408.5 210.5
t-148.5 477.5q0 173 56 313t155 232t234.5 141t294.5 49q98 0 225 -22.5t170 -22.5v-100q0 -68 8 -136.5t16 -103.5l7 -35l-54 -22q-7 4 -18.5 12.5t-44 38.5t-60.5 63.5t-59 87.5t-49 111q-61 23 -141 23q-166 0 -259.5 -153.5t-93.5 -449.5q0 -254 102.5 -391t258.5 -137
q82 0 151.5 19t122 54.5t85.5 67t69 74.5z" />
    <glyph glyph-name="Egrave" unicode="&#xc8;" horiz-adv-x="1310" 
d="M205 1311l-144 45v35h1139v-54q0 -80 6 -159.5t12 -118.5l5 -39l-41 -14q-5 4 -13 12t-32 36t-45.5 59t-48 80.5t-44.5 102.5h-426v-548l408 16l41 96h47v-303h-39l-47 96l-410 17v-576h474q22 75 67 152t79 117l34 40l43 -12q-23 -157 -23 -315v-76h-1186v35l144 45
v1231zM522 1872h35l236 -318l-27 -28l-393 172z" />
    <glyph glyph-name="Eacute" unicode="&#xc9;" horiz-adv-x="1310" 
d="M838 1872h34l150 -174l-393 -172l-27 28zM205 1311l-144 45v35h1139v-54q0 -80 6 -159.5t12 -118.5l5 -39l-41 -14q-5 4 -13 12t-32 36t-45.5 59t-48 80.5t-44.5 102.5h-426v-548l408 16l41 96h47v-303h-39l-47 96l-410 17v-576h474q22 75 67 152t79 117l34 40l43 -12
q-23 -157 -23 -315v-76h-1186v35l144 45v1231z" />
    <glyph glyph-name="Ecircumflex" unicode="&#xca;" horiz-adv-x="1310" 
d="M649 1833h37l270 -297l-20 -29l-268 115l-269 -115l-20 29zM205 1311l-144 45v35h1139v-54q0 -80 6 -159.5t12 -118.5l5 -39l-41 -14q-5 4 -13 12t-32 36t-45.5 59t-48 80.5t-44.5 102.5h-426v-548l408 16l41 96h47v-303h-39l-47 96l-410 17v-576h474q22 75 67 152
t79 117l34 40l43 -12q-23 -157 -23 -315v-76h-1186v35l144 45v1231z" />
    <glyph glyph-name="Edieresis" unicode="&#xcb;" horiz-adv-x="1310" 
d="M496 1550q-59 0 -97.5 37.5t-38.5 93.5q0 55 38.5 94.5t97.5 39.5q57 0 94 -39.5t37 -94.5q0 -56 -36.5 -93.5t-94.5 -37.5zM831 1550q-58 0 -95.5 37.5t-37.5 93.5q0 55 38 94.5t95 39.5q59 0 96.5 -39.5t37.5 -94.5q0 -56 -37.5 -93.5t-96.5 -37.5zM205 1311l-144 45
v35h1139v-54q0 -80 6 -159.5t12 -118.5l5 -39l-41 -14q-5 4 -13 12t-32 36t-45.5 59t-48 80.5t-44.5 102.5h-426v-548l408 16l41 96h47v-303h-39l-47 96l-410 17v-576h474q22 75 67 152t79 117l34 40l43 -12q-23 -157 -23 -315v-76h-1186v35l144 45v1231z" />
    <glyph glyph-name="Igrave" unicode="&#xcc;" horiz-adv-x="778" 
d="M205 1311l-144 45v35h656v-35l-144 -45v-1231l144 -45v-35h-656v35l144 45v1231zM231 1872h35l236 -318l-27 -28l-393 172z" />
    <glyph glyph-name="Iacute" unicode="&#xcd;" horiz-adv-x="778" 
d="M205 1311l-144 45v35h656v-35l-144 -45v-1231l144 -45v-35h-656v35l144 45v1231zM526 1872h35l150 -174l-394 -172l-26 28z" />
    <glyph glyph-name="Icircumflex" unicode="&#xce;" horiz-adv-x="778" 
d="M205 1311l-144 45v35h656v-35l-144 -45v-1231l144 -45v-35h-656v35l144 45v1231zM383 1833h37l270 -297l-20 -29l-269 115l-268 -115l-20 29z" />
    <glyph glyph-name="Idieresis" unicode="&#xcf;" horiz-adv-x="778" 
d="M205 1311l-144 45v35h656v-35l-144 -45v-1231l144 -45v-35h-656v35l144 45v1231zM229 1550q-59 0 -97 37.5t-38 93.5q0 55 38 94.5t97 39.5q57 0 94 -39.5t37 -94.5q0 -56 -36.5 -93.5t-94.5 -37.5zM565 1550q-58 0 -95.5 37.5t-37.5 93.5q0 55 38 94.5t95 39.5
q59 0 96 -39t37 -95t-37 -93.5t-96 -37.5z" />
    <glyph glyph-name="Eth" unicode="&#xd0;" horiz-adv-x="1564" 
d="M86 690v92h119v529l-144 45v35h707q347 0 546 -181t199 -508q0 -216 -93.5 -375.5t-263.5 -243t-396 -83.5h-699v35l144 45v610h-119zM750 1296h-177v-514h195v-92h-195v-596h205q182 0 264 154t82 444q0 282 -98 443t-276 161z" />
    <glyph glyph-name="Ntilde" unicode="&#xd1;" horiz-adv-x="1468" 
d="M1155 1315l-137 43v33h409v-33l-139 -43v-1315h-123l-829 930v-854l137 -43v-33h-412v33l140 43v1239l-140 43v33h353l741 -836v760zM1077 1837q2 -55 -6 -103.5t-27 -91.5t-55.5 -68.5t-87.5 -25.5q-66 0 -166 44.5t-155 47.5q-69 -26 -152 -118l-16 8q3 44 8 78.5
t19.5 77t36 70.5t59.5 47.5t88 19.5q44 0 87 -12.5t72.5 -28t68.5 -29t75 -14.5q36 14 72.5 45.5t58.5 62.5z" />
    <glyph glyph-name="Ograve" unicode="&#xd2;" horiz-adv-x="1480" 
d="M745 1411q319 0 502 -186t183 -523q0 -335 -189 -528.5t-504 -193.5q-320 0 -503 184t-183 518q0 225 86.5 390.5t242.5 252t365 86.5zM727 1319q-103 0 -168 -76.5t-92 -212t-27 -338.5q0 -294 81.5 -457t234.5 -163q151 0 217.5 157.5t66.5 462.5q0 297 -81 462
t-232 165zM588 1872h35l235 -318l-27 -28l-393 172z" />
    <glyph glyph-name="Oacute" unicode="&#xd3;" horiz-adv-x="1480" 
d="M887 1872h35l149 -174l-393 -172l-27 28zM745 1411q319 0 502 -186t183 -523q0 -335 -189 -528.5t-504 -193.5q-320 0 -503 184t-183 518q0 225 86.5 390.5t242.5 252t365 86.5zM727 1319q-103 0 -168 -76.5t-92 -212t-27 -338.5q0 -294 81.5 -457t234.5 -163
q151 0 217.5 157.5t66.5 462.5q0 297 -81 462t-232 165z" />
    <glyph glyph-name="Ocircumflex" unicode="&#xd4;" horiz-adv-x="1480" 
d="M743 1833h37l271 -297l-21 -29l-268 115l-268 -115l-21 29zM745 1411q319 0 502 -186t183 -523q0 -335 -189 -528.5t-504 -193.5q-320 0 -503 184t-183 518q0 225 86.5 390.5t242.5 252t365 86.5zM727 1319q-103 0 -168 -76.5t-92 -212t-27 -338.5q0 -294 81.5 -457
t234.5 -163q151 0 217.5 157.5t66.5 462.5q0 297 -81 462t-232 165z" />
    <glyph glyph-name="Otilde" unicode="&#xd5;" horiz-adv-x="1480" 
d="M745 1411q319 0 502 -186t183 -523q0 -335 -189 -528.5t-504 -193.5q-320 0 -503 184t-183 518q0 225 86.5 390.5t242.5 252t365 86.5zM727 1319q-103 0 -168 -76.5t-92 -212t-27 -338.5q0 -294 81.5 -457t234.5 -163q151 0 217.5 157.5t66.5 462.5q0 297 -81 462
t-232 165zM1067 1837q2 -55 -6 -103.5t-27 -91.5t-55.5 -68.5t-87.5 -25.5q-66 0 -166.5 44.5t-155.5 47.5q-67 -25 -151 -118l-17 8q3 44 8 78.5t19.5 77t36 70.5t59.5 47.5t88 19.5q44 0 87 -12.5t72.5 -28t68.5 -29t75 -14.5q37 14 73.5 46t58.5 62z" />
    <glyph glyph-name="Odieresis" unicode="&#xd6;" horiz-adv-x="1480" 
d="M592 1550q-59 0 -97 37.5t-38 93.5q0 55 38 94.5t97 39.5q57 0 94 -39.5t37 -94.5q0 -56 -36.5 -93.5t-94.5 -37.5zM928 1550q-58 0 -95.5 37.5t-37.5 93.5q0 55 38 94.5t95 39.5q59 0 96 -39t37 -95t-37 -93.5t-96 -37.5zM745 1411q319 0 502 -186t183 -523
q0 -335 -189 -528.5t-504 -193.5q-320 0 -503 184t-183 518q0 225 86.5 390.5t242.5 252t365 86.5zM727 1319q-103 0 -168 -76.5t-92 -212t-27 -338.5q0 -294 81.5 -457t234.5 -163q151 0 217.5 157.5t66.5 462.5q0 297 -81 462t-232 165z" />
    <glyph glyph-name="multiply" unicode="&#xd7;" horiz-adv-x="886" 
d="M176 246l-94 94l262 262l-254 256l94 94l254 -256l262 262l95 -94l-263 -262l273 -270l-94 -94l-273 270z" />
    <glyph glyph-name="Oslash" unicode="&#xd8;" horiz-adv-x="1480" 
d="M745 1411q236 0 390 -98l73 98h125l-116 -158q213 -191 213 -551q0 -335 -189 -528.5t-504 -193.5q-236 0 -393 98l-72 -98h-127l117 157q-211 186 -211 545q0 225 86.5 390.5t242.5 252t365 86.5zM1040 692q0 156 -26 289l-516 -696q82 -213 258 -213q151 0 217.5 157.5
t66.5 462.5zM727 1319q-103 0 -168 -76.5t-92 -212t-27 -338.5q0 -156 25 -284l516 696q-82 215 -254 215z" />
    <glyph glyph-name="Ugrave" unicode="&#xd9;" horiz-adv-x="1546" 
d="M1219 428v883l-144 45v35h430v-35l-143 -45v-1037q-54 -96 -123 -158t-179.5 -99t-260.5 -37q-208 0 -378.5 80t-236.5 216v1035l-143 45v35h655v-35l-143 -45v-897q0 -151 81 -230.5t220 -79.5q163 0 264 88t101 236zM676 1872h35l235 -318l-26 -28l-394 172z" />
    <glyph glyph-name="Uacute" unicode="&#xda;" horiz-adv-x="1546" 
d="M958 1872h35l150 -174l-393 -172l-27 28zM1219 428v883l-144 45v35h430v-35l-143 -45v-1037q-54 -96 -123 -158t-179.5 -99t-260.5 -37q-208 0 -378.5 80t-236.5 216v1035l-143 45v35h655v-35l-143 -45v-897q0 -151 81 -230.5t220 -79.5q163 0 264 88t101 236z" />
    <glyph glyph-name="Ucircumflex" unicode="&#xdb;" horiz-adv-x="1546" 
d="M858 1833h37l270 -297l-20 -29l-268 115l-269 -115l-20 29zM1219 428v883l-144 45v35h430v-35l-143 -45v-1037q-54 -96 -123 -158t-179.5 -99t-260.5 -37q-208 0 -378.5 80t-236.5 216v1035l-143 45v35h655v-35l-143 -45v-897q0 -151 81 -230.5t220 -79.5q163 0 264 88
t101 236z" />
    <glyph glyph-name="Udieresis" unicode="&#xdc;" horiz-adv-x="1546" 
d="M662 1550q-59 0 -97.5 37.5t-38.5 93.5q0 55 38.5 94.5t97.5 39.5q57 0 94 -39.5t37 -94.5q0 -56 -36.5 -93.5t-94.5 -37.5zM997 1550q-58 0 -95.5 37.5t-37.5 93.5q0 55 38 94.5t95 39.5q59 0 96 -39t37 -95t-37 -93.5t-96 -37.5zM1219 428v883l-144 45v35h430v-35
l-143 -45v-1037q-54 -96 -123 -158t-179.5 -99t-260.5 -37q-208 0 -378.5 80t-236.5 216v1035l-143 45v35h655v-35l-143 -45v-897q0 -151 81 -230.5t220 -79.5q163 0 264 88t101 236z" />
    <glyph glyph-name="Yacute" unicode="&#xdd;" horiz-adv-x="1402" 
d="M381 35l143 45v538l-420 695l-124 45v33h671v-33l-135 -43l313 -549h5l313 549l-133 43v33h409v-33l-127 -45l-403 -688v-545l143 -45v-35h-655v35zM918 1872h34l150 -174l-393 -172l-27 28z" />
    <glyph glyph-name="Thorn" unicode="&#xde;" horiz-adv-x="1366" 
d="M651 326h60q116 0 178.5 94t62.5 268q0 340 -260 340h-119v-948l172 -45v-35h-684v35l144 45v1231l-144 45v35h656v-35l-144 -45v-189h170q129 0 235 -25.5t186.5 -76t125.5 -134t45 -192.5q0 -132 -69.5 -236t-180.5 -158t-239 -54q-85 0 -195 35v45z" />
    <glyph glyph-name="germandbls" unicode="&#xdf;" horiz-adv-x="1421" 
d="M764 1503q188 0 312 -77t124 -209q0 -48 -19.5 -86.5t-48 -62t-62.5 -46t-62.5 -40t-48 -43t-19.5 -54.5q0 -18 8.5 -35t30.5 -35.5t34 -27.5t44 -31l153 -107q102 -70 146.5 -143.5t44.5 -177.5q0 -157 -111 -252.5t-280 -95.5q-144 0 -283 51v100q0 24 -6.5 61
t-12.5 62l-6 25l35 8q5 -2 13.5 -6.5t32.5 -21t44.5 -36.5t43 -55t34.5 -74q22 -14 32 -20t24.5 -10.5t31.5 -4.5q59 0 92 35.5t33 98.5q0 32 -9 59t-30 52t-37.5 40.5t-48.5 40.5l-139 113q-26 21 -37.5 30.5t-35.5 34.5t-35.5 46t-22 53.5t-10.5 68.5q0 55 19.5 103t47 85
l55 74t47 86t19.5 105q0 110 -43 170.5t-121 60.5q-58 0 -97.5 -24.5t-60 -70t-28.5 -97t-8 -117.5v-1026l110 -45v-35h-602v35l148 45v887h-148v51l148 29v6q0 96 33.5 174t88 128.5t129 84.5t152.5 48.5t162 14.5z" />
    <glyph glyph-name="agrave" unicode="&#xe0;" horiz-adv-x="1169" 
d="M563 1075q428 0 428 -391q0 -73 -3 -231t-3 -291q0 -62 45 -62q33 0 62 45.5t43 100.5l55 -17q-30 -134 -101 -191.5t-192 -57.5q-85 0 -143.5 34t-85.5 95q-125 -129 -291 -129q-62 0 -114.5 15t-96.5 46t-69 86.5t-25 130.5v117q49 51 123.5 95t157.5 75t155 52t143 36
v100q0 134 -38 192t-134 58q-50 0 -106 -27q-26 -41 -44.5 -106t-24.5 -110l-5 -44h-119q-8 9 -21 26.5t-37 72t-30 110.5q63 64 193 117t278 53zM514 125q73 0 135 45q-2 14 -2 43q0 53 1 168.5t1 177.5q-143 -39 -246 -104v-160q0 -86 31.5 -128t79.5 -42zM375 1536h35
l235 -317l-27 -29l-393 172z" />
    <glyph glyph-name="aacute" unicode="&#xe1;" horiz-adv-x="1169" 
d="M563 1075q428 0 428 -391q0 -73 -3 -231t-3 -291q0 -62 45 -62q33 0 62 45.5t43 100.5l55 -17q-30 -134 -101 -191.5t-192 -57.5q-85 0 -143.5 34t-85.5 95q-125 -129 -291 -129q-62 0 -114.5 15t-96.5 46t-69 86.5t-25 130.5v117q49 51 123.5 95t157.5 75t155 52t143 36
v100q0 134 -38 192t-134 58q-50 0 -106 -27q-26 -41 -44.5 -106t-24.5 -110l-5 -44h-119q-8 9 -21 26.5t-37 72t-30 110.5q63 64 193 117t278 53zM514 125q73 0 135 45q-2 14 -2 43q0 53 1 168.5t1 177.5q-143 -39 -246 -104v-160q0 -86 31.5 -128t79.5 -42zM676 1536h35
l149 -174l-393 -172l-27 29z" />
    <glyph glyph-name="acircumflex" unicode="&#xe2;" horiz-adv-x="1169" 
d="M563 1075q428 0 428 -391q0 -73 -3 -231t-3 -291q0 -62 45 -62q33 0 62 45.5t43 100.5l55 -17q-30 -134 -101 -191.5t-192 -57.5q-85 0 -143.5 34t-85.5 95q-125 -129 -291 -129q-62 0 -114.5 15t-96.5 46t-69 86.5t-25 130.5v117q49 51 123.5 95t157.5 75t155 52t143 36
v100q0 134 -38 192t-134 58q-50 0 -106 -27q-26 -41 -44.5 -106t-24.5 -110l-5 -44h-119q-8 9 -21 26.5t-37 72t-30 110.5q63 64 193 117t278 53zM514 125q73 0 135 45q-2 14 -2 43q0 53 1 168.5t1 177.5q-143 -39 -246 -104v-160q0 -86 31.5 -128t79.5 -42zM547 1497h37
l270 -297l-20 -29l-269 115l-268 -115l-21 29z" />
    <glyph glyph-name="atilde" unicode="&#xe3;" horiz-adv-x="1169" 
d="M563 1075q428 0 428 -391q0 -73 -3 -231t-3 -291q0 -62 45 -62q33 0 62 45.5t43 100.5l55 -17q-30 -134 -101 -191.5t-192 -57.5q-85 0 -143.5 34t-85.5 95q-125 -129 -291 -129q-62 0 -114.5 15t-96.5 46t-69 86.5t-25 130.5v117q49 51 123.5 95t157.5 75t155 52t143 36
v100q0 134 -38 192t-134 58q-50 0 -106 -27q-26 -41 -44.5 -106t-24.5 -110l-5 -44h-119q-8 9 -21 26.5t-37 72t-30 110.5q63 64 193 117t278 53zM899 1501q2 -55 -6 -103.5t-27 -91.5t-55.5 -68.5t-87.5 -25.5q-66 0 -166.5 45t-155.5 48q-66 -25 -151 -119l-17 8
q3 44 8 78.5t19.5 77t36 70.5t59.5 47.5t88 19.5q55 0 108 -20t102.5 -41t93.5 -23q36 14 72.5 45.5t58.5 62.5zM514 125q73 0 135 45q-2 14 -2 43q0 53 1 168.5t1 177.5q-143 -39 -246 -104v-160q0 -86 31.5 -128t79.5 -42z" />
    <glyph glyph-name="adieresis" unicode="&#xe4;" horiz-adv-x="1169" 
d="M563 1075q428 0 428 -391q0 -73 -3 -231t-3 -291q0 -62 45 -62q33 0 62 45.5t43 100.5l55 -17q-30 -134 -101 -191.5t-192 -57.5q-85 0 -143.5 34t-85.5 95q-125 -129 -291 -129q-62 0 -114.5 15t-96.5 46t-69 86.5t-25 130.5v117q49 51 123.5 95t157.5 75t155 52t143 36
v100q0 134 -38 192t-134 58q-50 0 -106 -27q-26 -41 -44.5 -106t-24.5 -110l-5 -44h-119q-8 9 -21 26.5t-37 72t-30 110.5q63 64 193 117t278 53zM514 125q73 0 135 45q-2 14 -2 43q0 53 1 168.5t1 177.5q-143 -39 -246 -104v-160q0 -86 31.5 -128t79.5 -42zM403 1214
q-59 0 -97 38t-38 94q0 55 38 94t97 39q57 0 94.5 -39t37.5 -94q0 -56 -37 -94t-95 -38zM739 1214q-58 0 -95.5 38t-37.5 94q0 55 38 94t95 39q59 0 96 -39t37 -94q0 -56 -37 -94t-96 -38z" />
    <glyph glyph-name="aring" unicode="&#xe5;" horiz-adv-x="1169" 
d="M563 1075q428 0 428 -391q0 -73 -3 -231t-3 -291q0 -62 45 -62q33 0 62 45.5t43 100.5l55 -17q-30 -134 -101 -191.5t-192 -57.5q-85 0 -143.5 34t-85.5 95q-125 -129 -291 -129q-62 0 -114.5 15t-96.5 46t-69 86.5t-25 130.5v117q49 51 123.5 95t157.5 75t155 52t143 36
v100q0 134 -38 192t-134 58q-50 0 -106 -27q-26 -41 -44.5 -106t-24.5 -110l-5 -44h-119q-8 9 -21 26.5t-37 72t-30 110.5q63 64 193 117t278 53zM547 1501q115 0 183.5 -43t68.5 -123q0 -81 -71 -126.5t-185 -45.5q-116 0 -185 44t-69 122q0 81 71 126.5t187 45.5zM514 125
q73 0 135 45q-2 14 -2 43q0 53 1 168.5t1 177.5q-143 -39 -246 -104v-160q0 -86 31.5 -128t79.5 -42zM551 1204q80 0 80 127q0 65 -24 98t-68 33q-82 0 -82 -131q0 -60 25 -93.5t69 -33.5z" />
    <glyph glyph-name="ae" unicode="&#xe6;" horiz-adv-x="1638" 
d="M1548 250l31 -27q-57 -105 -161.5 -174t-250.5 -69q-284 0 -419 188q-156 -188 -371 -188q-62 0 -114.5 15t-96.5 46t-69 86.5t-25 130.5v117q49 51 123.5 95t157.5 75t155 52t143 36v100q0 134 -38 192t-134 58q-50 0 -106 -27q-26 -41 -44.5 -106t-24.5 -110l-5 -44
h-119q-8 9 -21 26.5t-37 72t-30 110.5q63 64 193 117t278 53q202 0 299 -106q121 106 291 106q210 0 327 -130t117 -337v-90l-606 10q13 -391 262 -391q88 0 155 28.5t140 84.5zM514 125q53 0 106.5 25.5t96.5 64.5q-68 124 -68 305v39q-153 -45 -246 -104v-160
q0 -86 31.5 -128t79.5 -42zM1145 991q-154 0 -154 -397l283 16v37q0 344 -129 344z" />
    <glyph glyph-name="ccedilla" unicode="&#xe7;" horiz-adv-x="980" 
d="M864 709h-116q-1 17 -4.5 44.5t-20.5 95.5t-41 114q-40 14 -78 14q-207 0 -207 -406q0 -432 267 -432q135 0 278 125l39 -28q-58 -111 -159 -183.5t-244 -72.5q-10 0 -29.5 1t-28.5 1l-39 -64q115 0 173.5 -31.5t58.5 -109.5q0 -66 -65 -102.5t-185 -36.5q-134 0 -217 63
l22 45q72 -35 148 -35q86 0 86 49q0 39 -34.5 57t-115.5 36v8l86 133q-183 35 -285 168.5t-102 357.5q0 169 75 297t197 193t269 65q102 0 200 -28.5t154 -77.5q-3 -68 -23.5 -133t-39.5 -96z" />
    <glyph glyph-name="egrave" unicode="&#xe8;" 
d="M950 250l31 -27q-57 -105 -161.5 -174t-250.5 -69q-240 0 -379 138t-139 402q0 127 41.5 233t111 175.5t160.5 108t191 38.5q210 0 327 -130t117 -337v-90l-606 10q13 -391 262 -391q88 0 155 28.5t140 84.5zM547 991q-154 0 -154 -397l283 16v37q0 344 -129 344z
M379 1536h35l235 -317l-26 -29l-394 172z" />
    <glyph glyph-name="eacute" unicode="&#xe9;" 
d="M950 250l31 -27q-57 -105 -161.5 -174t-250.5 -69q-240 0 -379 138t-139 402q0 127 41.5 233t111 175.5t160.5 108t191 38.5q210 0 327 -130t117 -337v-90l-606 10q13 -391 262 -391q88 0 155 28.5t140 84.5zM547 991q-154 0 -154 -397l283 16v37q0 344 -129 344z
M713 1536h35l149 -174l-393 -172l-27 29z" />
    <glyph glyph-name="ecircumflex" unicode="&#xea;" 
d="M950 250l31 -27q-57 -105 -161.5 -174t-250.5 -69q-240 0 -379 138t-139 402q0 127 41.5 233t111 175.5t160.5 108t191 38.5q210 0 327 -130t117 -337v-90l-606 10q13 -391 262 -391q88 0 155 28.5t140 84.5zM547 991q-154 0 -154 -397l283 16v37q0 344 -129 344z
M514 1497h37l270 -297l-20 -29l-269 115l-268 -115l-20 29z" />
    <glyph glyph-name="edieresis" unicode="&#xeb;" 
d="M950 250l31 -27q-57 -105 -161.5 -174t-250.5 -69q-240 0 -379 138t-139 402q0 127 41.5 233t111 175.5t160.5 108t191 38.5q210 0 327 -130t117 -337v-90l-606 10q13 -391 262 -391q88 0 155 28.5t140 84.5zM547 991q-154 0 -154 -397l283 16v37q0 344 -129 344z
M360 1214q-59 0 -97 38t-38 94q0 55 38 94t97 39q57 0 94.5 -39t37.5 -94q0 -56 -37 -94t-95 -38zM696 1214q-58 0 -95.5 38t-37.5 94q0 55 38 94t95 39q59 0 96 -39t37 -94q0 -56 -37 -94t-96 -38z" />
    <glyph glyph-name="igrave" unicode="&#xec;" horiz-adv-x="684" 
d="M524 1075v-995l127 -45v-35h-598v35l127 45v844l-129 22v41l398 88h75zM225 1536h35l236 -317l-27 -29l-393 172z" />
    <glyph glyph-name="iacute" unicode="&#xed;" horiz-adv-x="684" 
d="M455 1536h34l150 -174l-393 -172l-27 29zM524 1075v-995l127 -45v-35h-598v35l127 45v844l-129 22v41l398 88h75z" />
    <glyph glyph-name="icircumflex" unicode="&#xee;" horiz-adv-x="684" 
d="M326 1497h36l271 -297l-21 -29l-268 115l-268 -115l-21 29zM524 1075v-995l127 -45v-35h-598v35l127 45v844l-129 22v41l398 88h75z" />
    <glyph glyph-name="idieresis" unicode="&#xef;" horiz-adv-x="684" 
d="M184 1214q-59 0 -97 38t-38 94q0 55 38 94t97 39q57 0 94 -39t37 -94q0 -56 -36.5 -94t-94.5 -38zM520 1214q-58 0 -95.5 38t-37.5 94q0 55 38 94t95 39q59 0 96 -39t37 -94q0 -56 -37 -94t-96 -38zM524 1075v-995l127 -45v-35h-598v35l127 45v844l-129 22v41l398 88h75z
" />
    <glyph glyph-name="eth" unicode="&#xf0;" horiz-adv-x="1185" 
d="M926 1364l-117 -53q158 -150 242 -357t84 -422q0 -256 -150.5 -404t-396.5 -148q-250 0 -393.5 141.5t-143.5 398.5q0 259 150.5 407t398.5 148q62 0 121 -16q-26 94 -72 182l-157 -70l-27 58l151 67q-55 94 -131 177l27 30q132 -54 244 -143l141 63zM600 68
q96 0 135 108t39 350q0 236 -44 346.5t-142 110.5q-97 0 -136.5 -108t-39.5 -349q0 -238 44.5 -348t143.5 -110z" />
    <glyph glyph-name="ntilde" unicode="&#xf1;" horiz-adv-x="1312" 
d="M449 1075h67v-133h8q63 59 144.5 96t169.5 37q68 0 124 -18.5t101.5 -57.5t71.5 -108.5t26 -163.5v-647l127 -45v-35h-569v35l98 45v682q0 147 -147 147q-37 0 -78 -12t-68 -33v-784l97 -45v-35h-568v35l127 45v844l-129 22v41zM989 1501q2 -55 -6 -103.5t-27 -91.5
t-55.5 -68.5t-87.5 -25.5q-54 0 -109 22t-109.5 45.5t-102.5 25.5q-68 -25 -152 -119l-16 8q3 44 8 78.5t19.5 77t36 70.5t59.5 47.5t88 19.5q44 0 87 -12.5t72.5 -28t68.5 -29t75 -14.5q36 14 72.5 45.5t58.5 62.5z" />
    <glyph glyph-name="ograve" unicode="&#xf2;" horiz-adv-x="1185" 
d="M600 1075q249 0 392 -142t143 -401q0 -256 -150.5 -404t-396.5 -148q-250 0 -393.5 141.5t-143.5 398.5q0 259 150.5 407t398.5 148zM600 68q96 0 135 108t39 348q0 238 -44 349.5t-142 111.5q-97 0 -136.5 -109t-39.5 -352q0 -235 44.5 -345.5t143.5 -110.5zM430 1536
h35l235 -317l-26 -29l-393 172z" />
    <glyph glyph-name="oacute" unicode="&#xf3;" horiz-adv-x="1185" 
d="M725 1536h35l149 -174l-393 -172l-27 29zM600 1075q249 0 392 -142t143 -401q0 -256 -150.5 -404t-396.5 -148q-250 0 -393.5 141.5t-143.5 398.5q0 259 150.5 407t398.5 148zM600 68q96 0 135 108t39 348q0 238 -44 349.5t-142 111.5q-97 0 -136.5 -109t-39.5 -352
q0 -235 44.5 -345.5t143.5 -110.5z" />
    <glyph glyph-name="ocircumflex" unicode="&#xf4;" horiz-adv-x="1185" 
d="M590 1497h37l270 -297l-20 -29l-269 115l-268 -115l-21 29zM600 1075q249 0 392 -142t143 -401q0 -256 -150.5 -404t-396.5 -148q-250 0 -393.5 141.5t-143.5 398.5q0 259 150.5 407t398.5 148zM600 68q96 0 135 108t39 348q0 238 -44 349.5t-142 111.5
q-97 0 -136.5 -109t-39.5 -352q0 -235 44.5 -345.5t143.5 -110.5z" />
    <glyph glyph-name="otilde" unicode="&#xf5;" horiz-adv-x="1185" 
d="M600 1075q249 0 392 -142t143 -401q0 -256 -150.5 -404t-396.5 -148q-250 0 -393.5 141.5t-143.5 398.5q0 259 150.5 407t398.5 148zM600 68q96 0 135 108t39 348q0 238 -44 349.5t-142 111.5q-97 0 -136.5 -109t-39.5 -352q0 -235 44.5 -345.5t143.5 -110.5zM926 1501
q2 -55 -6 -103.5t-27 -91.5t-55.5 -68.5t-87.5 -25.5q-66 0 -166.5 45t-155.5 48q-68 -25 -152 -119l-16 8q3 44 8 78.5t19.5 77t36 70.5t59.5 47.5t88 19.5q44 0 87 -12.5t72.5 -28t68.5 -29t75 -14.5q36 14 72.5 45.5t58.5 62.5z" />
    <glyph glyph-name="odieresis" unicode="&#xf6;" horiz-adv-x="1185" 
d="M428 1214q-59 0 -97 38t-38 94q0 55 38 94t97 39q57 0 94 -39t37 -94q0 -56 -36.5 -94t-94.5 -38zM764 1214q-58 0 -95.5 38t-37.5 94q0 55 38 94t95 39q59 0 96 -39t37 -94q0 -56 -37 -94t-96 -38zM600 1075q249 0 392 -142t143 -401q0 -256 -150.5 -404t-396.5 -148
q-250 0 -393.5 141.5t-143.5 398.5q0 259 150.5 407t398.5 148zM600 68q96 0 135 108t39 348q0 238 -44 349.5t-142 111.5q-97 0 -136.5 -109t-39.5 -352q0 -235 44.5 -345.5t143.5 -110.5z" />
    <glyph glyph-name="divide" unicode="&#xf7;" 
d="M385 940q0 56 40 95.5t95 39.5t95 -39.5t40 -95.5q0 -54 -40.5 -93.5t-94.5 -39.5t-94.5 39.5t-40.5 93.5zM82 541v133h876v-133h-876zM385 272q0 56 40 96t95 40t95 -40t40 -96q0 -54 -40.5 -93.5t-94.5 -39.5t-94.5 39.5t-40.5 93.5z" />
    <glyph glyph-name="oslash" unicode="&#xf8;" horiz-adv-x="1185" 
d="M600 1075q190 0 324 -86l73 86h117l-121 -143q142 -145 142 -400q0 -256 -150.5 -404t-396.5 -148q-196 0 -326 86l-74 -86h-118l120 143q-139 142 -139 397q0 259 150.5 407t398.5 148zM600 68q96 0 135 108t39 348q0 78 -6 142l-338 -400q20 -101 62 -149.5t108 -48.5z
M412 524q0 -94 4 -135l338 399q-40 197 -166 197q-97 0 -136.5 -109t-39.5 -352z" />
    <glyph glyph-name="ugrave" unicode="&#xf9;" horiz-adv-x="1304" 
d="M498 1075v-848q5 -10 12.5 -21t23.5 -26.5t43 -25t60 -9.5q37 0 77.5 12t67.5 33v734l-129 22v41l398 88h75v-995l127 -45v-35h-440l-20 113h-11q-65 -63 -138 -98t-173 -35q-244 0 -317 200v744l-129 22v41l397 88h76zM449 1536h34l236 -317l-27 -29l-393 172z" />
    <glyph glyph-name="uacute" unicode="&#xfa;" horiz-adv-x="1304" 
d="M803 1536h35l149 -174l-393 -172l-27 29zM498 1075v-848q5 -10 12.5 -21t23.5 -26.5t43 -25t60 -9.5q37 0 77.5 12t67.5 33v734l-129 22v41l398 88h75v-995l127 -45v-35h-440l-20 113h-11q-65 -63 -138 -98t-173 -35q-244 0 -317 200v744l-129 22v41l397 88h76z" />
    <glyph glyph-name="ucircumflex" unicode="&#xfb;" horiz-adv-x="1304" 
d="M629 1497h37l270 -297l-21 -29l-268 115l-268 -115l-21 29zM498 1075v-848q5 -10 12.5 -21t23.5 -26.5t43 -25t60 -9.5q37 0 77.5 12t67.5 33v734l-129 22v41l398 88h75v-995l127 -45v-35h-440l-20 113h-11q-65 -63 -138 -98t-173 -35q-244 0 -317 200v744l-129 22v41
l397 88h76z" />
    <glyph glyph-name="udieresis" unicode="&#xfc;" horiz-adv-x="1304" 
d="M483 1214q-59 0 -97 38t-38 94q0 55 38 94t97 39q57 0 94 -39t37 -94q0 -56 -36.5 -94t-94.5 -38zM819 1214q-58 0 -95.5 38t-37.5 94q0 55 38 94t95 39q59 0 96 -39t37 -94q0 -56 -37 -94t-96 -38zM498 1075v-848q5 -10 12.5 -21t23.5 -26.5t43 -25t60 -9.5
q37 0 77.5 12t67.5 33v734l-129 22v41l398 88h75v-995l127 -45v-35h-440l-20 113h-11q-65 -63 -138 -98t-173 -35q-244 0 -317 200v744l-129 22v41l397 88h76z" />
    <glyph glyph-name="yacute" unicode="&#xfd;" horiz-adv-x="1161" 
d="M317 -256q150 0 250 231l-510 1002l-98 45v33h578v-35l-93 -43l285 -610h8l207 612l-82 43v33h320v-33l-105 -45l-362 -959q-76 -201 -185.5 -290.5t-257.5 -89.5q-103 0 -182 32q-12 73 -0.5 134t31.5 101l20 40h129q4 -125 47 -201zM819 1536h35l150 -174l-394 -172
l-26 29z" />
    <glyph glyph-name="thorn" unicode="&#xfe;" horiz-adv-x="1282" 
d="M514 1503v-559q63 58 144.5 94.5t168.5 36.5q57 0 109 -12.5t107.5 -48.5t95.5 -92t66 -151t26 -218q0 -261 -149.5 -417t-393.5 -156q-94 0 -174 26v-268q17 -4 79 -21t93 -24v-35h-663v35l147 45v1620q-22 4 -74.5 11t-75.5 11v35l398 88h96zM659 909q-91 0 -145 -45
v-690q82 -100 182 -100q97 0 135.5 105t38.5 347q0 108 -14.5 184t-43.5 118.5t-66 61.5t-87 19z" />
    <glyph glyph-name="ydieresis" unicode="&#xff;" horiz-adv-x="1161" 
d="M317 -256q150 0 250 231l-510 1002l-98 45v33h578v-35l-93 -43l285 -610h8l207 612l-82 43v33h320v-33l-105 -45l-362 -959q-76 -201 -185.5 -290.5t-257.5 -89.5q-103 0 -182 32q-12 73 -0.5 134t31.5 101l20 40h129q4 -125 47 -201zM412 1214q-59 0 -97.5 38t-38.5 94
q0 55 38.5 94t97.5 39q57 0 94 -39t37 -94q0 -56 -36.5 -94t-94.5 -38zM748 1214q-58 0 -96 38t-38 94q0 55 38 94t96 39q59 0 96 -39t37 -94q0 -56 -37 -94t-96 -38z" />
    <glyph glyph-name="dotlessi" unicode="&#x131;" horiz-adv-x="684" 
d="M524 1075v-995l127 -45v-35h-598v35l127 45v844l-129 22v41l398 88h75z" />
    <glyph glyph-name="Lslash" unicode="&#x141;" horiz-adv-x="1253" 
d="M205 1311l-144 45v35h656v-35l-144 -45v-350l172 114v-112l-172 -115v-754h426q13 53 36.5 106.5t48 92t47 69.5t37.5 46l14 16l41 -12q-23 -186 -23 -338v-74h-1139v35l144 45v526l-131 -86v113l131 86v592z" />
    <glyph glyph-name="lslash" unicode="&#x142;" horiz-adv-x="684" 
d="M524 1503v-536l164 108v-112l-164 -109v-774l127 -45v-35h-598v35l127 45v547l-164 -107v113l164 106v633l-129 23v41l398 67h75z" />
    <glyph glyph-name="OE" unicode="&#x152;" horiz-adv-x="2017" 
d="M926 0q-98 -20 -189 -20q-320 0 -503 184t-183 518q0 225 86.5 390.5t242.5 252t365 86.5q97 0 195 -20h967v-54q0 -80 5.5 -159.5t11.5 -118.5l5 -39l-41 -14q-5 4 -13 12t-31.5 36t-45 59t-48 80.5t-44.5 102.5h-426v-548l408 16l41 96h47v-303h-39l-47 96l-410 17
v-576h473q22 75 67 152t79 117l34 40l43 -12q-22 -157 -22 -315v-76h-1028zM756 72q95 0 155 63v1094q-75 90 -184 90q-103 0 -168 -76.5t-92 -212t-27 -338.5q0 -294 81.5 -457t234.5 -163z" />
    <glyph glyph-name="oe" unicode="&#x153;" horiz-adv-x="1781" 
d="M1692 250l30 -27q-57 -105 -161 -174t-250 -69q-241 0 -365 133q-130 -133 -358 -133q-250 0 -393.5 141.5t-143.5 398.5q0 259 150.5 407t398.5 148q240 0 365 -137q134 137 331 137q211 0 328 -130.5t117 -336.5v-90l-606 10q13 -391 262 -391q88 0 155 28.5t140 84.5z
M600 68q96 0 135 108t39 348q0 238 -44 349.5t-142 111.5q-97 0 -136.5 -109t-39.5 -352q0 -235 44.5 -345.5t143.5 -110.5zM1288 991q-34 0 -60.5 -18.5t-42.5 -52.5t-27 -71.5t-15.5 -87t-6 -86t-1.5 -81.5l282 16v37q0 344 -129 344z" />
    <glyph glyph-name="Scaron" unicode="&#x160;" horiz-adv-x="1196" 
d="M639 1507h-37l-270 297l20 29l269 -115l268 115l20 -29zM70 84v82q0 63 -8 132t-16 106l-7 38l67 31q6 -5 17 -14.5t41 -41.5t56 -67t55.5 -89.5t46.5 -110.5q124 -62 235 -62q114 0 176 65.5t62 186.5q0 61 -35 113t-103 75l-241 80q-149 49 -231.5 147.5t-82.5 243.5
q0 106 43.5 187t118 128.5t165.5 71t194 23.5q93 0 254 -28t202 -33v-74q0 -64 7.5 -127.5t14.5 -94.5l7 -32l-53 -27q-6 4 -16.5 12t-40.5 35t-56 56t-55 74.5t-47 91.5q-95 45 -219 45q-96 0 -148.5 -51.5t-52.5 -141.5q0 -54 29 -97.5t86 -62.5l229 -75
q198 -65 288.5 -172t90.5 -279q0 -85 -38 -165t-106.5 -143.5t-175 -101.5t-233.5 -38q-283 0 -520 104z" />
    <glyph glyph-name="scaron" unicode="&#x161;" horiz-adv-x="952" 
d="M516 1171h-37l-270 297l20 29l269 -115l268 115l20 -29zM63 72v63q0 55 -6 106t-12 75l-6 24l43 18q5 -2 12.5 -7t30.5 -24.5t44 -43.5t47 -67t44 -93q92 -53 182 -53q81 0 120.5 43.5t39.5 119.5q0 98 -100 134l-154 57q-127 46 -191.5 122.5t-64.5 196.5q0 84 36 149.5
t96 104.5t129.5 58.5t142.5 19.5q77 0 199 -23.5t165 -23.5v-88q0 -36 6 -73.5t12 -56.5l7 -19l-33 -19q-5 2 -13.5 6t-32 19t-45.5 34.5t-47.5 53.5t-43.5 73q-71 29 -135 29q-62 0 -101 -34.5t-39 -100.5q0 -91 88 -127l142 -53q146 -55 216 -130t70 -194
q0 -167 -120.5 -267.5t-311.5 -100.5q-205 0 -416 92z" />
    <glyph glyph-name="Ydieresis" unicode="&#x178;" horiz-adv-x="1402" 
d="M381 35l143 45v538l-420 695l-124 45v33h671v-33l-135 -43l313 -549h5l313 549l-133 43v33h409v-33l-127 -45l-403 -688v-545l143 -45v-35h-655v35zM535 1550q-59 0 -97.5 37.5t-38.5 93.5q0 55 38.5 94.5t97.5 39.5q57 0 94 -39.5t37 -94.5q0 -56 -36.5 -93.5
t-94.5 -37.5zM870 1550q-58 0 -95.5 37.5t-37.5 93.5q0 55 38 94.5t95 39.5q59 0 96.5 -39.5t37.5 -94.5q0 -56 -37.5 -93.5t-96.5 -37.5z" />
    <glyph glyph-name="Zcaron" unicode="&#x17d;" horiz-adv-x="1310" 
d="M684 1507h-37l-270 297l20 29l269 -115l268 115l20 -29zM1212 1391v-66l-708 -1231h518q15 48 41 96t52 81.5t50 60t39 40.5l15 13l51 -14q-23 -121 -23 -281v-90h-1206v43l729 1253h-434q-14 -48 -40 -95t-53.5 -79.5t-53 -58.5t-41.5 -39l-17 -12l-43 16q23 123 23 283
v80h1101z" />
    <glyph glyph-name="zcaron" unicode="&#x17e;" horiz-adv-x="1028" 
d="M551 1171h-37l-270 297l20 29l268 -115l269 115l20 -29zM952 1055v-66l-518 -903h342q26 77 73 149.5t81 106.5l33 33l34 -10q-22 -135 -22 -299v-66h-946v66l534 903h-264q-15 -45 -40 -87t-50 -70t-48 -49.5t-37 -31.5l-15 -10l-33 16q22 107 22 252v66h854z" />
    <glyph glyph-name="florin" unicode="&#x192;" horiz-adv-x="1177" 
d="M911 1040q6 9 15.5 26t28 69t24.5 104q-36 12 -78 12q-40 0 -69 -17t-47.5 -49.5t-28.5 -67t-19 -83.5l-49 -272h219v-96h-235l-107 -619q-70 -409 -471 -409q-67 0 -138 16t-101 35q2 71 28.5 136t52.5 95l25 29l131 -23q-47 -84 -65 -205q18 -6 45 -6q26 0 46 12
t33 30.5t24 49t17 58t13 67.5l127 734h-180v96h196l29 158q70 409 502 409q73 0 157 -17.5t113 -33.5q-2 -71 -27 -136t-49 -94l-24 -30z" />
    <glyph glyph-name="circumflex" unicode="&#x2c6;" horiz-adv-x="749" 
d="M367 1497h36l271 -297l-21 -29l-268 115l-268 -115l-21 29z" />
    <glyph glyph-name="caron" unicode="&#x2c7;" horiz-adv-x="749" 
d="M403 1171h-36l-271 297l21 29l268 -115l268 115l21 -29z" />
    <glyph glyph-name="breve" unicode="&#x2d8;" horiz-adv-x="657" 
d="M340 1356q168 0 221 96l41 -6q-19 -110 -86 -184t-178 -74q-109 0 -177 74.5t-87 183.5l45 6q53 -96 221 -96z" />
    <glyph glyph-name="dotaccent" unicode="&#x2d9;" horiz-adv-x="477" 
d="M53 1329q0 77 52 128.5t135 51.5q87 0 138.5 -51.5t51.5 -128.5q0 -75 -51.5 -125.5t-138.5 -50.5q-83 0 -135 51t-52 125z" />
    <glyph glyph-name="ring" unicode="&#x2da;" horiz-adv-x="622" 
d="M324 1501q115 0 183 -43t68 -123q0 -81 -71 -126.5t-185 -45.5q-116 0 -184.5 44t-68.5 122q0 81 71 126.5t187 45.5zM328 1204q80 0 80 127q0 65 -24.5 98t-68.5 33q-82 0 -82 -131q0 -60 25.5 -93.5t69.5 -33.5z" />
    <glyph glyph-name="ogonek" unicode="&#x2db;" horiz-adv-x="577" 
d="M496 -164l-9 -57q-97 -141 -239 -141q-85 0 -135 37t-50 118q0 205 383 289l41 -12q-83 -29 -138.5 -78.5t-55.5 -110.5q0 -71 100 -71q53 0 103 26z" />
    <glyph glyph-name="tilde" unicode="&#x2dc;" horiz-adv-x="987" 
d="M825 1501q2 -55 -6 -103.5t-27 -91.5t-55.5 -68.5t-87.5 -25.5q-54 0 -109 22t-109.5 45.5t-102.5 25.5q-68 -25 -152 -119l-16 8q3 44 8 78.5t19.5 77t36 70.5t59.5 47.5t88 19.5q44 0 87 -12.5t72.5 -28t68.5 -29t75 -14.5q36 14 72.5 45.5t58.5 62.5z" />
    <glyph glyph-name="hungarumlaut" unicode="&#x2dd;" horiz-adv-x="770" 
d="M279 1536h28l152 -147l-396 -199l-26 33zM332 1223l321 270l103 -154v-57l-404 -94z" />
    <glyph glyph-name="Delta" unicode="&#x394;" horiz-adv-x="2066" 
d="M1559 266q-199 0 -325 117.5t-126 286.5t126 287t325 118t324.5 -123t125.5 -311q0 -141 -40 -254.5t-107 -188t-158.5 -125t-190.5 -72t-208 -21.5q-61 0 -123 6v2q48 6 108 26.5t122.5 53.5t112 86t66.5 114q-10 -2 -32 -2zM569 266q-199 0 -323.5 117.5t-124.5 286.5
t124.5 287t323.5 118q201 0 326 -123t125 -311q0 -141 -40 -254.5t-106.5 -188t-158 -125t-190.5 -72t-208 -21.5q-63 0 -124 6v2q48 6 108 26.5t122.5 53.5t112 86t66.5 114q-10 -2 -33 -2z" />
    <glyph glyph-name="Delta" unicode="&#x2206;" horiz-adv-x="2066" 
d="M1559 266q-199 0 -325 117.5t-126 286.5t126 287t325 118t324.5 -123t125.5 -311q0 -141 -40 -254.5t-107 -188t-158.5 -125t-190.5 -72t-208 -21.5q-61 0 -123 6v2q48 6 108 26.5t122.5 53.5t112 86t66.5 114q-10 -2 -32 -2zM569 266q-199 0 -323.5 117.5t-124.5 286.5
t124.5 287t323.5 118q201 0 326 -123t125 -311q0 -141 -40 -254.5t-106.5 -188t-158 -125t-190.5 -72t-208 -21.5q-63 0 -124 6v2q48 6 108 26.5t122.5 53.5t112 86t66.5 114q-10 -2 -33 -2z" />
    <glyph glyph-name="Omega" unicode="&#x3a9;" horiz-adv-x="1026" 
d="M586 696l256 -501h-137l-181 389l-188 -389h-133l254 501l-254 498h133l188 -385l181 385h131zM102 1294v97h822v-97h-822zM102 0v96h822v-96h-822z" />
    <glyph glyph-name="Omega" unicode="&#x2126;" horiz-adv-x="1026" 
d="M586 696l256 -501h-137l-181 389l-188 -389h-133l254 501l-254 498h133l188 -385l181 385h131zM102 1294v97h822v-97h-822zM102 0v96h822v-96h-822z" />
    <glyph glyph-name="pi" unicode="&#x3c0;" horiz-adv-x="1185" 
d="M61 952h1098l-547 -907z" />
    <glyph glyph-name="endash" unicode="&#x2013;" horiz-adv-x="1124" 
d="M70 502v102h983v-102h-983z" />
    <glyph glyph-name="emdash" unicode="&#x2014;" horiz-adv-x="1742" 
d="M70 502v102h1601v-102h-1601z" />
    <glyph glyph-name="quoteleft" unicode="&#x2018;" horiz-adv-x="485" 
d="M422 1008q0 -77 -51.5 -129t-134.5 -52q-87 0 -139 53.5t-52 131.5q0 66 23 124t60.5 100.5t89.5 77.5t106.5 58t115.5 39l15 -27q-25 -19 -42 -34.5t-38.5 -43t-34 -63t-14.5 -78.5q45 -22 70.5 -63.5t25.5 -93.5z" />
    <glyph glyph-name="quoteright" unicode="&#x2019;" horiz-adv-x="485" 
d="M63 1231q0 77 52 128.5t135 51.5q87 0 138.5 -53t51.5 -131q0 -82 -33.5 -151t-92.5 -116.5t-125 -80t-144 -52.5l-14 27q25 19 42 34.5t38.5 43t34 63t14.5 78.5q-45 22 -71 64.5t-26 93.5z" />
    <glyph glyph-name="quotesinglbase" unicode="&#x201a;" horiz-adv-x="466" 
d="M45 156q0 77 51.5 128.5t134.5 51.5q87 0 139 -53t52 -131q0 -82 -33.5 -151t-92.5 -116.5t-125 -80t-144 -52.5l-15 27q25 19 42 34.5t38.5 43t34 63t14.5 78.5q-45 22 -70.5 64t-25.5 94z" />
    <glyph glyph-name="quotedblleft" unicode="&#x201c;" horiz-adv-x="948" 
d="M422 1008q0 -77 -51.5 -129t-134.5 -52q-87 0 -139 53.5t-52 131.5q0 66 23 124t60.5 100.5t89.5 77.5t106.5 58t115.5 39l15 -27q-25 -19 -42 -34.5t-38.5 -43t-34 -63t-14.5 -78.5q45 -22 70.5 -63.5t25.5 -93.5zM885 1008q0 -77 -52 -129t-135 -52q-86 0 -138 53.5
t-52 131.5q0 66 23 124t60.5 100.5t89.5 77.5t106.5 58t115.5 39l15 -27q-35 -27 -57 -48t-46 -68t-27 -103q45 -22 71 -64t26 -93z" />
    <glyph glyph-name="quotedblright" unicode="&#x201d;" horiz-adv-x="946" 
d="M63 1231q0 77 52 128.5t135 51.5q87 0 138.5 -53t51.5 -131q0 -82 -33.5 -151t-92.5 -116.5t-125 -80t-144 -52.5l-14 27q25 19 42 34.5t38.5 43t34 63t14.5 78.5q-45 22 -71 64.5t-26 93.5zM524 1231q0 77 52 128.5t135 51.5q87 0 138.5 -53t51.5 -131q0 -82 -33.5 -151
t-92.5 -116.5t-125 -80t-144 -52.5l-14 27q25 19 42 34.5t38.5 43t34 63t14.5 78.5q-45 22 -71 64.5t-26 93.5z" />
    <glyph glyph-name="quotedblbase" unicode="&#x201e;" horiz-adv-x="927" 
d="M45 156q0 77 51.5 128.5t134.5 51.5q87 0 139 -53t52 -131q0 -82 -33.5 -151t-92.5 -116.5t-125 -80t-144 -52.5l-15 27q25 19 42 34.5t38.5 43t34 63t14.5 78.5q-45 22 -70.5 64t-25.5 94zM506 156q0 77 51.5 128.5t134.5 51.5q87 0 139 -53t52 -131q0 -82 -34 -151
t-92.5 -116.5t-125 -79.5t-144.5 -53l-14 27q25 19 42 34.5t38.5 43t34 63t14.5 78.5q-45 22 -70.5 64t-25.5 94z" />
    <glyph glyph-name="dagger" unicode="&#x2020;" horiz-adv-x="1019" 
d="M653 1391l-116 -414l401 96v-246l-395 95l110 -248l-123 -674h-41l-122 674l108 248l-393 -95v246l399 -96l-114 414h286z" />
    <glyph glyph-name="daggerdbl" unicode="&#x2021;" horiz-adv-x="1019" 
d="M82 827v246l399 -96l-114 414h286l-116 -414l401 96v-246l-395 95l110 -226l-110 -229l395 96v-246l-401 97l116 -414h-286l114 412l-399 -95v246l393 -94l-108 227l108 224z" />
    <glyph glyph-name="bullet" unicode="&#x2022;" horiz-adv-x="745" 
d="M90 580q0 115 77.5 192.5t201.5 77.5q130 0 208 -77t78 -193q0 -112 -78 -188.5t-208 -76.5q-123 0 -201 77t-78 188z" />
    <glyph glyph-name="ellipsis" unicode="&#x2026;" horiz-adv-x="1400" 
d="M45 156q0 77 51.5 128.5t134.5 51.5q87 0 139 -51.5t52 -128.5q0 -74 -52 -125t-139 -51q-83 0 -134.5 51t-51.5 125zM512 156q0 77 51.5 128.5t134.5 51.5q87 0 139 -51.5t52 -128.5q0 -74 -52 -125t-139 -51q-83 0 -134.5 51t-51.5 125zM979 156q0 77 51.5 128.5
t134.5 51.5q87 0 139 -51.5t52 -128.5q0 -74 -52 -125t-139 -51q-83 0 -134.5 51t-51.5 125z" />
    <glyph glyph-name="perthousand" unicode="&#x2030;" horiz-adv-x="2142" 
d="M455 0h-119l747 1309h117zM397 1329q133 0 211 -86t78 -246q0 -158 -80.5 -249t-214.5 -91t-212.5 87t-78.5 243q0 159 81 250.5t216 91.5zM397 719q66 0 66 272q0 279 -72 279q-67 0 -67 -279q0 -272 73 -272zM1145 651q133 0 211 -86t78 -246q0 -158 -80.5 -248.5
t-214.5 -90.5t-212.5 86.5t-78.5 242.5q0 159 81 250.5t216 91.5zM1145 41q65 0 65 272q0 279 -71 279q-68 0 -68 -279q0 -272 74 -272zM1798 651q133 0 211 -86t78 -246q0 -158 -80.5 -248.5t-214.5 -90.5t-212.5 86.5t-78.5 242.5q0 159 81 250.5t216 91.5zM1798 41
q66 0 66 272q0 279 -72 279q-68 0 -68 -279q0 -272 74 -272z" />
    <glyph glyph-name="guilsinglleft" unicode="&#x2039;" horiz-adv-x="579" 
d="M41 496v51l422 401h76l-232 -424l232 -430h-76z" />
    <glyph glyph-name="guilsinglright" unicode="&#x203a;" horiz-adv-x="579" 
d="M539 547v-51l-422 -402h-76l231 430l-231 424h76z" />
    <glyph glyph-name="fraction" unicode="&#x2044;" horiz-adv-x="1009" 
d="M76 0h-111l975 1309h109z" />
    <glyph glyph-name="Euro" unicode="&#x20ac;" horiz-adv-x="1312" 
d="M51 725v96h113q50 242 224.5 375t422.5 133q93 0 214 -22.5t161 -22.5v-119q0 -64 8 -128t16 -96l7 -32l-54 -26q-7 4 -19.5 12t-46.5 37.5t-63 63.5t-60 91t-48 119q-49 17 -115 17q-111 0 -181.5 -102t-90.5 -300h268v-96h-275v-63v-62h275v-96h-264q28 -168 111 -250
t198 -82q41 0 79.5 8.5t65.5 18t59 32.5t47.5 34.5t43.5 43t34.5 39.5t32.5 41l48 -22q-14 -50 -38.5 -99.5t-67.5 -103t-98 -93t-135 -65.5t-173 -26q-247 0 -405 135.5t-191 388.5h-103v96h94v35q0 54 5 90h-99z" />
    <glyph glyph-name="trademark" unicode="&#x2122;" horiz-adv-x="1763" 
d="M881 1354l-68 20v17h268l207 -377h4l154 377h260v-17l-66 -20v-621l66 -20v-17h-354v17l67 20v412h-4q-8 -49 -24 -86l-142 -330h-67l-201 313q-15 23 -23 48.5t-9 39.5l-1 15h-4v-412l66 -20v-17h-197v17l68 20v621zM215 713l88 22v608h-92q-18 -42 -46 -89t-47 -73
l-18 -26l-20 4q12 68 12 158v74h649v-74q0 -40 3.5 -79.5t6.5 -59.5l3 -19l-21 -4q-69 94 -110 188h-97v-608l90 -22v-17h-401v17z" />
    <glyph glyph-name="partialdiff" unicode="&#x2202;" horiz-adv-x="1153" 
d="M1028 1077v-1097l-907 546z" />
    <glyph glyph-name="product" unicode="&#x220f;" horiz-adv-x="1185" 
d="M1159 88h-1098l551 907z" />
    <glyph glyph-name="summation" unicode="&#x2211;" horiz-adv-x="1153" 
d="M160 -20v1097l907 -551z" />
    <glyph glyph-name="minus" unicode="&#x2212;" 
d="M82 539v133h876v-133h-876z" />
    <glyph glyph-name="radical" unicode="&#x221a;" horiz-adv-x="2066" 
d="M571 788q199 0 325 -117t126 -286t-126 -287t-325 -118t-324.5 123t-125.5 311q0 141 40 254.5t107 188t158.5 125t190.5 72t208 21.5q61 0 123 -6v-2q-48 -6 -108 -26.5t-122.5 -54t-112 -86.5t-66.5 -114q10 2 32 2zM1561 788q199 0 323.5 -117t124.5 -286t-124.5 -287
t-323.5 -118q-201 0 -326 123t-125 311q0 141 39.5 254.5t106.5 188t158 125t190 72t208 21.5q63 0 125 -6v-2q-48 -6 -108 -26.5t-122.5 -54t-112 -86.5t-66.5 -114q10 2 33 2z" />
    <glyph glyph-name="infinity" unicode="&#x221e;" horiz-adv-x="1644" 
d="M821 680q45 47 79.5 78t85.5 67.5t108 55t118 18.5q159 0 255 -93t96 -231q0 -142 -90.5 -233.5t-260.5 -91.5q-60 0 -117 19t-107 54.5t-86 68t-79 77.5q-45 -47 -80 -78t-86 -67.5t-108 -55t-117 -18.5q-170 0 -260 91.5t-90 233.5q0 138 96 231t254 93
q60 0 116.5 -18.5t107 -55t85.5 -67.5t80 -78zM432 375q57 0 118.5 34.5t99.5 72t87 93.5q-40 43 -66 68.5t-69 60.5t-85.5 52.5t-84.5 17.5q-95 0 -148 -53t-53 -146q0 -94 53 -147t148 -53zM1212 375q95 0 148 53t53 147q0 93 -53 146t-148 53q-34 0 -71 -14t-63.5 -30
t-64.5 -50t-53.5 -50.5t-52.5 -54.5q37 -42 65.5 -70t69.5 -61.5t84 -51t86 -17.5z" />
    <glyph glyph-name="integral" unicode="&#x222b;" horiz-adv-x="1026" 
d="M586 696l256 -501h-137l-181 389l-188 -389h-133l254 501l-254 498h133l188 -385l181 385h131zM102 1294v97h822v-97h-822zM102 0v96h822v-96h-822z" />
    <glyph glyph-name="approxequal" unicode="&#x2248;" horiz-adv-x="1214" 
d="M1047 915l86 -84q-40 -71 -107.5 -115t-148.5 -44q-52 0 -115 21.5t-111.5 47t-108.5 47t-108 21.5q-139 0 -258 -141l-94 84q58 97 153.5 155t213.5 58q73 0 161.5 -35t163.5 -70t115 -35q88 0 158 90zM1047 545l86 -84q-40 -72 -107.5 -116t-148.5 -44q-52 0 -115 21.5
t-111.5 47t-108.5 47t-108 21.5q-139 0 -258 -141l-94 84q58 97 153.5 155t213.5 58q73 0 161.5 -35t163.5 -69.5t115 -34.5q88 0 158 90z" />
    <glyph glyph-name="notequal" unicode="&#x2260;" 
d="M82 754v133h491l76 168h105l-76 -168h280v-133h-340l-92 -205h432v-133h-491l-74 -166h-106l73 166h-278v133h340l92 205h-432z" />
    <glyph glyph-name="lessequal" unicode="&#x2264;" 
d="M958 430v-135l-876 315v117l876 313v-137l-653 -231zM82 20v134h876v-134h-876z" />
    <glyph glyph-name="greaterequal" unicode="&#x2265;" 
d="M82 295v135l653 242l-653 231v137l876 -313v-117zM958 154v-134h-876v134h876z" />
    <glyph glyph-name="lozenge" unicode="&#x25ca;" horiz-adv-x="1026" 
d="M586 696l256 -501h-137l-181 389l-188 -389h-133l254 501l-254 498h133l188 -385l181 385h131zM102 1294v97h822v-97h-822zM102 0v96h822v-96h-822z" />
    <glyph glyph-name="HT" horiz-adv-x="0" 
 />
    <glyph glyph-name="LF" horiz-adv-x="0" 
 />
    <glyph glyph-name="CR" horiz-adv-x="0" 
 />
    <glyph glyph-name="DLE" horiz-adv-x="0" 
 />
    <glyph glyph-name="DC1" horiz-adv-x="0" 
 />
    <glyph glyph-name="DC2" horiz-adv-x="0" 
 />
    <glyph glyph-name="DC3" horiz-adv-x="0" 
 />
    <glyph glyph-name="DC4" horiz-adv-x="0" 
 />
    <glyph glyph-name="RS" horiz-adv-x="0" 
 />
    <glyph glyph-name="US" horiz-adv-x="0" 
 />
    <glyph glyph-name="DEL" horiz-adv-x="0" 
 />
    <glyph glyph-name="apple" horiz-adv-x="2918" 
d="M1444 655q35 0 58.5 -27.5t23.5 -76.5q0 -64 -43.5 -101.5t-134.5 -37.5v-82l6 -66q-48 -16 -66 -16q-22 0 -22 16v154l-52 -6v-6q0 -31 -6.5 -58t-21 -51.5t-43 -38.5t-68.5 -14q-43 0 -63.5 21t-20.5 48q0 75 144 109v86q-5 -14 -12 -28t-18.5 -31.5t-28.5 -28
t-36 -10.5q-57 0 -57 63v6q-37 -67 -109 -67q-28 0 -43.5 16.5t-15.5 44.5v207l-59 -4v8q0 41 24 41h35l-6 61q51 17 65 17q23 0 23 -17v-59h96v-6q0 -43 -24 -43h-72v-176q0 -33 27 -33q19 0 39 15.5t20 37.5v51l-6 68q48 16 65 16q23 0 23 -18v-135q0 -31 14 -31
t34.5 35.5t19.5 62.5l-5 70q48 16 64 16q22 0 22 -18v-203l52 6v125l-6 74q48 16 65 16q23 0 23 -18v-82q34 98 96 98zM766 592v-100l6 -66q-48 -16 -63 -16q-23 0 -23 16v135q0 33 -16 33q-13 0 -34 -36t-20 -62l5 -70q-48 -16 -64 -16q-22 0 -22 16v135q0 33 -17 33
q-14 0 -33.5 -35.5t-19.5 -62.5l6 -70q-48 -16 -65 -16q-23 0 -23 16v141l-6 74q48 16 65 16q23 0 23 -18v-82q9 33 33 66.5t59 33.5q59 0 59 -65v-35q9 34 33 67t60 33q57 0 57 -65zM2472 680l-59 -4v8q0 41 24 41h35l-6 61q51 17 65 17q23 0 23 -17v-59h96v-6
q0 -43 -24 -43h-72v-184q0 -31 33 -31q22 0 78.5 11t95.5 11q36 0 81.5 -12t45.5 -37q0 -29 -19.5 -43t-36.5 -14q-4 0 -54 24.5t-91 24.5q-14 0 -65.5 -8t-90.5 -8q-40 0 -48 24.5t-9 132.5q-1 68 -2 111zM129 1083v17h2740v-17h-2740zM129 0v16h2740v-16h-2740zM2181 592
v-100l4 -66q-48 -16 -63 -16q-23 0 -23 16v137q0 31 -16 31q-14 0 -33.5 -35.5t-19.5 -62.5l6 -70q-48 -16 -66 -16q-22 0 -22 16v141l-6 74q48 16 65 16q23 0 23 -18v-82q34 100 92 100q59 0 59 -65zM295 528q-33 -12 -90 -12q1 -21 16 -33t37 -12q36 0 66 18
q16 -11 16 -32q0 -8 -5.5 -17t-29 -19.5t-61.5 -10.5q-57 0 -90 30t-33 78q0 56 38 97.5t103 41.5q40 0 62 -19.5t22 -43.5q0 -49 -51 -66zM1726 528q-33 -12 -90 -12q1 -21 16.5 -33t37.5 -12q35 0 65 18q17 -11 17 -32q0 -8 -6 -17t-29.5 -19.5t-61.5 -10.5q-57 0 -90 30
t-33 78q0 56 38 97.5t104 41.5q40 0 62 -19.5t22 -43.5q0 -49 -52 -66zM2388 528q-33 -12 -90 -12q1 -21 16 -33t37 -12q36 0 66 18q16 -11 16 -32q0 -8 -5.5 -17t-29 -19.5t-61.5 -10.5q-57 0 -90 30t-33 78q0 56 38 97.5t103 41.5q40 0 62 -19.5t22 -43.5q0 -49 -51 -66z
M1348 449q92 12 92 104q0 41 -27 41q-26 0 -45.5 -38t-19.5 -60v-47zM1860 512q22 0 37.5 -14t15.5 -35q0 -20 -15.5 -33.5t-37.5 -13.5t-37 13.5t-15 33.5q0 21 15 35t37 14zM1133 397q-84 -19 -84 -65q0 -14 8 -21.5t20 -7.5q51 0 56 94zM203 541q31 0 53.5 10.5
t22.5 32.5q0 26 -27 26q-20 0 -33 -20.5t-16 -48.5zM2296 541q31 0 53.5 10.5t22.5 32.5q0 26 -27 26q-20 0 -33 -20.5t-16 -48.5zM1634 541q31 0 53.5 10.5t22.5 32.5q0 26 -27 26q-20 0 -33 -20.5t-16 -48.5z" />
    <glyph glyph-name="zero.tab" horiz-adv-x="1173" 
d="M592 1329q252 0 397.5 -173t145.5 -494q0 -316 -150.5 -499t-400.5 -183q-253 0 -399 173t-146 488q0 320 151 504t402 184zM592 68q178 0 178 583q0 287 -46 440.5t-140 153.5q-181 0 -181 -594q0 -583 189 -583z" />
    <glyph glyph-name="one.tab" horiz-adv-x="1173" 
d="M428 92v981h-20q-47 0 -88 7.5t-66.5 18.5t-44 22t-25.5 19l-8 7v31q14 1 38.5 3.5t94.5 14.5t134 27t141.5 44t132.5 64l67 -31v-1206l211 -59v-35h-772v35z" />
    <glyph glyph-name="two.tab" horiz-adv-x="1173" 
d="M127 942l-47 37q19 44 49.5 89t80 93t108.5 84.5t139.5 60t169.5 23.5q198 0 315 -106t117 -285q0 -64 -21.5 -127t-53.5 -115t-87.5 -109t-106 -99.5t-128.5 -96t-133.5 -88t-141.5 -86.5v-10h514q16 38 41.5 71t50 53t47 34.5t36.5 20.5l14 5l32 -18q-24 -109 -24 -248
v-125h-1028l-19 74q76 61 149 125.5t167 160.5t162.5 184t116.5 188t48 181q0 90 -59 135.5t-152 45.5t-191 -45t-165 -107z" />
    <glyph glyph-name="three.tab" horiz-adv-x="1173" 
d="M422 735q49 4 79.5 9t67.5 18t57.5 33t35 56t14.5 85q0 91 -54 136.5t-145 45.5q-93 0 -180 -35.5t-143 -85.5l-33 33q22 44 49.5 83t70 80t92.5 70t118.5 47.5t146.5 18.5q200 0 314 -87t114 -228q0 -107 -91.5 -183.5t-227.5 -95.5v-6q173 -19 279 -106t106 -224
q0 -195 -144.5 -307t-380.5 -112q-143 0 -282 35.5t-203 80.5q0 54 13.5 105t33 84.5t33.5 53t22 26.5h78q0 -17 1.5 -44t14 -92t33.5 -108q91 -47 201 -47q99 0 157 63t58 193q0 73 -19 128t-46.5 87.5t-74 56t-87 34t-99.5 19.5z" />
    <glyph glyph-name="four.tab" horiz-adv-x="1173" 
d="M27 326v53l688 930h274v-887h156v-96h-156v-246l144 -45v-35h-664v35l164 45v246h-606zM627 999l-426 -577h432v577h-6z" />
    <glyph glyph-name="five.tab" horiz-adv-x="1173" 
d="M207 1309h776l-25 -267h-657l-14 -237q125 16 227 16q115 0 214 -24t176 -71t121 -123.5t44 -174.5q0 -217 -154 -332.5t-415 -115.5q-128 0 -237 34.5t-159 81.5q0 70 24.5 135.5t45 94t33.5 39.5h78q8 -162 49 -244q81 -49 160 -49q98 0 157.5 67.5t59.5 210.5
q0 60 -19 107t-49 75t-72.5 46.5t-85.5 25t-92 6.5q-126 0 -207 -22l-20 20z" />
    <glyph glyph-name="six.tab" horiz-adv-x="1173" 
d="M1049 1124l-41 -43q-10 8 -30 19t-86 30t-138 19q-282 0 -330 -377q97 64 235 64q211 0 337 -108.5t126 -295.5q0 -138 -73.5 -242.5t-191.5 -157t-259 -52.5q-271 0 -409 146t-138 449q0 353 164.5 553.5t458.5 200.5q85 0 154.5 -21t109 -50t66.5 -60.5t36 -50.5t9 -23
zM584 713q-99 0 -170 -58v-65q0 -290 43 -403t149 -113q72 0 114 89.5t42 250.5q0 160 -45 229.5t-133 69.5z" />
    <glyph glyph-name="seven.tab" horiz-adv-x="1173" 
d="M1077 1309v-164l-545 -1145h-268v70l641 993h-579q-19 -55 -66 -106t-84 -75l-37 -24l-45 16q23 197 23 289v146h960z" />
    <glyph glyph-name="eight.tab" horiz-adv-x="1173" 
d="M66 322q0 98 75.5 176.5t210.5 103.5q-233 132 -233 369q0 113 63.5 195t165 121.5t227.5 39.5q206 0 323.5 -88.5t117.5 -218.5q0 -53 -20.5 -96.5t-56.5 -73.5t-74 -49.5t-83 -34.5q171 -78 248.5 -174.5t77.5 -222.5q0 -172 -139 -280.5t-381 -108.5q-89 0 -165.5 11
t-143 37t-113 64.5t-73.5 97t-27 132.5zM645 477l-192 78q-91 -98 -91 -262q0 -90 63.5 -155.5t166.5 -65.5q98 0 150.5 54.5t52.5 149.5q0 63 -36.5 117t-113.5 84zM420 1055q0 -63 32 -113t91 -74l133 -57q30 39 43.5 90.5t13.5 142.5q0 73 -43.5 134t-116.5 61
q-75 0 -114 -51t-39 -133z" />
    <glyph glyph-name="nine.tab" horiz-adv-x="1173" 
d="M125 184l41 43q4 -3 11 -7.5t31.5 -16t52 -20.5t71 -16t88.5 -7q282 0 330 375q-97 -62 -236 -62q-211 0 -337 108.5t-126 295.5q0 137 76 242t196.5 157.5t262.5 52.5q271 0 403.5 -142.5t132.5 -447.5q0 -354 -164.5 -556.5t-457.5 -202.5q-85 0 -154.5 21t-109 49.5
t-66.5 60t-36 50.5t-9 23zM590 596q102 0 168 57q2 23 2 66q0 286 -40.5 401t-139.5 115q-76 0 -122 -87.5t-46 -252.5q0 -160 45 -229.5t133 -69.5z" />
    </font>
</defs>
</svg>
