<?xml version="1.0" encoding="UTF-8"?><svg id="Capa_2" xmlns="http://www.w3.org/2000/svg" viewBox="0 0 1919.86734 241.70001"><g id="Capa_1-2"><g><path d="M61.7,171.70001h84.6l-41.5-105.39999-43.1,105.39999h0Zm112.19999,70l-21-53.09998H54.7l-21.6,53.09998H0v-5.70001c12.7-2.20001,18.8-8.5,23-18.59998L94,43.70001c-4.4-5.39999-8.3-7.60001-13.8-9.60001v-5.70001h45.9l75.19999,188.69998c3.60001,9.29999,9.10001,17.5,22.39999,18.90002v5.70001h-49.79999Z"/><path d="M370,140.90002c-12.10001,4.5-24.70001,6.5-34.89999,6.5-16.5,0-31.60001-5.09998-39.79999-10.40002v89c12.60001,2.20001,25.5,2.79999,35.70001,2.79999,29.70001,0,57.89999-9.29999,57.89999-48-.00003-21.59998-11.20001-35.09998-18.90002-39.89996h0Zm-43.39999-99.5c-13.20001,0-23.60001,1.10001-31.29999,2.20001V122.40002c9.60001,6.79999,25.5,11.90002,39.79999,11.90002,18.70001,0,42-6.20001,42-43.20001,0-33.30002-19.70001-49.70001-50.5-49.70001h0Zm-64.20001,16.39999c0-14.10001-6-19.79999-18.10001-23.70001v-5.70001h93.29999c39.20001,0,73.79999,20.39999,73.79999,58.20001,0,19.49997-8.79999,33.39999-21.10001,42.89999,17.29999,6.5,32.89999,21.5,32.89999,48.09998,0,49.5-41.20001,64.09998-84.79999,64.09998h-94.10001v-5.70001c12.10001-4,18.10001-9.59998,18.10001-23.70001V57.80002h.00003Z"/><path d="M613.59998,41.60004c5.5,0,8.59998-6,11.09998-13.20001h5.5l9.70001,60.79999h-5.5c-17.79999-20.89999-43.59998-45.39999-80.20001-45.39999-42.5,0-74.89999,31.39999-74.89999,81.19998,0,54,34.69998,94.70001,87.69998,94.70001,23.29999,0,47.09998-7.40002,69.09998-21.20001l3.09998,6.59998c-13,13.20001-41,36.59998-91.79999,36.59998-56.29999,0-103.5-39.09998-103.5-107.59998,0-55.89999,45.20001-105.70001,107.90002-105.70001,38.00006,.00006,54.1001,13.20007,61.80005,13.20007h0Z"/><path d="M692.40002,45.20001V228.5l-23.59998,4.70001v3.79999h69.40002v-3.79999l-25.40002-4.70001V45.20001h37.79999c33.90002,0,56.40002,19.5,56.40002,54.90002,0,36-22.40002,55.79999-56.09998,56.09998h-17.09998v3.5c6.20001,2.09998,14.5,3.5,24.5,3.5,36.29999,0,70.20001-23.29999,70.20001-64,0-42.79999-35.09998-62.60001-79.09998-62.60001h-80.59998v3.79999l23.59985,4.80002h0Z" style="fill:#e4b016;"/><path d="M935,121.90002s5.29999-13.59998,5.29999-34.5c-4.40002-1.20001-8.90002-1.5-13-1.5-21,0-39.20001,11.5-50.20001,28.29999h-.90002v-27.39999h-1.79999l-37.79999,8.60001v4.09998l21.5,2.70001v126.29999l-21.20001,4.70001v3.79999h64.59998v-3.79999l-24.5-4.70001V121.90002c5.29999-6.5,22.70001-22.70001,42.5-24.79999,3.79999,7.09998,5.59998,24.79999,5.59998,24.79999h9.90009Z" style="fill:#e4b016;"/><path d="M1056.80005,204c-10.90002,12.09998-23.90002,23.90002-47.79999,23.90002-27.70001,0-47.79999-19.5-47.79999-65.5v-2.40002l99.69995,.59998v-11.20001c0-37.20001-18.30005-63.39999-55.5-63.39999-35.09998,0-63.20001,30.10001-63.20001,75.50003,0,51.90002,24.79999,78.5,64.29999,78.5,28,0,43.40002-15.90002,53.40002-33.29999l-3.09998-2.70001h0Zm-51.90002-111c24.5,0,37.80005,21,37.80005,52.5v5.90002l-81.20001,2.40002c2.39996-39.20001,20.39996-60.80005,43.39996-60.80005h0Z" style="fill:#e4b016;"/><path d="M1107.30005,86.80002l-37.80005,8.60001v4.09998l21.5,2.70001v126.29999l-21.19995,4.70001v3.79999h60.5v-3.79999l-20.40002-4.70001V116.30005c10.90002-10.59998,26.90002-18.29999,41.59998-18.29999,17.09998,0,31,9.40002,31,34.79999v95.59998l-18.59998,4.70001v3.79999h56.69995v-3.79999l-19.19995-4.70001v-93.5c0-7.09998-.90002-13-2.69995-18.29999,11.19995-10.29999,26.30005-18.59998,42.5-18.59998,16.80005,0,30.69995,9.40002,30.69995,34.79999v95.59998l-20.40002,4.70001v3.79999h60.5v-3.79999l-21.19995-4.70001v-93.5c0-34.79999-19.80005-49-42.5-49-22.09998,0-41,14.20001-50.80005,25.09998h-.30005c-7.09998-17.09998-22.40002-25.10001-38.69995-25.10001-19.5,0-38.09998,11.19998-48.69995,23.30002h-.90002v-22.39999h-1.59998Z" style="fill:#e4b016;"/><path d="M1334.19995,41.10004c0,7.10001,5.90002,13,13,13s13-5.89999,13-13-5.90002-13-13-13-13,5.89999-13,13h0Zm23.90002,45.69998h-1.80005l-38.69995,8.60001v4.09998l21.5,2.70001v126.29999l-21.19995,4.70001v3.79999h61.40002v-3.79999l-21.19995-4.70001-.00012-141.69998h0Z" style="fill:#e4b016;"/><path d="M1423.09998,86.80002h-1.5l-38.09998,8.60001v4.09998l20.69995,2.70001v109.5c7.09998,17.09998,20.40002,28.29999,43.69995,28.29999,20.09998,0,38.40002-11.20001,49.59998-24.20001h.90002l2.09998,21.20001h36.90002v-3.79999l-21.5-4.70001V86.80002h-3l-38.09998,8.60001v4.09998l22.09998,2.70001v107.40002c-11.19995,10.59998-26.30005,18.29999-42.19995,18.29999-16.5,0-26.90002-8-31.59998-16.79999V86.80002Z" style="fill:#e4b016;"/><path d="M1582.09998,86.80002l-37.80005,8.60001v4.09998l21.5,2.70001v126.29999l-21.19995,4.70001v3.79999h60.5v-3.79999l-20.40002-4.70001V116.30005c10.90002-10.59998,26.90002-18.29999,41.59998-18.29999,17.09998,0,31,9.40002,31,34.79999v95.59998l-18.59998,4.70001v3.79999h56.69995v-3.79999l-19.19995-4.70001v-93.5c0-7.09998-.90002-13-2.69995-18.29999,11.19995-10.29999,26.30005-18.59998,42.5-18.59998,16.80005,0,30.69995,9.40002,30.69995,34.79999v95.59998l-20.40002,4.70001v3.79999h60.5v-3.79999l-21.19995-4.70001v-93.5c0-34.79999-19.80005-49-42.5-49-22.09998,0-41,14.20001-50.80005,25.09998h-.30005c-7.09998-17.09998-22.40002-25.10001-38.69995-25.10001-19.5,0-38.09998,11.19998-48.69995,23.30002h-.90002v-22.39999h-1.59998Z" style="fill:#e4b016;"/><path d="M1843.80005,3.70001c.80005-2.20001,2.80005-3.70001,5.09998-3.70001s4.30005,1.5,5.09998,3.70001l15.09998,42.29999c.19995,.60001,.59998,1.10001,1,1.39999,.5,.39999,1,.60001,1.59998,.60001l43,2c2.30005,.10001,4.19995,1.70001,4.90002,3.89999,.69995,2.29999,0,4.70001-1.80005,6.20001l-33.69995,28.10001c-.5,.39999-.80005,.89999-1,1.5s-.19995,1.20001,0,1.79999l11.5,43.5c.59998,2.29999-.19995,4.70001-2,6.09998-1.80005,1.40002-4.30005,1.5-6.19995,.09998l-35.90002-24.90002c-.5-.29999-1.09998-.5-1.69995-.5s-1.19995,.20001-1.69995,.5l-35.90002,24.90002c-1.90002,1.29999-4.40002,1.29999-6.19995-.09998-1.80005-1.40002-2.59998-3.79999-2-6.09998l11.5-43.5c.19995-.60001,.09998-1.20001,0-1.79999-.19995-.60001-.5-1.10001-1-1.5l-33.69995-28.10001c-1.80005-1.5-2.5-4-1.80005-6.20001,.69995-2.29999,2.69995-3.79999,4.90002-3.89999l43-2c.59998,0,1.19995-.20001,1.59998-.60001,.5-.39999,.80005-.89999,1-1.39999l15.29993-42.29999h0Z" style="fill:#e4b016; fill-rule:evenodd;"/></g></g></svg>