<svg width="196" height="29" viewBox="0 0 196 29" fill="none" xmlns="http://www.w3.org/2000/svg">
<g clip-path="url(#clip0_18_2351)">
<path d="M18.2567 27.6493L16.0511 22.3639H5.74691L3.48349 27.6493H0V27.0872C0.536178 27.0381 1.04737 26.8377 1.47399 26.5092C1.90061 26.1807 2.22511 25.7378 2.40965 25.232L9.86861 7.94556C9.49085 7.48922 8.98538 7.15613 8.41703 6.98901V6.42239H13.2348L21.1294 25.2031C21.2829 25.7192 21.5903 26.1762 22.0106 26.5129C22.4309 26.8496 22.9439 27.05 23.4812 27.0872V27.6493H18.2567ZM6.47194 20.6762H15.3535L11.0003 10.1892L6.47194 20.6762Z" fill="white"/>
<path d="M26.6281 9.34688C26.6281 7.94099 25.9899 7.37894 24.7119 6.98597V6.42239H34.5805C38.7311 6.42239 42.3883 8.44668 42.3883 12.2104C42.3974 13.0519 42.1981 13.8825 41.8082 14.6283C41.4183 15.374 40.85 16.0117 40.1538 16.4844C41.1781 16.7891 42.0739 17.4219 42.7034 18.2856C43.3328 19.1492 43.6609 20.1957 43.6373 21.2641C43.6373 26.184 39.2841 27.6462 34.6689 27.6462H24.7119V27.0842C25.9883 26.6912 26.6281 26.1276 26.6281 24.7233V9.34688ZM33.4244 7.71556C32.3178 7.71375 31.2123 7.78907 30.1161 7.94099V15.7853C31.3875 16.5495 32.8412 16.9572 34.3246 16.9658C36.3047 16.9658 38.7647 16.3474 38.7647 12.6643C38.7555 9.34688 36.6703 7.71556 33.4244 7.71556ZM38.0107 17.6162C36.8257 18.032 35.5804 18.2507 34.3246 18.2635C32.8561 18.2809 31.4074 17.9228 30.1161 17.2232V26.0713C31.364 26.2675 32.6258 26.3617 33.889 26.3531C37.0237 26.3531 40.0137 25.4254 40.0137 21.5733C40.0405 20.7971 39.8703 20.0266 39.519 19.3339C39.1677 18.6411 38.6467 18.0486 38.0046 17.6116L38.0107 17.6162Z" fill="white"/>
<path d="M63.3105 7.48252C63.8908 7.48252 64.2107 6.86411 64.4711 6.13147H65.0515L66.0674 12.3506H65.4871C63.6288 10.2181 60.9298 7.70795 57.099 7.70795C52.659 7.70795 49.2623 10.9157 49.2623 16.0092C49.2623 21.5246 52.8905 25.6889 58.4348 25.6889C60.9975 25.6466 63.4987 24.8971 65.6623 23.523L65.9821 24.1978C64.72 25.4428 63.217 26.4169 61.5651 27.0605C59.9131 27.704 58.1472 28.0034 56.3755 27.9402C54.9226 28.0005 53.4732 27.7557 52.1207 27.2218C50.7681 26.6879 49.5424 25.8765 48.5225 24.8401C47.5026 23.8037 46.711 22.5651 46.1988 21.2041C45.6867 19.8432 45.4653 18.3901 45.5488 16.9383C45.5755 15.4859 45.8892 14.0531 46.472 12.7225C47.0548 11.3919 47.8951 10.1897 48.9444 9.18516C49.9938 8.18066 51.2316 7.3937 52.5864 6.86961C53.9412 6.34552 55.3863 6.09465 56.8385 6.13147C60.814 6.13147 62.4971 7.48252 63.3105 7.48252Z" fill="white"/>
</g>
<path d="M73.9955 8.24241L71.7382 7.62303V7.22387H79.5149C80.4233 7.22387 81.2721 7.29728 82.0612 7.4441C82.8504 7.59091 83.5799 7.8249 84.2497 8.14606C84.9196 8.46722 85.4885 8.86179 85.9565 9.32977C86.4336 9.79775 86.8053 10.3713 87.0714 11.0503C87.3375 11.7201 87.4705 12.468 87.4705 13.2938C87.4705 14.2298 87.287 15.0923 86.92 15.8815C86.5529 16.6614 86.062 17.3083 85.4472 17.8222C84.8324 18.336 84.1259 18.7398 83.3275 19.0334C82.5292 19.3179 81.6942 19.4601 80.8225 19.4601C80.0333 19.4601 79.2029 19.3225 78.3312 19.0472V18.648H79.7764C81.3547 18.6297 82.5613 18.1755 83.3964 17.2854C84.2314 16.3861 84.6489 15.0923 84.6489 13.4039C84.6489 11.7431 84.2176 10.4676 83.3551 9.57752C82.5017 8.68745 81.2721 8.24241 79.6663 8.24241H76.652V25.3511L79.1846 25.9705V26.3697H71.7382V25.9705L73.9955 25.3511V8.24241ZM98.0562 15.7438H96.8449C96.6614 14.5234 96.4091 13.6792 96.0879 13.2112C95.8769 13.2571 95.6612 13.3259 95.441 13.4177C95.23 13.5095 95.0327 13.6058 94.8491 13.7067C94.6748 13.8077 94.4959 13.9224 94.3124 14.0508C94.1288 14.1793 93.9682 14.3032 93.8306 14.4225C93.7021 14.5326 93.5691 14.6473 93.4315 14.7666C93.303 14.8859 93.2021 14.9868 93.1286 15.0694C93.0552 15.1428 92.9818 15.2162 92.9084 15.2896L92.8121 15.3997V25.3511L95.1795 25.9705V26.3697H88.3112V25.9705L90.3345 25.3511V13.7756L88.2837 13.4315V13.0048L92.5368 11.8486H92.702V14.5326H92.8121C93.3443 13.6792 94.005 13.0185 94.7941 12.5506C95.5832 12.0826 96.4641 11.8486 97.4368 11.8486C97.8864 11.8486 98.2993 11.8853 98.6756 11.9587C98.6756 12.6469 98.6205 13.3076 98.5104 13.9407C98.4094 14.5647 98.3085 15.0189 98.2076 15.3034L98.0562 15.7438ZM110.101 23.1626L110.431 23.4654C110.156 23.9242 109.867 24.328 109.564 24.6767C109.27 25.0254 108.917 25.3557 108.504 25.6677C108.091 25.9797 107.61 26.2183 107.059 26.3834C106.508 26.5578 105.907 26.6449 105.256 26.6449C103.301 26.6449 101.769 26.0072 100.659 24.7317C99.5484 23.4471 98.9932 21.5889 98.9932 19.1573C98.9932 17.0009 99.5805 15.2437 100.755 13.8857C101.93 12.5276 103.389 11.8486 105.132 11.8486C106.885 11.8486 108.22 12.4083 109.137 13.5278C110.064 14.6473 110.527 16.1384 110.527 18.0011V19.0747L101.443 18.9784V19.2674C101.443 21.2953 101.819 22.7864 102.572 23.7407C103.333 24.6859 104.338 25.1584 105.586 25.1584C106.293 25.1584 106.944 25.0529 107.541 24.8419C108.137 24.6308 108.601 24.406 108.931 24.1674C109.27 23.9197 109.66 23.5847 110.101 23.1626ZM107.293 13.9545C106.752 13.0828 105.995 12.6469 105.022 12.6469C104.049 12.6469 103.242 13.1286 102.599 14.0921C101.957 15.0556 101.581 16.4412 101.471 18.2489L108.119 18.0011V17.4643C108.119 15.987 107.844 14.817 107.293 13.9545ZM115.663 11.8486H115.828V13.9958H115.938C116.488 13.3718 117.158 12.858 117.947 12.4542C118.746 12.0505 119.572 11.8486 120.425 11.8486C121.242 11.8486 121.98 12.0551 122.641 12.468C123.302 12.8809 123.793 13.4911 124.114 14.2986H124.141C124.683 13.6654 125.38 13.1011 126.233 12.6056C127.087 12.1009 128.009 11.8486 129 11.8486C130.184 11.8486 131.156 12.2432 131.918 13.0323C132.689 13.8214 133.074 15.0143 133.074 16.611V25.3511L135.111 25.9705V26.3697H128.711V25.9705L130.624 25.3511V16.3357C130.624 14.3445 129.752 13.3489 128.009 13.3489C126.77 13.3489 125.531 13.8765 124.293 14.9317C124.439 15.4456 124.513 16.0053 124.513 16.611V25.3511L126.261 25.9705V26.3697H120.425V25.9705L122.063 25.3511V16.3357C122.063 15.3171 121.829 14.5647 121.361 14.0784C120.902 13.592 120.26 13.3489 119.434 13.3489C118.856 13.3489 118.25 13.4773 117.617 13.7343C116.993 13.982 116.433 14.3215 115.938 14.7528V25.3511L117.837 25.9705V26.3697H111.437V25.9705L113.46 25.3511V13.7756L111.409 13.4315V13.0048L115.663 11.8486ZM137.7 8.65533C137.388 8.34335 137.232 7.97172 137.232 7.54045C137.232 7.10917 137.388 6.73754 137.7 6.42556C138.012 6.11357 138.384 5.95758 138.815 5.95758C139.246 5.95758 139.618 6.11357 139.93 6.42556C140.242 6.73754 140.398 7.10917 140.398 7.54045C140.398 7.97172 140.242 8.34335 139.93 8.65533C139.618 8.96732 139.246 9.12331 138.815 9.12331C138.384 9.12331 138.012 8.96732 137.7 8.65533ZM140.164 11.8486V25.3511L142.201 25.9705V26.3697H135.663V25.9705L137.686 25.3511V13.7756L135.635 13.4315V13.0048L139.999 11.8486H140.164ZM146.964 11.8486V23.782C147.139 24.1399 147.446 24.461 147.886 24.7455C148.327 25.0208 148.91 25.1584 149.634 25.1584C150.864 25.1584 152.029 24.6904 153.131 23.7545V13.7756L150.997 13.4315V13.0048L155.25 11.8486H155.608V25.3511L157.645 25.9705V26.3697H153.64L153.365 24.4014H153.213C152.635 25.0713 151.951 25.6126 151.162 26.0256C150.373 26.4385 149.538 26.6449 148.657 26.6449C146.648 26.6449 145.267 25.709 144.514 23.8371V13.7756L142.56 13.4315V13.0048L146.813 11.8486H146.964ZM162.519 11.8486H162.684V13.9958H162.794C163.345 13.3718 164.014 12.858 164.804 12.4542C165.602 12.0505 166.428 11.8486 167.281 11.8486C168.098 11.8486 168.836 12.0551 169.497 12.468C170.158 12.8809 170.649 13.4911 170.97 14.2986H170.997C171.539 13.6654 172.236 13.1011 173.089 12.6056C173.943 12.1009 174.865 11.8486 175.856 11.8486C177.04 11.8486 178.012 12.2432 178.774 13.0323C179.545 13.8214 179.93 15.0143 179.93 16.611V25.3511L181.967 25.9705V26.3697H175.567V25.9705L177.48 25.3511V16.3357C177.48 14.3445 176.608 13.3489 174.865 13.3489C173.626 13.3489 172.388 13.8765 171.149 14.9317C171.296 15.4456 171.369 16.0053 171.369 16.611V25.3511L173.117 25.9705V26.3697H167.281V25.9705L168.919 25.3511V16.3357C168.919 15.3171 168.685 14.5647 168.217 14.0784C167.758 13.592 167.116 13.3489 166.29 13.3489C165.712 13.3489 165.106 13.4773 164.473 13.7343C163.849 13.982 163.289 14.3215 162.794 14.7528V25.3511L164.693 25.9705V26.3697H158.293V25.9705L160.316 25.3511V13.7756L158.266 13.4315V13.0048L162.519 11.8486Z" fill="#E4B016"/>
<path d="M188.026 1.66648C188.109 1.40825 188.475 1.40825 188.559 1.66648L189.96 5.9784C189.997 6.09389 190.105 6.17207 190.226 6.17207H194.76C195.032 6.17207 195.144 6.51952 194.925 6.67912L191.257 9.34403C191.159 9.4154 191.118 9.54191 191.155 9.6574L192.556 13.9693C192.64 14.2275 192.344 14.4423 192.125 14.2827L188.457 11.6178C188.359 11.5464 188.226 11.5464 188.127 11.6178L184.459 14.2827C184.24 14.4423 183.944 14.2275 184.028 13.9693L185.429 9.6574C185.467 9.54191 185.426 9.4154 185.327 9.34403L181.659 6.67912C181.44 6.51952 181.553 6.17207 181.824 6.17207H186.358C186.479 6.17207 186.587 6.09388 186.624 5.9784L188.026 1.66648Z" fill="#E4B016"/>
<defs>
<clipPath id="clip0_18_2351">
<rect width="66.0674" height="21.8072" fill="white" transform="translate(0 6.13147)"/>
</clipPath>
</defs>
</svg>
