<svg xmlns="http://www.w3.org/2000/svg" viewBox="0 0 423.271 55.313">
  <path id="" data-name="" d="M388.715,45.114V40.661c4.891-5.84,15.987-8.177,21.316-9.2V27.521c0-6.5-2.774-9.491-8.03-9.491a12.342,12.342,0,0,0-7.3,2.264c-1.241,2.7-1.314,7.154-1.314,7.154h-2.409a13.1,13.1,0,0,1-1.9-5.84,19.071,19.071,0,0,1,13.87-5.4c6.643,0,11.68,2.993,11.68,11.679,0,5.256-.219,7.3-.219,20.367,0,2.409,1.314,3.139,2.774,3.139,1.679,0,3.285-1.678,4.088-3.065l.877.657c-1.752,3.868-3.723,5.182-6.5,5.182-3.5,0-5.694-1.971-5.84-5.548-2.409,2.555-5.767,5.694-11.023,5.694C393.606,54.312,388.715,51.976,388.715,45.114Zm4.526-4.891v4.015c0,5.11,3.138,7.227,6.934,7.227a12.782,12.782,0,0,0,9.636-4.6c0-4.306.073-8.978.146-13.65C405.213,34.164,397.841,36.062,393.242,40.223Zm-80.519,14.09L297.83,19.053l-4.234-1.1V16.936H307.9v1.021l-4.892,1.1,11.68,28.835h.146l10.877-28.835-4.6-1.1V16.936h11.242v1.021l-4.307,1.1L314.328,54.312ZM264.1,34.894c0-11.242,6.935-18.688,15.622-18.688,9.2,0,13.724,6.5,13.724,15.7v2.774l-24.674-.146v.583c0,11.389,4.964,16.206,11.826,16.206,5.913,0,9.125-2.92,11.826-5.913l.8.657c-2.481,4.307-6.277,8.249-13.213,8.249C270.236,54.312,264.1,47.742,264.1,34.894Zm4.745-1.9,20.075-.584v-1.46c0-7.811-3.285-12.994-9.344-12.994C273.886,17.958,269.433,23.287,268.849,33ZM225.633,50.662V48.107a40.754,40.754,0,0,0-.876-7.591l1.387-.657a22.131,22.131,0,0,1,5.037,9.855,21.153,21.153,0,0,0,10.147,2.481c7.52,0,12.63-4.234,12.63-11.169,0-4.452-2.409-8.176-8.468-10.292l-9.271-3.285c-5.694-2.044-9.125-5.913-9.125-11.389,0-9.417,8.1-12.775,16.352-12.775,6.789,0,9.855,1.9,13.066,2.19V7.738a29.527,29.527,0,0,0,.877,6.934L256,15.184a19.488,19.488,0,0,1-4.819-8.322,17.9,17.9,0,0,0-7.811-1.679c-6.862,0-11.606,3.139-11.606,9.052,0,4.161,2.555,7.3,7.373,8.978l9.125,3.139c7.519,2.628,10.658,7.52,10.658,13.432,0,7.884-6.643,14.527-16.79,14.527A37.355,37.355,0,0,1,225.633,50.662Zm-36.177-8.6c0-6.93,4.275-11.52,9.63-11.52,5.67,0,8.46,4.005,8.46,9.675v1.71l-15.21-.09v.36c0,7.02,3.06,9.99,7.29,9.99,3.645,0,5.625-1.8,7.29-3.645l.495.405c-1.53,2.655-3.87,5.085-8.145,5.085C193.235,54.032,189.455,49.982,189.455,42.062Zm2.925-1.17,12.375-.36v-.9c0-4.815-2.025-8.01-5.76-8.01C195.485,31.622,192.74,34.907,192.38,40.892Zm-27.45,1.845c0-7.2,4.23-12.195,10.26-12.195a13.2,13.2,0,0,1,5.9,1.26v-9.27l-3.285-.36v-.63l5.94-.99h.27v31.68l3.24.63v.72h-5.67l-.315-3.06h-.18a9.24,9.24,0,0,1-6.975,3.51C168.08,54.032,164.93,49.937,164.93,42.737Zm3.1-.18c0,7.02,2.7,9.63,7.2,9.63a8.337,8.337,0,0,0,5.85-2.79V34.007a7.913,7.913,0,0,0-5.625-2.3C170.375,31.712,168.035,36.032,168.035,42.557ZM369.224,53.582v-.95l5.256-1.168V3.212l-5.329-.584V1.606L378.788,0h.437V51.465l5.256,1.168v.95Zm-18.177,0v-.95l5.256-1.168V3.212l-5.329-.584V1.606L360.61,0h.438V51.465l5.256,1.168v.95Zm-18.176,0v-.95l5.256-1.168V20.221l-5.329-.657V18.542l9.563-2.117h.438v35.04l5.256,1.168v.95ZM103.032,28.354A24.946,24.946,0,0,1,128.323,3.583c8.911,0,12.676,3.1,14.5,3.1,1.3,0,2.016-1.418,2.6-3.1h1.3L149,17.837h-1.3c-4.161-4.9-10.21-10.64-18.791-10.64-9.952,0-17.556,7.352-17.556,19.032,0,12.648,8.13,22.188,20.548,22.188a30.611,30.611,0,0,0,16.186-4.965L148.806,45c-3.056,3.1-9.621,8.582-21.524,8.582C114.089,53.582,103.032,44.418,103.032,28.354ZM56.257,53.582V52.255c2.831-.926,4.243-2.246,4.243-5.557V10.468c0-3.311-1.411-4.631-4.243-5.558V3.583H78.129c9.193,0,17.3,4.771,17.3,13.64a12.218,12.218,0,0,1-4.952,10.066,11.426,11.426,0,0,1,7.718,11.263c0,11.589-9.646,15.032-19.871,15.032Zm11.96-3.7a49.038,49.038,0,0,0,8.362.656c6.952,0,13.574-2.181,13.574-11.254,0-5.033-2.637-8.214-4.435-9.336a24.165,24.165,0,0,1-8.17,1.516,18.283,18.283,0,0,1-9.33-2.443Zm0-42.721V25.632a17.533,17.533,0,0,0,9.33,2.786c4.372,0,9.839-1.459,9.839-10.13,0-7.82-4.629-11.655-11.831-11.655A50.286,50.286,0,0,0,68.217,7.157ZM40.757,53.582,35.83,41.132h-23L7.773,53.582H0V52.255a6.406,6.406,0,0,0,5.378-4.369L22.032,7.157A6.616,6.616,0,0,0,18.79,4.91V3.583H29.548L47.17,47.82c.847,2.189,2.136,4.107,5.25,4.435v1.327ZM14.451,37.157H34.274l-9.718-24.7ZM336.885,5.11a3.212,3.212,0,1,1,6.424,0,3.212,3.212,0,1,1-6.424,0Z" transform="translate(0.5 0.5)" fill="#191919" stroke="rgba(0,0,0,0)" stroke-miterlimit="10" stroke-width="1"/>
</svg>
